<svg width="50" height="48" viewBox="0 0 50 48" fill="none" xmlns="http://www.w3.org/2000/svg">
<path d="M2 46.0001H48" stroke="white" stroke-width="2.66667" stroke-linecap="round" stroke-linejoin="round"/>
<path d="M8.77783 46.0001V38.3787H15.2119V46.0001" stroke="white" stroke-width="2.66667" stroke-linecap="round" stroke-linejoin="round"/>
<path d="M21.8281 46.0001V30.4144H28.2692V46.0001" stroke="white" stroke-width="2.66667" stroke-linecap="round" stroke-linejoin="round"/>
<path d="M34.7876 46.0001V22.8001H41.2217V46.0001" stroke="white" stroke-width="2.66667" stroke-linecap="round" stroke-linejoin="round"/>
<path d="M29.0484 17.7499H20.9795" stroke="white" stroke-width="2.66667" stroke-linecap="round" stroke-linejoin="round"/>
<path d="M16.5455 19.9144L7.07324 29.5572" stroke="white" stroke-width="2.66667" stroke-linecap="round" stroke-linejoin="round"/>
<path d="M42.7871 6.29297L33.2026 16.0501" stroke="white" stroke-width="2.66667" stroke-linecap="round" stroke-linejoin="round"/>
<path d="M44.5904 6.98571C45.9428 6.98571 47.0391 5.86962 47.0391 4.49286C47.0391 3.11609 45.9428 2 44.5904 2C43.2379 2 42.1416 3.11609 42.1416 4.49286C42.1416 5.86962 43.2379 6.98571 44.5904 6.98571Z" stroke="white" stroke-width="2.66667" stroke-linecap="round" stroke-linejoin="round"/>
<path d="M31.4907 20.2429C32.8431 20.2429 33.9395 19.1268 33.9395 17.75C33.9395 16.3732 32.8431 15.2571 31.4907 15.2571C30.1383 15.2571 29.042 16.3732 29.042 17.75C29.042 19.1268 30.1383 20.2429 31.4907 20.2429Z" stroke="white" stroke-width="2.66667" stroke-linecap="round" stroke-linejoin="round"/>
<path d="M17.7525 20.2429C19.1049 20.2429 20.2012 19.1268 20.2012 17.75C20.2012 16.3732 19.1049 15.2571 17.7525 15.2571C16.4001 15.2571 15.3037 16.3732 15.3037 17.75C15.3037 19.1268 16.4001 20.2429 17.7525 20.2429Z" stroke="white" stroke-width="2.66667" stroke-linecap="round" stroke-linejoin="round"/>
<path d="M5.41018 33.7501C6.76258 33.7501 7.85892 32.634 7.85892 31.2572C7.85892 29.8804 6.76258 28.7643 5.41018 28.7643C4.05777 28.7643 2.96143 29.8804 2.96143 31.2572C2.96143 32.634 4.05777 33.7501 5.41018 33.7501Z" stroke="white" stroke-width="2.66667" stroke-linecap="round" stroke-linejoin="round"/>
</svg>
