<svg width="47" height="47" viewBox="0 0 47 47" fill="none" xmlns="http://www.w3.org/2000/svg">
<path d="M15.1079 28.6011C15.1079 28.6011 16.4155 24.5508 22.3091 22.4065C28.2027 20.2561 35.5943 18.35 37.4606 13.9209C39.333 9.49173 38.584 1.91638 38.584 1.91638L33.2491 6.52879" stroke="white" stroke-width="3" stroke-linecap="round" stroke-linejoin="round"/>
<path d="M43.612 6.74872L38.584 1.91638" stroke="white" stroke-width="3" stroke-linecap="round" stroke-linejoin="round"/>
<path d="M1.9209 1.91638L14.3036 14.2385" stroke="white" stroke-width="3" stroke-linecap="round" stroke-linejoin="round"/>
<path d="M1.9209 14.2385L14.3036 1.91638" stroke="white" stroke-width="3" stroke-linecap="round" stroke-linejoin="round"/>
<path d="M32.7026 32.7676L45.0792 45.0836" stroke="white" stroke-width="3" stroke-linecap="round" stroke-linejoin="round"/>
<path d="M32.7026 45.0836L45.0792 32.7676" stroke="white" stroke-width="3" stroke-linecap="round" stroke-linejoin="round"/>
<path d="M9.98758 45.0836C13.4053 45.0836 16.1759 42.3266 16.1759 38.9256C16.1759 35.5246 13.4053 32.7676 9.98758 32.7676C6.5699 32.7676 3.79932 35.5246 3.79932 38.9256C3.79932 42.3266 6.5699 45.0836 9.98758 45.0836Z" stroke="white" stroke-width="3" stroke-linecap="round" stroke-linejoin="round"/>
</svg>
