<svg width="56" height="56" viewBox="0 0 56 56" fill="none" xmlns="http://www.w3.org/2000/svg">
<path d="M34.2447 22.5035C34.0616 19.208 31.3393 16.597 27.996 16.597C24.6527 16.597 21.9383 19.216 21.7552 22.5035H21.7393V26.5632H21.7472C21.9303 29.8587 24.6527 32.4697 27.996 32.4697C31.3393 32.4697 34.0537 29.8508 34.2368 26.5632H34.2527V22.5035H34.2447Z" stroke="white" stroke-width="3" stroke-linecap="round" stroke-linejoin="round"/>
<path d="M36.3781 39.403C35.6299 35.4547 32.1672 32.4697 28.004 32.4697C23.8408 32.4697 20.3702 35.4547 19.6299 39.403H36.3781Z" stroke="white" stroke-width="3" stroke-linecap="round" stroke-linejoin="round"/>
<path d="M28.0037 50.3323C40.3353 50.3323 50.332 40.3356 50.332 28.004C50.332 15.6723 40.3353 5.6756 28.0037 5.6756C15.672 5.6756 5.67529 15.6723 5.67529 28.004C5.67529 40.3356 15.672 50.3323 28.0037 50.3323Z" stroke="white" stroke-width="3" stroke-linecap="round" stroke-linejoin="round"/>
<path d="M28.0039 1.19403V10.1572" stroke="white" stroke-width="3" stroke-linecap="round" stroke-linejoin="round"/>
<path d="M28.0039 45.8428V54.806" stroke="white" stroke-width="3" stroke-linecap="round" stroke-linejoin="round"/>
<path d="M1.19385 28.004H10.157" stroke="white" stroke-width="3" stroke-linecap="round" stroke-linejoin="round"/>
<path d="M45.8428 28.004H54.806" stroke="white" stroke-width="3" stroke-linecap="round" stroke-linejoin="round"/>
</svg>
