<svg width="59" height="42" viewBox="0 0 59 42" fill="none" xmlns="http://www.w3.org/2000/svg">
<path d="M13.2425 24.9643C19.5335 24.9643 24.6334 19.7942 24.6334 13.4165C24.6334 7.03888 19.5335 1.86877 13.2425 1.86877C6.95145 1.86877 1.85156 7.03888 1.85156 13.4165C1.85156 19.7942 6.95145 24.9643 13.2425 24.9643Z" stroke="white" stroke-width="3" stroke-linecap="round" stroke-linejoin="round"/>
<path d="M13.2427 24.9643V40.1312" stroke="white" stroke-width="3" stroke-linecap="round" stroke-linejoin="round"/>
<path d="M20.7231 32.5477H5.76221" stroke="white" stroke-width="3" stroke-linecap="round" stroke-linejoin="round"/>
<path d="M45.7581 40.1369C52.0491 40.1369 57.149 34.9668 57.149 28.5891C57.149 22.2115 52.0491 17.0414 45.7581 17.0414C39.4671 17.0414 34.3672 22.2115 34.3672 28.5891C34.3672 34.9668 39.4671 40.1369 45.7581 40.1369Z" stroke="white" stroke-width="3" stroke-linecap="round" stroke-linejoin="round"/>
<path d="M45.7583 17.0299V1.86304" stroke="white" stroke-width="3" stroke-linecap="round" stroke-linejoin="round"/>
<path d="M39.833 7.86994L45.7583 1.86304L51.6837 7.86994" stroke="white" stroke-width="3" stroke-linecap="round" stroke-linejoin="round"/>
</svg>
