<svg width="204" height="196" viewBox="0 0 204 196" fill="none" xmlns="http://www.w3.org/2000/svg">
<path d="M1.68872 193.9H202.311" stroke="#142152" stroke-width="2.66667" stroke-linecap="round" stroke-linejoin="round"/>
<path d="M31.2502 193.9V160.66H59.3117V193.9" fill="white"/>
<path d="M31.2502 193.9V160.66H59.3117V193.9" stroke="#142152" stroke-width="2.66667" stroke-linecap="round" stroke-linejoin="round"/>
<path d="M88.1675 193.9V125.926H116.26V193.9" fill="white"/>
<path d="M88.1675 193.9V125.926H116.26V193.9" stroke="#142152" stroke-width="2.66667" stroke-linecap="round" stroke-linejoin="round"/>
<path d="M144.689 193.9V92.7166H172.751V193.9" fill="white"/>
<path d="M144.689 193.9V92.7166H172.751V193.9" stroke="#142152" stroke-width="2.66667" stroke-linecap="round" stroke-linejoin="round"/>
<path d="M119.658 70.6913H84.4663" stroke="#142152" stroke-width="2.66667" stroke-linecap="round" stroke-linejoin="round"/>
<path d="M65.1258 80.1312L23.814 122.187" stroke="#142152" stroke-width="2.66667" stroke-linecap="round" stroke-linejoin="round"/>
<path d="M179.576 20.7231L137.775 63.2775" stroke="#142152" stroke-width="2.66667" stroke-linecap="round" stroke-linejoin="round"/>
<path d="M187.44 23.7445C193.339 23.7445 198.12 18.8768 198.12 12.8722C198.12 6.86767 193.339 2 187.44 2C181.542 2 176.76 6.86767 176.76 12.8722C176.76 18.8768 181.542 23.7445 187.44 23.7445Z" fill="white" stroke="#142152" stroke-width="2.66667" stroke-linecap="round" stroke-linejoin="round"/>
<path d="M130.307 81.5633C136.206 81.5633 140.987 76.6957 140.987 70.6911C140.987 64.6865 136.206 59.8188 130.307 59.8188C124.409 59.8188 119.627 64.6865 119.627 70.6911C119.627 76.6957 124.409 81.5633 130.307 81.5633Z" fill="white" stroke="#142152" stroke-width="2.66667" stroke-linecap="round" stroke-linejoin="round"/>
<path d="M70.3898 81.5633C76.2882 81.5633 81.0697 76.6957 81.0697 70.6911C81.0697 64.6865 76.2882 59.8188 70.3898 59.8188C64.4915 59.8188 59.71 64.6865 59.71 70.6911C59.71 76.6957 64.4915 81.5633 70.3898 81.5633Z" fill="white" stroke="#142152" stroke-width="2.66667" stroke-linecap="round" stroke-linejoin="round"/>
<path d="M16.5617 140.474C22.46 140.474 27.2416 135.606 27.2416 129.601C27.2416 123.597 22.46 118.729 16.5617 118.729C10.6634 118.729 5.88184 123.597 5.88184 129.601C5.88184 135.606 10.6634 140.474 16.5617 140.474Z" fill="white" stroke="#142152" stroke-width="2.66667" stroke-linecap="round" stroke-linejoin="round"/>
</svg>
