<svg width="82" height="142" viewBox="0 0 82 142" fill="none" xmlns="http://www.w3.org/2000/svg">
<path d="M11.28 107.67L5.51001 93.6998L4.63 91.2398L4.75 93.8998V107.68H0.0200195V80.2798H4.22L9.99002 94.2498L10.84 96.7498L10.76 94.0198V80.2798H15.46V107.68H11.28V107.67Z" fill="white"/>
<path d="M27.5299 84.9198V107.67H22.4899V84.9198H17.6799V80.2598H32.2699V84.9198H27.5299Z" fill="white"/>
<path d="M34.4199 107.67V80.27H47.1199V84.93H39.4599V91.55H45.9299V96.17H39.4599V103.02H47.1199V107.68H34.4199V107.67Z" fill="white"/>
<path d="M56.5899 107.94C52.4699 107.94 49.2 105.94 49.2 99.51V88.43C49.2 82 52.4699 80 56.5899 80C60.7899 80 63.83 82 63.9 88.66H58.7799C58.7399 85.66 58.2399 84.66 56.5899 84.66C55.2399 84.66 54.2799 85.28 54.2799 88.55V99.37C54.2799 102.64 55.28 103.3 56.55 103.3C58.05 103.3 58.7399 102.45 58.7799 99.26H63.9C63.79 105.44 61.0199 107.94 56.5899 107.94Z" fill="white"/>
<path d="M76.3001 107.67V96.2H71.6801V107.67H66.6401V80.27H71.6801V91.47H76.3001V80.27H81.3401V107.67H76.3001Z" fill="white"/>
<path d="M0 141.75V114.35H5.04001V137.09H12.93V141.75H0Z" fill="white"/>
<path d="M26.46 141.75L25.5399 137.32H20.0399L19.15 141.75H14.1899L20.5399 114.35H24.9999L31.4699 141.75H26.46ZM23.27 126.35L22.7299 123.35L22.2299 126.35C22.2299 126.35 20.8799 133.16 20.8399 133.16H24.6899L23.27 126.35Z" fill="white"/>
<path d="M40.27 141.75H32.6899V114.35H40.08C45.12 114.35 47.43 116.74 47.43 121.85V122.39C47.43 125.51 45.8899 127.08 44.5399 127.7C45.8899 128.2 47.7299 129.82 47.7299 133.43V133.97C47.74 139.59 44.62 141.75 40.27 141.75ZM39.6899 118.93H37.7299V125.51H39.77C41.85 125.51 42.39 124.24 42.39 122.24C42.39 120.04 41.6899 118.93 39.6899 118.93ZM39.92 130.05H37.7299V137.17H39.92C42.11 137.17 42.6899 135.86 42.6899 133.59C42.6899 131.32 42.16 130.05 39.92 130.05Z" fill="white"/>
<path d="M58.39 27.6401C56.67 27.6401 55.28 29.0302 55.28 30.7502C55.28 32.4702 56.67 33.8601 58.39 33.8601C60.11 33.8601 61.5 32.4702 61.5 30.7502C61.5 29.0402 60.11 27.6401 58.39 27.6401Z" fill="white"/>
<path d="M3.12001 33.8601C4.84001 33.8601 6.23001 32.4702 6.23001 30.7502C6.23001 29.0302 4.84001 27.6401 3.12001 27.6401C1.40001 27.6401 0.0100098 29.0302 0.0100098 30.7502C0.0100098 32.4702 1.41001 33.8601 3.12001 33.8601Z" fill="white"/>
<path d="M16.94 33.8598C18.66 33.8598 20.05 32.4698 20.05 30.7498C20.05 29.0298 18.66 27.6398 16.94 27.6398C16.26 27.6398 15.64 27.8598 15.13 28.2298L5.64001 18.7398C6.01001 18.2298 6.23001 17.6098 6.23001 16.9298C6.23001 15.2098 4.84001 13.8198 3.12001 13.8198C1.40001 13.8198 0.0100098 15.2098 0.0100098 16.9298C0.0100098 18.6498 1.40001 20.0398 3.12001 20.0398C3.80001 20.0398 4.42001 19.8198 4.93001 19.4498L14.42 28.9398C14.05 29.4499 13.83 30.0698 13.83 30.7498C13.83 31.4298 14.05 32.0498 14.42 32.5598L4.93001 42.0498C4.42001 41.6798 3.80001 41.4598 3.12001 41.4598C1.40001 41.4598 0.0100098 42.8498 0.0100098 44.5698C0.0100098 46.2898 1.40001 47.6798 3.12001 47.6798C4.84001 47.6798 6.23001 46.2898 6.23001 44.5698C6.23001 43.8898 6.01001 43.2698 5.64001 42.7598L15.13 33.2698C15.64 33.6398 16.26 33.8598 16.94 33.8598Z" fill="white"/>
<path d="M30.7599 55.2798C29.0399 55.2798 27.6499 56.6698 27.6499 58.3898C27.6499 60.1098 29.0399 61.4998 30.7599 61.4998C32.4799 61.4998 33.8699 60.1098 33.8699 58.3898C33.8699 56.6698 32.4699 55.2798 30.7599 55.2798Z" fill="white"/>
<path d="M14.91 46.91C15.46 47.39 16.16 47.68 16.94 47.68C18.66 47.68 20.05 46.2899 20.05 44.5699C20.05 42.8499 18.66 41.46 16.94 41.46C15.22 41.46 13.83 42.8499 13.83 44.5699C13.83 45.1399 14 45.67 14.27 46.13L4.69002 55.71C4.23002 55.44 3.70002 55.27 3.13002 55.27C1.41002 55.27 0.0200195 56.66 0.0200195 58.38C0.0200195 60.1 1.41002 61.49 3.13002 61.49C4.85002 61.49 6.24002 60.1 6.24002 58.38C6.24002 57.6 5.94003 56.8899 5.47003 56.3499L14.91 46.91Z" fill="white"/>
<path d="M44.5801 55.2802C44.0101 55.2802 43.4801 55.4502 43.0201 55.7202L33.4401 46.1402C33.7101 45.6802 33.8801 45.1502 33.8801 44.5802C33.8801 42.8602 32.4901 41.4702 30.7701 41.4702C29.0501 41.4702 27.6601 42.8602 27.6601 44.5802C27.6601 45.1502 27.8301 45.6802 28.1001 46.1402L18.5201 55.7202C18.0601 55.4502 17.5301 55.2802 16.9601 55.2802C15.2401 55.2802 13.8501 56.6702 13.8501 58.3902C13.8501 60.1102 15.2401 61.5002 16.9601 61.5002C18.6801 61.5002 20.0701 60.1102 20.0701 58.3902C20.0701 57.6102 19.7701 56.9002 19.3001 56.3602L28.7501 46.9102C29.3001 47.3902 30.0001 47.6802 30.7801 47.6802C31.5601 47.6802 32.2701 47.3802 32.8101 46.9102L42.2601 56.3602C41.7801 56.9102 41.4901 57.6102 41.4901 58.3902C41.4901 60.1102 42.8801 61.5002 44.6001 61.5002C46.3201 61.5002 47.7101 60.1102 47.7101 58.3902C47.6901 56.6702 46.2901 55.2802 44.5801 55.2802Z" fill="white"/>
<path d="M58.39 55.2802C57.82 55.2802 57.29 55.4502 56.83 55.7202L47.25 46.1402C47.52 45.6802 47.69 45.1502 47.69 44.5802C47.69 42.8602 46.3 41.4702 44.58 41.4702C42.86 41.4702 41.47 42.8602 41.47 44.5802C41.47 46.3002 42.86 47.6902 44.58 47.6902C45.36 47.6902 46.07 47.3902 46.61 46.9202L56.06 56.3702C55.58 56.9202 55.29 57.6202 55.29 58.4002C55.29 60.1202 56.68 61.5102 58.4 61.5102C60.12 61.5102 61.51 60.1202 61.51 58.4002C61.5 56.6702 60.11 55.2802 58.39 55.2802Z" fill="white"/>
<path d="M30.7599 6.22977C32.4799 6.22977 33.8699 4.83978 33.8699 3.11978C33.8699 1.39978 32.4799 0.00976562 30.7599 0.00976562C29.0399 0.00976562 27.6499 1.39978 27.6499 3.11978C27.6499 4.82978 29.0399 6.22977 30.7599 6.22977Z" fill="white"/>
<path d="M46.61 14.6C46.06 14.12 45.36 13.83 44.58 13.83C42.86 13.83 41.47 15.22 41.47 16.94C41.47 18.66 42.86 20.05 44.58 20.05C46.3 20.05 47.69 18.66 47.69 16.94C47.69 16.37 47.52 15.84 47.25 15.38L56.83 5.80002C57.29 6.07002 57.82 6.24002 58.39 6.24002C60.11 6.24002 61.5 4.85004 61.5 3.13004C61.5 1.41004 60.11 0.0200195 58.39 0.0200195C56.67 0.0200195 55.28 1.41004 55.28 3.13004C55.28 3.91004 55.58 4.62003 56.05 5.16003L46.61 14.6Z" fill="white"/>
<path d="M58.39 13.8301C56.67 13.8301 55.2799 15.2201 55.2799 16.9401C55.2799 17.6201 55.4999 18.2401 55.8699 18.7501L46.3799 28.2401C45.8699 27.8701 45.2499 27.6501 44.5699 27.6501C42.8499 27.6501 41.46 29.0401 41.46 30.7601C41.46 32.4801 42.8499 33.8701 44.5699 33.8701C45.2499 33.8701 45.8699 33.6501 46.3799 33.2801L55.8699 42.7701C55.4999 43.2801 55.2799 43.9001 55.2799 44.5801C55.2799 46.3001 56.67 47.6901 58.39 47.6901C60.11 47.6901 61.4999 46.3001 61.4999 44.5801C61.4999 42.8601 60.11 41.4701 58.39 41.4701C57.71 41.4701 57.09 41.6901 56.58 42.0601L47.0899 32.5701C47.4599 32.0601 47.68 31.4401 47.68 30.7601C47.68 30.0801 47.4599 29.4601 47.0899 28.9501L56.58 19.4601C56.59 19.4701 56.6 19.4801 56.61 19.4801C56.63 19.4901 56.6399 19.5101 56.6599 19.5201C56.6999 19.5501 56.7399 19.5601 56.7799 19.5901C57.2499 19.8801 57.8 20.0501 58.39 20.0501C60.11 20.0501 61.4999 18.6601 61.4999 16.9401C61.4999 16.5101 61.4099 16.1001 61.2599 15.7301C60.7899 14.6101 59.68 13.8301 58.39 13.8301Z" fill="white"/>
<path d="M16.94 6.22977C17.51 6.22977 18.0401 6.05976 18.5001 5.78976L28.0801 15.3698C27.8101 15.8298 27.6401 16.3598 27.6401 16.9298C27.6401 18.6498 29.0301 20.0398 30.7501 20.0398C32.4701 20.0398 33.8601 18.6498 33.8601 16.9298C33.8601 16.3598 33.6901 15.8298 33.4201 15.3698L43 5.78976C43.46 6.05976 43.99 6.22977 44.56 6.22977C46.28 6.22977 47.6701 4.83978 47.6701 3.11978C47.6701 1.39978 46.28 0.00976562 44.56 0.00976562C42.84 0.00976562 41.4501 1.39978 41.4501 3.11978C41.4501 3.89978 41.75 4.60978 42.22 5.14978L32.7701 14.5998C32.2201 14.1198 31.5201 13.8298 30.7401 13.8298C29.9601 13.8298 29.2501 14.1298 28.7101 14.5998L19.2601 5.14978C19.7401 4.59978 20.0301 3.89978 20.0301 3.11978C20.0301 1.39978 18.6401 0.00976562 16.9201 0.00976562C15.2001 0.00976562 13.8101 1.39978 13.8101 3.11978C13.8301 4.82978 15.22 6.22977 16.94 6.22977Z" fill="white"/>
<path d="M3.12 6.22998C3.69 6.22998 4.21999 6.05998 4.67999 5.78998L14.26 15.37C13.99 15.83 13.82 16.36 13.82 16.93C13.82 18.65 15.21 20.04 16.93 20.04C18.65 20.04 20.04 18.65 20.04 16.93C20.04 15.21 18.65 13.82 16.93 13.82C16.15 13.82 15.44 14.12 14.9 14.59L5.45 5.13998C5.93 4.58998 6.22 3.88999 6.22 3.10999C6.22 1.38999 4.83 0 3.11 0C1.39 0 0 1.38999 0 3.10999C0.01 4.82999 1.41 6.22998 3.12 6.22998Z" fill="white"/>
</svg>
