<svg width="157" height="62" viewBox="0 0 157 62" fill="none" xmlns="http://www.w3.org/2000/svg">
<path d="M86.53 27.67L80.76 13.7L79.88 11.24L80 13.9V27.68H75.27V0.280029H79.47L85.24 14.25L86.09 16.75L86.01 14.02V0.280029H90.71V27.68H86.53V27.67Z" fill="white"/>
<path d="M102.78 4.92001V27.67H97.7399V4.92001H92.9299V0.26001H107.52V4.92001H102.78Z" fill="white"/>
<path d="M109.67 27.67V0.27002H122.37V4.93002H114.71V11.55H121.18V16.17H114.71V23.02H122.37V27.68H109.67V27.67Z" fill="white"/>
<path d="M131.84 27.94C127.72 27.94 124.45 25.94 124.45 19.51V8.42999C124.45 1.99999 127.72 0 131.84 0C136.04 0 139.08 2 139.15 8.66H134.03C133.99 5.66 133.49 4.66 131.84 4.66C130.49 4.66 129.53 5.27999 129.53 8.54999V19.37C129.53 22.64 130.53 23.3 131.8 23.3C133.3 23.3 133.99 22.45 134.03 19.26H139.15C139.04 25.44 136.27 27.94 131.84 27.94Z" fill="white"/>
<path d="M151.55 27.67V16.2H146.93V27.67H141.89V0.27002H146.93V11.47H151.55V0.27002H156.59V27.67H151.55Z" fill="white"/>
<path d="M75.25 61.7501V34.3501H80.29V57.0901H88.18V61.7501H75.25Z" fill="white"/>
<path d="M101.71 61.7501L100.79 57.3201H95.2899L94.4 61.7501H89.4399L95.7899 34.3501H100.25L106.72 61.7501H101.71ZM98.52 46.3501L97.9799 43.3501L97.4799 46.3501C97.4799 46.3501 96.1299 53.1601 96.0899 53.1601H99.9399L98.52 46.3501Z" fill="white"/>
<path d="M115.52 61.7501H107.94V34.3501H115.33C120.37 34.3501 122.68 36.7401 122.68 41.8501V42.3901C122.68 45.5101 121.14 47.0801 119.79 47.7001C121.14 48.2001 122.98 49.8201 122.98 53.4301V53.9701C122.99 59.5901 119.87 61.7501 115.52 61.7501ZM114.94 38.9301H112.98V45.5101H115.02C117.1 45.5101 117.64 44.2401 117.64 42.2401C117.64 40.0401 116.94 38.9301 114.94 38.9301ZM115.17 50.0501H112.98V57.1701H115.17C117.36 57.1701 117.94 55.8601 117.94 53.5901C117.94 51.3201 117.41 50.0501 115.17 50.0501Z" fill="white"/>
<path d="M58.39 27.8899C56.67 27.8899 55.28 29.2799 55.28 30.9999C55.28 32.7199 56.67 34.1099 58.39 34.1099C60.11 34.1099 61.5 32.7199 61.5 30.9999C61.5 29.2899 60.11 27.8899 58.39 27.8899Z" fill="white"/>
<path d="M3.12001 34.1099C4.84001 34.1099 6.23001 32.7199 6.23001 30.9999C6.23001 29.2799 4.84001 27.8899 3.12001 27.8899C1.40001 27.8899 0.0100098 29.2799 0.0100098 30.9999C0.0100098 32.7199 1.41001 34.1099 3.12001 34.1099Z" fill="white"/>
<path d="M16.94 34.1101C18.66 34.1101 20.05 32.7201 20.05 31.0001C20.05 29.2801 18.66 27.8901 16.94 27.8901C16.26 27.8901 15.64 28.1101 15.13 28.4801L5.64001 18.9901C6.01001 18.4801 6.23001 17.8601 6.23001 17.1801C6.23001 15.4601 4.84001 14.0701 3.12001 14.0701C1.40001 14.0701 0.0100098 15.4601 0.0100098 17.1801C0.0100098 18.9001 1.40001 20.2901 3.12001 20.2901C3.80001 20.2901 4.42001 20.0701 4.93001 19.7001L14.42 29.1901C14.05 29.7001 13.83 30.3201 13.83 31.0001C13.83 31.6801 14.05 32.3001 14.42 32.8101L4.93001 42.3001C4.42001 41.9301 3.80001 41.7101 3.12001 41.7101C1.40001 41.7101 0.0100098 43.1001 0.0100098 44.8201C0.0100098 46.5401 1.40001 47.9301 3.12001 47.9301C4.84001 47.9301 6.23001 46.5401 6.23001 44.8201C6.23001 44.1401 6.01001 43.5201 5.64001 43.0101L15.13 33.5201C15.64 33.8901 16.26 34.1101 16.94 34.1101Z" fill="white"/>
<path d="M30.7599 55.53C29.0399 55.53 27.6499 56.92 27.6499 58.64C27.6499 60.36 29.0399 61.75 30.7599 61.75C32.4799 61.75 33.8699 60.36 33.8699 58.64C33.8699 56.92 32.4699 55.53 30.7599 55.53Z" fill="white"/>
<path d="M14.91 47.16C15.46 47.64 16.16 47.93 16.94 47.93C18.66 47.93 20.05 46.5399 20.05 44.8199C20.05 43.0999 18.66 41.71 16.94 41.71C15.22 41.71 13.83 43.0999 13.83 44.8199C13.83 45.3899 14 45.92 14.27 46.38L4.69002 55.96C4.23002 55.69 3.70002 55.52 3.13002 55.52C1.41002 55.52 0.0200195 56.91 0.0200195 58.63C0.0200195 60.35 1.41002 61.74 3.13002 61.74C4.85002 61.74 6.24002 60.35 6.24002 58.63C6.24002 57.85 5.94003 57.1399 5.47003 56.5999L14.91 47.16Z" fill="white"/>
<path d="M44.5801 55.53C44.0101 55.53 43.4801 55.7 43.0201 55.97L33.4401 46.39C33.7101 45.93 33.8801 45.4 33.8801 44.83C33.8801 43.11 32.4901 41.72 30.7701 41.72C29.0501 41.72 27.6601 43.11 27.6601 44.83C27.6601 45.4 27.8301 45.93 28.1001 46.39L18.5201 55.97C18.0601 55.7 17.5301 55.53 16.9601 55.53C15.2401 55.53 13.8501 56.92 13.8501 58.64C13.8501 60.36 15.2401 61.75 16.9601 61.75C18.6801 61.75 20.0701 60.36 20.0701 58.64C20.0701 57.86 19.7701 57.15 19.3001 56.61L28.7501 47.16C29.3001 47.64 30.0001 47.93 30.7801 47.93C31.5601 47.93 32.2701 47.63 32.8101 47.16L42.2601 56.61C41.7801 57.16 41.4901 57.86 41.4901 58.64C41.4901 60.36 42.8801 61.75 44.6001 61.75C46.3201 61.75 47.7101 60.36 47.7101 58.64C47.6901 56.92 46.2901 55.53 44.5801 55.53Z" fill="white"/>
<path d="M58.39 55.53C57.82 55.53 57.29 55.7 56.83 55.97L47.25 46.39C47.52 45.93 47.69 45.4 47.69 44.83C47.69 43.11 46.3 41.72 44.58 41.72C42.86 41.72 41.47 43.11 41.47 44.83C41.47 46.55 42.86 47.94 44.58 47.94C45.36 47.94 46.07 47.64 46.61 47.17L56.06 56.62C55.58 57.17 55.29 57.87 55.29 58.65C55.29 60.37 56.68 61.7599 58.4 61.7599C60.12 61.7599 61.51 60.37 61.51 58.65C61.5 56.92 60.11 55.53 58.39 55.53Z" fill="white"/>
<path d="M30.7599 6.48001C32.4799 6.48001 33.8699 5.09003 33.8699 3.37003C33.8699 1.65003 32.4799 0.26001 30.7599 0.26001C29.0399 0.26001 27.6499 1.65003 27.6499 3.37003C27.6499 5.08003 29.0399 6.48001 30.7599 6.48001Z" fill="white"/>
<path d="M46.61 14.85C46.06 14.37 45.36 14.08 44.58 14.08C42.86 14.08 41.47 15.47 41.47 17.19C41.47 18.91 42.86 20.3 44.58 20.3C46.3 20.3 47.69 18.91 47.69 17.19C47.69 16.62 47.52 16.09 47.25 15.63L56.83 6.05002C57.29 6.32002 57.82 6.49002 58.39 6.49002C60.11 6.49002 61.5 5.10004 61.5 3.38004C61.5 1.66004 60.11 0.27002 58.39 0.27002C56.67 0.27002 55.28 1.66004 55.28 3.38004C55.28 4.16004 55.58 4.87003 56.05 5.41003L46.61 14.85Z" fill="white"/>
<path d="M58.39 14.0801C56.67 14.0801 55.2799 15.4701 55.2799 17.1901C55.2799 17.8701 55.4999 18.4901 55.8699 19.0001L46.3799 28.4901C45.8699 28.1201 45.2499 27.9001 44.5699 27.9001C42.8499 27.9001 41.46 29.2901 41.46 31.0101C41.46 32.7301 42.8499 34.1201 44.5699 34.1201C45.2499 34.1201 45.8699 33.9001 46.3799 33.5301L55.8699 43.0201C55.4999 43.5301 55.2799 44.1501 55.2799 44.8301C55.2799 46.5501 56.67 47.9401 58.39 47.9401C60.11 47.9401 61.4999 46.5501 61.4999 44.8301C61.4999 43.1101 60.11 41.7201 58.39 41.7201C57.71 41.7201 57.09 41.9401 56.58 42.3101L47.0899 32.8201C47.4599 32.3101 47.68 31.6901 47.68 31.0101C47.68 30.3301 47.4599 29.7101 47.0899 29.2001L56.58 19.7101C56.59 19.7201 56.6 19.7301 56.61 19.7301C56.63 19.7401 56.6399 19.7601 56.6599 19.7701C56.6999 19.8001 56.7399 19.8101 56.7799 19.8401C57.2499 20.1301 57.8 20.3001 58.39 20.3001C60.11 20.3001 61.4999 18.9101 61.4999 17.1901C61.4999 16.7601 61.4099 16.3501 61.2599 15.9801C60.7899 14.8601 59.68 14.0801 58.39 14.0801Z" fill="white"/>
<path d="M16.94 6.48001C17.51 6.48001 18.0401 6.31001 18.5001 6.04001L28.0801 15.62C27.8101 16.08 27.6401 16.61 27.6401 17.18C27.6401 18.9 29.0301 20.29 30.7501 20.29C32.4701 20.29 33.8601 18.9 33.8601 17.18C33.8601 16.61 33.6901 16.08 33.4201 15.62L43 6.04001C43.46 6.31001 43.99 6.48001 44.56 6.48001C46.28 6.48001 47.6701 5.09003 47.6701 3.37003C47.6701 1.65003 46.28 0.26001 44.56 0.26001C42.84 0.26001 41.4501 1.65003 41.4501 3.37003C41.4501 4.15003 41.75 4.86002 42.22 5.40002L32.7701 14.85C32.2201 14.37 31.5201 14.08 30.7401 14.08C29.9601 14.08 29.2501 14.38 28.7101 14.85L19.2601 5.40002C19.7401 4.85002 20.0301 4.15003 20.0301 3.37003C20.0301 1.65003 18.6401 0.26001 16.9201 0.26001C15.2001 0.26001 13.8101 1.65003 13.8101 3.37003C13.8301 5.08003 15.22 6.48001 16.94 6.48001Z" fill="white"/>
<path d="M3.12 6.47998C3.69 6.47998 4.21999 6.30998 4.67999 6.03998L14.26 15.62C13.99 16.08 13.82 16.61 13.82 17.18C13.82 18.9 15.21 20.29 16.93 20.29C18.65 20.29 20.04 18.9 20.04 17.18C20.04 15.46 18.65 14.07 16.93 14.07C16.15 14.07 15.44 14.37 14.9 14.84L5.45 5.38998C5.93 4.83998 6.22 4.13999 6.22 3.35999C6.22 1.63999 4.83 0.25 3.11 0.25C1.39 0.25 0 1.63999 0 3.35999C0.01 5.07999 1.41 6.47998 3.12 6.47998Z" fill="white"/>
</svg>
