<svg width="182" height="49" viewBox="0 0 182 49" fill="none" xmlns="http://www.w3.org/2000/svg">
<g clip-path="url(#clip0_620_2766)">
<path fill-rule="evenodd" clip-rule="evenodd" d="M53.59 48.32C59.3 48.32 63.47 43.27 63.47 37.56V0H53.59V35.8C53.59 36.68 52.71 37.56 51.83 37.56C51.83 37.56 51.17 37.56 51.17 36.68L20.65 4.17C18.01 1.76 14.72 0 11.42 0H10.76C4.83 0 0 5.05 0 10.76V48.32H10.76V11.64C10.76 11.64 10.76 10.76 11.42 10.76H13.18L43.71 44.14C45.25 46.56 48.54 47.43 51.84 48.31H53.6L53.59 48.32Z" fill="#142152"/>
<path fill-rule="evenodd" clip-rule="evenodd" d="M99.0496 29.21H130.24C132 29.21 133.53 30.75 133.53 33.38C133.53 35.8 131.99 37.55 130.24 37.55H82.3596C80.8196 37.55 79.9396 36.67 79.9396 34.91V0H70.0596V34.04C70.0596 41.73 75.7696 48.32 83.2396 48.32H131.12C138.59 48.32 144.3 41.73 144.3 34.04V32.5C144.3 25.03 137.71 19.1 131.12 19.1H100.59C97.2996 18.88 96.6396 16.9 96.4196 14.93V14.05C96.4196 12.51 98.1796 10.76 100.59 10.76H150.89V48.32H160.77V10.76H181.42V0H99.0596C91.5896 0 85.8796 6.59 85.8796 13.4V15.82C85.8796 23.29 91.5896 29.22 99.0596 29.22L99.0496 29.21Z" fill="#142152"/>
</g>
<defs>
<clipPath id="clip0_620_2766">
<rect width="181.42" height="48.32" fill="white"/>
</clipPath>
</defs>
</svg>
