<svg width="411" height="71" viewBox="0 0 411 71" fill="none" xmlns="http://www.w3.org/2000/svg">
<path d="M46.2538 59.9981H41.0869C40.5656 60.0261 40.0512 59.8679 39.6349 59.5517C39.2675 59.2479 38.9838 58.8547 38.8108 58.4095L34.1933 46.4493H11.9559L7.40375 58.4095C7.25659 58.8506 6.9837 59.2386 6.6189 59.5255C6.22216 59.8338 5.73411 60.0002 5.23234 59.9981H0L19.7521 10.5029H26.5018L46.2538 59.9981ZM32.3228 41.6179L24.5789 21.4391C24.3434 20.8352 24.0949 20.1263 23.8464 19.3385C23.5978 18.5508 23.3493 17.6975 23.1269 16.8047C22.7322 18.3879 22.2385 19.9445 21.6488 21.4654L13.8919 41.6048L32.3228 41.6179Z" fill="#142152"/>
<path d="M74.6783 31.1938C74.5223 31.4144 74.3375 31.6131 74.1289 31.7846C73.902 31.9265 73.6372 31.9952 73.3702 31.9815C72.9562 31.955 72.5596 31.804 72.2322 31.5482C71.7396 31.2053 71.2287 30.8898 70.7017 30.603C69.9874 30.2145 69.2386 29.8936 68.4649 29.6446C67.4059 29.3437 66.3082 29.2021 65.2078 29.2245C63.6429 29.1915 62.0896 29.5006 60.6557 30.1303C59.3629 30.7275 58.2323 31.6281 57.3593 32.7561C56.4325 34.0097 55.7573 35.4321 55.371 36.9441C54.8945 38.7379 54.6657 40.5888 54.6908 42.4451C54.6649 44.3523 54.9116 46.2534 55.4233 48.0904C55.8295 49.5968 56.5225 51.0101 57.4639 52.2522C58.3145 53.3653 59.4118 54.2643 60.6687 54.8779C61.997 55.4748 63.4386 55.775 64.8938 55.7576C66.1497 55.767 67.3977 55.5583 68.5826 55.1405C69.4271 54.844 70.2313 54.4427 70.9764 53.9458C71.6043 53.5126 72.1406 53.1056 72.5592 52.7511C72.9161 52.4189 73.3808 52.2277 73.8673 52.2128C74.0981 52.1981 74.3286 52.245 74.5354 52.3488C74.7422 52.4525 74.9179 52.6095 75.0446 52.8036L76.7189 55.1405C75.9694 56.0737 75.0881 56.892 74.1028 57.5693C73.1278 58.2394 72.0841 58.8028 70.9895 59.2498C69.858 59.6986 68.6831 60.0286 67.4839 60.2344C66.2555 60.4343 65.0133 60.5353 63.7689 60.5364C61.68 60.5598 59.6089 60.1485 57.6863 59.3286C55.8222 58.5357 54.156 57.3386 52.8071 55.8232C51.3649 54.17 50.2624 52.247 49.5631 50.1647C48.7479 47.6839 48.3544 45.0832 48.3989 42.4713C48.371 40.0171 48.7377 37.5745 49.4846 35.2374C50.1434 33.1342 51.2203 31.1869 52.6502 29.5133C54.0634 27.8926 55.8198 26.6097 57.791 25.7585C60.012 24.8374 62.3997 24.3903 64.8023 24.4456C67.0403 24.3982 69.2648 24.8046 71.3427 25.6403C73.2073 26.4281 74.9003 27.5743 76.3265 29.0144L74.6783 31.1938Z" fill="#142152"/>
<path d="M94.0125 60.5627C92.8481 60.6401 91.6804 60.4734 90.5837 60.0733C89.487 59.6733 88.4852 59.0486 87.6421 58.2389C86.0554 56.396 85.2564 53.9997 85.4184 51.5695V30.1172H81.2325C80.8921 30.1334 80.5589 30.0156 80.3037 29.789C80.171 29.6557 80.0684 29.4952 80.0029 29.3185C79.9374 29.1418 79.9107 28.953 79.9244 28.765V26.2574L85.6407 25.5353L87.0535 14.7041C87.1078 14.3775 87.2744 14.0802 87.5244 13.8639C87.7828 13.634 88.1214 13.516 88.4662 13.5357H91.5663V25.601H101.665V30.0647H91.5663V51.2019C91.5174 51.7932 91.5872 52.3883 91.7714 52.9521C91.9556 53.5158 92.2506 54.0368 92.639 54.4841C93.0004 54.8445 93.4322 55.1262 93.9071 55.3114C94.382 55.4967 94.8899 55.5815 95.399 55.5606C95.968 55.5694 96.5342 55.4806 97.0734 55.2981C97.4936 55.1436 97.9005 54.9548 98.2899 54.7335C98.63 54.5235 98.9309 54.3265 99.1663 54.1559C99.3497 54.0072 99.5726 53.9159 99.8073 53.8933C99.9898 53.9085 100.165 53.9709 100.317 54.0745C100.468 54.178 100.59 54.3191 100.671 54.4841L102.463 57.4249C101.354 58.4536 100.051 59.2483 98.63 59.7618C97.1519 60.3072 95.5873 60.5786 94.0125 60.5627Z" fill="#142152"/>
<path d="M139.965 54.5366V59.9981H109.461V10.5029H139.887V15.9645H116.145V32.3622H135.374V37.6137H116.145V54.5366H139.965Z" fill="#142152"/>
<path d="M189.41 10.5029L169.279 59.9981H163.288L143.156 10.5029H148.506C149.023 10.477 149.533 10.635 149.945 10.9493C150.313 11.2558 150.6 11.6479 150.782 12.0915L164.7 47.0007C165.001 47.7884 165.289 48.6418 165.577 49.6264C165.865 50.6111 166.126 51.517 166.349 52.5279C166.584 51.517 166.819 50.5454 167.081 49.6264C167.311 48.7376 167.586 47.8611 167.905 47.0007L181.823 12.0258C181.987 11.5939 182.268 11.2165 182.634 10.9362C183.05 10.6296 183.558 10.4765 184.073 10.5029H189.41Z" fill="#142152"/>
<path d="M280.074 44.6376C278.93 46.5345 277.326 48.1097 275.412 49.2163C273.497 50.3228 271.335 50.9247 269.126 50.9657C261.63 50.9657 255.548 44.06 255.548 35.5526C255.548 27.0452 261.617 20.1001 269.126 20.1001C271.279 20.1385 273.389 20.7098 275.269 21.7633C277.15 22.8168 278.742 24.32 279.904 26.1393L286.445 18.0914C284.25 15.6463 281.557 13.7032 278.549 12.394C275.54 11.0847 272.286 10.4398 269.008 10.503C255.822 10.503 245.148 21.413 245.148 35.3688C245.148 49.3246 255.822 60.6284 269.008 60.6284C272.442 60.6092 275.829 59.8284 278.927 58.3417C282.025 56.8551 284.758 54.6994 286.929 52.0291L280.087 44.6376H280.074Z" fill="#142152"/>
<path d="M309.035 45.2808L297.21 11.5532H286.274L304.666 59.9193H306.824H310.853H313.012L331.416 11.5532H320.873L309.035 45.2808Z" fill="#142152"/>
<path d="M353.471 11.5532H334.124V59.9193H343.856V45.0314H353.471C357.756 45.0279 361.865 43.3168 364.895 40.274C367.924 37.2312 369.625 33.1057 369.625 28.8043V27.7803C369.627 25.6499 369.211 23.5401 368.399 21.5715C367.588 19.6028 366.399 17.8138 364.898 16.3068C363.398 14.7998 361.617 13.6043 359.656 12.7887C357.695 11.973 355.593 11.5532 353.471 11.5532ZM352.319 35.7757H343.856V20.809H352.319C354.297 20.809 356.193 21.5974 357.592 23.0008C358.99 24.4042 359.776 26.3076 359.776 28.2923C359.776 30.277 358.99 32.1804 357.592 33.5838C356.193 34.9872 354.297 35.7757 352.319 35.7757Z" fill="#142152"/>
<path d="M400.418 42.6683C403.218 41.4601 405.607 39.4598 407.293 36.9116C408.98 34.3634 409.891 31.3776 409.915 28.3186V27.3208C409.884 25.2191 409.441 23.144 408.611 21.2141C407.781 19.2842 406.581 17.5373 405.078 16.0731C403.576 14.6089 401.8 13.4561 399.854 12.6806C397.907 11.9051 395.828 11.522 393.734 11.5533H372.059V59.9194H381.791V44.0731H390.241L399.855 59.9194H411L400.418 42.6683ZM392.569 35.0799H381.752V20.5464H392.569C393.546 20.5048 394.521 20.6619 395.436 21.0083C396.35 21.3547 397.186 21.8832 397.891 22.5621C398.597 23.241 399.159 24.0562 399.542 24.9586C399.926 25.861 400.124 26.832 400.124 27.8132C400.124 28.7943 399.926 29.7653 399.542 30.6678C399.159 31.5702 398.597 32.3854 397.891 33.0643C397.186 33.7432 396.35 34.2717 395.436 34.6181C394.521 34.9645 393.546 35.1216 392.569 35.0799Z" fill="#142152"/>
<path d="M216.671 0V71" stroke="#142152" stroke-width="2" stroke-miterlimit="10"/>
</svg>
