<svg width="238" height="116" viewBox="0 0 238 116" fill="none" xmlns="http://www.w3.org/2000/svg">
<path d="M120.84 37.8859V20.7761H27.5009V17.1097H94.6684V0H26.1718V6.72169H87.921V10.3881H20.7534V27.4978H114.093V31.1642H0V48.2739H93.3393V55.5048H84.445C82.8093 52.6532 79.2311 50.82 75.244 50.82C71.2569 50.82 67.6787 52.6532 66.0429 55.5048H23.9227V75.7717H91.4991V79.3363H23.9227V94.4091H24.4338L60.9313 115.389L61.1357 115.796H61.3402H61.5447L61.7491 115.491L88.2277 100.316L84.8539 94.511L61.3402 108.056L30.5679 90.3354V86.1598H98.1443V69.1519H30.6701V62.3284H65.8385C67.4742 65.2818 71.1546 67.3187 75.1417 67.3187C79.1289 67.3187 82.9115 65.3837 84.445 62.3284H99.9845V41.6541H6.74742V37.9877H120.84V37.8859Z" fill="#142152"/>
<path d="M155.089 67.8279C155.089 67.8279 154.578 69.8648 152.022 69.763C149.057 69.763 148.75 69.1519 148.546 68.5408C147.933 67.4205 147.524 65.3837 147.217 62.4302C147.217 62.2265 147.217 62.1247 147.217 61.921L145.581 52.9587L143.537 53.3661L144.457 58.4583C144.048 62.0228 143.23 67.6242 142.616 68.6427C142.31 69.1519 142.003 69.763 139.14 69.8648C136.687 69.8648 136.073 68.1335 136.073 68.0316L133.62 53.1624L131.575 53.468L134.029 68.439C134.336 69.6611 135.767 71.9017 138.936 71.9017C138.936 71.9017 139.038 71.9017 139.14 71.9017C142.616 71.9017 143.741 70.9851 144.457 69.5593C144.866 68.8464 145.172 67.115 145.479 65.18C145.786 67.115 146.195 68.5408 146.706 69.5593C147.421 70.9851 148.546 71.7998 152.022 71.9017C152.022 71.9017 152.124 71.9017 152.226 71.9017C155.498 71.9017 156.929 69.6611 157.236 68.3371L159.689 53.468L157.645 53.1624L155.191 68.0316L155.089 67.8279Z" fill="#142152"/>
<path d="M170.322 53.1624H168.277V70.7813H170.322V53.1624Z" fill="#142152"/>
<path d="M170.322 49.4961H168.277V51.533H170.322V49.4961Z" fill="#142152"/>
<path d="M192.302 65.3837C192.302 67.8279 190.359 69.7629 187.906 69.7629H185.043C182.59 69.7629 180.647 67.8279 180.647 65.3837V59.3749C180.647 56.9306 182.59 54.9956 185.043 54.9956H187.497C191.075 54.9956 193.938 52.144 193.938 48.5794V44.302H191.893V48.5794C191.893 51.0237 189.95 52.9587 187.497 52.9587H185.043C181.465 52.9587 178.603 55.8103 178.603 59.3749V65.3837C178.603 68.9482 181.465 71.7998 185.043 71.7998H187.906C191.484 71.7998 194.347 68.9482 194.347 65.3837V59.3749H192.302V65.3837Z" fill="#142152"/>
<path d="M233.196 52.8569C229.617 52.8569 226.755 55.7086 226.755 59.2731V70.7814H228.8V59.2731C228.8 56.8288 230.742 54.8938 233.196 54.8938H238.001V52.8569H233.196Z" fill="#142152"/>
<path d="M213.158 52.8569H208.046C204.979 52.8569 202.424 55.6067 202.424 58.9676H204.468C204.468 56.727 206.002 54.8938 207.944 54.8938H213.056C214.998 54.8938 216.532 56.727 216.532 58.9676V59.2731C216.532 60.8007 216.021 61.31 213.056 61.31H208.046C208.046 61.31 205.184 61.1063 203.65 62.3284C202.935 62.9395 202.424 63.7542 202.321 64.8745V65.5874C202.321 68.9482 204.775 71.698 207.944 71.698H217.554V69.6611H207.944C206.002 69.6611 204.468 67.828 204.468 65.5874V64.9763C204.468 64.9763 204.673 64.1616 204.979 63.9579C205.797 63.3468 207.331 63.3468 207.842 63.3468H213.056C214.896 63.3468 218.372 63.3468 218.576 59.6805V58.9676C218.576 55.6067 216.123 52.8569 213.056 52.8569H213.158Z" fill="#142152"/>
<path d="M6.33849 61.921C2.86254 61.921 0 64.7726 0 68.2353C0 71.698 2.86254 74.5496 6.33849 74.5496C9.81443 74.5496 12.677 71.698 12.677 68.2353C12.677 64.7726 9.81443 61.921 6.33849 61.921ZM6.33849 72.9201C3.68041 72.9201 1.63574 70.7814 1.63574 68.2353C1.63574 65.6892 3.78265 63.5505 6.33849 63.5505C8.89433 63.5505 11.0412 65.6892 11.0412 68.2353C11.0412 70.7814 8.89433 72.9201 6.33849 72.9201Z" fill="white"/>
</svg>
