<svg width="64" height="59" viewBox="0 0 64 59" fill="none" xmlns="http://www.w3.org/2000/svg">
<path d="M47 17.2375H17C12.8579 17.2375 9.5 20.5954 9.5 24.7375V49.7375C9.5 53.8796 12.8579 57.2375 17 57.2375H47C51.1421 57.2375 54.5 53.8796 54.5 49.7375V24.7375C54.5 20.5954 51.1421 17.2375 47 17.2375Z" stroke="white" stroke-width="3" stroke-linecap="round" stroke-linejoin="round"/>
<path d="M32.0125 12.2375H31.9875V17.2375H32.0125V12.2375Z" stroke="white" stroke-width="3" stroke-linecap="round" stroke-linejoin="round"/>
<path d="M22 35.9875C24.0711 35.9875 25.75 34.3086 25.75 32.2375C25.75 30.1664 24.0711 28.4875 22 28.4875C19.9289 28.4875 18.25 30.1664 18.25 32.2375C18.25 34.3086 19.9289 35.9875 22 35.9875Z" stroke="white" stroke-width="2" stroke-linecap="round" stroke-linejoin="round"/>
<path d="M42 35.9875C44.0711 35.9875 45.75 34.3086 45.75 32.2375C45.75 30.1664 44.0711 28.4875 42 28.4875C39.9289 28.4875 38.25 30.1664 38.25 32.2375C38.25 34.3086 39.9289 35.9875 42 35.9875Z" stroke="white" stroke-width="2" stroke-linecap="round" stroke-linejoin="round"/>
<path d="M32 12.2375C34.7614 12.2375 37 9.99891 37 7.23749C37 4.47606 34.7614 2.23749 32 2.23749C29.2386 2.23749 27 4.47606 27 7.23749C27 9.99891 29.2386 12.2375 32 12.2375Z" stroke="white" stroke-width="3" stroke-linecap="round" stroke-linejoin="round"/>
<path d="M54.5 28.4875C58.6375 28.4875 62 31.85 62 35.9875C62 40.125 58.6375 43.4875 54.5 43.4875V28.4875Z" stroke="white" stroke-width="3" stroke-linecap="round" stroke-linejoin="round"/>
<path d="M9.5 28.4875C5.3625 28.4875 2 31.85 2 35.9875C2 40.125 5.3625 43.4875 9.5 43.4875V28.4875Z" stroke="white" stroke-width="3" stroke-linecap="round" stroke-linejoin="round"/>
<path d="M32 48.5C28.425 48.5 24.9625 47.4625 21.9875 45.4875V45.4625C24.975 47.4375 28.425 48.475 32 48.475C35.575 48.475 39.025 47.4375 41.9875 45.4625V45.4875C39.025 47.4625 35.575 48.5 32 48.5Z" stroke="white" stroke-width="2" stroke-linecap="round" stroke-linejoin="round"/>
</svg>
