<svg width="124" height="177" viewBox="0 0 124 177" fill="none" xmlns="http://www.w3.org/2000/svg">
<path d="M124 141.607C124 140.101 122.843 138.594 120.522 137.439L70.3894 112.543C65.7539 110.244 58.2401 110.244 53.6106 112.543L3.47809 137.439C1.15737 138.594 0 140.101 0 141.607V146.026C0 147.532 1.15737 149.045 3.47809 150.194L53.6106 175.09C58.2461 177.389 65.7599 177.389 70.3894 175.09L120.522 150.194C122.837 149.045 124 147.532 124 146.026V141.607Z" fill="url(#paint0_linear_2101_489)"/>
<path d="M120.528 145.776L70.3954 170.672C65.76 172.97 58.2461 172.97 53.6166 170.672L3.47812 145.776C-1.15734 143.477 -1.15734 139.744 3.47812 137.445L53.6106 112.549C58.2461 110.25 65.76 110.25 70.3894 112.549L120.522 137.445C125.157 139.744 125.157 143.477 120.522 145.776H120.528Z" fill="url(#paint1_linear_2101_489)"/>
<path d="M120.528 136.933L70.3954 161.829C65.7599 164.128 58.2461 164.128 53.6166 161.829L3.47809 136.933C1.15737 135.784 0 134.271 0 132.765V137.183C0 138.69 1.15737 140.202 3.47809 141.351L53.6106 166.248C58.2461 168.546 65.7599 168.546 70.3894 166.248L120.522 141.351C122.837 140.202 124 138.69 124 137.183V132.765C124 134.271 122.843 135.784 120.522 136.933H120.528Z" fill="url(#paint2_linear_2101_489)"/>
<path opacity="0.5" d="M120.528 136.933L70.3955 161.829C65.7601 164.128 58.2462 164.128 53.6167 161.829L3.47824 136.933C-1.15722 134.634 -1.15722 130.901 3.47824 128.602L53.6108 103.706C58.2462 101.408 65.7601 101.408 70.3895 103.706L120.522 128.602C125.158 130.901 125.158 134.634 120.522 136.933H120.528Z" fill="url(#paint3_linear_2101_489)"/>
<path d="M63.6491 115.222L36.1062 130.943C35.9983 132.348 36.1182 133.735 36.7059 134.76C37.9412 136.927 41.899 138.445 41.899 138.445L58.8517 146.847L78.6589 129.871L80.278 130.8V128.942L66.5395 121.07C64.7705 120.058 63.4572 117.771 63.6491 115.222Z" fill="url(#paint4_linear_2101_489)"/>
<path d="M35.7044 113.186L7.8377 126.328C7.72976 127.733 7.8497 129.121 8.43738 130.145C9.6727 132.312 10.2724 133.229 10.2724 133.229L15.0817 140.994L49.7187 122.052L52.0095 126.179V124.321L38.271 116.449C36.502 115.437 35.5185 115.729 35.7044 113.18V113.186Z" fill="url(#paint5_linear_2101_489)"/>
<path d="M68.9322 115.996L41.3893 131.717C41.2814 133.122 41.4013 134.509 41.989 135.534C43.2243 137.701 47.1822 139.22 47.1822 139.22L58.8518 144.99L83.942 130.645L85.5611 131.574V129.716L71.8227 121.844C70.0536 120.832 68.7403 118.545 68.9322 115.996Z" fill="#CFDEFF"/>
<path d="M69.394 113.99C70.7912 110.476 74.923 99.1388 74.9649 99.0257L73.4418 98.4778C73.4178 98.5374 72.3324 101.521 71.0911 104.885C65.9939 107.916 45.1613 119.861 45.1613 119.861C45.1613 119.861 42.9365 125.351 42.2589 127.477C41.9051 128.59 41.5093 130.162 41.3893 131.717L68.9322 115.996C68.9802 115.341 69.1241 114.663 69.394 113.99Z" fill="#A9CCFF"/>
<path d="M58.8517 144.99L45.1133 137.112C42.8885 135.837 41.3713 132.55 42.6786 129.257C44.0758 125.744 48.2076 114.407 48.2495 114.293L46.7264 113.746C46.6844 113.859 42.5587 125.173 41.1734 128.668C39.5483 132.771 41.4853 136.891 44.3037 138.505L58.8517 146.841V144.984V144.99Z" fill="#BBD4FF"/>
<path d="M85.5611 129.716L58.8517 144.99V146.841L85.5611 131.574V129.716Z" fill="#A9CCFF"/>
<path d="M17.2526 142.244V71.5569L113.53 16.4824V87.164L17.2526 142.244Z" fill="#A9CCFF"/>
<path d="M112.744 86.6281L17.9122 140.994V72.0452L112.744 17.6793V86.6281Z" fill="#EEF4FF"/>
<path d="M111.431 78.893L18.9976 131.883V73.0813L111.431 20.0909V78.893Z" fill="url(#paint6_linear_2101_489)"/>
<path d="M64.5606 112.191C63.841 112.191 63.0734 111.614 63.0734 110.351C63.0734 109.089 63.811 107.761 64.7525 107.225L71.181 103.539C71.4688 103.373 71.7627 103.289 72.0505 103.289C72.7701 103.289 73.5377 103.867 73.5377 105.129C73.5377 106.392 72.8001 107.719 71.8586 108.255L65.4301 111.941C65.1423 112.108 64.8485 112.191 64.5606 112.191Z" fill="white"/>
<path d="M65.0883 111.364L71.5168 107.678C72.2544 107.255 72.8601 106.112 72.8601 105.129C72.8601 104.153 72.2544 103.7 71.5168 104.123L65.0883 107.809C64.3507 108.232 63.7451 109.381 63.7451 110.357C63.7451 111.334 64.3507 111.786 65.0883 111.364Z" fill="#BBD4FF"/>
<path d="M17.2525 71.5569L15.0817 70.3064V140.994L17.2525 142.244V71.5569Z" fill="#BBD4FF"/>
<path d="M113.53 16.4824L111.221 15.1902L15.0817 70.3064L17.2525 71.5569L113.53 16.4824Z" fill="#CFDEFF"/>
<path d="M31.8365 103.581V45.0647H32.856V101.836L50.4383 91.8563L50.9421 92.7316L31.8365 103.581Z" fill="#A2A2F2"/>
<path d="M29.9056 111.798L50.942 99.8534L50.3724 99.0138L29.9056 110.637V111.798Z" fill="#A2A2F2"/>
<path d="M55.4845 78.7345L38.7344 88.3334L39.2439 89.2102L55.994 79.6112L55.4845 78.7345Z" fill="#A2A2F2"/>
<path d="M36.7178 90.0163C36.7178 91.8623 37.8512 92.7138 39.2425 91.9159C40.6397 91.1179 41.7671 88.9683 41.7671 87.1224C41.7671 85.2764 40.6337 84.4249 39.2425 85.2228C37.8452 86.0208 36.7178 88.1704 36.7178 90.0163Z" fill="#A2A2F2"/>
<path d="M37.6414 89.546C37.6414 90.719 38.361 91.2609 39.2485 90.7547C40.136 90.2486 40.8556 88.879 40.8556 87.706C40.8556 86.5329 40.136 85.991 39.2485 86.4972C38.361 87.0033 37.6414 88.3729 37.6414 89.546Z" fill="white"/>
<path d="M29.8157 46.5117C29.8157 48.3576 30.9491 49.2092 32.3403 48.4112C33.7375 47.6133 34.8649 45.4637 34.8649 43.6177C34.8649 41.7718 33.7315 40.9203 32.3403 41.7182C30.9431 42.5161 29.8157 44.6658 29.8157 46.5117Z" fill="#A2A2F2"/>
<path d="M30.7332 46.0413C30.7332 47.2144 31.4528 47.7562 32.3403 47.2501C33.2278 46.744 33.9474 45.3744 33.9474 44.2013C33.9474 43.0283 33.2278 42.4864 32.3403 42.9925C31.4528 43.4987 30.7332 44.8682 30.7332 46.0413Z" fill="white"/>
<path d="M25.1442 113.936C25.1442 115.782 26.2776 116.634 27.6688 115.836C29.0661 115.038 30.1935 112.888 30.1935 111.042C30.1935 109.196 29.0601 108.345 27.6688 109.143C26.2716 109.941 25.1442 112.09 25.1442 113.936Z" fill="#A2A2F2"/>
<path d="M26.0677 113.46C26.0677 114.633 26.7874 115.175 27.6749 114.669C28.5624 114.162 29.282 112.793 29.282 111.62C29.282 110.447 28.5624 109.905 27.6749 110.411C26.7874 110.917 26.0677 112.287 26.0677 113.46Z" fill="white"/>
<path d="M84.2658 76.4754L83.7261 75.618L95.7735 68.0853V15.9346H96.7929V68.6391L84.2658 76.4754Z" fill="#A2A2F2"/>
<path d="M76.9917 88.1108L76.446 87.2593L103.173 70.5446V43.3736H104.193V71.0984L76.9917 88.1108Z" fill="#A2A2F2"/>
<path d="M78.5149 64.1255L77.9692 63.274L90.0166 55.7414V4.12653H91.0361V56.2952L78.5149 64.1255Z" fill="#A2A2F2"/>
<path d="M74.2093 27.4449H73.1899V55.402H74.2093V27.4449Z" fill="#A2A2F2"/>
<path d="M60.8127 21.1866H59.7932V59.0403H60.8127V21.1866Z" fill="#A2A2F2"/>
<path d="M51.008 35.1681H49.9886V73.0218H51.008V35.1681Z" fill="#A2A2F2"/>
<path d="M66.2637 58.421C66.2637 54.4671 63.3133 52.9487 59.6673 55.0388C56.0273 57.1288 53.0709 62.0295 53.0709 65.9834C53.0709 66.43 53.1129 66.8409 53.1849 67.2279C50.5403 69.4847 48.5674 73.3791 48.5674 76.6898C48.5674 77.7855 48.7893 78.6906 49.1731 79.3933C47.3141 82.5194 46.0488 87.2236 46.0488 91.7968C46.0488 97.68 48.1356 101.384 50.9001 100.89C50.8881 101.074 50.8761 101.265 50.8761 101.449C50.8761 105.32 53.5686 106.916 56.8968 105.01C60.225 103.105 62.9175 98.4183 62.9175 94.5478C62.9175 94.4466 62.9055 94.3573 62.9055 94.256C64.8365 92.0826 66.1977 88.9326 66.2577 86.122H66.2637V58.4865C66.2637 58.4865 66.2637 58.4448 66.2637 58.421Z" fill="white"/>
<path d="M56.8968 102.259C54.72 103.504 52.957 102.604 52.957 100.258C52.957 100.157 52.963 100.05 52.975 99.9487L53.1249 97.6263L51.4998 97.9122C49.8447 98.2039 48.1296 95.5541 48.1296 90.5999C48.1296 87.033 49.0651 83.1566 50.5103 80.733L51.8236 78.5298L50.9961 77.0173C50.7682 76.5945 50.6483 76.0824 50.6483 75.4929C50.6483 73.5517 51.8716 71.1579 53.6166 69.6693L55.6795 67.9127L55.2178 65.4594C55.1758 65.2331 55.1518 65.0128 55.1518 64.7924C55.1518 62.3987 57.2207 59.1891 59.6733 57.7838C62.102 56.3904 64.1529 57.2003 64.1948 59.5404C64.1948 59.5821 64.1948 59.6298 64.1948 59.6714V62.4225V86.9497V87.2295C64.1529 88.879 63.3553 90.7725 62.114 92.1778L60.7707 93.6903L60.8427 95.5779C60.8427 95.6434 60.8427 95.703 60.8547 95.7625V95.7328C60.8547 98.0848 59.0856 101.009 56.9148 102.259H56.8968Z" fill="#A9CCFF"/>
<path d="M58.2041 75.0583C58.2041 75.0583 58.1502 75.088 58.1262 75.0999C56.2732 76.0884 55.2957 73.7899 55.2537 73.6947C55.1638 73.4684 55.2537 73.0932 55.4636 72.8491C55.6735 72.6049 55.9194 72.593 56.0093 72.8134C56.0153 72.8312 56.8129 74.695 58.1442 73.9864C59.0796 73.4922 59.6134 72.2655 59.7393 71.2592C59.8832 70.098 59.5474 68.8178 58.1262 69.0024C55.5836 69.3359 54.1803 67.9663 54.1204 67.9067C53.9704 67.7579 53.9944 67.4006 54.1683 67.1029C54.3422 66.8051 54.6061 66.686 54.756 66.8349C54.768 66.8468 56.0753 68.1151 58.39 67.8115C60.195 67.5733 60.7767 69.2346 60.5608 70.9853C60.345 72.724 59.3795 74.3794 58.2041 75.0583Z" fill="white"/>
<path d="M52.3753 100.556C52.3393 100.58 52.3033 100.592 52.2614 100.598C52.0395 100.645 51.9136 100.413 51.9735 100.086C52.0275 99.7879 53.3828 92.6959 56.1592 91.1894C57.7304 90.3319 58.5099 91.3859 58.5699 92.7257C58.6359 94.1429 57.9762 95.703 57.0048 96.4354C56.7769 96.6022 56.567 96.5128 56.537 96.233C56.507 95.9471 56.663 95.5839 56.8908 95.4112C57.5205 94.9408 57.7723 93.9702 57.7424 93.2676C57.7064 92.4399 57.2626 91.6836 56.1472 92.2969C56.1352 92.2969 56.1293 92.3089 56.1173 92.3148C54.3482 93.3271 53.1069 98.1444 52.7711 99.9189C52.7231 100.193 52.5552 100.449 52.3693 100.55L52.3753 100.556Z" fill="white"/>
<path d="M58.1381 88.0632C57.2566 88.5693 56.4411 88.4205 55.9913 87.6344C55.4456 86.6817 55.5835 85.062 56.3451 83.4007C57.2386 81.4476 58.1501 80.6913 58.7618 80.3996C59.6913 79.953 60.5908 80.2745 61.2265 81.2927C61.6762 82.0073 62.3958 82.1502 63.1454 81.7036C63.6731 81.3821 64.1169 80.7926 64.3387 80.1316C64.4467 79.8041 64.6986 79.5599 64.9024 79.5838C65.1063 79.6135 65.1783 79.8994 65.0703 80.2328C64.7105 81.3285 64.0029 82.2812 63.1694 82.7874C62.114 83.4305 61.1245 83.2399 60.5188 82.2693C60.0211 81.4833 59.3615 81.2094 58.7018 81.5309C58.1142 81.8168 57.5145 82.5789 56.9808 83.7341C56.4351 84.9251 56.3331 86.0267 56.7109 86.6817C57.0527 87.2772 57.7124 87.3188 58.396 86.7948C58.6239 86.6162 58.8338 86.7055 58.8697 86.9854C58.9057 87.2653 58.7498 87.6344 58.5219 87.8131C58.39 87.9143 58.2641 88.0036 58.1381 88.0751V88.0632Z" fill="white"/>
<path d="M52.903 83.1804C52.7531 83.2638 52.6031 83.3233 52.4532 83.3591C51.5597 83.5556 51.068 82.6385 51.044 82.5969C50.9361 82.3885 51.014 82.0133 51.2179 81.7573C51.4218 81.4953 51.6736 81.4536 51.7816 81.662C51.7816 81.662 52.1294 82.2991 52.6751 82.1741C52.945 82.1145 53.2208 81.8763 53.5266 81.4536C54.0903 80.6676 54.3242 80.0245 54.2282 79.5302C54.0603 78.6966 53.0589 78.4227 52.3393 78.7502C51.3858 79.1849 50.5882 79.9054 50.1625 80.2924C49.8806 80.5485 49.7367 80.6795 49.5808 80.6973C49.3649 80.7271 49.245 80.483 49.3169 80.1555C49.3769 79.8756 49.5628 79.6195 49.7427 79.5362C49.7907 79.4945 49.8626 79.429 49.9586 79.3456C50.4323 78.9169 51.3198 78.119 52.4112 77.6188C53.4487 77.1484 54.7799 77.5235 55.0378 78.8157C55.1457 79.3516 55.1457 80.4949 53.9644 82.1384C53.6106 82.6326 53.2508 82.9839 52.903 83.1864V83.1804Z" fill="white"/>
<path d="M68.1646 57.3313C68.1646 53.3774 71.115 48.4767 74.761 46.3867C78.401 44.2966 81.3574 45.815 81.3574 49.7689C81.3574 50.2155 81.3154 50.68 81.2434 51.1444C83.888 50.3644 85.8609 52.0019 85.8609 55.3127C85.8609 56.4083 85.639 57.5635 85.2552 58.7068C87.1142 59.7012 88.3795 62.9584 88.3795 67.5316C88.3795 73.4148 86.2927 79.5064 83.5282 82.186C83.5402 82.3587 83.5522 82.5313 83.5522 82.7159C83.5522 86.5865 80.8596 91.2728 77.5315 93.1782C74.2093 95.0837 71.5108 93.4879 71.5108 89.6174C71.5108 89.5161 71.5228 89.4149 71.5228 89.3137C69.5858 89.3554 68.2306 87.7655 68.1706 85.0204H68.1646V57.3908C68.1646 57.3908 68.1646 57.3492 68.1646 57.3253V57.3313Z" fill="white"/>
<path d="M77.5255 90.4332C79.7023 89.1887 81.4713 86.259 81.4713 83.9069C81.4713 83.8057 81.4653 83.7104 81.4533 83.6151L81.3034 81.4655L82.9285 79.8935C84.5836 78.2857 86.2987 73.6709 86.2987 68.7226C86.2987 65.1557 85.3632 62.3511 83.918 61.5829L82.6047 60.8862L83.4322 58.427C83.6601 57.7422 83.78 57.0931 83.78 56.5036C83.78 54.5624 82.5567 53.568 80.8117 54.0801L78.7488 54.6875L79.2105 51.6982C79.2525 51.4184 79.2765 51.1802 79.2765 50.9599C79.2765 48.5661 77.2076 47.7324 74.755 49.1377C72.3263 50.5311 70.2754 53.6871 70.2335 56.0749C70.2335 56.1166 70.2335 56.1583 70.2335 56.2059V58.9569V83.758C70.2754 85.3658 71.073 86.3483 72.3143 86.3245L73.6576 86.2947L73.5856 88.2657C73.5856 88.3312 73.5856 88.3967 73.5736 88.4622V88.4384C73.5736 90.7905 75.3427 91.6896 77.5135 90.4391L77.5255 90.4332Z" fill="#A9CCFF"/>
<path d="M76.2182 64.7329C76.2182 64.7329 76.2722 64.7032 76.2962 64.6853C78.1491 63.542 79.1266 60.13 79.1686 59.9871C79.2585 59.6596 79.1686 59.3857 78.9587 59.3857C78.7488 59.3857 78.5029 59.6477 78.413 59.9811C78.407 60.0109 77.6094 62.7858 76.2782 63.6075C75.3427 64.1851 74.809 63.5658 74.683 62.7083C74.5391 61.7139 74.8749 60.0466 76.2962 58.5996C78.8388 56.0153 80.242 53.038 80.302 52.913C80.4519 52.5974 80.4279 52.2639 80.254 52.1686C80.0801 52.0734 79.8162 52.252 79.6663 52.5676C79.6543 52.5974 78.347 55.3603 76.0323 57.7065C74.2273 59.5345 73.6456 61.8687 73.8615 63.3693C74.0774 64.858 75.0428 65.4118 76.2182 64.7389V64.7329Z" fill="white"/>
<path d="M82.047 83.5436C82.083 83.5198 82.1189 83.496 82.1609 83.4603C82.3828 83.2518 82.5087 82.8767 82.4488 82.6206C82.3948 82.3825 81.0395 76.8446 78.2631 78.5239C76.6919 79.4647 75.9123 81.4119 75.8524 82.8231C75.7864 84.3118 76.4461 85.1156 77.4175 84.7345C77.6454 84.6393 77.8553 84.3118 77.8853 83.9962C77.9152 83.6806 77.7593 83.49 77.5315 83.5793C76.9018 83.8294 76.6499 83.1447 76.6799 82.4122C76.7159 81.5369 77.1597 80.2805 78.275 79.6136C78.287 79.6136 78.293 79.6016 78.305 79.5957C80.0741 78.5834 81.3154 81.9656 81.6512 83.365C81.6992 83.5793 81.8671 83.6448 82.053 83.5377L82.047 83.5436Z" fill="white"/>
<path d="M76.2842 77.6605C77.1657 77.1543 77.9812 76.0706 78.431 74.7725C78.9767 73.2004 78.8387 71.7296 78.0772 70.9377C77.1837 70.0087 76.2722 70.3005 75.6605 70.7054C74.731 71.3247 73.8315 72.6824 73.1958 74.4271C72.7461 75.6597 72.0265 76.6243 71.2769 77.0412C70.7492 77.327 70.3054 77.2496 70.0836 76.8387C69.9756 76.6303 69.7238 76.6779 69.5199 76.934C69.316 77.196 69.244 77.5711 69.352 77.7736C69.7118 78.4524 70.4194 78.5953 71.2529 78.1487C72.3083 77.5771 73.2978 76.2552 73.9035 74.5938C74.3952 73.2362 75.0608 72.212 75.7205 71.7713C76.3081 71.3843 76.9078 71.4557 77.4415 72.0035C77.9872 72.5692 78.0892 73.5517 77.7114 74.6414C77.3696 75.6299 76.7099 76.4278 76.0263 76.6839C75.7984 76.7673 75.5885 77.0948 75.5526 77.4163C75.5166 77.7379 75.6725 77.9284 75.9004 77.845C76.0323 77.7974 76.1582 77.7379 76.2842 77.6605Z" fill="white"/>
<path d="M81.5193 66.7694C81.6692 66.686 81.8191 66.5729 81.969 66.4359C82.8625 65.6023 83.3543 64.1255 83.3782 64.06C83.4862 63.7325 83.4082 63.4407 83.2043 63.4169C83.0005 63.3871 82.7486 63.6372 82.6407 63.9647C82.6407 63.9707 82.2928 64.9949 81.7471 65.501C81.4773 65.7511 81.2014 65.8345 80.8956 65.7571C80.3319 65.6201 80.098 65.245 80.194 64.6376C80.3619 63.6134 81.3634 62.1903 82.083 61.6901C83.0364 61.0291 83.834 60.8386 84.2598 60.7314C84.5416 60.6659 84.6855 60.6301 84.8414 60.4694C85.0573 60.249 85.1773 59.8679 85.1053 59.6238C85.0453 59.4154 84.8594 59.3678 84.6795 59.4928C84.6316 59.5107 84.5596 59.5285 84.4637 59.5464C83.9899 59.6595 83.1024 59.8799 82.011 60.6301C80.9736 61.3447 79.6423 63.2502 79.3844 64.8401C79.2765 65.4951 79.2765 66.6443 80.4579 66.9361C80.8117 67.0254 81.1715 66.9659 81.5193 66.7634V66.7694Z" fill="white"/>
<path d="M47.9677 35.3586C47.9677 37.2046 49.1011 38.0561 50.4923 37.2582C51.8896 36.4602 53.0169 34.3106 53.0169 32.4647C53.0169 30.6187 51.8836 29.7672 50.4923 30.5651C49.0951 31.3631 47.9677 33.5127 47.9677 35.3586Z" fill="#A2A2F2"/>
<path d="M48.8912 34.8882C48.8912 36.0613 49.6108 36.6032 50.4984 36.097C51.3859 35.5909 52.1055 34.2213 52.1055 33.0482C52.1055 31.8752 51.3859 31.3333 50.4984 31.8395C49.6108 32.3456 48.8912 33.7152 48.8912 34.8882Z" fill="white"/>
<path d="M57.8683 22.6336C57.8683 24.4795 59.0017 25.331 60.3929 24.5331C61.7901 23.7352 62.9175 21.5856 62.9175 19.7396C62.9175 17.8937 61.7841 17.0422 60.3929 17.8401C58.9957 18.638 57.8683 20.7876 57.8683 22.6336Z" fill="#A2A2F2"/>
<path d="M58.7858 22.1632C58.7858 23.3363 59.5054 23.8781 60.3929 23.372C61.2804 22.8658 62 21.4963 62 20.3232C62 19.1501 61.2804 18.6083 60.3929 19.1144C59.5054 19.6206 58.7858 20.9901 58.7858 22.1632Z" fill="white"/>
<path d="M71.2889 27.9451C71.2889 29.791 72.4223 30.6426 73.8135 29.8446C75.2107 29.0467 76.3381 26.8971 76.3381 25.0512C76.3381 23.2052 75.2047 22.3537 73.8135 23.1516C72.4163 23.9495 71.2889 26.0992 71.2889 27.9451Z" fill="#A2A2F2"/>
<path d="M72.2064 27.4687C72.2064 28.6418 72.926 29.1837 73.8135 28.6775C74.701 28.1714 75.4206 26.8018 75.4206 25.6288C75.4206 24.4557 74.701 23.9138 73.8135 24.42C72.926 24.9261 72.2064 26.2957 72.2064 27.4687Z" fill="white"/>
<path d="M93.7526 16.6372C93.7526 18.4832 94.886 19.3347 96.2772 18.5368C97.6744 17.7389 98.8018 15.5892 98.8018 13.7433C98.8018 11.8974 97.6685 11.0458 96.2772 11.8438C94.88 12.6417 93.7526 14.7913 93.7526 16.6372Z" fill="#A2A2F2"/>
<path d="M94.6761 16.1669C94.6761 17.3399 95.3957 17.8818 96.2832 17.3756C97.1707 16.8695 97.8903 15.4999 97.8903 14.3269C97.8903 13.1538 97.1707 12.6119 96.2832 13.1181C95.3957 13.6242 94.6761 14.9938 94.6761 16.1669Z" fill="white"/>
<path d="M101.44 44.8206C101.44 46.6665 102.574 47.518 103.965 46.7201C105.362 45.9222 106.49 43.7726 106.49 41.9266C106.49 40.0807 105.356 39.2292 103.965 40.0271C102.568 40.825 101.44 42.9747 101.44 44.8206Z" fill="#A2A2F2"/>
<path d="M102.364 44.3502C102.364 45.5233 103.083 46.0651 103.971 45.559C104.858 45.0529 105.578 43.6833 105.578 42.5102C105.578 41.3372 104.858 40.7953 103.971 41.3014C103.083 41.8076 102.364 43.1771 102.364 44.3502Z" fill="white"/>
<path d="M88.0017 5.09715C88.0017 6.94309 89.1351 7.7946 90.5264 6.99668C91.9236 6.19875 93.051 4.04913 93.051 2.20319C93.051 0.35725 91.9176 -0.494264 90.5264 0.303658C89.1291 1.10158 88.0017 3.25121 88.0017 5.09715Z" fill="#A2A2F2"/>
<path d="M88.9192 4.62077C88.9192 5.79384 89.6388 6.33571 90.5263 5.82957C91.4139 5.32342 92.1335 3.95385 92.1335 2.78079C92.1335 1.60772 91.4139 1.06585 90.5263 1.572C89.6388 2.07814 88.9192 3.44771 88.9192 4.62077Z" fill="white"/>
<defs>
<linearGradient id="paint0_linear_2101_489" x1="0.635651" y1="143.817" x2="123.37" y2="143.817" gradientUnits="userSpaceOnUse">
<stop stop-color="#D3D7F2"/>
<stop offset="0.45" stop-color="#BBC9F8"/>
<stop offset="0.55" stop-color="#D3D7F2"/>
<stop offset="1" stop-color="#F2F3FF"/>
</linearGradient>
<linearGradient id="paint1_linear_2101_489" x1="2.6701e-05" y1="141.607" x2="124" y2="141.607" gradientUnits="userSpaceOnUse">
<stop stop-color="#E8EAFB"/>
<stop offset="1" stop-color="white"/>
</linearGradient>
<linearGradient id="paint2_linear_2101_489" x1="74.4971" y1="159.132" x2="58.0693" y2="127.436" gradientUnits="userSpaceOnUse">
<stop stop-color="#20ABFF"/>
<stop offset="0.57" stop-color="#0095FF"/>
<stop offset="0.6" stop-color="#3DC0FF"/>
<stop offset="0.9" stop-color="#33BBFF"/>
<stop offset="1" stop-color="#30DCF2"/>
</linearGradient>
<linearGradient id="paint3_linear_2101_489" x1="0.000148771" y1="132.765" x2="122.693" y2="132.765" gradientUnits="userSpaceOnUse">
<stop stop-color="#1487FB"/>
<stop offset="1" stop-color="#22D2FD"/>
</linearGradient>
<linearGradient id="paint4_linear_2101_489" x1="36.0702" y1="131.032" x2="80.278" y2="131.032" gradientUnits="userSpaceOnUse">
<stop stop-color="#20ABFF"/>
<stop offset="0.57" stop-color="#0095FF"/>
<stop offset="0.6" stop-color="#3DC0FF"/>
<stop offset="0.9" stop-color="#33BBFF"/>
<stop offset="1" stop-color="#30DCF2"/>
</linearGradient>
<linearGradient id="paint5_linear_2101_489" x1="7.80172" y1="127.09" x2="52.0095" y2="127.09" gradientUnits="userSpaceOnUse">
<stop stop-color="#20ABFF"/>
<stop offset="0.57" stop-color="#0095FF"/>
<stop offset="0.6" stop-color="#3DC0FF"/>
<stop offset="0.9" stop-color="#33BBFF"/>
<stop offset="1" stop-color="#30DCF2"/>
</linearGradient>
<linearGradient id="paint6_linear_2101_489" x1="18.9976" y1="75.9872" x2="111.431" y2="75.9872" gradientUnits="userSpaceOnUse">
<stop stop-color="#20ABFF"/>
<stop offset="0.57" stop-color="#0095FF"/>
<stop offset="0.6" stop-color="#3DC0FF"/>
<stop offset="0.9" stop-color="#33BBFF"/>
<stop offset="1" stop-color="#30DCF2"/>
</linearGradient>
</defs>
</svg>
