<svg width="130" height="168" viewBox="0 0 130 168" fill="none" xmlns="http://www.w3.org/2000/svg">
<path d="M127.129 132.58C127.129 131.072 125.978 129.565 123.668 128.409L73.7759 103.495C69.1626 101.194 61.6848 101.194 57.0775 103.495L7.18541 128.409C4.88178 129.559 3.724 131.072 3.724 132.58V137.002C3.724 138.509 4.87581 140.023 7.18541 141.173L57.0775 166.087C61.6908 168.387 69.1686 168.387 73.7759 166.087L123.668 141.173C125.972 140.023 127.129 138.509 127.129 137.002V132.58Z" fill="url(#paint0_linear_2101_490)"/>
<path d="M123.674 136.745L73.7818 161.66C69.1686 163.96 61.6907 163.96 57.0835 161.66L7.18539 136.745C2.57216 134.445 2.57216 130.709 7.18539 128.409L57.0775 103.495C61.6907 101.194 69.1686 101.194 73.7758 103.495L123.668 128.409C128.281 130.709 128.281 134.445 123.668 136.745H123.674Z" fill="url(#paint1_linear_2101_490)"/>
<path d="M123.674 127.896L73.7818 152.811C69.1686 155.111 61.6908 155.111 57.0835 152.811L7.18541 127.896C4.88178 126.746 3.724 125.239 3.724 123.725V128.147C3.724 129.654 4.87581 131.168 7.18541 132.318L57.0775 157.232C61.6908 159.532 69.1686 159.532 73.7759 157.232L123.668 132.318C125.972 131.168 127.129 129.654 127.129 128.147V123.725C127.129 125.233 125.978 126.746 123.668 127.896H123.674Z" fill="url(#paint2_linear_2101_490)"/>
<path opacity="0.5" d="M123.674 127.896L73.782 152.811C69.1688 155.111 61.6909 155.111 57.0837 152.811L7.18557 127.896C2.57234 125.596 2.57234 121.86 7.18557 119.56L57.0777 94.6455C61.6909 92.3454 69.1688 92.3454 73.776 94.6455L123.668 119.56C128.281 121.86 128.281 125.596 123.668 127.896H123.674Z" fill="url(#paint3_linear_2101_490)"/>
<path d="M120.905 113.44L120.702 113.118C121.591 112.653 122.081 112.04 122.081 111.396C122.081 110.758 121.603 110.151 120.726 109.686L68.6255 82.0246C66.7337 81.0175 63.6483 81.0175 61.7445 82.0246L9.29809 109.692C8.40887 110.163 7.91949 110.77 7.91949 111.414C7.91949 112.052 8.39693 112.659 9.27422 113.124L9.07131 113.446C8.06869 112.91 7.51367 112.195 7.51367 111.42C7.51367 110.639 8.07466 109.918 9.09518 109.382L61.5416 81.7207C63.5587 80.654 66.8292 80.66 68.8285 81.7207L120.929 109.382C121.931 109.918 122.486 110.633 122.486 111.408C122.486 112.189 121.925 112.91 120.905 113.446V113.44Z" fill="#51ABFD"/>
<path d="M123.346 100.575L123.143 100.253C124.074 99.7643 124.581 99.1207 124.587 98.4473C124.587 97.7799 124.086 97.1423 123.167 96.6597L68.7867 67.7887C66.8113 66.7399 63.5826 66.7399 61.5953 67.7887L6.85721 96.6597C5.9262 97.1483 5.41296 97.7919 5.41296 98.4652C5.41296 99.1326 5.91427 99.7702 6.83333 100.253L6.63042 100.575C5.58603 100.02 5.00714 99.2697 5.01311 98.4652C5.01311 97.6548 5.59797 96.898 6.66026 96.3438L61.3984 67.4729C63.4991 66.3645 66.9068 66.3645 68.9956 67.4729L123.376 96.3438C124.42 96.898 124.999 97.6488 124.993 98.4533C124.993 99.2637 124.408 100.02 123.346 100.575Z" fill="#51ABFD"/>
<path d="M125.787 87.7153L125.584 87.3935C126.556 86.8811 127.088 86.2137 127.088 85.5046C127.088 84.8074 126.562 84.14 125.608 83.6335L68.9478 53.5528C66.8888 52.4564 63.5229 52.4564 61.446 53.5528L4.41626 83.6335C3.44349 84.1459 2.91234 84.8133 2.90637 85.5224C2.90637 86.2196 3.43155 86.887 4.38642 87.3935L4.18351 87.7153C3.09734 87.1373 2.50055 86.3567 2.50055 85.5224C2.50055 84.6822 3.10928 83.8957 4.20738 83.3176L61.2372 53.237C63.4274 52.081 66.9724 52.0869 69.1447 53.237L125.804 83.3176C126.891 83.8957 127.487 84.6763 127.487 85.5105C127.487 86.3507 126.879 87.1373 125.781 87.7153H125.787Z" fill="#51ABFD"/>
<path d="M128.228 74.85L128.025 74.5282C129.039 73.9919 129.594 73.2947 129.594 72.5618C129.594 71.8348 129.045 71.1376 128.048 70.6073L69.1089 39.317C66.9605 38.1788 63.4573 38.1788 61.2969 39.317L1.97539 70.6132C0.960841 71.1495 0.405821 71.8467 0.405821 72.5797C0.405821 73.3067 0.954873 74.0039 1.95152 74.5342L1.74861 74.856C0.620668 74.2541 0 73.4437 0 72.5797C0 71.7097 0.632603 70.8933 1.77248 70.2914L61.094 39.0012C63.3678 37.8034 67.056 37.8034 69.3119 39.0012L128.251 70.2914C129.379 70.8933 130 71.6977 130 72.5677C130 73.4378 129.367 74.2541 128.228 74.856V74.85Z" fill="#51ABFD"/>
<path d="M90.9278 93.3227C92.0379 92.5182 92.0856 93.2214 92.2408 93.1618C94.0073 92.4348 98.2684 89.8188 99.0383 88.1205C100.095 85.7906 99.9932 83.7109 99.6411 81.4704C98.5967 78.6578 96.7764 76.596 94.8309 75.9286C95.3978 73.9443 96.305 69.2427 90.8801 66.8651C91.9364 63.826 89.8238 57.879 85.4552 56.7945C85.121 52.9271 82.8711 50.7819 78.8964 50.7343C77.2433 48.2315 74.5995 47.5701 72.0094 49.0598C70.9352 47.874 67.9154 46.1042 64.8001 46.6405C60.6942 45.1865 57.3223 45.985 54.0101 48.4877C50.4532 51.1812 51.1991 55.5252 51.5572 59.6786C51.963 64.4398 53.6758 69.0103 56.1346 73.0445C61.3506 81.6134 69.7297 87.3459 78.1624 92.1785C81.5462 94.1152 84.6376 96.3021 88.105 98.0302C88.3915 96.2544 89.4776 94.3655 90.9159 93.3227H90.9278Z" fill="#5CA2F5"/>
<path d="M98.6921 95.4738C101.205 94.4847 101.366 90.4087 100.447 88.6092C100.769 85.9813 100.411 83.5262 99.647 81.4644C99.9991 83.705 100.101 85.7846 99.0443 88.1146C98.2684 89.8129 94.0133 92.4288 92.2468 93.1558C92.0916 93.2214 92.0379 92.5182 90.9338 93.3167C89.4955 94.3595 88.4094 96.2485 88.1229 98.0243C88.9345 98.4295 89.7641 98.8168 90.6235 99.1684C93.7507 100.426 98.0357 99.1684 98.6981 95.4679L98.6921 95.4738Z" fill="#1F93FB"/>
<path d="M55.2275 50.049C55.2275 50.049 58.2234 47.284 61.1596 47.1231C64.0959 46.9623 64.5912 47.2006 64.5435 48.5831C64.4957 49.9655 65.5461 50.5197 65.9698 49.4948C66.3935 48.4699 66.1668 47.1231 67.9034 47.5999C69.6401 48.0766 72.2541 49.179 71.8542 50.049C71.4603 50.919 70.4816 50.2277 69.4133 50.776C68.4525 51.2706 67.4558 52.3551 69.6341 54.3632C70.4876 55.1498 72.5525 55.6027 73.3939 56.1449C74.7069 56.9911 75.6021 57.7717 76.8494 58.2604C78.8964 59.0589 80.2034 58.9039 79.905 58.0339C79.6066 57.1639 78.0788 56.3118 77.6551 55.3941C77.2313 54.4764 78.1922 53.1953 78.7353 52.6888C79.5827 51.8962 80.2034 51.3957 81.4865 52.3432C82.7696 53.2906 84.4526 55.0008 83.9572 56.2343C83.0859 58.3915 84.6316 58.1352 86.0162 58.4034C87.7588 58.743 88.5705 59.2972 88.9584 61.788C89.3463 64.2789 89.3761 66.3109 88.1169 67.0796C86.8577 67.8483 84.9897 66.2811 84.5182 65.715C84.0408 65.1489 84.7032 67.8244 84.2139 68.462C83.7245 69.0996 83.1695 70.4881 84.1184 70.2318C85.0673 69.9756 86.1713 69.6598 86.8099 70.2318C87.8006 71.1197 87.5201 72.4486 88.5526 73.1875C89.579 73.9264 91.0054 73.1875 91.0054 71.078C91.0054 70.1722 90.3549 68.7659 91.8648 69.052C93.3747 69.338 94.8965 71.4892 94.5324 72.7048C94.1684 73.9204 93.2911 74.6236 92.6585 75.4161C92.0259 76.2146 92.3422 77.8354 93.0584 78.4075C93.7685 78.9795 94.246 80.3501 94.1684 82.5132C94.0908 84.6763 95.5947 83.7407 95.911 82.7813C96.2274 81.8279 96.3467 80.1475 97.1404 80.1534C97.9342 80.1534 99.3904 80.8566 99.3904 80.8566C99.3904 80.8566 98.895 79.2536 97.5642 77.889C95.9886 76.2682 94.8308 75.9345 94.8308 75.9345C94.8308 75.9345 95.726 73.0862 94.8308 70.6609C93.9356 68.2356 90.8801 66.871 90.8801 66.871C90.8801 66.871 92.4616 64.4696 90.2654 60.5009C88.0751 56.5382 85.4552 56.8004 85.4552 56.8004C85.4552 56.8004 86.0162 53.7375 83.4022 51.5804C80.7882 49.4233 78.9441 50.5436 78.9441 50.5436C78.9441 50.5436 78.3354 49.2028 75.9602 48.452C73.5849 47.7012 72.0094 49.0717 72.0094 49.0717C72.0094 49.0717 71.329 47.7667 68.5957 46.7775C66.6919 46.0863 64.8001 46.6524 64.8001 46.6524C64.8001 46.6524 60.3241 44.5251 55.5915 47.1768C52.3509 48.9883 51.7482 51.3599 51.7482 51.3599L55.2155 50.0609L55.2275 50.049Z" fill="#1F93FB"/>
<path d="M37.4788 63.9809C37.6399 64.118 37.6519 64.4517 37.4788 64.5888C35.9271 65.8222 34.7813 67.4371 34.6142 69.4572C34.5127 70.6966 34.8051 71.656 35.3184 72.532C35.3005 72.5558 35.2826 72.5797 35.2647 72.6035C34.8708 73.2828 34.9543 74.1171 35.1632 74.8381C35.384 75.6008 35.8495 76.4291 36.4642 77.1025C36.3807 77.3766 36.3031 77.6507 36.2733 77.9427C36.13 79.2417 36.3508 80.5587 37.0133 81.7028C37.8607 83.1627 39.0722 83.8539 40.4568 84.283C40.1763 85.3437 40.4508 86.6129 41.1133 87.3935C41.6862 88.0669 42.7246 88.6092 43.6795 88.5913C44.0435 89.2825 44.509 89.938 45.0342 90.5398C46.2397 91.9283 47.5049 92.5957 49.1939 92.7566C49.6355 93.7994 50.6023 94.7528 51.4438 95.152C52.5359 95.6645 53.7295 95.6645 54.8038 95.2831C55.8004 96.9457 57.3998 98.0719 59.1365 98.936C61.458 100.098 63.2484 100.14 65.3074 98.9002C65.9221 99.5438 66.8829 99.8 67.7423 99.8656C69.097 99.9669 70.6905 99.651 71.8482 98.8227C72.7852 100.026 74.5279 100.652 76.0974 100.473C76.8852 100.384 77.6431 100.116 78.3175 99.7106C78.6995 100.646 80.1019 101.457 80.9732 101.653C82.4056 101.981 84.1243 101.546 85.2403 100.539C86.2549 101.522 88.1527 101.474 89.4179 101.123C90.1042 100.932 90.8144 100.634 91.4828 100.247C91.644 99.3888 91.6559 98.5069 91.4709 97.7084C93.4761 96.2366 94.2161 93.1677 93.4463 90.7424C93.0226 89.4017 92.1572 88.2457 91.0591 87.3935C90.7786 81.1069 87.6574 74.0575 81.4447 73.2709C81.0747 70.0173 80.281 66.5314 78.2399 64.2789C76.6883 62.5687 72.9404 60.5248 70.4398 60.5426C70.0996 58.5345 68.5122 56.4846 65.5341 55.6265C65.003 52.9152 60.0436 49.3518 55.0305 51.5208C53.091 50.5257 50.3815 50.5257 48.8597 51.5328C47.0096 50.9905 44.5568 51.205 43.3035 52.4564C41.543 54.2143 40.7731 56.133 40.421 58.7192C39.0424 59.0827 37.616 60.1553 36.7686 61.0015C36.5478 61.222 36.3031 61.4961 36.0703 61.7821C36.2613 62.5746 36.7209 63.3314 37.4848 63.9809H37.4788Z" fill="#1F93FB"/>
<path d="M34.2501 66.1977C31.0811 67.8542 29.5354 72.2281 31.0573 75.9167C29.2072 79.0868 30.1561 83.0912 32.4359 85.8085C31.4512 88.2695 33.2415 92.7029 35.2945 93.2333C34.8947 96.0757 38.4038 97.923 40.5881 97.6548C41.0536 99.7762 43.5005 101.361 46.6814 101.23C48.8657 105.062 54.4755 104.335 56.0451 104.067C57.5132 105.759 60.0436 106.683 62.025 107.07C67.7721 108.184 71.9676 104.245 71.9795 104.222C74.1698 106.927 79.0396 107.046 80.5257 104.365C83.1635 106.706 87.8961 105.747 90.1162 103.244C90.7965 102.476 91.268 101.391 91.4828 100.265C90.8144 100.646 90.1102 100.95 89.4179 101.141C88.1467 101.492 86.2489 101.54 85.2403 100.557C84.1184 101.57 82.4056 101.999 80.9733 101.671C80.1019 101.474 78.6995 100.664 78.3175 99.7285C77.6431 100.134 76.8852 100.402 76.0974 100.491C74.5219 100.664 72.7793 100.044 71.8483 98.8406C70.6905 99.663 69.0911 99.9847 67.7423 99.8834C66.8769 99.8179 65.9221 99.5617 65.3074 98.9181C63.2484 100.158 61.458 100.116 59.1365 98.9538C57.4058 98.0898 55.8004 96.9636 54.8038 95.301C53.7355 95.6824 52.5359 95.6884 51.4438 95.1699C50.6023 94.7707 49.6355 93.8173 49.1939 92.7745C47.505 92.6136 46.2457 91.9462 45.0342 90.5577C44.509 89.9559 44.0435 89.3004 43.6795 88.6092C42.7306 88.627 41.6862 88.0848 41.1133 87.4114C40.4508 86.6308 40.1823 85.3616 40.4568 84.3009C39.0722 83.8718 37.8607 83.1806 37.0133 81.7207C36.3508 80.5825 36.13 79.2596 36.2733 77.9606C36.3031 77.6686 36.3807 77.3885 36.4642 77.1204C35.8495 76.453 35.384 75.6187 35.1632 74.856C34.9543 74.135 34.8708 73.3007 35.2647 72.6214C35.2826 72.5916 35.3005 72.5737 35.3184 72.5499C34.8051 71.668 34.5127 70.7145 34.6142 69.4751C34.7813 67.455 35.9271 65.8401 37.4788 64.6066C37.6519 64.4696 37.6399 64.1359 37.4788 63.9988C36.7149 63.3553 36.2554 62.5925 36.0644 61.8C35.0618 63.0216 34.0651 64.7377 34.2501 66.2096V66.1977Z" fill="#1F93FB"/>
<path d="M34.2501 66.1977C31.0811 67.8542 29.5354 72.2281 31.0573 75.9167C29.2072 79.0868 30.1561 83.0912 32.4359 85.8085C31.4512 88.2695 33.2415 92.7029 35.2945 93.2333C34.8947 96.0757 38.4038 97.923 40.5881 97.6548C41.0536 99.7762 43.5005 101.361 46.6814 101.23C48.8657 105.062 54.4755 104.335 56.0451 104.067C57.5132 105.759 60.0436 106.683 62.025 107.07C67.7721 108.184 71.9676 104.245 71.9795 104.222C74.1698 106.927 79.0396 107.046 80.5257 104.365C83.1635 106.706 87.8961 105.747 90.1162 103.244C90.7965 102.476 91.268 101.391 91.4828 100.265C90.8144 100.646 90.1102 100.95 89.4179 101.141C88.1467 101.492 86.2489 101.54 85.2403 100.557C84.1184 101.57 82.4056 101.999 80.9733 101.671C80.1019 101.474 78.6995 100.664 78.3175 99.7285C77.6431 100.134 76.8852 100.402 76.0974 100.491C74.5219 100.664 72.7793 100.044 71.8483 98.8406C70.6905 99.663 69.0911 99.9847 67.7423 99.8834C66.8769 99.8179 65.9221 99.5617 65.3074 98.9181C63.2484 100.158 61.458 100.116 59.1365 98.9538C57.4058 98.0898 55.8004 96.9636 54.8038 95.301C53.7355 95.6824 52.5359 95.6884 51.4438 95.1699C50.6023 94.7707 49.6355 93.8173 49.1939 92.7745C47.505 92.6136 46.2457 91.9462 45.0342 90.5577C44.509 89.9559 44.0435 89.3004 43.6795 88.6092C42.7306 88.627 41.6862 88.0848 41.1133 87.4114C40.4508 86.6308 40.1823 85.3616 40.4568 84.3009C39.0722 83.8718 37.8607 83.1806 37.0133 81.7207C36.3508 80.5825 36.13 79.2596 36.2733 77.9606C36.3031 77.6686 36.3807 77.3885 36.4642 77.1204C35.8495 76.453 35.384 75.6187 35.1632 74.856C34.9543 74.135 34.8708 73.3007 35.2647 72.6214C35.2826 72.5916 35.3005 72.5737 35.3184 72.5499C34.8051 71.668 34.5127 70.7145 34.6142 69.4751C34.7813 67.455 35.9271 65.8401 37.4788 64.6066C37.6519 64.4696 37.6399 64.1359 37.4788 63.9988C36.7149 63.3553 36.2554 62.5925 36.0644 61.8C35.0618 63.0216 34.0651 64.7377 34.2501 66.2096V66.1977Z" fill="#447BE9"/>
<path d="M58.5875 58.3081C58.0205 58.1293 57.5371 58.3855 57.1253 58.7311C56.9224 58.9039 55.9257 60.5844 54.953 60.9359C53.825 61.3471 52.2256 61.0611 51.6348 61.4544C51.2528 61.7106 50.4412 62.6581 50.1786 62.8785C49.0984 63.7724 48.5314 63.7783 47.2245 64.0107C46.7172 64.1001 46.198 64.1895 45.7086 64.4338C43.584 65.4885 42.2293 67.4729 42.8738 68.4144C44.0376 70.1186 45.1237 69.052 45.5415 67.7172C46.2457 65.4886 47.8034 66.4241 48.2689 66.4897C49.725 66.6982 50.662 68.4621 53.27 67.1153C55.323 66.0546 54.1234 64.0465 55.872 62.9203C57.2447 62.0383 56.6538 61.2339 58.2294 60.2507C59.3693 59.5415 59.6557 58.6418 58.5934 58.3081H58.5875Z" fill="#5CA2F5"/>
<path d="M65.8146 61.788C64.9493 60.9002 59.3752 64.6364 58.7546 65.4409C58.2473 66.1023 57.9966 66.865 57.9668 67.6457C57.6684 68.4442 56.5882 68.0628 55.6035 68.462C54.9231 68.7361 53.3058 69.779 52.4942 71.3283C52.0585 72.1625 52.0108 73.3066 54.2607 73.3841C55.0485 73.4079 57.0716 73.2709 56.7075 74.9394C56.6777 75.0705 54.9291 76.3159 54.8336 77.168C54.6486 78.7769 56.6956 81.4108 57.2387 81.6491C58.671 82.2748 59.602 82.9601 60.7837 82.4119C64.1735 80.8506 61.0104 78.4849 60.7837 76.2742C60.5628 74.0992 61.9355 72.5618 61.3984 71.5011C60.4554 69.6419 61.1596 68.4859 61.5655 67.6695C62.0369 66.728 66.871 62.8606 65.8206 61.7821L65.8146 61.788Z" fill="#5CA2F5"/>
<path d="M61.0343 78.9319C60.4734 78.3062 59.8049 77.7579 59.1902 77.1918C58.5875 76.6317 57.5252 75.3625 56.6479 76.2503C55.9377 76.9714 56.5763 78.3836 57.0597 79.057C57.2686 79.3549 58.7785 80.7136 59.3335 80.9043C60.0795 81.1545 61.2969 81.1247 61.4999 80.1594C61.6013 79.6827 61.3447 79.2715 61.0403 78.9319H61.0343Z" fill="#66C0FB"/>
<path d="M41.9727 71.9778C41.549 70.9886 40.791 70.7205 40.0749 69.9041C39.2155 68.9149 39.1379 68.4263 38.2785 68.9149C37.7712 69.2069 37.3237 69.5883 36.703 71.5488C36.2375 73.0146 36.3151 73.98 36.9715 75.9464C37.5146 77.5732 38.3442 77.466 39.0663 77.168C40.0152 76.7866 38.8037 75.9464 40.2838 74.2541C40.7731 73.694 42.3129 72.7882 41.9667 71.9778H41.9727Z" fill="#5CA2F5"/>
<path d="M60.4674 87.9596C59.972 87.2863 59.5185 86.6189 59.0948 85.8978C58.5576 84.9742 57.74 83.8658 56.5047 84.128C55.6393 84.3128 55.1857 84.8908 55.0306 85.5939C54.9411 86.017 54.8456 87.471 56.2301 89.3063C57.1313 90.4981 60.5748 91.9819 61.0343 89.5864C61.1537 88.9607 60.8195 88.4423 60.4614 87.9537L60.4674 87.9596Z" fill="#5CA2F5"/>
<path d="M74.9098 77.6686C74.0444 76.2206 73.018 74.6891 71.329 74.1409C70.8993 73.9979 69.3656 72.9312 67.8796 72.3055C65.9638 71.4951 65.6475 71.8646 64.7464 73.2471C64.078 74.272 64.7106 75.148 66.2264 75.6723C67.1992 76.006 70.04 75.3863 71.5021 76.0954C73.6565 77.1382 72.1049 79.6946 72.2958 80.7195C72.3973 81.2678 72.7494 81.7147 73.1791 82.0424C74.134 82.7694 75.7513 83.0793 76.5092 81.9173C77.3984 80.5527 75.5663 78.771 74.9098 77.6745V77.6686Z" fill="#5CA2F5"/>
<path d="M84.2974 92.8161C83.7901 93.1558 83.2709 93.4835 82.7696 93.8292C81.6477 94.5979 80.6033 96.0101 81.9759 97.1483C83.1814 98.1434 85.0912 97.6905 86.1296 96.6775C87.0129 95.8075 87.2993 94.5859 86.9591 93.4895C86.8457 93.126 85.9446 91.7256 84.2974 92.8161Z" fill="#5CA2F5"/>
<path d="M85.6283 77.1144C85.4134 76.4946 85.0195 76.0775 84.5242 75.8272C84.1184 75.6187 82.0296 74.3792 81.0687 74.9692C79.2306 76.0954 79.9289 76.6734 80.2273 76.8105C80.7107 77.0369 81.7789 77.1263 82.1788 77.466C83.0024 78.1691 83.1874 79.1523 82.6741 80.0044C81.946 81.2201 80.1616 83.9135 80.9016 85.3913C81.3373 86.2613 83.0262 86.9466 84.8405 85.3913C85.855 84.5213 87.0009 84.3664 87.4127 85.3615C88.1288 87.1075 86.8517 87.5902 87.4127 88.9071C87.8961 90.0512 90.4742 90.3849 90.2833 91.9104C89.9908 94.2284 90.8323 95.8731 92.205 94.6276C92.3482 94.4965 93.1718 92.2977 92.2408 90.7901C91.823 90.1167 91.4709 89.3719 90.9457 88.8594C90.1221 88.0669 90.1221 87.4352 90.1221 86.744C90.1221 84.6465 90.1221 83.5441 89.3582 82.8886C88.648 82.2748 87.3172 82.4774 86.3205 82.2748C84.8465 81.9769 84.9181 81.0949 85.1986 80.3024C85.3776 79.8078 85.5686 79.3251 85.6641 78.8008C85.7715 78.2466 85.8192 77.6626 85.6342 77.1144H85.6283Z" fill="#5CA2F5"/>
<path d="M77.673 65.9772C77.1478 65.7865 76.7539 65.9414 76.2466 66.1202C75.5245 66.3824 73.8595 66.5135 73.5252 66.4002C73.0717 66.2453 71.6394 65.5124 70.1593 65.709C67.7781 66.0189 66.0653 67.7589 65.8385 68.611C65.6535 69.2903 66.9128 69.6955 68.918 68.4799C69.849 67.9138 71.5379 68.2535 72.5226 69.6479C73.0896 70.4464 72.2183 70.8635 74.6413 72.2698C76.1631 73.1517 77.3268 74.0277 78.2161 73.7357C79.8035 73.2113 79.0874 72.6035 78.3235 71.6977C77.0702 70.202 78.6637 68.6825 78.7412 68.0926C78.8606 67.2345 78.5503 66.293 77.673 65.9831V65.9772Z" fill="#5CA2F5"/>
<path d="M62.6158 53.3919C62.395 53.1059 61.0224 52.3849 60.5688 52.2121C59.6736 51.8664 58.5934 51.789 57.9012 52.0273C57.4476 52.1823 57.1492 52.5279 57.2566 53.0106C57.3342 53.3502 57.6624 53.6541 57.8654 53.9223C58.1459 54.2917 58.4263 54.7506 58.8023 55.0366C59.2917 55.412 59.9064 55.4358 60.4972 55.3465C61.1179 55.2511 61.9952 55.1498 62.4667 54.691C62.8247 54.3454 62.9322 53.8091 62.6099 53.3919H62.6158Z" fill="#5CA2F5"/>
<path d="M76.1273 93.6206C74.9516 92.1189 76.3242 91.0761 76.7479 89.9618C77.2851 88.5615 77.6193 86.7917 76.1869 85.3556C75.2321 84.3962 72.1228 84.9325 70.0101 87.5127C69.2104 88.49 68.2078 89.8128 67.0202 89.217C65.8325 88.6211 65.4028 87.03 65.8146 85.8502C66.2264 84.6703 65.9459 83.3951 65.1224 83.3236C63.6483 83.1865 62.395 84.3783 62.4248 85.8502C62.4368 86.5593 64.5077 87.5187 64.4539 88.5436C64.4062 89.5685 63.6125 91.0404 64.1675 92.5957C64.7225 94.1509 65.9877 94.6694 66.9366 93.6206C67.8855 92.5718 67.8855 90.5815 68.6793 89.8367C69.473 89.0918 71.9318 88.2278 72.2123 89.3957C72.6121 91.0821 71.1977 94.3178 72.6241 95.599C73.4715 96.3557 74.5279 97.7084 75.9542 96.7133C77.106 95.9088 77.1299 94.9077 76.1213 93.6206H76.1273Z" fill="#5CA2F5"/>
<path d="M57.9429 69.046C56.2122 69.7253 56.1764 68.8494 54.9888 69.8803C53.8011 70.9112 53.6698 71.9301 55.687 72.2638C57.0656 72.4903 57.2387 74.0396 58.5516 74.2482C59.2678 74.3614 60.1749 72.818 60.0257 71.6441C59.7452 69.5108 60.5807 67.3716 61.5177 66.2096C62.4547 65.0476 63.3021 63.6949 62.0369 63.8618C61.5416 63.9273 59.2797 65.864 59.0887 66.5016C58.7903 67.4967 58.6411 68.7719 57.9489 69.046H57.9429Z" fill="#66C0FB"/>
<path d="M53.6699 62.0681C52.3092 62.2588 51.9391 62.5508 50.656 63.4923C49.3729 64.4338 47.9824 64.4576 47.4512 64.5232C46.9201 64.5947 45.7981 64.6305 44.5449 65.709C43.2856 66.7935 43.8347 67.1094 44.5449 67.1153C45.255 67.1213 46.0846 65.1966 47.4512 65.4885C48.8179 65.7805 51.4438 66.7101 52.9597 66.2394C54.4755 65.7686 53.6042 64.0763 54.3383 63.2241C55.0723 62.378 54.9112 61.8894 53.6699 62.0622V62.0681Z" fill="#66C0FB"/>
<path d="M76.2825 67.0796C74.6353 67.5146 74.1817 67.3537 73.4119 67.0796C72.642 66.8054 70.9829 65.7805 69.9504 66.2155C68.924 66.6505 69.3895 67.2822 70.9769 67.598C72.5644 67.9138 74.0206 69.5406 74.6413 70.5476C75.256 71.5547 77.9236 73.5092 77.6611 71.9361C77.3985 70.3689 76.6047 69.5465 77.2373 68.611C77.8699 67.6754 77.4641 66.7697 76.2884 67.0796H76.2825Z" fill="#66C0FB"/>
<path d="M73.9072 85.6356C72.6002 85.9515 71.6095 86.2613 71.5319 87.1075C71.4484 88.0728 73.0001 87.1075 73.5312 88.5436C73.7401 89.0978 73.1254 90.5637 73.0001 92.5957C72.8747 94.6277 74.4741 95.1163 75.1008 94.8303C75.7274 94.5442 74.319 93.126 75.1008 91.1476C75.8826 89.1693 76.6047 87.5902 76.0437 86.4699C75.4827 85.3496 74.9933 85.3675 73.9072 85.6356Z" fill="#66C0FB"/>
<path d="M83.1754 76.2742C82.4653 76.3517 83.635 77.8295 83.7245 78.92C83.808 80.0104 82.2683 82.5132 82.2086 83.7109C82.149 84.9087 83.6529 85.0398 84.6018 84.3783C85.5507 83.7228 86.4996 83.3772 87.4127 84.3783C88.3258 85.3794 89.2628 85.874 89.5134 84.6465C89.7641 83.4189 88.3198 82.9363 87.4127 82.8886C86.5056 82.8469 84.8942 83.1508 84.4466 82.7754C83.4977 81.9769 84.6853 80.3322 84.9241 78.7471C85.1628 77.1561 84.3631 76.1431 83.1814 76.2742H83.1754Z" fill="#66C0FB"/>
<path d="M65.1999 89.4017C64.3764 90.1167 64.2331 91.1178 65.2775 92.6016C66.3279 94.0794 67.0202 91.6601 67.0977 90.8914C67.1753 90.1227 65.8743 88.8117 65.1999 89.4017Z" fill="#66C0FB"/>
<path d="M56.9224 85.1828C55.8362 85.9813 55.4185 87.2565 56.9224 88.5853C58.4263 89.9142 59.7214 90.2717 59.7214 89.3183C59.7214 88.5794 57.6445 84.6584 56.9224 85.1887V85.1828Z" fill="#66C0FB"/>
<path d="M67.1037 72.5379C65.7908 72.4307 65.2775 73.0087 64.9612 73.7297C64.6449 74.4508 66.3876 74.3673 67.4916 74.0158C68.6017 73.6642 68.8464 72.681 67.0978 72.5379H67.1037Z" fill="#66C0FB"/>
<path d="M73.8893 77.9605C72.8509 78.7888 73.006 81.1843 73.5372 81.3571C74.4264 81.6432 75.5006 82.2391 75.5723 80.9877C75.6439 79.7363 74.5458 77.4362 73.8893 77.9605Z" fill="#66C0FB"/>
<path d="M50.3218 78.4849C49.3371 78.5028 48.1495 78.5982 47.7855 77.9606C47.3438 77.1859 48.0301 76.3457 48.2629 75.4876C48.4956 74.6295 48.3942 71.4832 46.9917 70.7443C46.0548 70.2497 44.3121 71.9957 43.8705 72.8478C43.3513 73.8489 42.7246 75.2016 44.8731 76.5423C45.5176 76.9416 46.9917 78.4671 44.5389 79.2656C43.405 79.635 41.1372 79.4801 39.9495 80.0641C38.7619 80.648 40.2241 82.2629 41.2983 83.2044C42.2174 84.0148 43.7869 85.7608 45.2013 83.0673C45.8399 81.8458 46.8127 80.1296 47.7855 80.4693C49.2834 80.9877 47.8929 85.6416 48.1555 87.3757C48.2152 87.7689 49.0149 88.2397 49.5221 87.5544C49.8862 87.0598 49.928 85.5999 50.2681 84.8133C50.4591 84.3604 51.5214 81.8875 51.6945 80.1534C51.79 79.1583 52.0108 78.4611 50.3218 78.4909V78.4849Z" fill="#5CA2F5"/>
<path d="M45.6967 71.9301C44.3957 72.3711 43.7869 74.558 44.9865 75.4816C45.9772 76.2503 46.8903 76.441 47.1529 75.142C47.4154 73.837 47.2842 71.3938 45.6967 71.9301Z" fill="#66C0FB"/>
<path d="M43.5124 80.4633C42.1995 80.6182 41.1431 80.4752 40.8209 81.2916C40.5642 81.9411 41.6385 82.7217 42.2233 83.0674C42.7067 83.3534 43.4348 83.8718 44.3419 82.4119C45.255 80.9519 45.4162 80.2369 43.5124 80.4633Z" fill="#66C0FB"/>
<path d="M49.6355 79.2596C48.5195 79.2596 48.6329 79.7602 49.0029 80.648C49.373 81.5359 49.0566 82.2867 48.8478 84.1221C48.6329 85.9574 49.5042 86.3329 49.7131 84.8074C49.9817 82.8469 50.7515 81.5538 50.6561 80.4216C50.5606 79.2894 50.5188 79.2537 49.6355 79.2596Z" fill="#66C0FB"/>
<path d="M38.4993 70.202C38.0457 70.3391 37.3893 71.8765 37.3355 73.0146C37.2818 74.1528 37.5802 76.2682 38.547 75.9405C39.5138 75.6127 39.3348 74.0873 40.045 73.2411C40.97 72.1327 39.8779 71.948 39.4959 71.3342C39.1558 70.786 39.1379 70.0113 38.4933 70.208L38.4993 70.202Z" fill="#66C0FB"/>
<path d="M50.662 54.6969C49.7549 53.8388 49.3192 53.3562 47.2603 53.1357C45.2013 52.9152 43.9123 54.4586 42.8679 55.7457C41.8235 57.0328 41.8652 58.743 40.7373 59.3628C39.6094 59.9825 39.12 60.7154 38.6067 61.651C38.0935 62.5865 39.3229 63.2063 40.415 62.0681C41.5072 60.93 41.6265 58.6656 42.8858 58.9576C44.145 59.2436 44.6403 60.6916 46.5023 60.495C48.3643 60.2983 48.5792 59.3091 47.7317 58.1174C46.8903 56.9256 47.2185 55.6444 48.7403 56.2343C50.2622 56.8243 51.8974 55.8708 50.662 54.7029V54.6969Z" fill="#5CA2F5"/>
<path d="M46.5024 54.2023C44.6702 54.2977 44.1808 55.269 43.2976 56.4012C42.856 56.9673 42.5516 58.0756 43.0827 58.2544C43.6198 58.4391 44.8731 59.2972 45.5236 57.8611C45.9772 56.86 47.2603 55.4656 47.8392 55.1379C48.4181 54.8102 47.8869 54.1308 46.5024 54.2023Z" fill="#66C0FB"/>
<path d="M53.0253 63.0811C52.4047 63.3076 51.6348 64.6185 52.339 65.1012C52.4226 65.1608 52.5718 65.1608 52.6613 65.1012C52.9537 64.8867 52.906 64.6364 52.9776 64.3087C53.0552 63.9809 53.2402 63.7128 53.3476 63.397C53.4073 63.2182 53.2104 63.0096 53.0313 63.0811H53.0253Z" fill="#D0F3F8"/>
<path d="M50.8052 64.8211C50.6501 64.8211 50.5248 64.8867 50.3696 64.8569C50.1846 64.8211 50.0115 64.7198 49.8265 64.6841C49.5579 64.6305 49.2178 64.6781 49.1581 64.988C49.1462 65.0535 49.1641 65.1191 49.2237 65.1489C49.3968 65.2561 49.5938 65.3157 49.7668 65.4289C49.9399 65.5481 50.0891 65.6435 50.3039 65.6852C50.674 65.7567 51.1633 65.5958 51.1335 65.1489C51.1215 64.9761 50.9903 64.8152 50.8052 64.8211Z" fill="#D0F3F8"/>
<path d="M56.5762 69.9041C55.8482 69.8088 55.2155 70.8456 55.8661 71.3342C56.0093 71.4415 56.248 71.3342 56.2838 71.1674C56.3316 70.9469 56.3614 70.7562 56.5106 70.5715C56.624 70.4344 56.7254 70.3451 56.7851 70.1723C56.8388 70.0292 56.7075 69.922 56.5822 69.9041H56.5762Z" fill="#D0F3F8"/>
<path d="M60.9925 65.2681C60.2048 65.3455 59.6677 66.5433 59.9959 67.2166C60.0615 67.3537 60.2406 67.3179 60.3122 67.2166C60.5211 66.9425 60.6046 66.6327 60.7479 66.3288C60.8791 66.0487 61.1059 65.8044 61.1656 65.4945C61.1835 65.3932 61.1179 65.2502 60.9925 65.2681Z" fill="#D0F3F8"/>
<path d="M72.7136 67.6397C72.4152 67.1391 71.532 66.8114 70.971 66.9008C70.9053 66.9127 70.8695 67.0081 70.9053 67.0557C71.0844 67.2941 71.2813 67.4311 71.526 67.5861C71.8005 67.7589 72.0631 68.0091 72.3914 68.0509C72.6241 68.0866 72.8509 67.8661 72.7136 67.6337V67.6397Z" fill="#D0F3F8"/>
<path d="M76.6465 70.3093C76.5272 70.0769 76.4615 69.8445 76.4138 69.5942C76.378 69.4214 76.3422 68.8136 76.0079 68.9268C75.6021 69.0639 75.6618 69.6479 75.7275 69.9875C75.811 70.4344 75.9841 70.9588 76.4436 71.1257C76.6286 71.1912 76.8196 71.0184 76.8196 70.8396C76.8196 70.6311 76.742 70.4881 76.6525 70.3093H76.6465Z" fill="#D0F3F8"/>
<path d="M74.7785 79.3549C74.6591 79.1583 74.3846 78.8544 74.134 79.057C73.8952 79.2477 74.1459 79.6112 74.2056 79.8078C74.2951 80.076 74.2951 80.3024 74.4622 80.5408C74.5756 80.6957 74.8143 80.7255 74.9217 80.5408C75.1485 80.1475 74.9993 79.7304 74.7785 79.3609V79.3549Z" fill="#D0F3F8"/>
<path d="M45.4997 55.114C44.8671 55.114 43.9122 55.8887 44.1569 56.5978C44.2226 56.7945 44.4613 56.8719 44.6224 56.723C44.8193 56.5263 44.8671 56.2403 45.0282 56.0198C45.1953 55.7934 45.4161 55.6146 45.625 55.4299C45.7444 55.3226 45.6489 55.12 45.4997 55.12V55.114Z" fill="#D0F3F8"/>
<path d="M67.5752 73.2649C67.3126 73.0325 67.0022 73.0861 66.6621 73.0981C66.3219 73.1159 65.9817 73.1279 65.6714 73.2768C65.564 73.3305 65.564 73.5092 65.6714 73.5629C65.9817 73.7118 66.3219 73.7237 66.6621 73.7416C66.9963 73.7595 67.3066 73.8072 67.5752 73.5748C67.6587 73.4973 67.6587 73.3424 67.5752 73.2649Z" fill="#D0F3F8"/>
<path d="M61.1 79.5456C60.7658 79.4682 60.4733 79.6648 60.1391 79.641C59.8228 79.6171 59.5424 79.4801 59.2141 79.4741C59.1186 79.4741 59.0172 79.5635 59.0231 79.6648C59.1067 80.6361 61.0522 80.9043 61.3268 79.9449C61.3745 79.784 61.2731 79.5873 61.1 79.5456Z" fill="#D0F3F8"/>
<path d="M57.549 76.8224C57.3819 76.6853 57.1253 76.7688 57.1193 77.0012C57.1074 77.4421 57.3819 78.1036 57.6923 78.4134C57.8713 78.5981 58.2473 78.4671 58.2294 78.1929C58.1995 77.746 57.9011 77.1084 57.555 76.8224H57.549Z" fill="#D0F3F8"/>
<path d="M46.1145 74.4329C45.6728 74.3256 45.6549 73.8251 45.4401 73.4973C45.3386 73.3424 45.1297 73.3781 45.0701 73.545C44.8313 74.2005 45.2014 75.0347 45.9115 75.1777C46.3949 75.279 46.6038 74.552 46.1204 74.4329H46.1145Z" fill="#D0F3F8"/>
<path d="M38.8097 71.6083C38.8395 71.4653 38.7142 71.2925 38.553 71.3521C38.1532 71.5011 37.9324 71.9301 37.8309 72.3234C37.7474 72.6571 37.6817 73.3245 38.0458 73.539C38.4277 73.7655 38.5172 73.2947 38.5113 73.0325C38.5113 72.7942 38.4993 72.5677 38.553 72.3353C38.6127 72.0851 38.7619 71.8646 38.8156 71.6143L38.8097 71.6083Z" fill="#D0F3F8"/>
<path d="M42.9156 82.2152C42.7664 81.9769 42.5217 81.8815 42.3128 81.7027C42.1278 81.5419 41.9906 81.3095 41.7578 81.2022C41.6564 81.1545 41.531 81.1903 41.4952 81.3095C41.3281 81.8696 42.0741 82.7158 42.6351 82.6919C42.8679 82.68 43.0469 82.4238 42.9096 82.2093L42.9156 82.2152Z" fill="#D0F3F8"/>
<path d="M58.4144 87.9298C58.2294 87.608 57.9429 87.3637 57.7341 87.0598C57.5431 86.7798 57.4715 86.3686 57.2089 86.1421C57.1015 86.0468 56.9403 86.0587 56.8627 86.1839C56.624 86.5712 56.8806 87.1432 57.0955 87.4948C57.3461 87.9 57.7102 88.2457 58.2055 88.2874C58.3965 88.3052 58.498 88.0728 58.4144 87.9239V87.9298Z" fill="#D0F3F8"/>
<path d="M74.4563 86.3567C74.2832 86.3686 74.1817 86.5354 74.2653 86.6904C74.4205 86.9824 74.6652 87.1909 74.7726 87.5127C74.874 87.8107 74.88 88.1444 74.9576 88.4483C74.9994 88.627 75.2202 88.6628 75.3455 88.5496C76.0437 87.9179 75.435 86.3031 74.4563 86.3567Z" fill="#D0F3F8"/>
<path d="M74.2951 92.6433C74.2772 92.2977 74.3966 91.9163 74.2891 91.5826C74.2533 91.4635 74.1101 91.392 73.9967 91.4635C73.3701 91.8508 73.2746 93.4359 74.0146 93.7338C74.1041 93.7696 74.2235 93.71 74.2712 93.6325C74.4622 93.3107 74.319 92.9949 74.3011 92.6433H74.2951Z" fill="#D0F3F8"/>
<path d="M65.5341 89.9261C65.3849 89.9142 65.2357 90.0989 65.2894 90.2419C65.3849 90.4803 65.564 90.671 65.6774 90.9033C65.7908 91.1477 65.8206 91.4039 66.0056 91.6125C66.1429 91.7614 66.4055 91.7197 66.5009 91.5469C66.8471 90.9391 66.1846 89.9797 65.5341 89.9261Z" fill="#D0F3F8"/>
<path d="M83.9692 77.1025C83.8558 77.0727 83.7603 77.1561 83.7544 77.2693C83.7365 77.5434 83.8916 77.8056 83.9274 78.0797C83.9632 78.3538 83.9095 78.6399 84.011 78.908C84.0766 79.0808 84.2975 79.1762 84.4407 79.0212C84.8883 78.5445 84.6436 77.2931 83.9752 77.1084L83.9692 77.1025Z" fill="#D0F3F8"/>
<path d="M83.9692 83.6632C83.9214 83.6037 83.8737 83.55 83.8259 83.4904C83.7245 83.2282 83.5037 83.0197 83.5872 82.6979C83.6349 82.5132 83.4141 82.3046 83.2411 82.4298C82.871 82.7039 82.7636 83.115 82.9606 83.55C83.1456 83.9493 83.5574 84.1161 83.9035 83.9314C83.9871 83.8837 84.0348 83.7526 83.9751 83.6692L83.9692 83.6632Z" fill="#D0F3F8"/>
<path d="M59.8169 52.6471C59.6259 52.653 59.5185 52.8497 59.602 53.0165C59.7453 53.3085 60.0198 53.529 60.2048 53.8031C60.3838 54.0593 60.5091 54.3871 60.8434 54.4586C60.9806 54.4884 61.1119 54.4407 61.1895 54.3156C61.6252 53.6303 60.4674 52.6232 59.8169 52.653V52.6471Z" fill="#D0F3F8"/>
<path d="M78.8964 55.0306C79.1053 55.5371 79.905 56.3833 80.8957 57.5274C81.4567 58.171 82.5369 58.0637 82.8532 56.5859C83.1695 55.1081 82.3996 53.5945 80.8957 53.4634C79.3917 53.3383 78.3175 53.6422 78.8964 55.0306Z" fill="#66C0FB"/>
<path d="M68.3689 48.6248C67.4021 48.6546 67.4678 48.6248 66.6143 50.2873C65.755 51.9499 65.9221 52.3074 67.1037 51.5745C68.2854 50.8415 68.3689 49.9715 69.9504 49.8106C70.7263 49.7331 69.1269 48.601 68.3689 48.6248Z" fill="#66C0FB"/>
<path d="M80.8957 59.3628C79.9229 59.3151 77.3925 59.0171 76.2467 58.4808C75.0949 57.9505 73.6566 56.7706 72.7554 57.3606C71.8543 57.9505 72.9225 58.4451 73.9311 58.6715C74.9397 58.898 77.9774 59.8633 78.7413 60.4532C79.911 61.359 81.8088 61.3292 82.519 61.3411C83.2292 61.359 84.572 60.1315 83.7544 59.3568C82.9367 58.5762 82.2445 59.4224 80.8957 59.3568V59.3628Z" fill="#66C0FB"/>
<path d="M87.174 59.6786C86.3982 59.5296 85.7297 62.3065 85.9565 63.963C86.1773 65.6196 87.6813 66.1023 88.1169 63.963C88.5526 61.8238 88.481 59.9289 87.174 59.6786Z" fill="#66C0FB"/>
<path d="M85.5029 70.6549C84.4764 70.941 83.9035 71.5845 84.751 72.526C85.5984 73.4675 86.4101 73.1398 86.6786 72.8657C87.532 72.0016 86.1713 70.4702 85.5029 70.6549Z" fill="#66C0FB"/>
<path d="M67.6349 53.1357C66.9784 52.1167 65.558 53.8448 66.6442 54.1964C67.7303 54.5479 70.219 56.9017 70.3443 55.9721C70.4577 55.1081 68.3689 54.2798 67.6349 53.1357Z" fill="#66C0FB"/>
<path d="M92.6704 70.2259C91.8409 70.2616 91.632 71.0601 91.8767 72.1744C92.1214 73.2888 93.13 72.8955 93.7506 72.1148C94.3713 71.3342 93.124 70.202 92.6704 70.2259Z" fill="#66C0FB"/>
<path d="M97.8984 81.4704C97.1106 81.5538 96.7108 83.6752 95.6843 84.6047C94.6578 85.5343 95.8454 87.2148 96.7943 87.4829C97.7432 87.7511 98.537 86.2137 98.6921 84.3724C98.8533 82.531 99.0084 81.3512 97.8984 81.4704Z" fill="#66C0FB"/>
<path d="M85.306 71.078C85.2761 71.0899 85.2582 71.1197 85.2642 71.1495C85.3119 71.364 85.4611 71.513 85.5626 71.6977C85.6879 71.9242 85.7118 72.0136 85.9266 72.1566C85.9863 72.1923 86.0639 72.1685 86.0997 72.1089C86.3743 71.662 85.8252 70.9112 85.306 71.072V71.078Z" fill="#D0F3F8"/>
<path d="M83.1396 59.6309C83.1098 59.5594 83.0322 59.5117 82.9606 59.5594C82.7637 59.6905 82.6204 59.8752 82.4175 59.9944C82.2027 60.1255 81.9938 60.1851 81.8386 60.3937C81.7073 60.5724 81.8864 60.7929 82.0714 60.7989C82.5488 60.8167 83.3545 60.1553 83.1396 59.625V59.6309Z" fill="#D0F3F8"/>
<path d="M87.4664 60.3579C87.4485 60.3043 87.4067 60.2745 87.353 60.2685C86.7861 60.203 86.4399 61.2458 86.5175 61.6808C86.5593 61.9072 86.8517 61.8893 86.9591 61.7404C87.1322 61.4961 87.1919 61.1922 87.3172 60.93C87.4127 60.7333 87.532 60.5784 87.4664 60.3579Z" fill="#D0F3F8"/>
<path d="M92.7122 71.364C92.7122 71.1853 92.748 71.0959 92.6704 70.929C92.6346 70.8575 92.5451 70.8337 92.4735 70.8516C91.9722 70.941 91.8707 72.0314 92.4198 72.1268C92.6167 72.1625 92.7063 72.0255 92.7421 71.8467C92.7719 71.6799 92.7063 71.5309 92.7063 71.364H92.7122Z" fill="#D0F3F8"/>
<path d="M98.2863 82.4834C98.1789 82.2927 97.8805 82.3344 97.8208 82.543C97.7552 82.7754 97.7432 83.0137 97.6835 83.2461C97.6179 83.4785 97.5284 83.6573 97.5343 83.9016C97.5403 84.1102 97.7731 84.2591 97.964 84.1459C98.4832 83.8301 98.5668 82.978 98.2863 82.4774V82.4834Z" fill="#D0F3F8"/>
<path d="M79.9885 54.9949C79.9169 54.7506 79.9826 54.548 80.0423 54.3096C80.1139 54.0355 79.7916 53.8806 79.5947 54.0474C79.159 54.4169 79.0934 55.7457 79.8871 55.698C79.9706 55.698 80.0781 55.6385 80.09 55.5431C80.1258 55.3286 80.0542 55.1975 79.9945 54.9949H79.9885Z" fill="#D0F3F8"/>
<path d="M68.1362 49.1134C67.6468 49.03 66.9665 49.4233 66.9963 49.9655C67.0082 50.1443 67.2171 50.3112 67.3842 50.186C67.5454 50.0728 67.6229 49.9238 67.7483 49.7749C67.8796 49.6199 68.0526 49.5067 68.2078 49.3756C68.2973 49.2981 68.2555 49.1253 68.1362 49.1075V49.1134Z" fill="#D0F3F8"/>
<path d="M65.5938 101.141C64.4062 101.016 62.2279 101.528 60.1809 101.141C58.1339 100.753 58.0623 102.982 60.1809 104.353C62.2995 105.723 65.9937 104.901 66.9963 103.679C67.9989 102.458 68.1481 101.409 65.5938 101.141Z" fill="#1F93FB"/>
<path d="M73.1194 101.141C71.902 101.713 73.0418 102.684 74.6353 103.679C76.2287 104.668 78.8129 104.216 78.7353 103.024C78.6577 101.826 77.3149 101.939 76.2407 101.778C75.1724 101.617 74.1221 100.67 73.1135 101.147L73.1194 101.141Z" fill="#1F93FB"/>
<path d="M50.1487 100.73C49.6415 101.457 51.0917 102.356 52.8642 102.613C54.6366 102.869 54.3382 101.88 54.1294 101.093C53.831 99.9549 50.9664 99.5557 50.1487 100.73Z" fill="#1F93FB"/>
<path d="M34.5963 88.0728C33.7787 89.1395 34.644 90.4266 35.5989 90.6947C36.5478 90.9629 38.3322 90.1525 37.3356 89.4017C36.3389 88.6508 35.3363 87.1075 34.6022 88.0728H34.5963Z" fill="#1F93FB"/>
<path d="M44.6224 63.4029L44.0614 62.7295C45.5594 61.4722 47.6302 60.7929 49.6295 60.1315C50.4591 59.8573 51.3125 59.5773 52.0883 59.2614C53.1924 58.8145 53.8369 58.2842 53.9981 57.6764C54.1711 57.0209 53.8488 56.1807 53.0014 55.1081C51.3363 52.9867 47.9167 51.4255 47.8809 51.4076L48.2449 50.6091C48.3941 50.6746 51.8914 52.2776 53.6937 54.5658C54.7202 55.8708 55.0962 56.9673 54.8455 57.9028C54.6068 58.8026 53.8071 59.5117 52.4165 60.0719C51.6109 60.3936 50.7455 60.6797 49.904 60.9597C47.9823 61.5914 45.995 62.2469 44.6224 63.3969V63.4029Z" fill="white"/>
<path d="M49.2535 91.9819C47.5885 91.9819 45.8219 91.3741 44.4971 90.1763C43.8764 89.6162 43.2915 89.068 42.7425 88.5496C40.3851 86.3328 38.6902 84.7358 37.1505 85.0338C33.8502 85.6714 32.6208 86.1958 32.6089 86.2017L32.0598 86.4401L31.9942 85.8442C31.9823 85.7191 31.6898 82.8111 32.6686 80.4871C33.6413 78.1691 34.5723 77.3289 34.6082 77.2932L35.193 77.9486C35.193 77.9486 34.3635 78.7233 33.4742 80.8268C32.8237 82.3642 32.7939 84.2591 32.8297 85.1887C33.4981 84.9682 34.7991 84.5928 36.9774 84.1757C38.9528 83.7884 40.791 85.5224 43.3393 87.9179C43.8824 88.4304 44.4613 88.9726 45.0759 89.5328C47.1946 91.4456 50.7395 91.6482 52.3748 89.9499L53.0074 90.5577C52.0823 91.5171 50.7037 91.9938 49.2416 91.9938L49.2535 91.9819Z" fill="white"/>
<path d="M37.067 85.0457C36.8283 85.0457 36.6373 84.855 36.6313 84.6226C36.6313 84.4498 36.5538 80.356 40.4389 76.7747C42.3785 74.987 42.5635 72.961 42.647 72.097C42.7604 70.8754 41.7996 69.9458 41.0357 69.195C40.8984 69.0579 40.7671 68.9328 40.6537 68.8136C40.3195 68.468 40.0032 68.1939 39.6989 67.9317C38.7738 67.1332 37.9741 66.4419 37.3475 64.3265C36.5776 61.7344 37.5206 59.8693 37.5623 59.7918C37.6757 59.5773 37.9383 59.4938 38.1532 59.6071C38.368 59.7203 38.4516 59.9825 38.3441 60.197C38.3382 60.2149 37.5265 61.8417 38.189 64.0822C38.744 65.9533 39.3885 66.5075 40.2718 67.2762C40.5762 67.5384 40.9223 67.8363 41.2804 68.2117C41.3878 68.325 41.5131 68.4441 41.6444 68.5752C42.4978 69.4095 43.6676 70.5476 43.5184 72.1744C43.4348 73.0623 43.22 75.4101 41.0357 77.4242C37.437 80.7374 37.5086 84.563 37.5086 84.5988C37.5146 84.8431 37.3236 85.0397 37.0849 85.0517H37.073L37.067 85.0457Z" fill="white"/>
<path d="M43.0588 71.9242C42.9454 71.9242 42.832 71.8825 42.7425 71.7931C42.5754 71.6203 42.5754 71.3402 42.7485 71.1733C44.0734 69.8862 46.0905 68.462 49.91 68.8792C52.3509 69.1473 54.004 67.4967 55.4602 66.0427L55.5259 65.9772C56.988 64.5172 59.8228 61.3888 59.8526 61.359C60.0138 61.1802 60.2943 61.1683 60.4733 61.3292C60.6523 61.4901 60.6643 61.7702 60.5031 61.9489C60.4733 61.9787 57.6266 65.1191 56.1465 66.5969L56.0809 66.6624C54.565 68.176 52.6672 70.059 49.8145 69.7492C46.371 69.3678 44.6224 70.5774 43.3572 71.799C43.2737 71.8824 43.1603 71.9242 43.0528 71.9242H43.0588Z" fill="white"/>
<path d="M56.7075 57.3963C56.5106 57.3963 56.3315 57.2593 56.2838 57.0567C55.4304 53.4753 52.5717 52.3074 52.5419 52.2955C52.3151 52.2061 52.2077 51.9499 52.2972 51.7294C52.3867 51.5029 52.6433 51.3957 52.8641 51.4851C53.0014 51.5387 56.1764 52.8437 57.1312 56.86C57.1849 57.0924 57.0417 57.3308 56.809 57.3903C56.7732 57.3963 56.7433 57.4023 56.7075 57.4023V57.3963Z" fill="white"/>
<path d="M53.6698 81.6193H53.6639C53.4192 81.6193 53.2282 81.4167 53.2342 81.1724C53.2342 81.1605 53.2461 79.7899 52.7448 78.0797C52.4584 77.1025 51.9332 76.5244 51.2648 75.7915C50.8052 75.285 50.2801 74.707 49.7787 73.9144C48.5195 71.9301 48.8358 69.3618 48.8477 69.2546C48.8776 69.0162 49.1044 68.8434 49.3371 68.8791C49.5758 68.9089 49.7489 69.1294 49.7191 69.3678C49.7191 69.3916 49.4326 71.7335 50.5188 73.4496C50.9783 74.1766 51.4557 74.701 51.9153 75.2075C52.6016 75.9583 53.2461 76.6674 53.5863 77.8354C54.1294 79.6827 54.1115 81.1307 54.1115 81.1903C54.1115 81.4286 53.9145 81.6193 53.6698 81.6193Z" fill="white"/>
<path d="M35.1274 69.7134L34.256 69.6359C34.2739 69.4631 34.6857 65.3396 37.7652 64.255L38.0576 65.0833C35.5033 65.9831 35.1333 69.6836 35.1274 69.7194V69.7134Z" fill="white"/>
<path d="M50.0473 90.0512C50.0473 90.0512 50.0234 90.0512 50.0115 90.0512C49.9041 90.0452 47.4214 89.8188 45.5236 88.2456C43.7093 86.744 41.7518 85.1529 41.7518 85.1529C41.5609 84.998 41.537 84.7239 41.6862 84.5392C41.8413 84.3545 42.1159 84.3247 42.3009 84.4736C42.3009 84.4736 44.2643 86.0706 46.0786 87.5723C47.7616 88.9667 50.0533 89.1752 50.0771 89.1812C50.3159 89.1991 50.4949 89.4136 50.477 89.6579C50.4591 89.8843 50.2681 90.0571 50.0413 90.0571L50.0473 90.0512Z" fill="white"/>
<path d="M68.3689 63.0692C68.2078 63.0692 68.0586 62.9679 68.0049 62.813C67.5095 61.3709 66.2562 60.5069 64.4718 60.3817C62.9918 60.2745 61.8459 59.6369 61.4759 58.7132C61.2193 58.0697 61.3864 57.3904 61.9414 56.7825C63.2245 55.3882 65.1164 54.7506 65.2059 54.7208C65.2715 54.8459 65.4327 55.2213 65.4864 55.4358C65.4685 55.4418 63.6542 56.0556 62.5024 57.3069C62.1503 57.6943 62.0429 58.0697 62.1861 58.4332C62.4368 59.0589 63.3737 59.5356 64.5255 59.619C67.3723 59.8276 68.3808 61.5556 68.727 62.5687C68.7986 62.7713 68.6912 62.9858 68.4883 63.0573C68.4465 63.0692 68.4047 63.0752 68.3629 63.0752L68.3689 63.0692Z" fill="white"/>
<path d="M48.0719 103.054C48.0182 103.054 47.9644 103.042 47.9107 103.024C47.6839 102.934 47.5765 102.684 47.6601 102.458C48.4478 100.444 48.1614 100.223 44.1151 97.9646C43.6735 97.7203 43.196 97.4522 42.6709 97.1542C39.8241 95.5393 39.6451 92.2858 39.6391 92.1487C39.6272 91.9104 39.8182 91.7018 40.0569 91.6899C40.3076 91.672 40.5045 91.8687 40.5164 92.107C40.5164 92.1368 40.6835 95.015 43.1006 96.3915C43.6198 96.6835 44.0972 96.9516 44.5388 97.1959C48.4956 99.4067 49.5639 100.003 48.4717 102.779C48.4061 102.952 48.239 103.06 48.0659 103.06L48.0719 103.054Z" fill="white"/>
<path d="M50.0413 98.9419C49.922 98.9419 49.7966 98.8942 49.7131 98.7929C49.1223 98.1195 47.7974 97.1661 46.1741 96.2425C44.33 95.1937 42.6411 93.4418 42.5694 93.3643C42.4023 93.1915 42.4083 92.9115 42.5814 92.7446C42.7544 92.5778 43.0349 92.5837 43.202 92.7565C43.2199 92.7744 44.879 94.4965 46.6097 95.4738C48.3345 96.457 49.7071 97.4522 50.3696 98.203C50.5307 98.3877 50.5128 98.6618 50.3278 98.8227C50.2442 98.8942 50.1428 98.93 50.0354 98.93L50.0413 98.9419Z" fill="white"/>
<path d="M56.0451 104.496C56.0451 104.496 56.0093 104.496 55.9914 104.496C55.7526 104.466 55.5796 104.245 55.6094 104.007C55.6094 103.983 55.878 101.671 54.6307 99.9013C53.1685 97.8276 54.0219 94.1748 54.0577 94.0198C54.1115 93.7874 54.3442 93.6385 54.5889 93.6921C54.8216 93.7457 54.9708 93.9841 54.9171 94.2224C54.9112 94.2582 54.1234 97.6488 55.3528 99.4007C56.797 101.451 56.4986 104.013 56.4807 104.12C56.4509 104.341 56.2659 104.502 56.0451 104.502V104.496Z" fill="white"/>
<path d="M77.8162 75.3803C76.3779 75.3803 74.7964 74.3256 73.0001 73.1219C72.5525 72.824 72.0929 72.5141 71.6155 72.2162C69.2104 70.6847 64.2152 70.5596 64.1615 70.5536C63.9527 70.5536 63.7796 70.3748 63.7856 70.1603C63.7856 69.9518 63.9467 69.7968 64.1794 69.7849C64.3943 69.7849 69.4432 69.922 72.0273 71.5666C72.5047 71.8705 72.9702 72.1804 73.4238 72.4843C75.2858 73.7238 76.8912 74.7964 78.1504 74.5878C79.159 74.415 80.5137 73.4556 81.391 72.7584C81.6178 72.9431 81.7193 73.0862 81.8983 73.3364C80.9613 74.0873 79.4693 75.1479 78.2817 75.3446C78.1325 75.3684 77.9774 75.3803 77.8222 75.3803H77.8162Z" fill="white"/>
<path d="M78.8904 83.0495C78.8904 83.0495 78.8725 83.0495 78.8606 83.0495C78.6219 83.0316 78.4369 82.823 78.4548 82.5847C78.4548 82.5668 78.5741 80.797 78.4429 78.7352C78.3295 77.0191 77.5536 75.1897 77.5477 75.1718C77.4522 74.9513 77.5536 74.6891 77.7804 74.5997C78.0012 74.5044 78.2638 74.6057 78.3593 74.8321C78.3951 74.9096 79.2008 76.8164 79.3261 78.6816C79.4634 80.803 79.344 82.5728 79.338 82.6502C79.3201 82.8826 79.1292 83.0554 78.9024 83.0554L78.8904 83.0495Z" fill="white"/>
<path d="M70.4577 83.836C70.3145 83.836 70.1713 83.7645 70.0877 83.6334C70.0758 83.6156 68.7986 81.6014 67.0023 80.1594C65.1224 78.6518 62.6576 76.6138 62.6576 76.6138L63.2186 75.9405C63.2186 75.9405 65.6714 77.9725 67.5513 79.4801C69.467 81.0175 70.78 83.0792 70.8337 83.1686C70.965 83.3712 70.8993 83.6453 70.6964 83.7705C70.6248 83.8182 70.5413 83.836 70.4637 83.836H70.4577Z" fill="white"/>
<path d="M36.7566 76.3159C37.1983 77.1144 36.7328 78.2168 35.7182 78.7829C34.6977 79.349 33.516 79.1583 33.0684 78.3598C32.6268 77.5613 33.0923 76.4589 34.1069 75.8928C35.1274 75.3267 36.309 75.5174 36.7566 76.3159Z" fill="white"/>
<path d="M35.9211 76.7807C36.1658 77.2157 35.9092 77.8235 35.3482 78.1334C34.7872 78.4432 34.1426 78.336 33.898 77.901C33.6533 77.466 33.9099 76.8582 34.4709 76.5483C35.0319 76.2384 35.6764 76.3457 35.9211 76.7807Z" fill="#1F93FB"/>
<path d="M35.9211 76.7807C36.1658 77.2157 35.9092 77.8235 35.3482 78.1334C34.7872 78.4432 34.1426 78.336 33.898 77.901C33.6533 77.466 33.9099 76.8582 34.4709 76.5483C35.0319 76.2384 35.6764 76.3457 35.9211 76.7807Z" fill="#447BE9"/>
<path d="M40.2897 89.0322C41.2028 89.1216 41.8473 90.1346 41.728 91.2907C41.6146 92.4467 40.785 93.3107 39.8719 93.2214C38.9588 93.132 38.3143 92.1189 38.4337 90.9629C38.5471 89.8069 39.3766 88.9428 40.2897 89.0322Z" fill="white"/>
<path d="M40.1942 89.9797C40.6955 90.0274 41.0477 90.5815 40.982 91.2192C40.9164 91.8508 40.4628 92.3275 39.9675 92.2798C39.4661 92.2322 39.114 91.678 39.1797 91.0404C39.2453 90.4087 39.6989 89.932 40.1942 89.9797Z" fill="#1F93FB"/>
<path d="M40.1942 89.9797C40.6955 90.0274 41.0477 90.5815 40.982 91.2192C40.9164 91.8508 40.4628 92.3275 39.9675 92.2798C39.4661 92.2322 39.114 91.678 39.1797 91.0404C39.2453 90.4087 39.6989 89.932 40.1942 89.9797Z" fill="#447BE9"/>
<path d="M54.1413 87.8941C54.9589 88.3052 55.2275 89.4136 54.7441 90.361C54.2606 91.3085 53.2103 91.7435 52.3927 91.3324C51.5751 90.9212 51.3065 89.8128 51.7899 88.8654C52.2733 87.9179 53.3237 87.4829 54.1413 87.8941Z" fill="white"/>
<path d="M53.7474 88.6687C54.195 88.8952 54.3442 89.503 54.0816 90.0214C53.819 90.5398 53.2401 90.7782 52.7925 90.5517C52.3449 90.3253 52.1957 89.7175 52.4583 89.1991C52.7209 88.6806 53.2998 88.4423 53.7474 88.6687Z" fill="#1F93FB"/>
<path d="M61.8698 61.073C62.3114 61.8715 61.8459 62.9739 60.8314 63.54C59.8109 64.1061 58.6292 63.9154 58.1816 63.1169C57.74 62.3184 58.2055 61.216 59.22 60.6499C60.2405 60.0838 61.4222 60.2745 61.8698 61.073Z" fill="white"/>
<path d="M61.0343 61.5378C61.2789 61.9728 61.0223 62.5806 60.4613 62.8905C59.9003 63.2003 59.2558 63.0931 59.0111 62.6581C58.7664 62.2231 59.0231 61.6152 59.584 61.3054C60.145 60.9955 60.7896 61.1028 61.0343 61.5378Z" fill="#1F93FB"/>
<path d="M70.3861 62.1634C70.8576 63.0156 70.5174 64.112 69.6162 64.6126C68.7151 65.1131 67.605 64.8211 67.1276 63.969C66.6561 63.1169 66.9963 62.0204 67.8974 61.5199C68.7986 61.0193 69.9087 61.3113 70.3861 62.1634Z" fill="white"/>
<path d="M69.646 62.5746C69.9086 63.0394 69.7177 63.6413 69.2223 63.9154C68.727 64.1895 68.1182 64.0286 67.8616 63.5638C67.605 63.099 67.79 62.4972 68.2853 62.223C68.7807 61.9489 69.3894 62.1098 69.646 62.5746Z" fill="#1F93FB"/>
<path d="M53.5863 79.6469C54.4994 79.6112 55.2812 80.5229 55.3289 81.6849C55.3767 82.8469 54.6725 83.8182 53.7594 83.8539C52.8463 83.8897 52.0645 82.978 52.0227 81.816C51.9749 80.654 52.6792 79.6827 53.5923 79.6469H53.5863Z" fill="white"/>
<path d="M53.6221 80.5944C54.1234 80.5765 54.5471 81.0771 54.577 81.7087C54.6008 82.3463 54.2189 82.8767 53.7176 82.9005C53.2163 82.9184 52.7926 82.4178 52.7627 81.7862C52.7388 81.1486 53.1208 80.6182 53.6221 80.5944Z" fill="#1F93FB"/>
<path d="M44.9745 63.6591C44.9745 64.5709 44.0316 65.3157 42.8679 65.3157C41.7041 65.3157 40.7612 64.5768 40.7612 63.6591C40.7612 62.7415 41.7041 62.0026 42.8679 62.0026C44.0316 62.0026 44.9745 62.7415 44.9745 63.6591Z" fill="white"/>
<path d="M44.0197 63.6591C44.0197 64.1597 43.5005 64.5649 42.8619 64.5649C42.2233 64.5649 41.7041 64.1597 41.7041 63.6591C41.7041 63.1586 42.2233 62.7534 42.8619 62.7534C43.5005 62.7534 44.0197 63.1586 44.0197 63.6591Z" fill="#1F93FB"/>
<path d="M65.5938 70.0233C65.5938 70.935 64.7583 71.6799 63.7318 71.6799C62.7053 71.6799 61.8698 70.941 61.8698 70.0233C61.8698 69.1056 62.7053 68.3667 63.7318 68.3667C64.7583 68.3667 65.5938 69.1056 65.5938 70.0233Z" fill="white"/>
<path d="M64.7523 70.0233C64.7523 70.5238 64.2928 70.929 63.7318 70.929C63.1708 70.929 62.7113 70.5238 62.7113 70.0233C62.7113 69.5227 63.1708 69.1175 63.7318 69.1175C64.2928 69.1175 64.7523 69.5227 64.7523 70.0233Z" fill="#1F93FB"/>
<path d="M63.6244 74.5461C64.4718 74.8858 64.8538 75.9286 64.4718 76.8879C64.0899 77.8414 63.0932 78.3419 62.2458 78.0023C61.3983 77.6626 61.0164 76.6198 61.3983 75.6604C61.7803 74.707 62.7769 74.2064 63.6244 74.5461Z" fill="white"/>
<path d="M63.3141 75.3267C63.7796 75.5114 63.9884 76.0835 63.7796 76.6079C63.5707 77.1323 63.0216 77.4064 62.5561 77.2216C62.0906 77.0369 61.8818 76.4649 62.0906 75.9405C62.2995 75.4161 62.8486 75.142 63.3141 75.3267Z" fill="#1F93FB"/>
<path d="M79.4395 82.5072C80.2153 82.9899 80.4122 84.0863 79.8691 84.9563C79.3261 85.8323 78.2578 86.1481 77.482 85.6714C76.7061 85.1887 76.5092 84.0923 77.0523 83.2223C77.5954 82.3463 78.6636 82.0305 79.4395 82.5072Z" fill="white"/>
<path d="M78.9978 83.2223C79.4216 83.4845 79.529 84.0863 79.2306 84.563C78.9322 85.0397 78.3473 85.2185 77.9236 84.9563C77.4999 84.6941 77.3924 84.0923 77.6908 83.6156C77.9892 83.1388 78.5741 82.9601 78.9978 83.2223Z" fill="#1F93FB"/>
<path d="M90.2534 95.1341C91.0292 95.6168 91.2262 96.7132 90.6831 97.5832C90.14 98.4592 89.0718 98.775 88.2959 98.2983C87.5201 97.8157 87.3231 96.7192 87.8662 95.8492C88.4093 94.9732 89.4776 94.6574 90.2534 95.1341Z" fill="white"/>
<path d="M89.8118 95.8492C90.2355 96.1114 90.3429 96.7133 90.0446 97.19C89.7462 97.6667 89.1613 97.8455 88.7376 97.5833C88.3138 97.3211 88.2064 96.7192 88.4988 96.2425C88.7972 95.7658 89.3821 95.587 89.8058 95.8492H89.8118Z" fill="#1F93FB"/>
<path d="M86.4817 88.341C87.2575 88.8237 87.4545 89.9201 86.9114 90.7901C86.3683 91.6661 85.3 91.9819 84.5242 91.5052C83.7484 91.0225 83.5514 89.9261 84.0945 89.056C84.6376 88.1801 85.7059 87.8643 86.4817 88.341Z" fill="white"/>
<path d="M86.0401 89.056C86.4638 89.3182 86.5712 89.9201 86.2728 90.3968C85.9744 90.8735 85.3896 91.0523 84.9658 90.7901C84.5421 90.5279 84.4347 89.926 84.7331 89.4493C85.0315 88.9726 85.6163 88.7938 86.0401 89.056Z" fill="#1F93FB"/>
<path d="M71.8661 82.245C72.642 82.7277 72.8389 83.8241 72.2958 84.6941C71.7528 85.5701 70.6845 85.8859 69.9087 85.4092C69.1328 84.9265 68.9359 83.8301 69.479 82.9601C70.022 82.0841 71.0903 81.7683 71.8661 82.245Z" fill="white"/>
<path d="M71.4245 82.9601C71.8483 83.2223 71.9557 83.8241 71.6573 84.3008C71.3589 84.7775 70.774 84.9563 70.3503 84.6941C69.9266 84.4319 69.8191 83.8301 70.1175 83.3534C70.4159 82.8766 71.0008 82.6979 71.4245 82.9601Z" fill="#1F93FB"/>
<path d="M80.8181 88.341C81.5939 88.8237 81.7908 89.9201 81.2477 90.7901C80.7047 91.6661 79.6364 91.9819 78.8606 91.5052C78.0847 91.0225 77.8878 89.9261 78.4309 89.056C78.974 88.1801 80.0422 87.8643 80.8181 88.341Z" fill="white"/>
<path d="M80.3764 89.056C80.8001 89.3182 80.9076 89.9201 80.6092 90.3968C80.3108 90.8735 79.7259 91.0523 79.3022 90.7901C78.8785 90.5279 78.771 89.926 79.0694 89.4493C79.3678 88.9726 79.9527 88.7938 80.3764 89.056Z" fill="#1F93FB"/>
<path d="M34.0591 69.0341C34.9722 69.0102 35.7361 69.9398 35.766 71.1018C35.7899 72.2638 35.0737 73.2232 34.1606 73.247C33.2475 73.2709 32.4836 72.3413 32.4538 71.1793C32.4299 70.0173 33.146 69.0579 34.0591 69.0341Z" fill="white"/>
<path d="M34.083 69.9875C34.5844 69.9756 35.0021 70.4821 35.014 71.1197C35.026 71.7573 34.6321 72.2817 34.1308 72.2936C33.6295 72.3055 33.2117 71.799 33.1998 71.1614C33.1879 70.5238 33.5817 69.9994 34.083 69.9875Z" fill="#1F93FB"/>
<path d="M34.083 69.9875C34.5844 69.9756 35.0021 70.4821 35.014 71.1197C35.026 71.7573 34.6321 72.2817 34.1308 72.2936C33.6295 72.3055 33.2117 71.799 33.1998 71.1614C33.1879 70.5238 33.5817 69.9994 34.083 69.9875Z" fill="#447BE9"/>
<path d="M54.7261 92.9949C55.6333 93.1081 56.2599 94.0556 56.1286 95.1103C55.9973 96.1651 55.1558 96.9278 54.2487 96.8146C53.3416 96.7014 52.7149 95.7539 52.8462 94.6992C52.9775 93.6444 53.819 92.8817 54.7261 92.9949Z" fill="white"/>
<path d="M54.6187 93.8589C55.1141 93.9185 55.4602 94.4429 55.3886 95.0209C55.317 95.5989 54.8515 96.0161 54.3562 95.9565C53.8608 95.8969 53.5147 95.3725 53.5863 94.7945C53.6579 94.2165 54.1234 93.7993 54.6187 93.8589Z" fill="#1F93FB"/>
<path d="M59.4886 91.4754C60.3957 91.5886 61.0224 92.5361 60.8911 93.5908C60.7598 94.6455 59.9183 95.4083 59.0112 95.295C58.104 95.1818 57.4774 94.2344 57.6087 93.1796C57.74 92.1249 58.5815 91.3622 59.4886 91.4754Z" fill="white"/>
<path d="M59.3812 92.3394C59.8765 92.399 60.2227 92.9234 60.1511 93.5014C60.0794 94.0794 59.6139 94.4966 59.1186 94.437C58.6233 94.3774 58.2771 93.853 58.3487 93.275C58.4204 92.697 58.8859 92.2798 59.3812 92.3394Z" fill="#1F93FB"/>
<path d="M71.9796 104.651C71.7408 104.651 71.5439 104.46 71.5379 104.222C71.5379 104.204 71.4902 102.219 70.4935 100.217C69.5566 98.3281 68.2197 97.8335 64.4122 97.2019C62.2518 96.8444 59.978 94.7707 59.8825 94.6813C59.7035 94.5204 59.6915 94.2403 59.8586 94.0616C60.0257 93.8828 60.3003 93.8709 60.4793 94.0377C60.5032 94.0556 62.6636 96.022 64.5614 96.3379C68.3391 96.9635 70.1175 97.4879 71.2873 99.8298C72.3734 102.017 72.4212 104.12 72.4212 104.21C72.4212 104.454 72.2302 104.651 71.9915 104.657H71.9855L71.9796 104.651Z" fill="white"/>
<path d="M73.185 100.366C72.9702 100.366 72.7852 100.211 72.7494 99.9966C72.7494 99.9788 72.4868 98.3699 71.6095 97.0053C70.7322 95.6407 69.4789 94.7468 68.4763 94.1211C68.2734 93.99 68.2077 93.7219 68.339 93.5193C68.4703 93.3167 68.7389 93.2511 68.9418 93.3822C70.016 94.0556 71.3767 95.0269 72.3435 96.5345C73.3283 98.06 73.6028 99.794 73.6147 99.8655C73.6505 100.104 73.4894 100.33 73.2507 100.366C73.2268 100.366 73.2029 100.366 73.185 100.366Z" fill="white"/>
<path d="M80.5257 104.794C80.3168 104.794 80.1318 104.645 80.096 104.436C80.096 104.406 79.5111 101.26 79.4693 97.7144C79.4276 94.1628 79.4037 91.4396 79.4037 91.4396C79.4037 91.1953 79.5947 90.9987 79.8393 90.9987C80.09 91.0106 80.281 91.1893 80.281 91.4337C80.281 91.4337 80.3048 94.1509 80.3466 97.7024C80.3884 101.176 80.9554 104.245 80.9613 104.275C81.0031 104.513 80.8479 104.74 80.6092 104.788C80.5794 104.788 80.5555 104.794 80.5257 104.794Z" fill="white"/>
<path d="M80.1198 101.063C79.8811 101.063 79.6484 100.867 79.6484 100.628C79.6484 100.384 79.8095 100.187 80.0542 100.187H80.1198C80.9494 100.187 82.889 100.175 84.5063 99.5199C86.0341 98.9002 88.1408 97.5416 88.1587 97.5237C88.3616 97.3926 88.6361 97.4522 88.7674 97.6548C88.8987 97.8574 88.839 98.1315 88.6361 98.2626C88.5466 98.3222 86.4399 99.6808 84.8345 100.33C83.0561 101.051 81.0031 101.057 80.1198 101.057V101.063Z" fill="white"/>
<path d="M78.1981 101.278C78.0072 101.278 77.8281 101.147 77.7744 100.956C77.7565 100.885 77.285 99.1147 77.2612 97.2853C77.2313 95.0686 77.2075 93.7576 77.2075 93.7576C77.2075 93.5133 77.3925 93.3167 77.6372 93.3107C77.8997 93.3107 78.0788 93.4955 78.0847 93.7398C78.0847 93.7398 78.1146 95.0507 78.1385 97.2734C78.1623 98.9896 78.6159 100.706 78.6219 100.724C78.6875 100.956 78.5443 101.2 78.3115 101.26C78.2757 101.272 78.2339 101.278 78.1981 101.278Z" fill="white"/>
<path d="M79.8572 93.8292C79.6842 93.8292 79.523 93.7278 79.4514 93.561C79.3559 93.3405 79.4633 93.0843 79.6842 92.9889C79.714 92.977 82.6383 91.7435 84.0527 90.5458C84.2377 90.3909 84.5122 90.4147 84.6734 90.5994C84.8285 90.7841 84.8047 91.0583 84.6197 91.2191C83.1038 92.5063 80.1497 93.7517 80.0243 93.7994C79.9706 93.8232 79.9109 93.8351 79.8572 93.8351V93.8292Z" fill="white"/>
<path d="M62.0489 49.0657C61.8758 49.0657 61.7146 48.9644 61.643 48.7976C60.8732 46.9444 60.4912 46.0029 60.4912 46.0029C60.4017 45.7764 60.5091 45.5202 60.7359 45.4308C60.9567 45.3414 61.2133 45.4487 61.3088 45.6751C61.3088 45.6751 61.6908 46.6107 62.4547 48.4579C62.5502 48.6784 62.4427 48.9346 62.216 49.03C62.1622 49.0538 62.1026 49.0657 62.0489 49.0657Z" fill="white"/>
<path d="M63.9108 48.2971C63.9108 49.2088 63.0753 49.9536 62.0488 49.9536C61.0223 49.9536 60.1868 49.2147 60.1868 48.2971C60.1868 47.3794 61.0223 46.6405 62.0488 46.6405C63.0753 46.6405 63.9108 47.3794 63.9108 48.2971Z" fill="white"/>
<path d="M63.0694 48.2971C63.0694 48.7976 62.6098 49.2028 62.0488 49.2028C61.4879 49.2028 61.0283 48.7976 61.0283 48.2971C61.0283 47.7965 61.4879 47.3913 62.0488 47.3913C62.6098 47.3913 63.0694 47.7965 63.0694 48.2971Z" fill="#1F93FB"/>
<path d="M72.7554 53.1119C71.4006 53.1119 69.8609 52.653 69.6281 52.5815C69.3954 52.51 69.2641 52.2657 69.3357 52.0333C69.4073 51.8009 69.652 51.6698 69.8848 51.7413C70.6666 51.9797 72.8866 52.51 73.7818 52.0631C74.5815 51.6638 75.6259 49.6438 76.0974 48.4699C76.1869 48.2434 76.4436 48.1362 76.6703 48.2255C76.8971 48.3149 77.0045 48.5712 76.915 48.7976C76.7778 49.1432 75.5364 52.1703 74.1757 52.8497C73.7878 53.0403 73.2865 53.1119 72.7554 53.1119Z" fill="white"/>
<path d="M76.9866 56.8719C76.8732 56.8719 76.7599 56.8302 76.6763 56.7408C76.6226 56.6872 75.429 55.4537 75.5961 53.9342C75.7513 52.5398 76.736 50.5436 76.7778 50.4601C76.8852 50.2456 77.1478 50.1562 77.3686 50.2635C77.5834 50.3708 77.673 50.6329 77.5655 50.8534C77.5536 50.8713 76.6047 52.796 76.4734 54.0355C76.3481 55.1498 77.297 56.1271 77.3029 56.133C77.47 56.3058 77.47 56.5859 77.297 56.7528C77.2134 56.8362 77.1 56.8779 76.9926 56.8779L76.9866 56.8719Z" fill="white"/>
<path d="M71.3827 51.1633C71.8542 52.0154 71.514 53.1119 70.6129 53.6124C69.7117 54.113 68.6017 53.821 68.1242 52.9688C67.6528 52.1167 67.9929 51.0203 68.8941 50.5197C69.7953 50.0192 70.9053 50.3112 71.3827 51.1633Z" fill="white"/>
<path d="M70.6487 51.5745C70.9113 52.0393 70.7203 52.6411 70.225 52.9152C69.7296 53.1893 69.1209 53.0284 68.8643 52.5637C68.6017 52.0989 68.7926 51.497 69.288 51.2229C69.7833 50.9488 70.3921 51.1097 70.6487 51.5745Z" fill="#1F93FB"/>
<path d="M88.0035 69.0222C86.7741 69.0222 85.4791 68.2296 84.6197 66.8531C83.6648 65.3276 82.3459 63.3076 82.3459 63.3076L83.08 62.8308C83.08 62.8308 84.4048 64.8628 85.3597 66.3883C86.1296 67.6159 87.544 68.5514 88.7674 67.9734C90.522 67.1451 91.1248 66.3645 91.1307 66.3585C91.274 66.1678 91.5485 66.1261 91.7454 66.2691C91.9364 66.4121 91.9841 66.6803 91.8409 66.8769C91.8111 66.9127 91.1307 67.8304 89.1494 68.7659C88.7853 68.9387 88.4034 69.0162 88.0095 69.0162L88.0035 69.0222Z" fill="white"/>
<path d="M84.3451 62.5389C84.8166 63.391 84.4764 64.4874 83.5753 64.988C82.6741 65.4885 81.5641 65.1966 81.0866 64.3444C80.6152 63.4923 80.9553 62.3959 81.8565 61.8953C82.7577 61.3948 83.8677 61.6867 84.3451 62.5389Z" fill="white"/>
<path d="M83.6111 62.9441C83.8737 63.4089 83.6827 64.0107 83.1873 64.2848C82.692 64.5589 82.0833 64.398 81.8267 63.9333C81.57 63.4685 81.755 62.8666 82.2504 62.5925C82.7457 62.3184 83.3545 62.4793 83.6111 62.9441Z" fill="#1F93FB"/>
<path d="M91.1307 75.4399C91.1307 75.4399 89.776 73.5807 88.8688 72.3949C87.4902 70.5953 87.6752 68.6229 87.6812 68.5395C87.7051 68.3011 87.9259 68.1224 88.1586 68.1522C88.3974 68.176 88.5764 68.3905 88.5525 68.6289C88.5525 68.6468 88.3974 70.3451 89.5611 71.8646C90.4802 73.0623 91.8409 74.9275 91.8409 74.9275L91.1307 75.4399Z" fill="white"/>
<path d="M94.1206 83.0495C94.0789 83.0495 94.0311 83.0435 93.9893 83.0316C93.7566 82.9601 93.6313 82.7158 93.7029 82.4834C93.7029 82.4655 94.2639 80.7017 94.4847 79.6112C94.8428 77.8652 94.8428 75.9464 94.8428 75.9286C94.8428 75.6842 95.0397 75.4936 95.2844 75.4936C95.5291 75.4936 95.726 75.6902 95.726 75.9286C95.726 76.012 95.726 77.9486 95.35 79.784C95.1173 80.9162 94.5682 82.6681 94.5444 82.7456C94.4847 82.9303 94.3116 83.0495 94.1266 83.0495H94.1206Z" fill="white"/>
<path d="M99.0919 96.2246C98.8711 96.2246 98.6801 96.0578 98.6563 95.8373C98.6563 95.8135 98.4056 93.7159 97.8745 91.821C97.5343 90.6113 96.5138 89.5745 96.5018 89.5626C96.3288 89.3897 96.3347 89.1156 96.5018 88.9428C96.6749 88.776 96.9494 88.776 97.1225 88.9428C97.1703 88.9905 98.3161 90.1584 98.716 91.5826C99.265 93.5491 99.5157 95.6407 99.5216 95.73C99.5515 95.9684 99.3784 96.1889 99.1397 96.2187C99.1218 96.2187 99.1039 96.2187 99.086 96.2187L99.0919 96.2246Z" fill="white"/>
<path d="M92.754 73.8012C93.5298 74.2839 93.7267 75.3803 93.1837 76.2503C92.6406 77.1263 91.5723 77.4421 90.7965 76.9654C90.0206 76.4827 89.8237 75.3863 90.3668 74.5163C90.9099 73.6403 91.9781 73.3245 92.754 73.8012Z" fill="white"/>
<path d="M92.3123 74.5163C92.7361 74.7785 92.8435 75.3803 92.5451 75.857C92.2467 76.3337 91.6618 76.5125 91.2381 76.2503C90.8144 75.9881 90.707 75.3863 91.0054 74.9096C91.3038 74.4329 91.8886 74.2541 92.3123 74.5163Z" fill="#1F93FB"/>
<path d="M95.0994 80.7791C95.8752 81.2618 96.0722 82.3582 95.5291 83.2282C94.986 84.1042 93.9177 84.42 93.1419 83.9433C92.3661 83.4606 92.1691 82.3642 92.7122 81.4942C93.2553 80.6182 94.3236 80.3024 95.0994 80.7791Z" fill="white"/>
<path d="M94.6578 81.4942C95.0815 81.7564 95.1889 82.3582 94.8905 82.8349C94.5921 83.3117 94.0073 83.4904 93.5835 83.2282C93.1598 82.966 93.0524 82.3642 93.3448 81.8875C93.6432 81.4108 94.2281 81.232 94.6518 81.4942H94.6578Z" fill="#1F93FB"/>
<path d="M96.7943 87.9715C97.7014 87.8702 98.531 88.621 98.6444 89.64C98.7578 90.659 98.1072 91.5707 97.2001 91.6661C96.293 91.7674 95.4634 91.0165 95.3501 89.9976C95.2367 88.9786 95.8872 88.0669 96.7943 87.9715Z" fill="white"/>
<path d="M96.8898 88.8058C97.3911 88.7522 97.8387 89.1633 97.9043 89.7235C97.964 90.2836 97.6119 90.7782 97.1106 90.8378C96.6152 90.8914 96.1557 90.4802 96.096 89.9201C96.0364 89.36 96.3885 88.8654 96.8898 88.8058Z" fill="#1F93FB"/>
<path d="M63.8213 107.576C63.7199 107.576 63.6184 107.576 63.511 107.576C59.3155 107.457 56.6359 105.097 55.9675 104.436C55.2931 104.71 53.1088 105.366 49.7549 104.067C47.9167 103.352 46.8485 102.029 46.5143 101.558C45.9771 101.6 44.4493 101.629 42.8082 100.753C41.2147 99.9013 40.5702 98.5665 40.3613 98.0004C39.6809 98.0719 37.8846 98.0719 36.2911 96.463C35.2169 95.3785 35.02 93.9185 34.9842 93.412C34.5127 93.1081 33.0804 92.0832 32.412 90.3134C31.654 88.3112 31.9644 86.458 32.0897 85.8978C31.654 85.3973 30.1561 83.4904 29.9472 81.0711C29.6727 77.8712 30.4485 76.304 30.7171 75.863C30.5738 75.2135 30.0487 72.4307 30.7827 70.0888C31.8629 66.6565 34.3575 65.572 34.4649 65.5243C34.6201 65.4587 34.8051 65.5302 34.8708 65.6911C34.9364 65.852 34.8648 66.0308 34.7037 66.1023C34.6798 66.1142 32.3642 67.1332 31.3735 70.2795C30.6037 72.7227 31.3377 75.8213 31.3497 75.8571L31.3855 76.006L31.29 76.1252C31.29 76.1252 30.2575 77.5315 30.5619 81.0234C30.7827 83.5858 32.6328 85.588 32.6507 85.6059L32.77 85.731L32.7223 85.8978C32.7223 85.8978 32.1733 87.9477 32.9909 90.0989C33.701 91.9759 35.4139 92.9592 35.4318 92.9651L35.5929 93.0545V93.2392C35.5929 93.2392 35.6227 94.9196 36.7268 96.034C38.4515 97.774 40.421 97.3747 40.5045 97.3568L40.8029 97.2913L40.8745 97.5833C40.8745 97.5833 41.3162 99.2577 43.0946 100.211C44.9089 101.182 46.5978 100.932 46.6097 100.926L46.8186 100.89L46.926 101.069C46.926 101.069 47.9645 102.714 49.9697 103.489C53.6758 104.925 55.8541 103.804 55.872 103.792L56.0869 103.679L56.254 103.858C56.254 103.858 59.0171 106.826 63.511 106.957C63.6065 106.957 63.702 106.957 63.7915 106.957C68.1779 106.957 71.7169 104.013 71.7527 103.983L72.0332 103.745L72.2242 104.061C72.266 104.132 73.3283 105.824 76.2406 105.991C78.7651 106.122 80.2392 104.204 80.2511 104.18L80.4182 103.953L80.6629 104.096C80.6629 104.096 83.3962 105.687 85.4194 105.312C91.6499 104.12 91.5365 97.7859 91.5305 97.7263V97.5892L91.626 97.4939C91.6439 97.476 93.6313 95.5275 93.5776 92.6076C93.5238 89.6996 90.8741 87.6796 90.8442 87.6617L90.6891 87.5485L90.7249 87.3578C90.7308 87.3161 91.4351 83.2163 88.099 77.8056C86.1474 74.6355 81.3134 73.0862 81.2657 73.0742L81.0389 73.0027V72.7644C81.0448 72.7167 81.1344 67.9972 77.5536 64.0763C74.6949 60.9478 70.4577 60.8763 70.4159 60.8763H70.1951L70.1235 60.6678C70.1235 60.6499 69.5088 58.9695 68.4763 57.6347C67.4797 56.3416 65.3969 55.7517 65.379 55.7457L65.2417 55.7099L65.182 55.5789C65.182 55.5789 63.8691 52.8854 60.7538 51.6043C59.232 50.9786 57.3342 51.056 55.1141 51.8307L54.9529 51.8843L54.8157 51.783C53.264 50.5972 51.026 50.9726 51.0022 50.9726C50.8351 50.9964 50.6679 50.8892 50.6381 50.7223C50.6083 50.5495 50.7217 50.3886 50.8888 50.3588C50.9902 50.341 53.2998 49.9536 55.0544 51.1871C57.358 50.4125 59.3513 50.3588 60.9806 51.0262C63.9646 52.2538 65.367 54.6016 65.6714 55.1796C66.1846 55.3405 67.987 55.9781 68.9657 57.2474C69.8549 58.3974 70.4279 59.7501 70.6248 60.2506C71.5677 60.3043 75.3096 60.6976 78.0012 63.6472C81.3373 67.3 81.6357 71.5011 81.6595 72.5439C82.6622 72.8895 86.7681 74.4627 88.6242 77.4719C91.7215 82.5013 91.4709 86.3805 91.3634 87.2744C91.9662 87.7689 94.1445 89.7592 94.1982 92.5897C94.2519 95.444 92.5749 97.3926 92.1512 97.8395C92.1333 98.8227 91.7454 104.734 85.5328 105.92C83.629 106.283 81.3134 105.157 80.5734 104.758C80.078 105.318 78.5502 106.724 76.1989 106.605C73.6506 106.462 72.3555 105.235 71.89 104.657C70.965 105.36 67.7542 107.57 63.7915 107.576H63.8213Z" fill="#3763D5"/>
<path d="M67.6349 83.6334C67.5155 83.6334 67.3961 83.5858 67.3126 83.4904C66.0295 82.0841 63.9168 80.362 63.8929 80.3441C63.7079 80.1892 63.6781 79.9151 63.8273 79.7303C63.9825 79.5456 64.257 79.5158 64.442 79.6648C64.5315 79.7363 66.6263 81.4465 67.9571 82.9005C68.1183 83.0793 68.1063 83.3534 67.9273 83.5202C67.8437 83.5977 67.7363 83.6334 67.6289 83.6334H67.6349Z" fill="white"/>
<path d="M64.812 141.9C63.4931 141.9 62.1742 141.632 61.1716 141.101L9.07129 113.44L9.2742 113.118L61.3745 140.779C63.2663 141.787 66.3577 141.787 68.2555 140.779L120.702 113.118L120.905 113.44L68.4584 141.101C67.4498 141.632 66.1309 141.9 64.812 141.9Z" fill="#51ABFD"/>
<path d="M64.806 130.28C63.4274 130.28 62.0548 130 61.0104 129.446L6.63037 100.575L6.83328 100.253L61.2133 129.124C63.1887 130.173 66.4174 130.173 68.4047 129.124L123.143 100.253L123.346 100.575L68.6076 129.446C67.5572 130 66.1786 130.28 64.806 130.28Z" fill="#51ABFD"/>
<path d="M64.7941 118.66C63.3618 118.66 61.9295 118.374 60.8433 117.796L4.18951 87.7153L4.39242 87.3935L61.0522 117.474C63.1112 118.571 66.4771 118.571 68.5539 117.474L125.584 87.3935L125.787 87.7153L68.7568 117.796C67.6647 118.374 66.2264 118.66 64.7941 118.66Z" fill="#51ABFD"/>
<path d="M64.7881 107.04C63.3021 107.04 61.8161 106.742 60.6822 106.14L1.7486 74.85L1.95151 74.5282L60.891 105.818C63.0395 106.957 66.5427 106.957 68.7031 105.818L128.025 74.5282L128.228 74.85L68.906 106.14C67.7721 106.742 66.2801 107.04 64.7881 107.04Z" fill="#51ABFD"/>
<path d="M5.81879 27.858L9.18471 30.5633L14.4186 33.3283L11.0587 30.617L5.81879 27.858Z" fill="#7DD5FC"/>
<path d="M11.0587 30.6169L14.4186 33.3282L18.5067 27.7507L15.1407 25.0394L11.0587 30.6169Z" fill="#D8E4FC"/>
<path d="M9.90684 22.2804L5.81879 27.8579L11.0587 30.6169L15.1407 25.0394L9.90684 22.2804Z" fill="#51ABFD"/>
<path d="M36.2733 125.495L39.6392 128.206L44.8731 130.965L41.5072 128.254L36.2733 125.495Z" fill="#7DD5FC"/>
<path d="M41.5071 128.254L44.8731 130.965L48.9611 125.388L45.5952 122.676L41.5071 128.254Z" fill="#D8E4FC"/>
<path d="M40.3613 119.917L36.2733 125.495L41.5072 128.254L45.5952 122.676L40.3613 119.917Z" fill="#51ABFD"/>
<path d="M13.792 85.1768L18.7215 84.0684L21.2042 78.8961L16.2687 79.9985L13.792 85.1768Z" fill="#D8E4FC"/>
<path d="M16.2687 79.9985L21.2042 78.8961L16.4954 75.1122L11.5599 76.2146L16.2687 79.9985Z" fill="#84C8FC"/>
<path d="M11.56 76.2146L9.08325 81.3929L13.792 85.1768L16.2687 79.9985L11.56 76.2146Z" fill="#51ABFD"/>
<path d="M92.2646 57.873L99.098 54.244L99.1218 47.3436L92.2885 50.9666L92.2646 57.873Z" fill="#D8E4FC"/>
<path d="M92.2885 50.9666L99.1218 47.3436L92.5451 43.8755L85.7118 47.4985L92.2885 50.9666Z" fill="#84C8FC"/>
<path d="M85.7118 47.4985L85.688 54.4049L92.2646 57.873L92.2885 50.9666L85.7118 47.4985Z" fill="#51ABFD"/>
<path d="M110.7 43.3809L116.68 40.4014L114.03 35.5389L108.05 38.5244L110.7 43.3809Z" fill="#51ABFD"/>
<path d="M108.05 38.5244L114.03 35.539L112.299 33.5606L106.319 36.546L108.05 38.5244Z" fill="#84C8FC"/>
<path d="M106.319 36.546L108.969 41.4025L110.7 43.3809L108.05 38.5244L106.319 36.546Z" fill="#7DD5FC"/>
<path d="M40.5046 43.6252L48.5315 38.1252L50.1309 34.3412L42.104 39.8413L40.5046 43.6252Z" fill="#D8E4FC"/>
<path d="M42.104 39.8413L50.1309 34.3412L43.3812 27.4587L35.3542 32.9647L42.104 39.8413Z" fill="#84C8FC"/>
<path d="M33.7548 36.7486L40.5046 43.6252L42.104 39.8413L35.3542 32.9647L33.7548 36.7486Z" fill="#51ABFD"/>
<path d="M67.4916 9.63558L72.7196 8.40805L73.5014 1.97241L68.2734 3.20591L67.4916 9.63558Z" fill="#D8E4FC"/>
<path d="M68.2735 3.2059L73.5014 1.9724L67.9989 0L62.771 1.22754L68.2735 3.2059Z" fill="#84C8FC"/>
<path d="M62.771 1.22754L61.9952 7.65721L67.4917 9.63558L68.2735 3.2059L62.771 1.22754Z" fill="#51ABFD"/>
<path d="M112.198 90.1287L115.707 89.3063L116.232 84.9861L112.717 85.8084L112.198 90.1287Z" fill="#D8E4FC"/>
<path d="M112.717 85.8085L116.232 84.9861L112.538 83.6573L109.023 84.4796L112.717 85.8085Z" fill="#84C8FC"/>
<path d="M109.023 84.4796L108.503 88.7998L112.198 90.1287L112.717 85.8085L109.023 84.4796Z" fill="#51ABFD"/>
<defs>
<linearGradient id="paint0_linear_2101_490" x1="4.3566" y1="134.791" x2="126.503" y2="134.791" gradientUnits="userSpaceOnUse">
<stop stop-color="#D3D7F2"/>
<stop offset="0.45" stop-color="#BBC9F8"/>
<stop offset="0.55" stop-color="#D3D7F2"/>
<stop offset="1" stop-color="#F2F3FF"/>
</linearGradient>
<linearGradient id="paint1_linear_2101_490" x1="3.72397" y1="132.58" x2="127.129" y2="132.58" gradientUnits="userSpaceOnUse">
<stop stop-color="#E8EAFB"/>
<stop offset="1" stop-color="white"/>
</linearGradient>
<linearGradient id="paint2_linear_2101_490" x1="77.8639" y1="150.117" x2="61.372" y2="118.467" gradientUnits="userSpaceOnUse">
<stop stop-color="#20ABFF"/>
<stop offset="0.57" stop-color="#0095FF"/>
<stop offset="0.6" stop-color="#3DC0FF"/>
<stop offset="0.9" stop-color="#33BBFF"/>
<stop offset="1" stop-color="#30DCF2"/>
</linearGradient>
<linearGradient id="paint3_linear_2101_490" x1="3.72415" y1="123.731" x2="125.829" y2="123.731" gradientUnits="userSpaceOnUse">
<stop stop-color="#1487FB"/>
<stop offset="1" stop-color="#22D2FD"/>
</linearGradient>
</defs>
</svg>
