<svg width="64" height="50" viewBox="0 0 64 50" fill="none" xmlns="http://www.w3.org/2000/svg">
<path d="M6.76251 14.45C8.4884 14.45 9.88751 13.0509 9.88751 11.325C9.88751 9.59912 8.4884 8.20001 6.76251 8.20001C5.03662 8.20001 3.63751 9.59912 3.63751 11.325C3.63751 13.0509 5.03662 14.45 6.76251 14.45Z" stroke="white" stroke-width="3" stroke-linecap="round" stroke-linejoin="round"/>
<path d="M53.4 12.9125C55.1259 12.9125 56.525 11.5134 56.525 9.78751C56.525 8.06162 55.1259 6.66251 53.4 6.66251C51.6741 6.66251 50.275 8.06162 50.275 9.78751C50.275 11.5134 51.6741 12.9125 53.4 12.9125Z" stroke="white" stroke-width="3" stroke-linecap="round" stroke-linejoin="round"/>
<path d="M16.8125 38.1375C18.5384 38.1375 19.9375 36.7384 19.9375 35.0125C19.9375 33.2866 18.5384 31.8875 16.8125 31.8875C15.0866 31.8875 13.6875 33.2866 13.6875 35.0125C13.6875 36.7384 15.0866 38.1375 16.8125 38.1375Z" stroke="white" stroke-width="3" stroke-linecap="round" stroke-linejoin="round"/>
<path d="M33.825 22.4375C35.5509 22.4375 36.95 21.0384 36.95 19.3125C36.95 17.5866 35.5509 16.1875 33.825 16.1875C32.0991 16.1875 30.7 17.5866 30.7 19.3125C30.7 21.0384 32.0991 22.4375 33.825 22.4375Z" stroke="white" stroke-width="2" stroke-linecap="round" stroke-linejoin="round"/>
<path d="M41.175 36.7625C42.9009 36.7625 44.3 35.3634 44.3 33.6375C44.3 31.9116 42.9009 30.5125 41.175 30.5125C39.4491 30.5125 38.05 31.9116 38.05 33.6375C38.05 35.3634 39.4491 36.7625 41.175 36.7625Z" stroke="white" stroke-width="2" stroke-linecap="round" stroke-linejoin="round"/>
<path d="M55.625 11.9875C55.625 11.9875 55.625 11.9875 55.6125 12L62 18.3875V31.1875L58.4125 34.775V39.65L50.3375 47.725H44.2375L38.5375 42.025H31.0625L25.2875 36.25H25.275L31.0625 42.05H38.5375L44.2375 47.75H50.3625L58.45 39.6625V34.7875L62.0375 31.2V18.3875L55.65 12L55.625 11.9875Z" stroke="white" stroke-width="3" stroke-linecap="round" stroke-linejoin="round"/>
<path d="M13.6875 35H6.76249L2.01249 30.25V19.35H1.98749V30.25L6.74999 35.025H13.6875V35.0125V35Z" stroke="white" stroke-width="3" stroke-linecap="round" stroke-linejoin="round"/>
<path d="M8.97496 9.125L12.8375 5.2625H17.9125L21.65 1.525H44.9125V1.5H21.6375L17.9 5.2375H12.825L8.96246 9.1C8.96246 9.1 8.96246 9.1 8.97496 9.1125V9.125Z" stroke="white" stroke-width="3" stroke-linecap="round" stroke-linejoin="round"/>
<path d="M31.625 17.1L25.8375 11.3125H15.9375V11.3375H25.825L31.6 17.1125H31.6125L31.625 17.1Z" stroke="white" stroke-width="2" stroke-linecap="round" stroke-linejoin="round"/>
<path d="M31.9625 7.63751V7.66251H36.85L48.5125 19.325L48.5375 19.3L36.8625 7.63751H31.9625Z" stroke="white" stroke-width="2" stroke-linecap="round" stroke-linejoin="round"/>
<path d="M54.65 26.3125V26.2875H48.5125L43.375 31.425C43.375 31.425 43.375 31.425 43.3875 31.4375L48.525 26.3H54.65V26.3125Z" stroke="white" stroke-width="2" stroke-linecap="round" stroke-linejoin="round"/>
<path d="M28.3125 30.1L23.5625 25.3375H13.0375V20.575H13.0125V25.3625H23.55L28.3 30.125L28.3125 30.1Z" stroke="white" stroke-width="2" stroke-linecap="round" stroke-linejoin="round"/>
</svg>
