<svg width="124" height="166" viewBox="0 0 124 166" fill="none" xmlns="http://www.w3.org/2000/svg">
<path d="M124 130.377C124 128.863 122.847 127.349 120.535 126.188L70.596 101.168C65.9784 98.8586 58.4935 98.8586 53.8819 101.168L3.94258 126.188C1.63677 127.343 0.47789 128.863 0.47789 130.377V134.817C0.47789 136.331 1.63079 137.851 3.94258 139.006L53.8819 164.026C58.4995 166.336 65.9844 166.336 70.596 164.026L120.535 139.006C122.841 137.851 124 136.331 124 134.817V130.377Z" fill="url(#paint0_linear_2101_491)"/>
<path d="M120.541 134.566L70.602 159.586C65.9844 161.896 58.4995 161.896 53.8879 159.586L3.94258 134.566C-0.675013 132.256 -0.675013 128.504 3.94258 126.194L53.8819 101.174C58.4995 98.8646 65.9844 98.8646 70.596 101.174L120.535 126.194C125.153 128.504 125.153 132.256 120.535 134.566H120.541Z" fill="url(#paint1_linear_2101_491)"/>
<path d="M120.541 125.674L70.602 150.694C65.9844 153.003 58.4995 153.003 53.8879 150.694L3.94258 125.674C1.63677 124.519 0.47789 123.005 0.47789 121.485V125.925C0.47789 127.439 1.63079 128.959 3.94258 130.114L53.8819 155.134C58.4995 157.444 65.9844 157.444 70.596 155.134L120.535 130.114C122.841 128.959 124 127.439 124 125.925V121.485C124 122.999 122.847 124.519 120.535 125.674H120.541Z" fill="url(#paint2_linear_2101_491)"/>
<path opacity="0.5" d="M120.541 125.674L70.6021 150.694C65.9845 153.003 58.4996 153.003 53.888 150.694L3.94273 125.674C-0.67486 123.364 -0.67486 119.612 3.94273 117.302L53.882 92.282C58.4996 89.9721 65.9845 89.9721 70.5962 92.282L120.535 117.302C125.153 119.612 125.153 123.364 120.535 125.674H120.541Z" fill="url(#paint3_linear_2101_491)"/>
<path fill-rule="evenodd" clip-rule="evenodd" d="M102.059 54.1987C102.059 34.3492 85.996 18.2637 66.1875 18.2637C47.9322 18.2637 32.9026 31.9316 30.6446 49.6089C30.543 49.5849 31.6242 62.8578 31.6242 62.8578C33.1953 79.2784 45.0409 88.0452 68.6486 88.3085C76.8324 88.3983 81.689 83.5571 85.3209 85.2267C90.6912 87.6981 92.4654 83.7366 90.7629 80.3256C97.6982 73.773 102.059 64.5154 102.059 54.2047V54.1987Z" fill="#A9CCFF"/>
<path fill-rule="evenodd" clip-rule="evenodd" d="M102.059 54.1987C102.059 39.7469 93.5406 27.2998 81.2649 21.5909C90.6374 28.0718 96.7843 38.9032 96.7843 51.1827C96.7843 61.4874 92.4235 70.751 85.4942 77.2976C87.1907 80.7086 85.4225 84.6761 80.0462 82.2047C76.4143 80.5351 71.5578 85.3823 63.3739 85.2865C54.3956 85.1848 47.1257 83.8563 41.4687 81.3429C47.5857 85.8071 56.576 88.1709 68.6426 88.3025C76.8265 88.3923 81.683 83.5511 85.315 85.2207C90.6852 87.6922 92.4594 83.7306 90.7569 80.3197C97.6923 73.767 102.053 64.5095 102.053 54.1987H102.059Z" fill="#CFDEFF"/>
<path fill-rule="evenodd" clip-rule="evenodd" d="M32.6278 51.4879C34.7245 44.0616 59.8316 47.8675 79.2398 69.7875C84.0665 75.2391 80.5361 84.6821 69.4371 85.2506C51.3968 86.1602 33.3446 83.4255 32.6218 51.4879H32.6278Z" fill="white"/>
<path fill-rule="evenodd" clip-rule="evenodd" d="M65.7634 82.9467C44.7363 82.9467 33.8942 67.1724 33.1714 50.8596C32.9325 51.1767 32.7353 51.5238 32.6218 51.9068C33.3387 83.8443 51.3909 86.5791 69.4371 85.6695C74.8373 85.3942 78.3916 83.0006 80.112 80.0085C76.0141 81.8755 71.2352 82.9467 65.7634 82.9467Z" fill="#E4EAEF"/>
<path fill-rule="evenodd" clip-rule="evenodd" d="M58.1291 81.2412C52.6334 82.9407 45.1843 77.2737 41.4807 68.5787C37.783 59.8837 39.2346 51.458 44.7243 49.7585C50.2141 48.059 57.6751 53.726 61.3787 62.427C65.0824 71.116 63.6248 79.5417 58.1291 81.2412Z" fill="#3A8BCE"/>
<path fill-rule="evenodd" clip-rule="evenodd" d="M44.4376 70.6911C40.7399 61.9961 42.1915 53.5704 47.6813 51.8709C49.8138 51.2126 52.2391 51.6854 54.6286 52.9959C51.367 50.1774 47.753 48.8249 44.7243 49.7585C39.2346 51.458 37.783 59.8837 41.4807 68.5787C43.7447 73.8986 47.4125 78.0576 51.1758 80.1222C48.5235 77.8362 46.0923 74.5988 44.4316 70.6971L44.4376 70.6911Z" fill="#2474AA"/>
<path fill-rule="evenodd" clip-rule="evenodd" d="M55.9667 76.1606C52.2511 77.3156 47.2034 73.4737 44.6945 67.5793C42.1915 61.6969 43.1772 55.994 46.8928 54.845C50.6143 53.69 55.656 57.5379 58.1649 63.4203C60.6739 69.3087 59.6882 75.0176 55.9726 76.1666L55.9667 76.1606Z" fill="#121A21"/>
<path fill-rule="evenodd" clip-rule="evenodd" d="M59.4015 66.203C57.7169 66.7236 55.4171 64.9822 54.2821 62.3133C53.1471 59.6384 53.5951 57.0472 55.2797 56.5206C56.9702 56 59.2641 57.7474 60.405 60.4223C61.54 63.0912 61.086 65.6884 59.4015 66.203Z" fill="#F0F4F7"/>
<path fill-rule="evenodd" clip-rule="evenodd" d="M38.6014 36.4736C42.6993 32.7634 62.5436 30.8544 80.0164 56.8138C83.9171 62.6125 86.4798 67.1425 87.119 73.3481C66.3607 51.422 37.2753 37.9756 30.9134 47.9273C31.8453 43.0143 35.4951 39.2801 38.6014 36.4736Z" fill="#EEF4FF"/>
<path opacity="0.4" fill-rule="evenodd" clip-rule="evenodd" d="M46.9465 49.3097C46.1162 49.2737 45.3038 49.3336 44.5392 49.573C39.0494 51.2725 37.5919 59.6982 41.2955 68.3932C44.9932 77.0882 52.4482 82.7552 57.9439 81.0557C58.7683 80.8044 59.4672 80.3496 60.1123 79.817C50.5725 72.9053 46.1879 60.913 46.9525 49.3097H46.9465Z" fill="#B9DFF9"/>
<path d="M72.173 38.3825L89.7533 83.8623L89.3232 85.4421L71.5398 110.468L69.9688 110.043L34.5991 89.5831L33.4522 87.5844L15.8659 42.1047L16.296 40.5249L34.0794 15.499L35.6504 15.9239L71.0201 36.3838L72.1671 38.3825H72.173ZM70.8589 109.654L89.1082 83.976L71.062 37.2994L34.7664 16.3129L16.511 41.991L34.5573 88.6676L70.8469 109.654H70.8589Z" fill="#1F96FF"/>
<path d="M63.804 22.5903L93.3913 73.9225L82.3939 114.316L41.8152 103.365L12.228 52.0384L23.2254 11.6452L63.804 22.5962V22.5903ZM89.3232 85.4361L89.7533 83.8563L92.5251 73.6832L72.173 38.3765L71.0261 36.3778L63.577 23.452L35.6564 15.9179L34.0854 15.493L23.8705 12.7343L16.302 40.5129L15.8719 42.0927L13.1061 52.2658L33.4581 87.5724L34.6051 89.5712L42.0541 102.497L69.9748 110.031L71.5458 110.456L81.7666 113.215L89.3292 85.4301L89.3232 85.4361Z" fill="#1F96FF"/>
<g opacity="0.74">
<path opacity="0.5" d="M79.6699 102.569C74.0129 99.2955 69.4073 101.928 69.3834 108.433C69.3655 114.986 73.9472 122.885 79.5982 126.152C85.2552 129.432 89.8609 126.853 89.8788 120.288C89.9027 113.771 85.321 105.836 79.6639 102.569H79.6699Z" fill="#50DCFF"/>
</g>
<g opacity="0.81">
<path opacity="0.62" d="M79.6639 104.556C74.9627 101.833 71.1277 104.023 71.1157 109.433C71.0978 114.884 74.909 121.449 79.6102 124.166C84.3114 126.895 88.1405 124.746 88.1584 119.289C88.1763 113.873 84.3652 107.272 79.6639 104.556Z" fill="#51C5FF"/>
</g>
<g opacity="0.87">
<path opacity="0.75" d="M79.658 106.548C75.9066 104.382 72.854 106.123 72.8421 110.438C72.8301 114.783 75.8647 120.019 79.6162 122.179C83.3676 124.351 86.4201 122.64 86.432 118.295C86.45 113.975 83.4094 108.715 79.6639 106.548H79.658Z" fill="#53ADFF"/>
</g>
<g opacity="0.94">
<path opacity="0.88" d="M79.652 108.535C76.8564 106.919 74.5804 108.218 74.5685 111.437C74.5565 114.675 76.8205 118.582 79.6162 120.192C82.4118 121.814 84.6877 120.539 84.6997 117.296C84.7116 114.076 82.4476 110.145 79.652 108.535Z" fill="#5496FF"/>
</g>
<path d="M79.646 110.522C77.8002 109.457 76.3008 110.312 76.2948 112.437C76.2889 114.573 77.7763 117.146 79.6221 118.205C81.462 119.277 82.9614 118.433 82.9673 116.296C82.9733 114.172 81.4799 111.581 79.6401 110.522H79.646Z" fill="#557FFF"/>
<g opacity="0.74">
<path opacity="0.5" d="M22.395 1.40626C16.738 -1.86708 12.1324 0.765957 12.1145 7.27076C12.0965 13.8294 16.6723 21.7225 22.3293 24.9899C27.9863 28.2692 32.592 25.6901 32.6159 19.1254C32.6338 12.6086 28.058 4.67362 22.401 1.40626H22.395Z" fill="#50DCFF"/>
</g>
<g opacity="0.81">
<path opacity="0.62" d="M22.3891 3.39304C17.6878 0.670241 13.8588 2.86045 13.8408 8.27015C13.8229 13.7217 17.6341 20.2864 22.3353 23.0032C27.0365 25.732 30.8656 23.5837 30.8835 18.1261C30.9014 12.7104 27.0903 6.10986 22.3891 3.39304Z" fill="#51C5FF"/>
</g>
<g opacity="0.87">
<path opacity="0.75" d="M22.3831 5.38574C18.6317 3.21946 15.5791 4.96086 15.5672 9.27545C15.5493 13.62 18.5898 18.8561 22.3413 21.0164C26.0927 23.1887 29.1392 21.4832 29.1571 17.1327C29.1691 12.8121 26.1345 7.55201 22.3831 5.38574Z" fill="#53ADFF"/>
</g>
<g opacity="0.94">
<path opacity="0.88" d="M22.3831 7.37251C19.5874 5.75679 17.3115 7.05535 17.2995 10.2748C17.2876 13.5123 19.5516 17.4199 22.3472 19.0297C25.1429 20.6514 27.4188 19.3768 27.4308 16.1333C27.4427 12.9139 25.1787 8.98824 22.3831 7.37251Z" fill="#5496FF"/>
</g>
<path d="M22.3771 9.35923C20.5313 8.29405 19.0319 9.14978 19.0319 11.2742C19.0199 13.4105 20.5133 15.9837 22.3592 17.0429C24.199 18.1141 25.6984 17.2703 25.7044 15.134C25.7104 13.0096 24.217 10.4244 22.3771 9.35923Z" fill="#557FFF"/>
<g opacity="0.74">
<path opacity="0.5" d="M10.2806 38.1192C4.62954 34.8459 0.0179199 37.4789 -9.45594e-07 43.9837C-0.0179217 50.5364 4.55786 58.4355 10.2149 61.7029C15.8719 64.9822 20.4775 62.403 20.5014 55.8384C20.5193 49.3216 15.9435 41.3866 10.2865 38.1192H10.2806Z" fill="#50DCFF"/>
</g>
<g opacity="0.81">
<path opacity="0.62" d="M10.2746 40.1059C5.57337 37.3891 1.74429 39.5733 1.72637 44.983C1.70845 50.4346 5.5196 56.9993 10.2208 59.7161C14.9221 62.4449 18.7571 60.2965 18.769 54.839C18.787 49.4233 14.9758 42.8227 10.2746 40.1059Z" fill="#51C5FF"/>
</g>
<g opacity="0.87">
<path opacity="0.75" d="M10.2746 42.0987C6.52317 39.9324 3.47066 41.6738 3.45871 45.9884C3.44079 50.3329 6.48135 55.5691 10.2268 57.7353C13.9782 59.9076 17.0307 58.1961 17.0427 53.8456C17.0546 49.5251 14.02 44.265 10.2686 42.0987H10.2746Z" fill="#53ADFF"/>
</g>
<g opacity="0.94">
<path opacity="0.88" d="M10.2686 44.0855C7.47297 42.4697 5.19703 43.7683 5.18508 46.9878C5.17314 50.2252 7.43713 54.1269 10.2328 55.7426C13.0284 57.3644 15.3044 56.0897 15.3163 52.8463C15.3283 49.6268 13.0643 45.6952 10.2686 44.0855Z" fill="#5496FF"/>
</g>
<path d="M10.2626 46.0722C8.4168 45.007 6.91743 45.8627 6.91743 47.9871C6.90548 50.1175 8.39888 52.6907 10.2447 53.7559C12.0906 54.8211 13.584 53.9833 13.5959 51.8469C13.6019 49.7225 12.1085 47.1314 10.2686 46.0722H10.2626Z" fill="#557FFF"/>
<g opacity="0.74">
<path opacity="0.5" d="M64.9151 9.42506C59.2581 6.15172 54.6525 8.78476 54.6286 15.2896C54.6107 21.8482 59.1924 29.7413 64.8434 33.0087C70.5004 36.288 75.1061 33.7089 75.13 27.1442C75.1479 20.6274 70.5721 12.6924 64.9151 9.42506Z" fill="#50DCFF"/>
</g>
<g opacity="0.81">
<path opacity="0.62" d="M64.9091 11.4118C60.2079 8.68904 56.3788 10.8792 56.3609 16.2889C56.343 21.7405 60.1542 28.3052 64.8554 31.022C69.5566 33.7508 73.3857 31.6025 73.4036 26.1449C73.4215 20.7292 69.6104 14.1287 64.9091 11.4118Z" fill="#51C5FF"/>
</g>
<g opacity="0.87">
<path opacity="0.75" d="M64.9032 13.4045C61.1517 11.2383 58.0992 12.9797 58.0873 17.2943C58.0753 21.6388 61.1099 26.8749 64.8614 29.0352C68.6128 31.2075 71.6653 29.502 71.6772 25.1515C71.6892 20.8309 68.6546 15.5708 64.9032 13.4045Z" fill="#53ADFF"/>
</g>
<g opacity="0.94">
<path opacity="0.88" d="M64.8972 15.3913C62.0956 13.7756 59.8256 15.0742 59.8137 18.2936C59.8017 21.5371 62.0657 25.4387 64.8614 27.0485C67.657 28.6702 69.9329 27.3956 69.9449 24.1521C69.9568 20.9327 67.6928 17.007 64.8972 15.3913Z" fill="#5496FF"/>
</g>
<path d="M64.8972 17.384C63.0514 16.3188 61.552 17.1746 61.546 19.2989C61.54 21.4353 63.0334 24.0025 64.8733 25.0677C66.7132 26.1389 68.2125 25.2951 68.2185 23.1647C68.2245 21.0403 66.7311 18.4552 64.8912 17.39L64.8972 17.384Z" fill="#557FFF"/>
<g opacity="0.74">
<path opacity="0.5" d="M92.776 60.1709C87.119 56.8976 82.5133 59.5306 82.4954 66.0354C82.4775 72.5881 87.0533 80.4872 92.7103 83.7546C98.3673 87.0339 102.973 84.4547 102.991 77.8901C103.015 71.3733 98.433 63.4383 92.776 60.1709Z" fill="#50DCFF"/>
</g>
<g opacity="0.81">
<path opacity="0.62" d="M92.77 62.1577C88.0688 59.4349 84.2397 61.6251 84.2218 67.0348C84.2039 72.4864 88.015 79.051 92.7163 81.7678C97.4175 84.4966 101.253 82.3483 101.264 76.8907C101.282 71.4751 97.4772 64.8745 92.77 62.1577Z" fill="#51C5FF"/>
</g>
<g opacity="0.87">
<path opacity="0.75" d="M92.764 64.1504C89.0126 61.9841 85.9601 63.7195 85.9482 68.0401C85.9362 72.3846 88.9708 77.6208 92.7222 79.787C96.4737 81.9593 99.5262 80.2538 99.5381 75.8973C99.556 71.5767 96.5155 66.3166 92.764 64.1504Z" fill="#53ADFF"/>
</g>
<g opacity="0.94">
<path opacity="0.88" d="M92.7581 66.1372C89.9624 64.5214 87.6865 65.82 87.6745 69.0395C87.6626 72.2769 89.9266 76.1846 92.7222 77.7943C95.5179 79.4161 97.7938 78.1414 97.8058 74.898C97.8177 71.6785 95.5537 67.7529 92.7581 66.1372Z" fill="#5496FF"/>
</g>
<path d="M92.7521 68.1239C90.9063 67.0587 89.4129 67.9144 89.4009 70.0388C89.3949 72.1752 90.8883 74.7484 92.7282 75.8076C94.5681 76.8787 96.0674 76.035 96.0734 73.8986C96.0854 71.7742 94.586 69.1891 92.7461 68.1239H92.7521Z" fill="#557FFF"/>
<g opacity="0.74">
<path opacity="0.5" d="M39.7364 90.9895C34.0794 87.7161 29.4738 90.3491 29.4558 96.8539C29.4379 103.407 34.0137 111.306 39.6707 114.573C45.3277 117.852 49.9333 115.273 49.9513 108.709C49.9751 102.192 45.3934 94.2568 39.7364 90.9895Z" fill="#50DCFF"/>
</g>
<g opacity="0.81">
<path opacity="0.62" d="M39.7304 92.9762C35.0292 90.2534 31.1942 92.4436 31.1822 97.8533C31.1643 103.305 34.9754 109.87 39.6767 112.586C44.3779 115.315 48.2129 113.167 48.2249 107.709C48.2428 102.294 44.4317 95.693 39.7304 92.9762Z" fill="#51C5FF"/>
</g>
<g opacity="0.87">
<path opacity="0.75" d="M39.7245 94.9689C35.973 92.8026 32.9205 94.5381 32.9086 98.8586C32.8907 103.203 35.9312 108.439 39.6767 110.6C43.4281 112.772 46.4806 111.066 46.4925 106.716C46.5045 102.395 43.4699 97.1352 39.7245 94.9689Z" fill="#53ADFF"/>
</g>
<g opacity="0.94">
<path opacity="0.88" d="M39.7185 96.9557C36.9168 95.34 34.6469 96.6385 34.6349 99.858C34.623 103.095 36.887 107.003 39.6826 108.613C42.4783 110.235 44.7542 108.96 44.7662 105.717C44.7781 102.497 42.5141 98.5714 39.7185 96.9557Z" fill="#5496FF"/>
</g>
<path d="M39.7125 98.9424C37.8667 97.8772 36.3673 98.733 36.3613 100.857C36.3494 102.994 37.8428 105.567 39.6886 106.626C41.5344 107.697 43.0338 106.854 43.0398 104.717C43.0458 102.593 41.5524 100.008 39.7125 98.9424Z" fill="#557FFF"/>
<defs>
<linearGradient id="paint0_linear_2101_491" x1="1.11109" y1="132.597" x2="123.373" y2="132.597" gradientUnits="userSpaceOnUse">
<stop stop-color="#D3D7F2"/>
<stop offset="0.45" stop-color="#BBC9F8"/>
<stop offset="0.55" stop-color="#D3D7F2"/>
<stop offset="1" stop-color="#F2F3FF"/>
</linearGradient>
<linearGradient id="paint1_linear_2101_491" x1="0.477892" y1="130.377" x2="124" y2="130.377" gradientUnits="userSpaceOnUse">
<stop stop-color="#E8EAFB"/>
<stop offset="1" stop-color="white"/>
</linearGradient>
<linearGradient id="paint2_linear_2101_491" x1="74.6879" y1="147.989" x2="58.095" y2="116.249" gradientUnits="userSpaceOnUse">
<stop stop-color="#20ABFF"/>
<stop offset="0.57" stop-color="#0095FF"/>
<stop offset="0.6" stop-color="#3DC0FF"/>
<stop offset="0.9" stop-color="#33BBFF"/>
<stop offset="1" stop-color="#30DCF2"/>
</linearGradient>
<linearGradient id="paint3_linear_2101_491" x1="0.478045" y1="121.491" x2="122.698" y2="121.491" gradientUnits="userSpaceOnUse">
<stop stop-color="#1487FB"/>
<stop offset="1" stop-color="#22D2FD"/>
</linearGradient>
</defs>
</svg>
