<svg width="60" height="60" viewBox="0 0 60 60" fill="none" xmlns="http://www.w3.org/2000/svg">
<path d="M30.0003 44.8124C40.9503 44.8124 50.7003 39.625 56.9628 31.5625C57.6753 30.65 57.6753 29.3624 56.9628 28.4499C50.6878 20.3874 40.9503 15.2 30.0003 15.2C19.0503 15.2 9.30029 20.3874 3.03779 28.4499C2.32529 29.3624 2.32529 30.65 3.03779 31.5625C9.31279 39.625 19.0503 44.8124 30.0003 44.8124Z" stroke="white" stroke-width="3" stroke-linecap="round" stroke-linejoin="round"/>
<path d="M37.7254 29.9999C37.7254 34.2624 34.2629 37.7249 30.0004 37.7249C25.7379 37.7249 22.2754 34.2624 22.2754 29.9999C22.2754 25.7374 25.7379 22.2749 30.0004 22.2749C34.2629 22.2749 37.7254 25.7374 37.7254 29.9999Z" stroke="white" stroke-width="2" stroke-linecap="round" stroke-linejoin="round"/>
<path d="M2.51279 12.0625H2.48779V2.48749H12.0628V2.51249H2.51279V12.0625Z" stroke="white" stroke-width="3" stroke-linecap="round" stroke-linejoin="round"/>
<path d="M57.5126 12.0625H57.4876V2.51249H47.9376V2.48749H57.5126V12.0625Z" stroke="white" stroke-width="3" stroke-linecap="round" stroke-linejoin="round"/>
<path d="M12.0628 57.5125H2.48779V47.9375H2.51279V57.4875H12.0628V57.5125Z" stroke="white" stroke-width="3" stroke-linecap="round" stroke-linejoin="round"/>
<path d="M57.5125 57.5125H47.9375V57.4875H57.4875V47.9375H57.5125V57.5125Z" stroke="white" stroke-width="3" stroke-linecap="round" stroke-linejoin="round"/>
</svg>
