<svg width="57" height="55" viewBox="0 0 57 55" fill="none" xmlns="http://www.w3.org/2000/svg">
<path d="M42.0132 53.8125C49.6071 53.8125 55.7632 47.6564 55.7632 40.0625C55.7632 32.4686 49.6071 26.3125 42.0132 26.3125C34.4193 26.3125 28.2632 32.4686 28.2632 40.0625C28.2632 47.6564 34.4193 53.8125 42.0132 53.8125Z" stroke="white" stroke-width="2" stroke-linecap="round" stroke-linejoin="round"/>
<path d="M51.7774 49.7438L51.689 49.8322L55.7195 53.8627L55.8079 53.7743L51.7774 49.7438Z" stroke="white" stroke-width="2" stroke-linecap="round" stroke-linejoin="round"/>
<path d="M4.30029 1.86255C2.65029 1.86255 1.30029 3.21255 1.30029 4.86255V8.86255C1.30029 10.5125 2.65029 11.8625 4.30029 11.8625C5.95029 11.8625 7.30029 10.5125 7.30029 8.86255V4.86255C7.30029 3.21255 5.95029 1.86255 4.30029 1.86255Z" stroke="white" stroke-width="2" stroke-linecap="round" stroke-linejoin="round"/>
<path d="M24.8002 1.86255C23.1502 1.86255 21.8002 3.21255 21.8002 4.86255V8.86255C21.8002 10.5125 23.1502 11.8625 24.8002 11.8625C26.4502 11.8625 27.8002 10.5125 27.8002 8.86255V4.86255C27.8002 3.21255 26.4502 1.86255 24.8002 1.86255Z" stroke="white" stroke-width="2" stroke-linecap="round" stroke-linejoin="round"/>
<path d="M45.2998 11.8625C46.9498 11.8625 48.2998 10.5125 48.2998 8.86255V4.86255C48.2998 3.21255 46.9498 1.86255 45.2998 1.86255C43.6498 1.86255 42.2998 3.21255 42.2998 4.86255V8.86255C42.2998 10.5125 43.6498 11.8625 45.2998 11.8625Z" stroke="white" stroke-width="2" stroke-linecap="round" stroke-linejoin="round"/>
<path d="M14.5508 17.8626C12.9008 17.8626 11.5508 19.2126 11.5508 20.8626V24.8626C11.5508 26.5126 12.9008 27.8626 14.5508 27.8626C16.2008 27.8626 17.5508 26.5126 17.5508 24.8626V20.8626C17.5508 19.2126 16.2008 17.8626 14.5508 17.8626Z" stroke="white" stroke-width="2" stroke-linecap="round" stroke-linejoin="round"/>
<path d="M38.0503 24.8626V20.8626C38.0503 19.2126 36.7003 17.8626 35.0503 17.8626C33.4003 17.8626 32.0503 19.2126 32.0503 20.8626V24.8626C32.0503 26.5126 33.4003 27.8626 35.0503 27.8626C35.4253 27.8626 35.7878 27.7876 36.1253 27.6501C36.2378 27.6001 36.3378 27.5376 36.4503 27.4876C37.4003 26.9751 38.0503 26.0001 38.0503 24.8501V24.8626Z" stroke="white" stroke-width="2" stroke-linecap="round" stroke-linejoin="round"/>
<path d="M4.30029 33.8625C2.65029 33.8625 1.30029 35.2126 1.30029 36.8626V40.8626C1.30029 42.5126 2.65029 43.8625 4.30029 43.8625C5.95029 43.8625 7.30029 42.5126 7.30029 40.8626V36.8626C7.30029 35.2126 5.95029 33.8625 4.30029 33.8625Z" stroke="white" stroke-width="2" stroke-linecap="round" stroke-linejoin="round"/>
<path d="M24.8003 33.8625C23.1503 33.8625 21.8003 35.2126 21.8003 36.8626V40.8626C21.8003 42.5126 23.1503 43.8625 24.8003 43.8625C26.4503 43.8625 27.8003 42.5126 27.8003 40.8626V36.8626C27.8003 35.2126 26.4503 33.8625 24.8003 33.8625Z" stroke="white" stroke-width="2" stroke-linecap="round" stroke-linejoin="round"/>
<path d="M14.6123 1.86255H14.4873V11.8625H14.6123V1.86255Z" stroke="white" stroke-width="2" stroke-linecap="round" stroke-linejoin="round"/>
<path d="M35.1133 1.86255H34.9883V11.8625H35.1133V1.86255Z" stroke="white" stroke-width="2" stroke-linecap="round" stroke-linejoin="round"/>
<path d="M4.36279 17.8626H4.23779V27.8626H4.36279V17.8626Z" stroke="white" stroke-width="2" stroke-linecap="round" stroke-linejoin="round"/>
<path d="M24.8628 17.8626H24.7378V27.8626H24.8628V17.8626Z" stroke="white" stroke-width="2" stroke-linecap="round" stroke-linejoin="round"/>
<path d="M45.3628 17.8626H45.2378V26.7126C45.2378 26.7126 45.3253 26.7376 45.3628 26.7501V17.8626Z" stroke="white" stroke-width="2" stroke-linecap="round" stroke-linejoin="round"/>
<path d="M14.6123 33.8625H14.4873V43.8625H14.6123V33.8625Z" stroke="white" stroke-width="2" stroke-linecap="round" stroke-linejoin="round"/>
<path d="M38.8879 35.3624L38.8254 35.3374L34.7754 44.7374L34.8879 44.7874L35.9504 42.3249H41.8004L42.8629 44.7874L42.9754 44.7374L38.9254 35.3374L38.8629 35.3624H38.8879ZM36.0129 42.1999L38.8879 35.5249L41.7629 42.1999H36.0129Z" stroke="white" stroke-width="1.5" stroke-linecap="round" stroke-linejoin="round"/>
<path d="M46.7383 35.3624H46.6133V44.7624H46.7383V35.3624Z" stroke="white" stroke-width="1.5" stroke-linecap="round" stroke-linejoin="round"/>
</svg>
