<svg width="128" height="172" viewBox="0 0 128 172" fill="none" xmlns="http://www.w3.org/2000/svg">
<path d="M128 136.249C128 134.731 126.848 133.213 124.538 132.049L74.6318 106.96C70.0173 104.644 62.5374 104.644 57.9289 106.96L8.02313 132.049C5.71887 133.207 4.56077 134.731 4.56077 136.249V140.702C4.56077 142.22 5.7129 143.744 8.02313 144.902L57.9289 169.991C62.5434 172.307 70.0233 172.307 74.6318 169.991L124.538 144.902C126.842 143.744 128 142.22 128 140.702V136.249Z" fill="url(#paint0_linear_2101_492)"/>
<path d="M124.544 140.45L74.6378 165.538C70.0233 167.855 62.5434 167.855 57.9349 165.538L8.02313 140.45C3.40864 138.134 3.40864 134.371 8.02313 132.055L57.9289 106.967C62.5434 104.65 70.0233 104.65 74.6318 106.967L124.538 132.055C129.152 134.371 129.152 138.134 124.538 140.45H124.544Z" fill="url(#paint1_linear_2101_492)"/>
<path d="M124.544 131.539L74.6378 156.627C70.0233 158.944 62.5434 158.944 57.9349 156.627L8.02313 131.539C5.71887 130.381 4.56077 128.863 4.56077 127.339V131.791C4.56077 133.309 5.7129 134.833 8.02313 135.991L57.9289 161.08C62.5434 163.396 70.0233 163.396 74.6318 161.08L124.538 135.991C126.842 134.833 128 133.309 128 131.791V127.339C128 128.857 126.848 130.381 124.538 131.539H124.544Z" fill="url(#paint2_linear_2101_492)"/>
<path opacity="0.5" d="M124.544 131.539L74.638 156.627C70.0235 158.944 62.5436 158.944 57.935 156.627L8.02328 131.539C3.40878 129.223 3.40878 125.46 8.02328 123.144L57.9291 98.0557C62.5436 95.7394 70.0235 95.7394 74.632 98.0557L124.538 123.144C129.152 125.46 129.152 129.223 124.538 131.539H124.544Z" fill="url(#paint3_linear_2101_492)"/>
<path d="M51.3206 101.92L23.5799 115.163C23.4724 116.579 23.5918 117.978 24.1768 119.01C25.4066 121.194 26.0035 122.118 26.0035 122.118L45.3749 131.149L65.2715 110.861L67.5519 115.019V113.147L53.8756 105.214C52.1145 104.194 51.1355 104.488 51.3206 101.92Z" fill="url(#paint4_linear_2101_492)"/>
<path d="M61.2003 97.5876H62.2449V47.2666L86.8277 32.9972L86.3084 32.0851L61.2003 46.6606V97.5876Z" fill="#66C0FB"/>
<path d="M33.8774 102.916H34.9281V58.8358L22.0994 66.2765L22.6248 67.1886L33.8774 60.6539V102.916Z" fill="#66C0FB"/>
<path d="M38.88 106.144H39.9246V46.2705L25.5678 36.2556L3.23552 49.2168L3.76084 50.1289L25.52 37.4977L38.88 46.8226V106.144Z" fill="#66C0FB"/>
<path d="M55.0396 102.064H56.0843V42.5982L69.8144 17.0897L91.7347 4.36845L91.2094 3.45636L69.0324 16.3276L55.0396 42.3282V102.064Z" fill="#66C0FB"/>
<path d="M24.0752 67.9744C24.9388 65.9343 24.7093 63.8829 23.5625 63.3924C22.4158 62.9019 20.7861 64.1581 19.9225 66.1982C19.0589 68.2383 19.2885 70.2897 20.4352 70.7802C21.5819 71.2707 23.2116 70.0144 24.0752 67.9744Z" fill="#66C0FB"/>
<path d="M20.3444 68.1067C20.3444 69.3308 21.0846 69.8949 21.998 69.3608C22.9113 68.8268 23.6515 67.4106 23.6515 66.1865C23.6515 64.9624 22.9113 64.3983 21.998 64.9324C21.0846 65.4604 20.3444 66.8826 20.3444 68.1067Z" fill="white"/>
<path d="M0 51.6831C0 53.6093 1.16407 54.4914 2.60274 53.6573C4.04141 52.8232 5.19951 50.591 5.19951 48.6648C5.19951 46.7386 4.03544 45.8565 2.60274 46.6906C1.16407 47.5247 0 49.7629 0 51.6831Z" fill="#66C0FB"/>
<path d="M0.949165 51.191C0.949165 52.4152 1.68939 52.9792 2.60274 52.4452C3.51609 51.9171 4.25632 50.495 4.25632 49.2709C4.25632 48.0467 3.51609 47.4827 2.60274 48.0167C1.68939 48.5448 0.949165 49.9669 0.949165 51.191Z" fill="white"/>
<path d="M82.6968 34.8094C82.6968 36.7356 83.8608 37.6177 85.2935 36.7836C86.7322 35.9495 87.8963 33.7173 87.8963 31.7911C87.8963 29.8649 86.7322 28.9829 85.2935 29.8169C83.8549 30.651 82.6968 32.8832 82.6968 34.8094Z" fill="#66C0FB"/>
<path d="M83.6459 34.3174C83.6459 35.5415 84.3862 36.1056 85.2995 35.5715C86.2128 35.0435 86.9531 33.6213 86.9531 32.3972C86.9531 31.1731 86.2128 30.609 85.2995 31.1431C84.3862 31.6711 83.6459 33.0933 83.6459 34.3174Z" fill="white"/>
<path d="M89.5797 5.30449C89.5797 7.23068 90.7438 8.11276 92.1825 7.27868C93.6211 6.4446 94.7852 4.21238 94.7852 2.28619C94.7852 0.360001 93.6211 -0.522085 92.1825 0.311997C90.7438 1.14608 89.5797 3.3783 89.5797 5.30449Z" fill="#66C0FB"/>
<path d="M90.5229 4.81244C90.5229 6.03656 91.2631 6.60062 92.1765 6.06656C93.0898 5.53851 93.8301 4.11637 93.8301 2.89225C93.8301 1.66813 93.0898 1.10408 92.1765 1.63813C91.2631 2.16618 90.5229 3.58832 90.5229 4.81244Z" fill="white"/>
<path d="M92.9585 123.408C94.0688 122.598 94.1166 123.306 94.2718 123.246C96.0388 122.514 100.301 119.88 101.071 118.17C102.128 115.823 102.026 113.729 101.674 111.473C100.629 108.641 98.8087 106.565 96.8626 105.892C97.4297 103.894 98.3371 99.1598 92.9107 96.7655C93.9674 93.7052 91.8541 87.7167 87.4844 86.6245C87.1501 82.7302 84.8995 80.57 80.9238 80.5219C79.2702 78.0017 76.6257 77.3356 74.0349 78.8358C72.9604 77.6417 69.9398 75.8595 66.8236 76.3995C62.7165 74.9354 59.3437 75.7395 56.0306 78.2597C52.4727 80.972 53.2189 85.3464 53.5771 89.5288C53.983 94.3233 55.6963 98.9258 58.1558 102.988C63.3732 111.617 71.7545 117.39 80.1895 122.256C83.5743 124.206 86.6666 126.408 90.1349 128.149C90.4214 126.36 91.5079 124.458 92.9466 123.408H92.9585Z" fill="#5CA2F5"/>
<path d="M100.725 125.574C103.238 124.578 103.399 120.474 102.48 118.662C102.802 116.015 102.444 113.543 101.68 111.467C102.032 113.723 102.134 115.817 101.077 118.164C100.301 119.874 96.0448 122.508 94.2778 123.24C94.1226 123.306 94.0688 122.598 92.9645 123.402C91.5258 124.452 90.4393 126.354 90.1528 128.143C90.9647 128.551 91.7944 128.941 92.6541 129.295C95.7821 130.561 100.068 129.295 100.731 125.568L100.725 125.574Z" fill="#1F93FB"/>
<path d="M57.2484 79.8318C57.2484 79.8318 60.2451 77.0476 63.1822 76.8856C66.1192 76.7235 66.6147 76.9636 66.5669 78.3557C66.5192 79.7478 67.5698 80.3059 67.9937 79.2738C68.4175 78.2417 68.1907 76.8856 69.9278 77.3656C71.665 77.8456 74.2796 78.9558 73.8797 79.8318C73.4857 80.7079 72.5067 80.0119 71.4381 80.5639C70.477 81.062 69.4801 82.1541 71.659 84.1763C72.5126 84.9684 74.5781 85.4244 75.4198 85.9705C76.7331 86.8225 77.6286 87.6086 78.8762 88.1007C80.9238 88.9047 82.2311 88.7487 81.9327 87.8726C81.6342 86.9966 80.106 86.1385 79.6821 85.2144C79.2583 84.2903 80.2194 83.0002 80.7626 82.4901C81.6103 81.692 82.2311 81.188 83.5146 82.1421C84.7981 83.0962 86.4815 84.8183 85.986 86.0605C85.1145 88.2327 86.6606 87.9746 88.0455 88.2447C89.7887 88.5867 90.6005 89.1448 90.9885 91.653C91.3766 94.1613 91.4064 96.2075 90.1468 96.9815C88.8872 97.7556 87.0188 96.1775 86.5472 95.6074C86.0696 95.0373 86.7322 97.7316 86.2427 98.3737C85.7532 99.0157 85.198 100.414 86.1472 100.156C87.0964 99.8978 88.2007 99.5798 88.8395 100.156C89.8304 101.05 89.5499 102.388 90.5826 103.132C91.6094 103.876 93.0361 103.132 93.0361 101.008C93.0361 100.096 92.3854 98.6797 93.8957 98.9677C95.406 99.2558 96.9283 101.422 96.5641 102.646C96.2 103.87 95.3225 104.578 94.6897 105.376C94.0569 106.18 94.3733 107.813 95.0896 108.389C95.8 108.965 96.2776 110.345 96.2 112.523C96.1224 114.701 97.6267 113.759 97.9431 112.793C98.2595 111.833 98.3789 110.141 99.1729 110.147C99.9668 110.147 101.423 110.855 101.423 110.855C101.423 110.855 100.928 109.241 99.5967 107.867C98.0207 106.234 96.8626 105.898 96.8626 105.898C96.8626 105.898 97.758 103.03 96.8626 100.588C95.9672 98.1457 92.9107 96.7715 92.9107 96.7715C92.9107 96.7715 94.4927 94.3533 92.2959 90.3569C90.105 86.3665 87.4844 86.6305 87.4844 86.6305C87.4844 86.6305 88.0455 83.5462 85.4308 81.374C82.8162 79.2018 80.9716 80.3299 80.9716 80.3299C80.9716 80.3299 80.3627 78.9798 77.9868 78.2237C75.6109 77.4676 74.0349 78.8477 74.0349 78.8477C74.0349 78.8477 73.3544 77.5336 70.6203 76.5375C68.716 75.8415 66.8236 76.4115 66.8236 76.4115C66.8236 76.4115 62.3464 74.2693 57.6125 76.9396C54.3711 78.7637 53.7681 81.152 53.7681 81.152L57.2365 79.8438L57.2484 79.8318Z" fill="#1F93FB"/>
<path d="M39.4889 93.8612C39.65 93.9992 39.662 94.3353 39.4889 94.4733C37.9368 95.7154 36.7906 97.3416 36.6235 99.3758C36.522 100.624 36.8145 101.59 37.3279 102.472C37.31 102.496 37.2921 102.52 37.2741 102.544C36.8802 103.228 36.9637 104.068 37.1727 104.794C37.3935 105.562 37.8592 106.396 38.474 107.075C38.3905 107.351 38.3129 107.627 38.283 107.921C38.1397 109.229 38.3606 110.555 39.0232 111.707C39.8709 113.177 41.0827 113.873 42.4677 114.305C42.1871 115.373 42.4617 116.651 43.1243 117.438C43.6974 118.116 44.7361 118.662 45.6913 118.644C46.0554 119.34 46.521 120 47.0464 120.606C48.2522 122.004 49.5178 122.676 51.2072 122.838C51.6489 123.888 52.616 124.848 53.4577 125.25C54.5501 125.766 55.7441 125.766 56.8186 125.382C57.8155 127.056 59.4154 128.191 61.1525 129.061C63.4747 130.231 65.2656 130.273 67.3251 129.025C67.9399 129.673 68.901 129.931 69.7607 129.997C71.1158 130.099 72.7096 129.781 73.8677 128.947C74.805 130.159 76.5481 130.789 78.1181 130.609C78.9061 130.519 79.6642 130.249 80.3388 129.841C80.7208 130.783 82.1237 131.599 82.9953 131.797C84.428 132.127 86.1472 131.689 87.2635 130.675C88.2783 131.665 90.1767 131.617 91.4422 131.263C92.1287 131.071 92.8391 130.771 93.5077 130.381C93.6689 129.517 93.6808 128.629 93.4958 127.825C95.5015 126.342 96.2418 123.252 95.4717 120.81C95.0479 119.46 94.1823 118.296 93.0839 117.438C92.8033 111.107 89.6812 104.008 83.4669 103.216C83.0967 99.9398 82.3028 96.4295 80.2612 94.1612C78.7091 92.4391 74.9602 90.3809 72.4589 90.3989C72.1187 88.3767 70.5308 86.3125 67.5519 85.4484C67.0206 82.7181 62.0599 79.1298 57.0454 81.314C55.1053 80.3119 52.3951 80.3119 50.8729 81.326C49.0223 80.7799 46.5688 80.996 45.3152 82.2561C43.5542 84.0263 42.7841 85.9584 42.4319 88.5627C41.0529 88.9287 39.6262 90.0088 38.7785 90.8609C38.5576 91.0829 38.3129 91.359 38.08 91.647C38.2711 92.4451 38.7307 93.2072 39.4948 93.8612H39.4889Z" fill="#1F93FB"/>
<path d="M36.2653 96.0874C33.0954 97.7556 31.5493 102.16 33.0715 105.874C31.221 109.067 32.1701 113.099 34.4505 115.835C33.4655 118.314 35.2564 122.778 37.31 123.312C36.91 126.174 40.4201 128.035 42.605 127.765C43.0706 129.901 45.5181 131.497 48.6999 131.365C50.8848 135.223 56.4962 134.491 58.0662 134.221C59.5347 135.925 62.0659 136.855 64.0478 137.245C69.7965 138.368 73.9931 134.401 74.005 134.377C76.1959 137.101 81.0671 137.221 82.5535 134.521C85.1921 136.879 89.9259 135.913 92.1466 133.393C92.8272 132.619 93.2988 131.527 93.5137 130.393C92.8451 130.777 92.1407 131.083 91.4482 131.275C90.1767 131.629 88.2783 131.677 87.2695 130.687C86.1472 131.707 84.4339 132.139 83.0012 131.809C82.1297 131.611 80.7268 130.795 80.3447 129.853C79.6702 130.261 78.912 130.531 78.1241 130.621C76.5481 130.795 74.805 130.171 73.8737 128.959C72.7156 129.787 71.1158 130.111 69.7666 130.009C68.901 129.943 67.9459 129.685 67.331 129.037C65.2715 130.285 63.4806 130.243 61.1585 129.073C59.4273 128.203 57.8215 127.068 56.8246 125.394C55.756 125.778 54.5561 125.784 53.4637 125.262C52.622 124.86 51.6549 123.9 51.2131 122.85C49.5237 122.688 48.2642 122.016 47.0523 120.618C46.527 120.012 46.0614 119.352 45.6972 118.656C44.7481 118.674 43.7034 118.128 43.1303 117.45C42.4677 116.663 42.1991 115.385 42.4737 114.317C41.0887 113.885 39.8769 113.189 39.0292 111.719C38.3666 110.573 38.1457 109.241 38.289 107.933C38.3188 107.639 38.3964 107.357 38.48 107.087C37.8651 106.414 37.3995 105.574 37.1786 104.806C36.9697 104.08 36.8861 103.24 37.2801 102.556C37.298 102.526 37.3159 102.508 37.3338 102.484C36.8205 101.596 36.5279 100.636 36.6294 99.3878C36.7966 97.3536 37.9427 95.7274 39.4948 94.4853C39.6679 94.3473 39.656 94.0112 39.4948 93.8732C38.7307 93.2252 38.2711 92.4571 38.08 91.659C37.0771 92.8891 36.0802 94.6173 36.2653 96.0994V96.0874Z" fill="#1F93FB"/>
<path d="M36.2653 96.0874C33.0954 97.7556 31.5493 102.16 33.0715 105.874C31.221 109.067 32.1701 113.099 34.4505 115.835C33.4655 118.314 35.2564 122.778 37.31 123.312C36.91 126.174 40.4201 128.035 42.605 127.765C43.0706 129.901 45.5181 131.497 48.6999 131.365C50.8848 135.223 56.4962 134.491 58.0662 134.221C59.5347 135.925 62.0659 136.855 64.0478 137.245C69.7965 138.368 73.9931 134.401 74.005 134.377C76.1959 137.101 81.0671 137.221 82.5535 134.521C85.1921 136.879 89.9259 135.913 92.1466 133.393C92.8272 132.619 93.2988 131.527 93.5137 130.393C92.8451 130.777 92.1407 131.083 91.4482 131.275C90.1767 131.629 88.2783 131.677 87.2695 130.687C86.1472 131.707 84.4339 132.139 83.0012 131.809C82.1297 131.611 80.7268 130.795 80.3447 129.853C79.6702 130.261 78.912 130.531 78.1241 130.621C76.5481 130.795 74.805 130.171 73.8737 128.959C72.7156 129.787 71.1158 130.111 69.7666 130.009C68.901 129.943 67.9459 129.685 67.331 129.037C65.2715 130.285 63.4806 130.243 61.1585 129.073C59.4273 128.203 57.8215 127.068 56.8246 125.394C55.756 125.778 54.5561 125.784 53.4637 125.262C52.622 124.86 51.6549 123.9 51.2131 122.85C49.5237 122.688 48.2642 122.016 47.0523 120.618C46.527 120.012 46.0614 119.352 45.6972 118.656C44.7481 118.674 43.7034 118.128 43.1303 117.45C42.4677 116.663 42.1991 115.385 42.4737 114.317C41.0887 113.885 39.8769 113.189 39.0292 111.719C38.3666 110.573 38.1457 109.241 38.289 107.933C38.3188 107.639 38.3964 107.357 38.48 107.087C37.8651 106.414 37.3995 105.574 37.1786 104.806C36.9697 104.08 36.8861 103.24 37.2801 102.556C37.298 102.526 37.3159 102.508 37.3338 102.484C36.8205 101.596 36.5279 100.636 36.6294 99.3878C36.7966 97.3536 37.9427 95.7274 39.4948 94.4853C39.6679 94.3473 39.656 94.0112 39.4948 93.8732C38.7307 93.2252 38.2711 92.4571 38.08 91.659C37.0771 92.8891 36.0802 94.6173 36.2653 96.0994V96.0874Z" fill="#447BE9"/>
<path d="M60.6033 88.1487C60.0362 87.9687 59.5527 88.2267 59.1408 88.5747C58.9378 88.7487 57.9409 90.4409 56.9678 90.7949C55.8396 91.209 54.2397 90.9209 53.6487 91.317C53.2667 91.575 52.4548 92.5291 52.1922 92.7511C51.1117 93.6512 50.5445 93.6572 49.2372 93.8912C48.7298 93.9812 48.2104 94.0713 47.7209 94.3173C45.5958 95.3794 44.2407 97.3776 44.8854 98.3257C46.0494 100.042 47.1359 98.9677 47.5538 97.6236C48.2582 95.3794 49.8163 96.3215 50.2819 96.3875C51.7385 96.5975 52.6757 98.3737 55.2844 97.0175C57.3379 95.9494 56.1381 93.9272 57.8871 92.7931C59.2601 91.905 58.6692 91.095 60.2451 90.1049C61.3853 89.3908 61.6719 88.4847 60.6093 88.1487H60.6033Z" fill="#5CA2F5"/>
<path d="M67.8385 91.647C66.9729 90.7529 61.3973 94.5153 60.7764 95.3254C60.269 95.9914 60.0183 96.7595 59.9884 97.5456C59.69 98.3497 58.6095 97.9656 57.6245 98.3677C56.944 98.6437 55.3262 99.6938 54.5143 101.254C54.0785 102.094 54.0308 103.246 56.2813 103.324C57.0693 103.348 59.093 103.21 58.7289 104.89C58.699 105.022 56.9499 106.276 56.8544 107.135C56.6693 108.755 58.7169 111.407 59.2602 111.647C60.6929 112.277 61.6241 112.967 62.8061 112.415C66.1968 110.843 63.0329 108.461 62.8061 106.234C62.5852 104.044 63.9582 102.496 63.421 101.428C62.4778 99.5558 63.1822 98.3917 63.5881 97.5696C64.0597 96.6215 68.8951 92.7271 67.8444 91.641L67.8385 91.647Z" fill="#5CA2F5"/>
<path d="M63.0568 108.911C62.4957 108.281 61.8271 107.729 61.2122 107.159C60.6093 106.594 59.5467 105.316 58.6692 106.21C57.9588 106.936 58.5975 108.359 59.0811 109.037C59.29 109.337 60.8003 110.705 61.3555 110.897C62.1017 111.149 63.3195 111.119 63.5224 110.147C63.6239 109.667 63.3672 109.253 63.0628 108.911H63.0568Z" fill="#66C0FB"/>
<path d="M43.9899 101.908C43.5661 100.912 42.808 100.642 42.0916 99.8198C41.232 98.8237 41.1544 98.3317 40.2948 98.8237C39.7873 99.1178 39.3396 99.5018 38.7188 101.476C38.2532 102.952 38.3308 103.924 38.9874 105.904C39.5306 107.543 40.3604 107.435 41.0827 107.135C42.0319 106.75 40.8201 105.904 42.3005 104.2C42.79 103.636 44.3302 102.724 43.984 101.908H43.9899Z" fill="#5CA2F5"/>
<path d="M62.4897 118.008C61.9942 117.33 61.5405 116.657 61.1167 115.931C60.5794 115.001 59.7616 113.885 58.5259 114.149C57.6603 114.335 57.2066 114.917 57.0514 115.625C56.9619 116.051 56.8663 117.516 58.2513 119.364C59.1527 120.564 62.5971 122.058 63.0568 119.646C63.1762 119.016 62.8419 118.494 62.4837 118.002L62.4897 118.008Z" fill="#5CA2F5"/>
<path d="M76.9361 107.639C76.0705 106.18 75.0438 104.638 73.3544 104.086C72.9245 103.942 71.3904 102.868 69.9039 102.238C67.9877 101.422 67.6713 101.794 66.7699 103.186C66.1013 104.218 66.7341 105.1 68.2504 105.628C69.2234 105.964 72.0649 105.34 73.5275 106.054C75.6825 107.105 74.1304 109.679 74.3214 110.711C74.4229 111.263 74.7751 111.713 75.2049 112.043C76.1601 112.775 77.7778 113.087 78.536 111.917C79.4254 110.543 77.5928 108.749 76.9361 107.645V107.639Z" fill="#5CA2F5"/>
<path d="M86.3203 122.898C85.8129 123.24 85.2935 123.57 84.7921 123.918C83.6698 124.692 82.6251 126.114 83.9982 127.261C85.204 128.263 87.1143 127.807 88.153 126.786C89.0365 125.91 89.323 124.68 88.9828 123.576C88.8693 123.21 87.9679 121.8 86.3203 122.898Z" fill="#5CA2F5"/>
<path d="M87.6575 107.087C87.4426 106.462 87.0486 106.042 86.5531 105.79C86.1472 105.58 84.0578 104.332 83.0967 104.926C81.2581 106.06 81.9565 106.642 82.255 106.78C82.7385 107.009 83.8071 107.099 84.2071 107.441C85.0309 108.149 85.2159 109.139 84.7025 109.997C83.9743 111.221 82.1893 113.933 82.9296 115.421C83.3654 116.297 85.0548 116.988 86.8695 115.421C87.8843 114.545 89.0305 114.389 89.4424 115.391C90.1588 117.15 88.8813 117.636 89.4424 118.962C89.9259 120.114 92.5048 120.45 92.3138 121.986C92.0213 124.32 92.863 125.976 94.236 124.722C94.3793 124.59 95.2031 122.376 94.2718 120.858C93.8539 120.18 93.5017 119.43 92.9764 118.914C92.1526 118.116 92.1526 117.48 92.1526 116.783C92.1526 114.671 92.1526 113.561 91.3885 112.901C90.6781 112.283 89.3469 112.487 88.35 112.283C86.8755 111.983 86.9471 111.095 87.2277 110.297C87.4068 109.799 87.5978 109.313 87.6933 108.785C87.8008 108.227 87.8485 107.639 87.6635 107.087H87.6575Z" fill="#5CA2F5"/>
<path d="M79.7 95.8715C79.1747 95.6794 78.7807 95.8354 78.2733 96.0155C77.551 96.2795 75.8855 96.4115 75.5512 96.2975C75.0975 96.1415 73.6648 95.4034 72.1843 95.6014C69.8024 95.9135 68.0892 97.6656 67.8623 98.5237C67.6773 99.2078 68.9369 99.6158 70.9426 98.3917C71.8739 97.8216 73.5633 98.1637 74.5483 99.5678C75.1154 100.372 74.2438 100.792 76.6675 102.208C78.1897 103.096 79.3538 103.978 80.2433 103.684C81.8312 103.156 81.1148 102.544 80.3507 101.632C79.0971 100.126 80.691 98.5957 80.7686 98.0017C80.888 97.1376 80.5776 96.1895 79.7 95.8774V95.8715Z" fill="#5CA2F5"/>
<path d="M64.6387 83.1982C64.4179 82.9101 63.0449 82.1841 62.5912 82.0101C61.6957 81.662 60.6152 81.584 59.9228 81.824C59.4691 81.9801 59.1706 82.3281 59.2781 82.8141C59.3557 83.1562 59.684 83.4622 59.887 83.7322C60.1675 84.1043 60.4481 84.5663 60.8242 84.8543C61.3137 85.2324 61.9286 85.2564 62.5195 85.1664C63.1404 85.0704 64.0179 84.9684 64.4895 84.5063C64.8477 84.1583 64.9551 83.6182 64.6328 83.1982H64.6387Z" fill="#5CA2F5"/>
<path d="M78.1479 123.708C76.9719 122.196 78.3449 121.146 78.7688 120.024C79.306 118.614 79.6403 116.831 78.2076 115.385C77.2525 114.419 74.1423 114.959 72.0291 117.558C71.2292 118.542 70.2263 119.874 69.0383 119.274C67.8504 118.674 67.4206 117.071 67.8325 115.883C68.2444 114.695 67.9638 113.411 67.14 113.339C65.6655 113.201 64.4119 114.401 64.4417 115.883C64.4537 116.597 66.5251 117.564 66.4714 118.596C66.4237 119.628 65.6297 121.11 66.1849 122.676C66.74 124.242 68.0056 124.764 68.9548 123.708C69.9039 122.652 69.9039 120.648 70.6979 119.898C71.4918 119.148 73.9513 118.278 74.2319 119.454C74.6318 121.152 73.217 124.41 74.6438 125.7C75.4915 126.462 76.5481 127.825 77.9748 126.822C79.1269 126.012 79.1508 125.004 78.142 123.708H78.1479Z" fill="#5CA2F5"/>
<path d="M59.9646 98.9617C58.2334 99.6458 58.1976 98.7637 57.0096 99.8018C55.8217 100.84 55.6903 101.866 57.7081 102.202C59.087 102.43 59.2601 103.99 60.5735 104.2C61.2898 104.314 62.1972 102.76 62.0479 101.578C61.7674 99.4297 62.6031 97.2755 63.5403 96.1054C64.4776 94.9353 65.3253 93.5732 64.0597 93.7412C63.5642 93.8072 61.3017 95.7574 61.1107 96.3994C60.8122 97.4015 60.663 98.6857 59.9705 98.9617H59.9646Z" fill="#66C0FB"/>
<path d="M55.6903 91.935C54.3293 92.1271 53.9592 92.4211 52.6757 93.3692C51.3922 94.3173 50.0013 94.3413 49.47 94.4073C48.9387 94.4793 47.8164 94.5153 46.5628 95.6014C45.3033 96.6935 45.8525 97.0115 46.5628 97.0175C47.2732 97.0235 48.103 95.0853 49.47 95.3794C50.8371 95.6734 53.4637 96.6095 54.98 96.1355C56.4962 95.6614 55.6247 93.9572 56.3589 93.0992C57.0932 92.2471 56.932 91.755 55.6903 91.929V91.935Z" fill="#66C0FB"/>
<path d="M78.3091 96.9815C76.6615 97.4196 76.2078 97.2576 75.4377 96.9815C74.6677 96.7055 73.0081 95.6734 71.9754 96.1115C70.9486 96.5495 71.4142 97.1856 73.0021 97.5036C74.5901 97.8216 76.0466 99.4598 76.6675 100.474C77.2823 101.488 79.9508 103.456 79.6881 101.872C79.4254 100.294 78.6315 99.4658 79.2643 98.5237C79.897 97.5816 79.4911 96.6695 78.3151 96.9815H78.3091Z" fill="#66C0FB"/>
<path d="M75.9332 115.667C74.6259 115.985 73.6349 116.297 73.5573 117.15C73.4738 118.122 75.0258 117.15 75.5571 118.596C75.7661 119.154 75.1512 120.63 75.0258 122.676C74.9005 124.722 76.5003 125.214 77.1271 124.926C77.7539 124.638 76.3451 123.21 77.1271 121.218C77.9092 119.226 78.6315 117.636 78.0703 116.507C77.5092 115.379 77.0197 115.397 75.9332 115.667Z" fill="#66C0FB"/>
<path d="M85.198 106.24C84.4877 106.318 85.6577 107.807 85.7472 108.905C85.8308 110.003 84.2907 112.523 84.231 113.729C84.1713 114.935 85.6756 115.067 86.6248 114.401C87.5739 113.741 88.5231 113.393 89.4365 114.401C90.3498 115.409 91.287 115.907 91.5377 114.671C91.7885 113.435 90.3438 112.949 89.4365 112.901C88.5291 112.859 86.9173 113.165 86.4696 112.787C85.5204 111.983 86.7083 110.327 86.9471 108.731C87.1859 107.129 86.386 106.108 85.204 106.24H85.198Z" fill="#66C0FB"/>
<path d="M67.2236 119.454C66.3998 120.174 66.2565 121.182 67.3012 122.676C68.3518 124.164 69.0443 121.728 69.1219 120.954C69.1995 120.18 67.8982 118.86 67.2236 119.454Z" fill="#66C0FB"/>
<path d="M58.9438 115.211C57.8573 116.015 57.4394 117.3 58.9438 118.638C60.4481 119.976 61.7435 120.336 61.7435 119.376C61.7435 118.632 59.6661 114.683 58.9438 115.217V115.211Z" fill="#66C0FB"/>
<path d="M69.1279 102.478C67.8146 102.37 67.3012 102.952 66.9848 103.678C66.6684 104.404 68.4115 104.32 69.5159 103.966C70.6263 103.612 70.871 102.622 69.1219 102.478H69.1279Z" fill="#66C0FB"/>
<path d="M75.9153 107.939C74.8766 108.773 75.0318 111.185 75.5631 111.359C76.4526 111.647 77.5271 112.247 77.5987 110.987C77.6704 109.727 76.572 107.411 75.9153 107.939Z" fill="#66C0FB"/>
<path d="M52.3354 108.467C51.3504 108.485 50.1625 108.581 49.7983 107.939C49.3566 107.159 50.0431 106.312 50.2759 105.448C50.5087 104.584 50.4072 101.416 49.0044 100.672C48.0672 100.174 46.324 101.932 45.8823 102.79C45.3629 103.798 44.7361 105.16 46.8852 106.51C47.5299 106.912 49.0044 108.449 46.5509 109.253C45.4167 109.625 43.1482 109.469 41.9603 110.057C40.7723 110.645 42.2349 112.271 43.3094 113.219C44.2287 114.035 45.7987 115.793 47.2135 113.081C47.8523 111.851 48.8253 110.123 49.7983 110.465C51.2967 110.987 49.9058 115.673 50.1685 117.42C50.2282 117.816 51.0281 118.29 51.5355 117.6C51.8996 117.101 51.9414 115.631 52.2817 114.839C52.4727 114.383 53.5353 111.893 53.7084 110.147C53.8039 109.145 54.0248 108.443 52.3354 108.473V108.467Z" fill="#5CA2F5"/>
<path d="M47.715 101.866C46.4136 102.31 45.8047 104.512 47.0046 105.442C47.9955 106.216 48.9089 106.408 49.1715 105.1C49.4342 103.786 49.3029 101.326 47.715 101.866Z" fill="#66C0FB"/>
<path d="M45.5241 110.459C44.2108 110.615 43.1542 110.471 42.8318 111.293C42.5751 111.947 43.6497 112.733 44.2347 113.081C44.7182 113.369 45.4465 113.891 46.3539 112.421C47.2672 110.951 47.4284 110.231 45.5241 110.459Z" fill="#66C0FB"/>
<path d="M51.6489 109.247C50.5326 109.247 50.646 109.751 51.0161 110.645C51.3863 111.539 51.0699 112.295 50.8609 114.143C50.646 115.991 51.5176 116.369 51.7265 114.833C51.9952 112.859 52.7652 111.557 52.6697 110.417C52.5742 109.277 52.5324 109.241 51.6489 109.247Z" fill="#66C0FB"/>
<path d="M40.5097 100.126C40.056 100.264 39.3993 101.812 39.3456 102.958C39.2919 104.104 39.5903 106.234 40.5574 105.904C41.5245 105.574 41.3454 104.038 42.0558 103.186C42.9811 102.07 41.8886 101.884 41.5066 101.266C41.1663 100.714 41.1484 99.9338 40.5037 100.132L40.5097 100.126Z" fill="#66C0FB"/>
<path d="M52.6817 84.5123C51.7743 83.6482 51.3385 83.1622 49.279 82.9402C47.2195 82.7181 45.9301 84.2723 44.8854 85.5684C43.8407 86.8646 43.8825 88.5867 42.7542 89.2108C41.626 89.8348 41.1365 90.5729 40.6231 91.515C40.1097 92.4571 41.3394 93.0812 42.4319 91.9351C43.5243 90.7889 43.6437 88.5087 44.9033 88.8027C46.1629 89.0908 46.6583 90.5489 48.5209 90.3509C50.3834 90.1529 50.5983 89.1568 49.7506 87.9567C48.9089 86.7565 49.2372 85.4664 50.7595 86.0605C52.2817 86.6545 53.9174 85.6944 52.6817 84.5183V84.5123Z" fill="#5CA2F5"/>
<path d="M48.5209 84.0083C46.6882 84.1043 46.1987 85.0824 45.3152 86.2225C44.8734 86.7925 44.569 87.9086 45.1003 88.0887C45.6375 88.2747 46.8912 89.1388 47.5418 87.6926C47.9955 86.6845 49.279 85.2804 49.858 84.9504C50.4371 84.6203 49.9058 83.9363 48.5209 84.0083Z" fill="#66C0FB"/>
<path d="M55.0396 92.9551C54.4188 93.1832 53.6487 94.5033 54.3531 94.9893C54.4367 95.0493 54.586 95.0493 54.6755 94.9893C54.968 94.7733 54.9203 94.5213 54.9919 94.1913C55.0695 93.8612 55.2546 93.5912 55.362 93.2732C55.4217 93.0931 55.2247 92.8831 55.0456 92.9551H55.0396Z" fill="#D0F3F8"/>
<path d="M52.8249 94.7073C52.6697 94.7073 52.5444 94.7733 52.3891 94.7433C52.2041 94.7073 52.031 94.6053 51.8459 94.5693C51.5773 94.5153 51.237 94.5633 51.1773 94.8753C51.1654 94.9413 51.1833 95.0073 51.243 95.0373C51.4161 95.1453 51.6131 95.2053 51.7862 95.3194C51.9593 95.4394 52.1086 95.5354 52.3235 95.5774C52.6936 95.6494 53.1831 95.4874 53.1533 95.0373C53.1413 94.8633 53.01 94.7013 52.8249 94.7073Z" fill="#D0F3F8"/>
<path d="M58.5975 99.8258C57.8692 99.7298 57.2365 100.774 57.8871 101.266C58.0304 101.374 58.2692 101.266 58.305 101.098C58.3528 100.876 58.3826 100.684 58.5319 100.498C58.6453 100.36 58.7468 100.27 58.8065 100.096C58.8602 99.9518 58.7289 99.8438 58.6035 99.8258H58.5975Z" fill="#D0F3F8"/>
<path d="M63.015 95.1514C62.227 95.2294 61.6898 96.4355 62.0181 97.1136C62.0838 97.2516 62.2629 97.2156 62.3345 97.1136C62.5434 96.8375 62.627 96.5255 62.7703 96.2195C62.9016 95.9375 63.1284 95.6914 63.1881 95.3794C63.2061 95.2774 63.1404 95.1334 63.015 95.1514Z" fill="#D0F3F8"/>
<path d="M74.7333 97.5396C74.4348 97.0355 73.5513 96.7055 72.9902 96.7955C72.9245 96.8075 72.8887 96.9035 72.9245 96.9515C73.1036 97.1915 73.3006 97.3295 73.5454 97.4856C73.82 97.6596 74.0826 97.9116 74.411 97.9536C74.6438 97.9896 74.8706 97.7676 74.7333 97.5336V97.5396Z" fill="#D0F3F8"/>
<path d="M78.6733 100.228C78.5539 99.9938 78.4882 99.7598 78.4405 99.5078C78.4046 99.3338 78.3688 98.7217 78.0345 98.8357C77.6286 98.9737 77.6883 99.5618 77.754 99.9038C77.8375 100.354 78.0106 100.882 78.4703 101.05C78.6554 101.116 78.8464 100.942 78.8464 100.762C78.8464 100.552 78.7688 100.408 78.6792 100.228H78.6733Z" fill="#D0F3F8"/>
<path d="M76.7988 109.337C76.6794 109.139 76.4048 108.833 76.1541 109.037C75.9153 109.229 76.166 109.595 76.2257 109.793C76.3153 110.063 76.3153 110.291 76.4824 110.531C76.5958 110.687 76.8346 110.717 76.9421 110.531C77.1689 110.135 77.0197 109.715 76.7988 109.343V109.337Z" fill="#D0F3F8"/>
<path d="M47.518 84.9324C46.8852 84.9324 45.93 85.7125 46.1748 86.4265C46.2405 86.6245 46.4792 86.7026 46.6404 86.5525C46.8374 86.3545 46.8852 86.0665 47.0464 85.8445C47.2135 85.6164 47.4344 85.4364 47.6433 85.2504C47.7627 85.1424 47.6672 84.9384 47.518 84.9384V84.9324Z" fill="#D0F3F8"/>
<path d="M69.5935 103.21C69.3309 102.976 69.0204 103.03 68.6802 103.042C68.3399 103.06 67.9996 103.072 67.6892 103.222C67.5818 103.276 67.5818 103.456 67.6892 103.51C67.9996 103.66 68.3399 103.672 68.6802 103.69C69.0145 103.708 69.3249 103.756 69.5935 103.522C69.6771 103.444 69.6771 103.288 69.5935 103.21Z" fill="#D0F3F8"/>
<path d="M63.1225 109.535C62.7882 109.457 62.4957 109.655 62.1614 109.631C61.845 109.607 61.5644 109.469 61.2361 109.463C61.1406 109.463 61.0391 109.553 61.0451 109.655C61.1286 110.633 63.0747 110.903 63.3493 109.937C63.3971 109.775 63.2956 109.577 63.1225 109.535Z" fill="#D0F3F8"/>
<path d="M59.5646 106.793C59.3975 106.655 59.1408 106.739 59.1348 106.973C59.1229 107.417 59.3975 108.083 59.7079 108.395C59.887 108.581 60.263 108.449 60.2451 108.173C60.2153 107.723 59.9168 107.081 59.5706 106.793H59.5646Z" fill="#D0F3F8"/>
<path d="M48.1328 104.386C47.6911 104.278 47.6732 103.774 47.4583 103.444C47.3568 103.288 47.1478 103.324 47.0881 103.492C46.8494 104.152 47.2195 104.992 47.9299 105.136C48.4134 105.238 48.6223 104.506 48.1388 104.386H48.1328Z" fill="#D0F3F8"/>
<path d="M40.8261 101.536C40.8559 101.392 40.7305 101.218 40.5694 101.278C40.1694 101.428 39.9485 101.86 39.847 102.256C39.7635 102.592 39.6978 103.264 40.0619 103.48C40.444 103.708 40.5335 103.234 40.5276 102.97C40.5276 102.73 40.5156 102.502 40.5694 102.268C40.6291 102.016 40.7783 101.794 40.832 101.542L40.8261 101.536Z" fill="#D0F3F8"/>
<path d="M44.9331 112.223C44.7839 111.983 44.5391 111.887 44.3302 111.707C44.1452 111.545 44.0078 111.311 43.775 111.203C43.6736 111.155 43.5482 111.191 43.5124 111.311C43.3452 111.875 44.0914 112.727 44.6526 112.703C44.8854 112.691 45.0645 112.433 44.9272 112.217L44.9331 112.223Z" fill="#D0F3F8"/>
<path d="M60.4302 117.978C60.2451 117.654 59.9586 117.408 59.7496 117.102C59.5586 116.82 59.487 116.405 59.2243 116.177C59.1169 116.081 58.9557 116.093 58.8781 116.219C58.6393 116.609 58.896 117.186 59.1109 117.54C59.3616 117.948 59.7258 118.296 60.2212 118.338C60.4123 118.356 60.5138 118.122 60.4302 117.972V117.978Z" fill="#D0F3F8"/>
<path d="M76.4824 116.393C76.3093 116.405 76.2078 116.573 76.2914 116.729C76.4466 117.024 76.6914 117.234 76.7988 117.558C76.9003 117.858 76.9063 118.194 76.9839 118.5C77.0257 118.68 77.2465 118.716 77.3719 118.602C78.0703 117.966 77.4614 116.339 76.4824 116.393Z" fill="#D0F3F8"/>
<path d="M76.3213 122.724C76.3033 122.376 76.4227 121.992 76.3153 121.656C76.2795 121.536 76.1362 121.464 76.0228 121.536C75.396 121.926 75.3005 123.522 76.0407 123.822C76.1302 123.858 76.2496 123.798 76.2974 123.72C76.4884 123.396 76.3451 123.078 76.3272 122.724H76.3213Z" fill="#D0F3F8"/>
<path d="M67.5579 119.982C67.4086 119.97 67.2594 120.156 67.3131 120.3C67.4086 120.54 67.5877 120.732 67.7012 120.966C67.8146 121.212 67.8444 121.47 68.0295 121.68C68.1668 121.83 68.4294 121.788 68.525 121.614C68.8712 121.002 68.2086 120.036 67.5579 119.982Z" fill="#D0F3F8"/>
<path d="M85.998 107.075C85.8845 107.045 85.789 107.129 85.783 107.243C85.7651 107.519 85.9204 107.783 85.9562 108.059C85.992 108.335 85.9383 108.623 86.0397 108.893C86.1054 109.067 86.3263 109.163 86.4696 109.007C86.9173 108.527 86.6725 107.267 86.0039 107.081L85.998 107.075Z" fill="#D0F3F8"/>
<path d="M85.992 113.675C85.9442 113.615 85.8965 113.561 85.8487 113.501C85.7472 113.237 85.5264 113.027 85.6099 112.703C85.6577 112.517 85.4368 112.307 85.2637 112.433C84.8936 112.709 84.7861 113.123 84.9831 113.561C85.1682 113.963 85.5801 114.131 85.9263 113.945C86.0099 113.897 86.0577 113.765 85.998 113.681L85.992 113.675Z" fill="#D0F3F8"/>
<path d="M61.839 82.4481C61.648 82.4541 61.5405 82.6521 61.6241 82.8202C61.7674 83.1142 62.042 83.3362 62.227 83.6122C62.4061 83.8703 62.5315 84.2003 62.8658 84.2723C63.0031 84.3023 63.1344 84.2543 63.212 84.1283C63.6478 83.4382 62.4897 82.4241 61.839 82.4541V82.4481Z" fill="#D0F3F8"/>
<path d="M80.9238 84.8483C81.1327 85.3584 81.9327 86.2105 82.9236 87.3626C83.4848 88.0106 84.5653 87.9026 84.8816 86.4145C85.198 84.9263 84.428 83.4022 82.9236 83.2702C81.4193 83.1442 80.3448 83.4502 80.9238 84.8483Z" fill="#66C0FB"/>
<path d="M70.3934 78.3977C69.4264 78.4277 69.492 78.3977 68.6384 80.0719C67.7788 81.746 67.9459 82.1061 69.1279 81.368C70.3099 80.6299 70.3934 79.7538 71.9754 79.5918C72.7514 79.5138 71.1516 78.3737 70.3934 78.3977Z" fill="#66C0FB"/>
<path d="M82.9236 89.2108C81.9506 89.1628 79.4195 88.8628 78.2733 88.3227C77.1271 87.7827 75.6825 86.6005 74.7811 87.1946C73.8797 87.7887 74.9482 88.2867 75.9571 88.5147C76.966 88.7428 80.0045 89.7149 80.7686 90.3089C81.9386 91.221 83.837 91.191 84.5473 91.203C85.2577 91.221 86.6009 89.9849 85.783 89.2048C84.9652 88.4187 84.2727 89.2708 82.9236 89.2048V89.2108Z" fill="#66C0FB"/>
<path d="M89.2036 89.5288C88.4276 89.3788 87.759 92.1751 87.9858 93.8432C88.2067 95.5114 89.711 95.9974 90.1468 93.8432C90.5826 91.689 90.511 89.7808 89.2036 89.5288Z" fill="#66C0FB"/>
<path d="M87.5321 100.576C86.5054 100.864 85.9323 101.512 86.78 102.46C87.6276 103.408 88.4395 103.078 88.7081 102.802C89.5618 101.932 88.2007 100.39 87.5321 100.576Z" fill="#66C0FB"/>
<path d="M69.6592 82.9402C69.0025 81.9141 67.5818 83.6542 68.6682 84.0083C69.7547 84.3623 72.244 86.7326 72.3694 85.7965C72.4828 84.9264 70.3934 84.0923 69.6592 82.9402Z" fill="#66C0FB"/>
<path d="M94.6957 100.15C93.8659 100.186 93.6569 100.99 93.9017 102.112C94.1464 103.234 95.1553 102.838 95.7761 102.052C96.397 101.266 95.1493 100.126 94.6957 100.15Z" fill="#66C0FB"/>
<path d="M99.925 111.467C99.137 111.551 98.7371 113.687 97.7103 114.623C96.6835 115.559 97.8715 117.252 98.8206 117.522C99.7698 117.792 100.564 116.243 100.719 114.389C100.88 112.535 101.035 111.347 99.925 111.467Z" fill="#66C0FB"/>
<path d="M87.3292 101.002C87.2993 101.014 87.2814 101.044 87.2874 101.074C87.3351 101.29 87.4844 101.44 87.5859 101.626C87.7112 101.854 87.7351 101.944 87.95 102.088C88.0097 102.124 88.0873 102.1 88.1231 102.04C88.3977 101.59 87.8485 100.834 87.3292 100.996V101.002Z" fill="#D0F3F8"/>
<path d="M85.1682 89.4808C85.1383 89.4088 85.0607 89.3608 84.9891 89.4088C84.7921 89.5408 84.6488 89.7268 84.4459 89.8468C84.231 89.9788 84.022 90.0388 83.8668 90.2489C83.7355 90.4289 83.9146 90.6509 84.0996 90.6569C84.5772 90.6749 85.3831 90.0088 85.1682 89.4748V89.4808Z" fill="#D0F3F8"/>
<path d="M89.4902 90.2069C89.4723 90.1529 89.4305 90.1229 89.3767 90.1169C88.8096 90.0509 88.4634 91.101 88.541 91.539C88.5828 91.767 88.8753 91.749 88.9827 91.599C89.1559 91.353 89.2156 91.047 89.3409 90.7829C89.4364 90.5849 89.5558 90.4289 89.4902 90.2069Z" fill="#D0F3F8"/>
<path d="M94.7434 101.29C94.7434 101.11 94.7792 101.02 94.7016 100.852C94.6658 100.78 94.5763 100.756 94.5046 100.774C94.0032 100.864 93.9017 101.962 94.4509 102.058C94.6479 102.094 94.7374 101.956 94.7733 101.776C94.8031 101.608 94.7374 101.458 94.7374 101.29H94.7434Z" fill="#D0F3F8"/>
<path d="M100.313 112.493C100.206 112.301 99.9071 112.343 99.8474 112.553C99.7817 112.787 99.7698 113.027 99.7101 113.261C99.6444 113.495 99.5549 113.675 99.5609 113.921C99.5668 114.131 99.7996 114.281 99.9907 114.167C100.51 113.849 100.594 112.991 100.313 112.487V112.493Z" fill="#D0F3F8"/>
<path d="M82.0103 84.8123C81.9386 84.5663 82.0043 84.3623 82.064 84.1223C82.1356 83.8462 81.8133 83.6902 81.6163 83.8582C81.1805 84.2303 81.1148 85.5684 81.9088 85.5204C81.9924 85.5204 82.0998 85.4604 82.1118 85.3644C82.1476 85.1484 82.0759 85.0163 82.0162 84.8123H82.0103Z" fill="#D0F3F8"/>
<path d="M70.1606 78.8897C69.6711 78.8057 68.9906 79.2018 69.0204 79.7478C69.0324 79.9278 69.2413 80.0959 69.4085 79.9698C69.5696 79.8558 69.6472 79.7058 69.7726 79.5558C69.9039 79.3998 70.0771 79.2858 70.2323 79.1538C70.3218 79.0758 70.28 78.9017 70.1606 78.8837V78.8897Z" fill="#D0F3F8"/>
<path d="M67.6116 131.275C66.4237 131.149 64.2448 131.665 62.1972 131.275C60.1496 130.885 60.078 133.129 62.1972 134.509C64.3164 135.889 68.0116 135.061 69.0145 133.831C70.0174 132.601 70.1666 131.545 67.6116 131.275Z" fill="#1F93FB"/>
<path d="M75.1452 131.275C73.9274 131.851 75.0676 132.829 76.6615 133.831C78.2554 134.827 80.8402 134.371 80.7626 133.171C80.685 131.965 79.3419 132.079 78.2673 131.917C77.1988 131.755 76.1481 130.801 75.1393 131.281L75.1452 131.275Z" fill="#1F93FB"/>
<path d="M52.1623 130.867C51.6549 131.599 53.1055 132.505 54.8785 132.763C56.6514 133.021 56.353 132.025 56.144 131.233C55.8455 130.087 52.9801 129.685 52.1623 130.867Z" fill="#1F93FB"/>
<path d="M36.6056 118.116C35.7877 119.19 36.6533 120.486 37.6084 120.756C38.5576 121.026 40.3425 120.21 39.3456 119.454C38.3487 118.698 37.3458 117.144 36.6115 118.116H36.6056Z" fill="#1F93FB"/>
<path d="M46.6404 93.2792L46.0793 92.6011C47.5777 91.335 49.6491 90.651 51.6489 89.9849C52.4787 89.7089 53.3323 89.4268 54.1084 89.1088C55.2128 88.6588 55.8575 88.1247 56.0187 87.5126C56.1918 86.8526 55.8694 86.0065 55.0217 84.9264C53.3562 82.7902 49.9356 81.218 49.8998 81.2L50.264 80.3959C50.4132 80.4619 53.9114 82.0761 55.7142 84.3803C56.741 85.6945 57.1171 86.7986 56.8663 87.7407C56.6276 88.6468 55.8276 89.3608 54.4367 89.9249C53.6308 90.2489 52.7652 90.5369 51.9235 90.819C50.0013 91.455 48.0134 92.1151 46.6404 93.2732V93.2792Z" fill="white"/>
<path d="M51.2669 122.058C49.6013 122.058 47.8343 121.446 46.5091 120.24C45.8883 119.676 45.3032 119.124 44.754 118.602C42.396 116.369 40.7007 114.761 39.1605 115.061C35.8593 115.703 34.6296 116.231 34.6177 116.237L34.0685 116.477L34.0028 115.877C33.9909 115.751 33.6983 112.823 34.6774 110.483C35.6504 108.149 36.5817 107.303 36.6175 107.267L37.2025 107.927C37.2025 107.927 36.3727 108.707 35.4833 110.825C34.8326 112.373 34.8027 114.281 34.8385 115.217C35.5071 114.995 36.8085 114.617 38.9874 114.197C40.9633 113.807 42.802 115.553 45.351 117.966C45.8942 118.482 46.4733 119.028 47.0881 119.592C49.2073 121.518 52.7533 121.722 54.389 120.012L55.0217 120.624C54.0964 121.59 52.7175 122.07 51.2549 122.07L51.2669 122.058Z" fill="white"/>
<path d="M39.0829 115.067C38.8441 115.067 38.6531 114.875 38.6471 114.641C38.6471 114.467 38.5695 110.345 42.4558 106.739C44.3959 104.938 44.5809 102.898 44.6645 102.028C44.7779 100.798 43.8168 99.8619 43.0527 99.1058C42.9154 98.9678 42.7841 98.8418 42.6707 98.7217C42.3364 98.3737 42.02 98.0977 41.7155 97.8337C40.7902 97.0296 39.9903 96.3335 39.3635 94.2033C38.5934 91.593 39.5366 89.7149 39.5784 89.6369C39.6918 89.4208 39.9545 89.3368 40.1694 89.4508C40.3843 89.5648 40.4679 89.8289 40.3604 90.0449C40.3545 90.0629 39.5426 91.7011 40.2052 93.9573C40.7604 95.8415 41.4051 96.3995 42.2886 97.1736C42.593 97.4376 42.9393 97.7376 43.2975 98.1157C43.4049 98.2297 43.5303 98.3497 43.6616 98.4817C44.5153 99.3218 45.6853 100.468 45.5361 102.106C45.4525 103 45.2376 105.364 43.0527 107.393C39.453 110.729 39.5247 114.581 39.5247 114.617C39.5306 114.863 39.3396 115.061 39.1008 115.073H39.0889L39.0829 115.067Z" fill="white"/>
<path d="M45.0704 101.86C44.957 101.86 44.8436 101.818 44.754 101.728C44.5869 101.554 44.5869 101.272 44.76 101.104C46.0853 99.8078 48.103 98.3737 51.9235 98.7937C54.3651 99.0637 56.0187 97.4016 57.4752 95.9374L57.5409 95.8714C59.0034 94.4013 61.839 91.251 61.8689 91.221C62.03 91.0409 62.3106 91.0289 62.4897 91.191C62.6688 91.353 62.6807 91.635 62.5195 91.815C62.4897 91.845 59.6422 95.0073 58.1617 96.4955L58.0961 96.5615C56.5798 98.0856 54.6815 99.9818 51.828 99.6698C48.3835 99.2858 46.6345 100.504 45.3689 101.734C45.2853 101.818 45.1719 101.86 45.0645 101.86H45.0704Z" fill="white"/>
<path d="M58.7288 87.2306C58.5318 87.2306 58.3528 87.0926 58.305 86.8886C57.4514 83.2822 54.5919 82.1061 54.5621 82.0941C54.3352 82.0041 54.2278 81.7461 54.3173 81.524C54.4069 81.296 54.6636 81.188 54.8844 81.278C55.0217 81.332 58.1976 82.6461 59.1527 86.6905C59.2064 86.9246 59.0631 87.1646 58.8303 87.2246C58.7945 87.2306 58.7647 87.2366 58.7288 87.2366V87.2306Z" fill="white"/>
<path d="M55.6903 111.623H55.6844C55.4396 111.623 55.2486 111.419 55.2546 111.173C55.2546 111.161 55.2665 109.781 54.765 108.059C54.4785 107.075 53.9532 106.492 53.2846 105.754C52.8249 105.244 52.2996 104.662 51.7982 103.864C50.5386 101.866 50.855 99.2798 50.8669 99.1718C50.8968 98.9317 51.1236 98.7577 51.3564 98.7937C51.5952 98.8237 51.7683 99.0458 51.7385 99.2858C51.7385 99.3098 51.4519 101.668 52.5384 103.396C52.998 104.128 53.4756 104.656 53.9353 105.166C54.6218 105.922 55.2665 106.636 55.6068 107.813C56.15 109.673 56.1321 111.131 56.1321 111.191C56.1321 111.431 55.9351 111.623 55.6903 111.623Z" fill="white"/>
<path d="M37.1428 99.6338L36.2712 99.5558C36.2891 99.3818 36.7011 95.2294 39.7814 94.1373L40.0739 94.9713C37.5189 95.8774 37.1488 99.6038 37.1428 99.6398V99.6338Z" fill="white"/>
<path d="M52.0608 120.114C52.0608 120.114 52.0369 120.114 52.025 120.114C51.9176 120.108 49.4342 119.88 47.5359 118.296C45.7211 116.783 43.7631 115.181 43.7631 115.181C43.5721 115.025 43.5482 114.749 43.6974 114.563C43.8526 114.377 44.1272 114.347 44.3123 114.497C44.3123 114.497 46.2763 116.105 48.091 117.618C49.7745 119.022 52.0668 119.232 52.0907 119.238C52.3295 119.256 52.5085 119.472 52.4906 119.718C52.4727 119.946 52.2817 120.12 52.0549 120.12L52.0608 120.114Z" fill="white"/>
<path d="M70.3934 92.9372C70.2323 92.9372 70.083 92.8352 70.0293 92.6791C69.5338 91.227 68.2802 90.3569 66.4953 90.2309C65.0148 90.1229 63.8687 89.4808 63.4986 88.5507C63.2419 87.9027 63.409 87.2186 63.9642 86.6065C65.2477 85.2024 67.14 84.5603 67.2296 84.5303C67.2952 84.6563 67.4564 85.0344 67.5101 85.2504C67.4922 85.2564 65.6775 85.8745 64.5253 87.1346C64.1731 87.5246 64.0657 87.9027 64.2089 88.2687C64.4597 88.8988 65.3969 89.3788 66.549 89.4628C69.3965 89.6728 70.4054 91.413 70.7516 92.4331C70.8232 92.6371 70.7158 92.8532 70.5128 92.9252C70.471 92.9372 70.4293 92.9432 70.3875 92.9432L70.3934 92.9372Z" fill="white"/>
<path d="M50.0849 133.201C50.0311 133.201 49.9774 133.189 49.9237 133.171C49.6968 133.081 49.5894 132.829 49.673 132.601C50.461 130.573 50.1744 130.351 46.127 128.077C45.6853 127.831 45.2077 127.561 44.6824 127.261C41.8349 125.634 41.6558 122.358 41.6498 122.22C41.6379 121.98 41.8289 121.77 42.0677 121.758C42.3184 121.74 42.5154 121.938 42.5274 122.178C42.5274 122.208 42.6945 125.106 45.1122 126.492C45.6316 126.786 46.1091 127.056 46.5509 127.303C50.5087 129.529 51.5773 130.129 50.4848 132.925C50.4192 133.099 50.252 133.207 50.0789 133.207L50.0849 133.201Z" fill="white"/>
<path d="M52.0608 129.061C51.9414 129.061 51.8161 129.013 51.7325 128.911C51.1415 128.233 49.8162 127.273 48.1925 126.342C46.3479 125.286 44.6585 123.522 44.5869 123.444C44.4197 123.27 44.4257 122.988 44.5988 122.82C44.7719 122.652 45.0525 122.658 45.2197 122.832C45.2376 122.85 46.8971 124.584 48.6283 125.568C50.3535 126.558 51.7265 127.561 52.3891 128.317C52.5503 128.503 52.5324 128.779 52.3474 128.941C52.2638 129.013 52.1623 129.049 52.0548 129.049L52.0608 129.061Z" fill="white"/>
<path d="M58.0662 134.659C58.0662 134.659 58.0304 134.659 58.0125 134.659C57.7737 134.629 57.6006 134.407 57.6304 134.167C57.6304 134.143 57.8991 131.815 56.6514 130.033C55.1889 127.945 56.0425 124.266 56.0783 124.11C56.1321 123.876 56.3649 123.726 56.6096 123.78C56.8425 123.834 56.9917 124.074 56.938 124.314C56.932 124.35 56.144 127.765 57.3737 129.529C58.8184 131.593 58.5199 134.173 58.502 134.281C58.4722 134.503 58.2871 134.665 58.0662 134.665V134.659Z" fill="white"/>
<path d="M79.8433 105.34C78.4046 105.34 76.8227 104.278 75.0258 103.066C74.5781 102.766 74.1185 102.454 73.6409 102.154C71.2352 100.612 66.2386 100.486 66.1849 100.48C65.9759 100.48 65.8028 100.3 65.8088 100.084C65.8088 99.8738 65.97 99.7178 66.2028 99.7058C66.4177 99.7058 71.468 99.8438 74.0528 101.5C74.5304 101.806 74.996 102.118 75.4497 102.424C77.3122 103.672 78.918 104.752 80.1776 104.542C81.1865 104.368 82.5416 103.402 83.4191 102.7C83.6459 102.886 83.7474 103.03 83.9265 103.282C82.9893 104.038 81.4969 105.106 80.3089 105.304C80.1597 105.328 80.0045 105.34 79.8493 105.34H79.8433Z" fill="white"/>
<path d="M80.9119 113.063C80.9119 113.063 80.894 113.063 80.882 113.063C80.6432 113.045 80.4582 112.835 80.4761 112.595C80.4761 112.577 80.5955 110.795 80.4641 108.719C80.3507 106.991 79.5747 105.148 79.5687 105.13C79.4732 104.908 79.5747 104.644 79.8015 104.554C80.0224 104.458 80.285 104.56 80.3806 104.788C80.4164 104.866 81.2223 106.787 81.3476 108.665C81.4849 110.801 81.3655 112.583 81.3596 112.661C81.3417 112.895 81.1506 113.069 80.9238 113.069L80.9119 113.063Z" fill="white"/>
<path d="M72.4828 113.849C72.3395 113.849 72.1963 113.777 72.1127 113.645C72.1007 113.627 70.8233 111.599 69.0264 110.147C67.146 108.629 64.6805 106.577 64.6805 106.577L65.2417 105.898C65.2417 105.898 67.6952 107.945 69.5756 109.463C71.4918 111.011 72.8052 113.087 72.8589 113.177C72.9902 113.381 72.9246 113.657 72.7216 113.783C72.6499 113.831 72.5664 113.849 72.4888 113.849H72.4828Z" fill="white"/>
<path d="M38.7665 106.282C39.2083 107.087 38.7427 108.197 37.7278 108.767C36.707 109.337 35.525 109.145 35.0773 108.341C34.6356 107.537 35.1012 106.427 36.116 105.856C37.1368 105.286 38.3188 105.478 38.7665 106.282Z" fill="white"/>
<path d="M37.9368 106.751C38.1815 107.189 37.9248 107.801 37.3637 108.113C36.8025 108.425 36.1578 108.317 35.9131 107.879C35.6683 107.441 35.925 106.829 36.4861 106.517C37.0473 106.204 37.692 106.313 37.9368 106.751Z" fill="#1F93FB"/>
<path d="M37.9368 106.751C38.1815 107.189 37.9248 107.801 37.3637 108.113C36.8025 108.425 36.1578 108.317 35.9131 107.879C35.6683 107.441 35.925 106.829 36.4861 106.517C37.0473 106.204 37.692 106.313 37.9368 106.751Z" fill="#447BE9"/>
<path d="M42.3005 119.082C43.2139 119.172 43.8586 120.192 43.7392 121.356C43.6258 122.52 42.796 123.39 41.8827 123.3C40.9693 123.21 40.3246 122.19 40.444 121.026C40.5574 119.862 41.3872 118.992 42.3005 119.082Z" fill="white"/>
<path d="M42.211 120.036C42.7124 120.084 43.0646 120.642 42.999 121.284C42.9333 121.92 42.4796 122.4 41.9841 122.352C41.4827 122.304 41.1305 121.746 41.1962 121.104C41.2618 120.468 41.7155 119.988 42.211 120.036Z" fill="#1F93FB"/>
<path d="M42.211 120.036C42.7124 120.084 43.0646 120.642 42.999 121.284C42.9333 121.92 42.4796 122.4 41.9841 122.352C41.4827 122.304 41.1305 121.746 41.1962 121.104C41.2618 120.468 41.7155 119.988 42.211 120.036Z" fill="#447BE9"/>
<path d="M56.1619 117.942C56.9798 118.356 57.2484 119.472 56.7649 120.426C56.2813 121.38 55.2307 121.818 54.4128 121.404C53.595 120.99 53.3264 119.874 53.8099 118.92C54.2934 117.966 55.3441 117.528 56.1619 117.942Z" fill="white"/>
<path d="M55.7679 118.722C56.2157 118.95 56.3649 119.562 56.1022 120.084C55.8396 120.606 55.2605 120.846 54.8128 120.618C54.3651 120.39 54.2158 119.778 54.4785 119.256C54.7412 118.734 55.3202 118.494 55.7679 118.722Z" fill="#1F93FB"/>
<path d="M63.8866 90.9329C64.3283 91.737 63.8627 92.8471 62.8479 93.4172C61.8271 93.9872 60.6451 93.7952 60.1974 92.9911C59.7556 92.1871 60.2212 91.077 61.2361 90.5069C62.2569 89.9368 63.4389 90.1289 63.8866 90.9329Z" fill="white"/>
<path d="M63.0568 91.395C63.3015 91.833 63.0449 92.4451 62.4837 92.7571C61.9226 93.0691 61.2779 92.9611 61.0331 92.5231C60.7883 92.085 61.045 91.473 61.6062 91.1609C62.1673 90.8489 62.812 90.9569 63.0568 91.395Z" fill="#1F93FB"/>
<path d="M72.4052 92.0311C72.8768 92.8891 72.5365 93.9932 71.6351 94.4973C70.7337 95.0013 69.6234 94.7073 69.1458 93.8492C68.6742 92.9911 69.0145 91.887 69.9159 91.383C70.8173 90.8789 71.9276 91.173 72.4052 92.0311Z" fill="white"/>
<path d="M71.6709 92.4391C71.9336 92.9071 71.7426 93.5132 71.2471 93.7892C70.7516 94.0652 70.1427 93.9032 69.886 93.4352C69.6293 92.9671 69.8144 92.3611 70.3099 92.085C70.8053 91.809 71.4142 91.971 71.6709 92.4391Z" fill="#1F93FB"/>
<path d="M55.6008 109.631C56.5141 109.595 57.2961 110.513 57.3439 111.683C57.3917 112.853 56.6872 113.831 55.7739 113.867C54.8606 113.903 54.0785 112.985 54.0367 111.815C53.989 110.645 54.6934 109.667 55.6068 109.631H55.6008Z" fill="white"/>
<path d="M55.6426 110.591C56.144 110.573 56.5678 111.077 56.5977 111.713C56.6216 112.355 56.2395 112.889 55.7381 112.913C55.2366 112.931 54.8128 112.427 54.7829 111.791C54.7591 111.149 55.1411 110.615 55.6426 110.591Z" fill="#1F93FB"/>
<path d="M46.9926 93.5372C46.9926 94.4553 46.0494 95.2053 44.8854 95.2053C43.7213 95.2053 42.7781 94.4613 42.7781 93.5372C42.7781 92.6131 43.7213 91.869 44.8854 91.869C46.0494 91.869 46.9926 92.6131 46.9926 93.5372Z" fill="white"/>
<path d="M46.0375 93.5372C46.0375 94.0412 45.5181 94.4492 44.8794 94.4492C44.2407 94.4492 43.7213 94.0412 43.7213 93.5372C43.7213 93.0331 44.2407 92.6251 44.8794 92.6251C45.5181 92.6251 46.0375 93.0331 46.0375 93.5372Z" fill="#1F93FB"/>
<path d="M67.6116 99.9458C67.6116 100.864 66.7759 101.614 65.7491 101.614C64.7223 101.614 63.8866 100.87 63.8866 99.9458C63.8866 99.0217 64.7223 98.2776 65.7491 98.2776C66.7759 98.2776 67.6116 99.0217 67.6116 99.9458Z" fill="white"/>
<path d="M66.7699 99.9458C66.7699 100.45 66.3102 100.858 65.7491 100.858C65.188 100.858 64.7283 100.45 64.7283 99.9458C64.7283 99.4417 65.188 99.0337 65.7491 99.0337C66.3102 99.0337 66.7699 99.4417 66.7699 99.9458Z" fill="#1F93FB"/>
<path d="M65.6476 104.5C66.4953 104.842 66.8774 105.892 66.4953 106.859C66.1132 107.819 65.1163 108.323 64.2686 107.981C63.421 107.639 63.0389 106.588 63.421 105.622C63.803 104.656 64.7999 104.158 65.6476 104.5Z" fill="white"/>
<path d="M65.3372 105.286C65.8028 105.472 66.0118 106.048 65.8028 106.576C65.5939 107.105 65.0447 107.381 64.579 107.195C64.1134 107.009 63.9045 106.432 64.1134 105.904C64.3224 105.376 64.8716 105.1 65.3372 105.286Z" fill="#1F93FB"/>
<path d="M81.467 112.517C82.2431 113.003 82.4401 114.107 81.8968 114.983C81.3536 115.865 80.2851 116.183 79.509 115.703C78.733 115.217 78.536 114.113 79.0792 113.237C79.6224 112.355 80.691 112.037 81.467 112.517Z" fill="white"/>
<path d="M81.0253 113.237C81.4491 113.501 81.5566 114.107 81.2581 114.587C80.9596 115.067 80.3746 115.247 79.9508 114.983C79.5269 114.719 79.4195 114.113 79.7179 113.633C80.0164 113.153 80.6014 112.973 81.0253 113.237Z" fill="#1F93FB"/>
<path d="M92.2839 125.226C93.06 125.712 93.257 126.816 92.7137 127.693C92.1705 128.575 91.1019 128.893 90.3259 128.413C89.5499 127.927 89.3529 126.822 89.8961 125.946C90.4393 125.064 91.5079 124.746 92.2839 125.226Z" fill="white"/>
<path d="M91.8422 125.946C92.266 126.21 92.3735 126.816 92.075 127.297C91.7765 127.777 91.1915 127.957 90.7677 127.693C90.3438 127.429 90.2364 126.823 90.5289 126.342C90.8274 125.862 91.4124 125.682 91.8362 125.946H91.8422Z" fill="#1F93FB"/>
<path d="M88.5111 118.392C89.2872 118.878 89.4842 119.982 88.941 120.858C88.3977 121.74 87.3292 122.058 86.5531 121.578C85.7771 121.092 85.5801 119.988 86.1233 119.112C86.6665 118.23 87.7351 117.912 88.5111 118.392Z" fill="white"/>
<path d="M88.0694 119.112C88.4932 119.376 88.6007 119.982 88.3022 120.462C88.0037 120.942 87.4187 121.122 86.9949 120.858C86.571 120.594 86.4636 119.988 86.7621 119.508C87.0605 119.028 87.6456 118.848 88.0694 119.112Z" fill="#1F93FB"/>
<path d="M73.8916 112.247C74.6677 112.733 74.8646 113.837 74.3214 114.713C73.7782 115.595 72.7096 115.913 71.9336 115.433C71.1575 114.947 70.9605 113.843 71.5038 112.967C72.047 112.085 73.1156 111.767 73.8916 112.247Z" fill="white"/>
<path d="M73.4498 112.967C73.8737 113.231 73.9811 113.837 73.6827 114.317C73.3842 114.797 72.7992 114.977 72.3753 114.713C71.9515 114.449 71.844 113.843 72.1425 113.363C72.441 112.883 73.026 112.703 73.4498 112.967Z" fill="#1F93FB"/>
<path d="M82.846 118.392C83.622 118.878 83.819 119.982 83.2758 120.858C82.7326 121.74 81.664 122.058 80.888 121.578C80.1119 121.092 79.9149 119.988 80.4582 119.112C81.0014 118.23 82.0699 117.912 82.846 118.392Z" fill="white"/>
<path d="M82.4042 119.112C82.8281 119.376 82.9355 119.982 82.6371 120.462C82.3386 120.942 81.7536 121.122 81.3297 120.858C80.9059 120.594 80.7984 119.988 81.0969 119.508C81.3954 119.028 81.9804 118.848 82.4042 119.112Z" fill="#1F93FB"/>
<path d="M36.0742 98.9497C36.9876 98.9257 37.7517 99.8618 37.7816 101.032C37.8054 102.202 37.0891 103.168 36.1757 103.192C35.2624 103.216 34.4983 102.28 34.4684 101.11C34.4446 99.9398 35.1609 98.9737 36.0742 98.9497Z" fill="white"/>
<path d="M36.0981 99.9038C36.5996 99.8918 37.0175 100.402 37.0294 101.044C37.0413 101.686 36.6473 102.214 36.1459 102.226C35.6444 102.238 35.2266 101.728 35.2146 101.086C35.2027 100.444 35.5967 99.9158 36.0981 99.9038Z" fill="#1F93FB"/>
<path d="M36.0981 99.9038C36.5996 99.8918 37.0175 100.402 37.0294 101.044C37.0413 101.686 36.6473 102.214 36.1459 102.226C35.6444 102.238 35.2266 101.728 35.2146 101.086C35.2027 100.444 35.5967 99.9158 36.0981 99.9038Z" fill="#447BE9"/>
<path d="M56.741 123.078C57.6484 123.192 58.2752 124.146 58.1438 125.208C58.0125 126.27 57.1708 127.039 56.2634 126.924C55.356 126.81 54.7292 125.856 54.8606 124.794C54.9919 123.732 55.8336 122.964 56.741 123.078Z" fill="white"/>
<path d="M56.6335 123.948C57.129 124.008 57.4752 124.536 57.4036 125.118C57.332 125.7 56.8663 126.12 56.3709 126.06C55.8754 126 55.5292 125.472 55.6008 124.89C55.6724 124.308 56.1381 123.888 56.6335 123.948Z" fill="#1F93FB"/>
<path d="M61.5107 121.548C62.4181 121.662 63.0449 122.616 62.9135 123.678C62.7822 124.74 61.9405 125.508 61.0331 125.394C60.1257 125.28 59.4989 124.326 59.6303 123.264C59.7616 122.202 60.6033 121.434 61.5107 121.548Z" fill="white"/>
<path d="M61.3973 122.418C61.8927 122.478 62.239 123.006 62.1673 123.588C62.0957 124.17 61.6301 124.59 61.1346 124.53C60.6391 124.47 60.2929 123.942 60.3645 123.36C60.4362 122.778 60.9018 122.358 61.3973 122.418Z" fill="#1F93FB"/>
<path d="M74.005 134.815C73.7662 134.815 73.5693 134.623 73.5633 134.383C73.5633 134.365 73.5155 132.367 72.5186 130.351C71.5814 128.449 70.2442 127.951 66.4356 127.315C64.2746 126.954 62.0002 124.866 61.9047 124.776C61.7256 124.614 61.7136 124.332 61.8808 124.152C62.0479 123.972 62.3225 123.96 62.5016 124.128C62.5255 124.146 64.6865 126.126 66.5848 126.444C70.3636 127.074 72.1425 127.603 73.3126 129.961C74.399 132.163 74.4468 134.281 74.4468 134.371C74.4468 134.617 74.2558 134.815 74.017 134.821H74.011L74.005 134.815Z" fill="white"/>
<path d="M75.2109 130.501C74.996 130.501 74.8109 130.345 74.7751 130.129C74.7751 130.111 74.5124 128.491 73.6349 127.116C72.7574 125.742 71.5038 124.842 70.5009 124.212C70.2979 124.08 70.2322 123.81 70.3636 123.606C70.4949 123.402 70.7635 123.336 70.9665 123.468C72.041 124.146 73.4021 125.124 74.3692 126.642C75.3542 128.179 75.6288 129.925 75.6407 129.997C75.6765 130.237 75.5153 130.465 75.2766 130.501C75.2527 130.501 75.2288 130.501 75.2109 130.501Z" fill="white"/>
<path d="M82.5535 134.959C82.3446 134.959 82.1595 134.809 82.1237 134.599C82.1237 134.569 81.5387 131.401 81.4969 127.831C81.4551 124.254 81.4312 121.512 81.4312 121.512C81.4312 121.266 81.6222 121.068 81.867 121.068C82.1177 121.08 82.3087 121.26 82.3087 121.506C82.3087 121.506 82.3326 124.242 82.3744 127.819C82.4162 131.317 82.9833 134.407 82.9893 134.437C83.0311 134.677 82.8758 134.905 82.6371 134.953C82.6072 134.953 82.5833 134.959 82.5535 134.959Z" fill="white"/>
<path d="M82.1416 131.203C81.9028 131.203 81.67 131.005 81.67 130.765C81.67 130.519 81.8312 130.321 82.0759 130.321H82.1416C82.9714 130.321 84.9115 130.309 86.5292 129.649C88.0574 129.025 90.1647 127.657 90.1826 127.639C90.3856 127.507 90.6602 127.567 90.7915 127.771C90.9229 127.975 90.8632 128.251 90.6602 128.383C90.5706 128.443 88.4634 129.811 86.8576 130.465C85.0786 131.191 83.0251 131.197 82.1416 131.197V131.203Z" fill="white"/>
<path d="M80.2253 131.419C80.0343 131.419 79.8552 131.287 79.8015 131.095C79.7836 131.023 79.312 129.241 79.2881 127.399C79.2583 125.166 79.2344 123.846 79.2344 123.846C79.2344 123.6 79.4194 123.402 79.6642 123.396C79.9269 123.396 80.106 123.582 80.1119 123.828C80.1119 123.828 80.1418 125.148 80.1656 127.387C80.1895 129.115 80.6432 130.843 80.6492 130.861C80.7149 131.095 80.5716 131.341 80.3388 131.401C80.303 131.413 80.2612 131.419 80.2253 131.419Z" fill="white"/>
<path d="M81.8849 123.912C81.7118 123.912 81.5506 123.81 81.479 123.642C81.3835 123.42 81.4909 123.162 81.7118 123.066C81.7416 123.054 84.6667 121.812 86.0815 120.606C86.2666 120.45 86.5412 120.474 86.7024 120.66C86.8576 120.846 86.8337 121.122 86.6486 121.284C85.1323 122.58 82.1774 123.834 82.052 123.882C81.9983 123.906 81.9386 123.918 81.8849 123.918V123.912Z" fill="white"/>
<path d="M64.0657 78.8358C63.8926 78.8358 63.7314 78.7338 63.6597 78.5657C62.8897 76.6996 62.5076 75.7515 62.5076 75.7515C62.4181 75.5234 62.5255 75.2654 62.7524 75.1754C62.9732 75.0854 63.2299 75.1934 63.3254 75.4214C63.3254 75.4214 63.7075 76.3635 64.4716 78.2237C64.5671 78.4457 64.4597 78.7038 64.2328 78.7998C64.1791 78.8238 64.1194 78.8358 64.0657 78.8358Z" fill="white"/>
<path d="M65.9282 78.0617C65.9282 78.9797 65.0924 79.7298 64.0657 79.7298C63.0389 79.7298 62.2032 78.9857 62.2032 78.0617C62.2032 77.1376 63.0389 76.3935 64.0657 76.3935C65.0924 76.3935 65.9282 77.1376 65.9282 78.0617Z" fill="white"/>
<path d="M65.0865 78.0617C65.0865 78.5657 64.6268 78.9738 64.0657 78.9738C63.5045 78.9738 63.0449 78.5657 63.0449 78.0617C63.0449 77.5576 63.5045 77.1496 64.0657 77.1496C64.6268 77.1496 65.0865 77.5576 65.0865 78.0617Z" fill="#1F93FB"/>
<path d="M74.7751 82.9102C73.42 82.9102 71.8799 82.4481 71.647 82.3761C71.4142 82.3041 71.2829 82.0581 71.3545 81.8241C71.4262 81.59 71.6709 81.458 71.9037 81.53C72.6858 81.77 74.9064 82.3041 75.8019 81.8541C76.6018 81.452 77.6465 79.4178 78.1181 78.2357C78.2076 78.0077 78.4643 77.8997 78.6912 77.9897C78.918 78.0797 79.0255 78.3377 78.9359 78.5657C78.7986 78.9138 77.5569 81.9621 76.1959 82.6461C75.8079 82.8381 75.3064 82.9102 74.7751 82.9102Z" fill="white"/>
<path d="M79.0135 86.7025C78.9001 86.7025 78.7867 86.6605 78.7031 86.5705C78.6494 86.5165 77.4554 85.2744 77.6226 83.7442C77.7778 82.3401 78.7628 80.3299 78.8046 80.2459C78.912 80.0298 79.1747 79.9398 79.3956 80.0478C79.6105 80.1559 79.7 80.4199 79.5926 80.6419C79.5806 80.6599 78.6315 82.5981 78.5001 83.8462C78.3748 84.9683 79.3239 85.9524 79.3299 85.9584C79.497 86.1324 79.4971 86.4145 79.3239 86.5825C79.2404 86.6665 79.1269 86.7085 79.0195 86.7085L79.0135 86.7025Z" fill="white"/>
<path d="M73.4081 80.954C73.8797 81.812 73.5394 82.9162 72.638 83.4202C71.7366 83.9243 70.6263 83.6302 70.1487 82.7721C69.6771 81.9141 70.0174 80.8099 70.9188 80.3059C71.8202 79.8018 72.9305 80.0959 73.4081 80.954Z" fill="white"/>
<path d="M72.6679 81.368C72.9305 81.836 72.7395 82.4421 72.244 82.7181C71.7485 82.9941 71.1396 82.8321 70.8829 82.3641C70.6203 81.896 70.8113 81.29 71.3068 81.0139C71.8023 80.7379 72.4112 80.8999 72.6679 81.368Z" fill="#1F93FB"/>
<path d="M90.0334 98.9318C88.8037 98.9318 87.5082 98.1337 86.6486 96.7475C85.6935 95.2114 84.3742 93.1772 84.3742 93.1772L85.1085 92.6971C85.1085 92.6971 86.4337 94.7433 87.3889 96.2795C88.1589 97.5156 89.5737 98.4577 90.7975 97.8757C92.5526 97.0416 93.1555 96.2555 93.1614 96.2495C93.3047 96.0575 93.5793 96.0155 93.7763 96.1595C93.9673 96.3035 94.0151 96.5735 93.8718 96.7715C93.842 96.8076 93.1615 97.7316 91.1795 98.6737C90.8154 98.8478 90.4333 98.9258 90.0394 98.9258L90.0334 98.9318Z" fill="white"/>
<path d="M86.374 92.4091C86.8456 93.2672 86.5054 94.3713 85.6039 94.8753C84.7025 95.3794 83.5922 95.0854 83.1146 94.2273C82.643 93.3692 82.9833 92.2651 83.8847 91.761C84.7861 91.257 85.8965 91.551 86.374 92.4091Z" fill="white"/>
<path d="M85.6338 92.8171C85.8965 93.2852 85.7054 93.8912 85.21 94.1673C84.7145 94.4433 84.1056 94.2813 83.8489 93.8132C83.5922 93.3452 83.7773 92.7391 84.2727 92.4631C84.7682 92.1871 85.3771 92.3491 85.6338 92.8171Z" fill="#1F93FB"/>
<path d="M93.1615 105.4C93.1615 105.4 91.8064 103.528 90.899 102.334C89.52 100.522 89.7051 98.5357 89.711 98.4517C89.7349 98.2117 89.9558 98.0317 90.1886 98.0617C90.4274 98.0857 90.6065 98.3017 90.5826 98.5417C90.5826 98.5597 90.4274 100.27 91.5914 101.8C92.5108 103.006 93.8718 104.884 93.8718 104.884L93.1615 105.4Z" fill="white"/>
<path d="M96.1522 113.063C96.1104 113.063 96.0627 113.057 96.0209 113.045C95.7881 112.973 95.6627 112.727 95.7343 112.493C95.7343 112.475 96.2955 110.699 96.5164 109.601C96.8745 107.843 96.8745 105.91 96.8745 105.892C96.8745 105.646 97.0715 105.454 97.3163 105.454C97.561 105.454 97.758 105.652 97.758 105.892C97.758 105.976 97.758 107.927 97.382 109.775C97.1491 110.915 96.5999 112.679 96.5761 112.757C96.5164 112.943 96.3432 113.063 96.1582 113.063H96.1522Z" fill="white"/>
<path d="M101.125 126.324C100.904 126.324 100.713 126.156 100.689 125.934C100.689 125.91 100.438 123.798 99.9071 121.89C99.5668 120.672 98.546 119.628 98.5341 119.616C98.361 119.442 98.367 119.166 98.5341 118.992C98.7072 118.824 98.9818 118.824 99.1549 118.992C99.2027 119.04 100.349 120.216 100.749 121.65C101.298 123.63 101.549 125.736 101.555 125.826C101.585 126.066 101.411 126.288 101.173 126.318C101.155 126.318 101.137 126.318 101.119 126.318L101.125 126.324Z" fill="white"/>
<path d="M94.7852 103.744C95.5612 104.23 95.7582 105.334 95.215 106.21C94.6718 107.093 93.6032 107.411 92.8272 106.931C92.0511 106.444 91.8541 105.34 92.3974 104.464C92.9406 103.582 94.0091 103.264 94.7852 103.744Z" fill="white"/>
<path d="M94.3434 104.464C94.7673 104.728 94.8747 105.334 94.5763 105.814C94.2778 106.294 93.6928 106.474 93.2689 106.21C92.8451 105.946 92.7376 105.34 93.0361 104.86C93.3346 104.38 93.9196 104.2 94.3434 104.464Z" fill="#1F93FB"/>
<path d="M97.1312 110.777C97.9073 111.263 98.1043 112.367 97.561 113.243C97.0178 114.125 95.9493 114.443 95.1732 113.963C94.3972 113.477 94.2002 112.373 94.7434 111.497C95.2866 110.615 96.3552 110.297 97.1312 110.777Z" fill="white"/>
<path d="M96.6895 111.497C97.1133 111.761 97.2208 112.367 96.9223 112.847C96.6238 113.327 96.0388 113.507 95.615 113.243C95.1911 112.979 95.0837 112.373 95.3762 111.893C95.6747 111.413 96.2597 111.233 96.6835 111.497H96.6895Z" fill="#1F93FB"/>
<path d="M98.8266 118.014C99.734 117.912 100.564 118.668 100.677 119.694C100.791 120.72 100.14 121.638 99.2325 121.734C98.3251 121.836 97.4954 121.08 97.382 120.054C97.2685 119.028 97.9192 118.11 98.8266 118.014Z" fill="white"/>
<path d="M98.9161 118.854C99.4176 118.8 99.8653 119.214 99.931 119.778C99.9907 120.342 99.6385 120.84 99.137 120.9C98.6415 120.954 98.1819 120.54 98.1222 119.976C98.0625 119.412 98.4147 118.914 98.9161 118.854Z" fill="#1F93FB"/>
<path d="M65.8446 137.762C65.7431 137.762 65.6416 137.762 65.5342 137.762C61.3376 137.642 58.6572 135.265 57.9886 134.599C57.3141 134.875 55.1292 135.535 51.7743 134.227C49.9356 133.507 48.8671 132.175 48.5328 131.701C47.9955 131.743 46.4673 131.773 44.8257 130.891C43.2318 130.033 42.5871 128.689 42.3781 128.119C41.6976 128.191 39.9008 128.191 38.3069 126.57C37.2323 125.478 37.0353 124.008 36.9995 123.498C36.5279 123.192 35.0952 122.16 34.4266 120.378C33.6685 118.362 33.9789 116.495 34.1043 115.931C33.6685 115.427 32.1701 113.507 31.9612 111.071C31.6866 107.849 32.4626 106.27 32.7313 105.826C32.588 105.172 32.0627 102.37 32.7969 100.012C33.8774 96.5555 36.3727 95.4634 36.4802 95.4154C36.6354 95.3494 36.8204 95.4214 36.8861 95.5834C36.9518 95.7454 36.8801 95.9255 36.719 95.9975C36.6951 96.0095 34.3789 97.0356 33.3879 100.204C32.6179 102.664 33.3521 105.784 33.3641 105.82L33.3999 105.97L33.3044 106.09C33.3044 106.09 32.2716 107.507 32.5761 111.023C32.7969 113.603 34.6475 115.619 34.6654 115.637L34.7848 115.763L34.7371 115.931C34.7371 115.931 34.1879 117.996 35.0057 120.162C35.7161 122.052 37.4293 123.042 37.4473 123.048L37.6084 123.138V123.324C37.6084 123.324 37.6383 125.016 38.7427 126.138C40.4679 127.891 42.4378 127.489 42.5214 127.471L42.8199 127.405L42.8915 127.699C42.8915 127.699 43.3333 129.385 45.1122 130.345C46.927 131.323 48.6164 131.071 48.6283 131.065L48.8372 131.029L48.9447 131.209C48.9447 131.209 49.9834 132.865 51.9892 133.645C55.6963 135.091 57.8752 133.963 57.8931 133.951L58.108 133.837L58.2752 134.017C58.2752 134.017 61.0391 137.006 65.5342 137.138C65.6297 137.138 65.7252 137.138 65.8148 137.138C70.2024 137.138 73.7424 134.173 73.7782 134.143L74.0588 133.903L74.2498 134.221C74.2916 134.293 75.3542 135.997 78.2673 136.165C80.7925 136.297 82.267 134.365 82.2789 134.341L82.446 134.113L82.6908 134.257C82.6908 134.257 85.4249 135.859 87.4486 135.481C93.6808 134.281 93.5674 127.903 93.5614 127.843V127.705L93.6569 127.609C93.6748 127.591 95.6627 125.628 95.609 122.688C95.5553 119.76 92.9048 117.726 92.8749 117.708L92.7197 117.594L92.7555 117.402C92.7615 117.36 93.4659 113.231 90.1289 107.783C88.1768 104.59 83.3415 103.03 83.2937 103.018L83.0669 102.946V102.706C83.0728 102.658 83.1624 97.9057 79.5806 93.9573C76.7212 90.807 72.4828 90.735 72.441 90.735H72.2201L72.1485 90.5249C72.1485 90.5069 71.5336 88.8148 70.5009 87.4706C69.504 86.1685 67.4206 85.5745 67.4027 85.5685L67.2654 85.5324L67.2057 85.4004C67.2057 85.4004 65.8924 82.6882 62.7762 81.398C61.254 80.768 59.3557 80.846 57.135 81.6261L56.9738 81.6801L56.8365 81.5781C55.2844 80.3839 53.0458 80.762 53.0219 80.762C52.8548 80.786 52.6876 80.678 52.6578 80.51C52.6279 80.3359 52.7413 80.1739 52.9085 80.1439C53.01 80.1259 55.3202 79.7359 57.0753 80.978C59.3795 80.1979 61.3734 80.1439 63.0031 80.816C65.9879 82.0521 67.3907 84.4163 67.6952 84.9984C68.2086 85.1604 70.0114 85.8025 70.9904 87.0806C71.8799 88.2387 72.4529 89.6009 72.6499 90.1049C73.5931 90.1589 77.3361 90.5549 80.0284 93.5252C83.3654 97.2036 83.6638 101.434 83.6877 102.484C84.6906 102.832 88.7977 104.416 90.6542 107.447C93.7524 112.511 93.5017 116.417 93.3943 117.318C93.9972 117.816 96.1761 119.82 96.2298 122.67C96.2836 125.544 94.6061 127.507 94.1823 127.957C94.1643 128.947 93.7763 134.899 87.562 136.093C85.6577 136.459 83.3415 135.325 82.6012 134.923C82.1058 135.487 80.5776 136.903 78.2255 136.783C75.6765 136.639 74.3811 135.403 73.9155 134.821C72.9902 135.529 69.7786 137.756 65.8148 137.762H65.8446Z" fill="#3763D5"/>
<path d="M69.6592 113.651C69.5398 113.651 69.4204 113.603 69.3368 113.507C68.0534 112.091 65.9401 110.357 65.9162 110.339C65.7312 110.183 65.7013 109.907 65.8506 109.721C66.0058 109.535 66.2804 109.505 66.4654 109.655C66.555 109.727 68.6503 111.449 69.9815 112.913C70.1427 113.093 70.1308 113.369 69.9517 113.537C69.8681 113.615 69.7607 113.651 69.6532 113.651H69.6592Z" fill="white"/>
<path d="M69.6293 79.4298L61.4092 84.2003L58.1438 74.7013L43.184 83.3842L40.0977 96.5675L32.0806 101.224L46.6583 42.5982L54.6456 37.9597L69.6353 79.4238L69.6293 79.4298ZM55.7142 67.6566L50.5565 52.0371L45.5002 73.5852L55.7142 67.6566Z" fill="#B5B8FD"/>
<path d="M73.4081 77.2396V27.0747L80.9656 22.6882V72.8532L73.4081 77.2396Z" fill="#C3C7FB"/>
<path d="M62.0897 42.5202L54.6397 37.9658L46.6524 42.6042L54.0964 47.1587L62.0897 42.5202Z" fill="#EEEDFA"/>
<path d="M68.8533 88.7607L61.4092 84.2003L58.1438 74.7073L65.5879 79.2618L68.8533 88.7607Z" fill="#B5B8FD"/>
<path d="M63.1583 72.2171L55.7142 67.6627L45.5002 73.5852L52.9503 78.1397L63.1583 72.2171Z" fill="#EEEDFA"/>
<path d="M39.5187 105.784L32.0746 101.23L46.6524 42.6042L54.0964 47.1586L39.5187 105.784Z" fill="#B5B8FD"/>
<path d="M88.4097 27.2487L80.9656 22.6882L73.4081 27.0747L80.8522 31.6291L88.4097 27.2487Z" fill="#EEEDFA"/>
<path d="M80.8522 81.794L73.4081 77.2396V27.0746L80.8522 31.6291V81.794Z" fill="#B5B8FD"/>
<path d="M80.8522 81.794V31.6291L88.4097 27.2427V77.4076L80.8522 81.794Z" fill="#FAFAFF"/>
<path d="M77.0734 83.9903L68.8533 88.7607L65.5879 79.2618L50.6281 87.9447L47.5418 101.128L39.5247 105.784L54.1024 47.1587L62.0897 42.5202L77.0794 83.9843L77.0734 83.9903ZM63.1583 72.2171L58.0006 56.5976L52.9443 78.1457L63.1583 72.2171Z" fill="#FAFAFF"/>
<defs>
<linearGradient id="paint0_linear_2101_492" x1="5.19354" y1="138.476" x2="127.373" y2="138.476" gradientUnits="userSpaceOnUse">
<stop stop-color="#D3D7F2"/>
<stop offset="0.45" stop-color="#BBC9F8"/>
<stop offset="0.55" stop-color="#D3D7F2"/>
<stop offset="1" stop-color="#F2F3FF"/>
</linearGradient>
<linearGradient id="paint1_linear_2101_492" x1="4.56077" y1="136.249" x2="128" y2="136.249" gradientUnits="userSpaceOnUse">
<stop stop-color="#E8EAFB"/>
<stop offset="1" stop-color="white"/>
</linearGradient>
<linearGradient id="paint2_linear_2101_492" x1="78.721" y1="153.909" x2="62.0502" y2="122.135" gradientUnits="userSpaceOnUse">
<stop stop-color="#20ABFF"/>
<stop offset="0.57" stop-color="#0095FF"/>
<stop offset="0.6" stop-color="#3DC0FF"/>
<stop offset="0.9" stop-color="#33BBFF"/>
<stop offset="1" stop-color="#30DCF2"/>
</linearGradient>
<linearGradient id="paint3_linear_2101_492" x1="4.56092" y1="127.339" x2="126.699" y2="127.339" gradientUnits="userSpaceOnUse">
<stop stop-color="#1487FB"/>
<stop offset="1" stop-color="#22D2FD"/>
</linearGradient>
<linearGradient id="paint4_linear_2101_492" x1="23.5441" y1="116.531" x2="67.5519" y2="116.531" gradientUnits="userSpaceOnUse">
<stop stop-color="#20ABFF"/>
<stop offset="0.57" stop-color="#0095FF"/>
<stop offset="0.6" stop-color="#3DC0FF"/>
<stop offset="0.9" stop-color="#33BBFF"/>
<stop offset="1" stop-color="#30DCF2"/>
</linearGradient>
</defs>
</svg>
