<svg width="130" height="176" viewBox="0 0 130 176" fill="none" xmlns="http://www.w3.org/2000/svg">
<path d="M128.779 81.1962L123.829 78.3268L122.117 77.4021L127.067 80.2715L128.779 81.1962Z" fill="#DCDDF8"/>
<path d="M117.922 90.2936L112.966 87.4242L112.984 89.9177L117.94 92.7871L117.922 90.2936Z" fill="#B5B8FD"/>
<path d="M129.952 71.6633L124.996 68.7939L122.614 70.1958L127.564 73.0652L129.952 71.6633Z" fill="#DCDDF8"/>
<mask id="mask0_2101_493" style="mask-type:luminance" maskUnits="userSpaceOnUse" x="114" y="73" width="10" height="12">
<path d="M122.459 75.8809L117.503 73.0115C118.143 73.3814 118.544 74.1688 118.544 75.2903C118.55 77.5632 116.934 80.355 114.929 81.5123L119.885 84.3817C121.884 83.2244 123.506 80.4386 123.5 78.1598C123.5 77.0382 123.099 76.2508 122.459 75.8809Z" fill="white"/>
</mask>
<g mask="url(#mask0_2101_493)">
<path d="M122.459 75.8809L117.503 73.0115C118.143 73.3814 118.544 74.1688 118.544 75.2903C118.55 77.5632 116.934 80.355 114.929 81.5123L119.885 84.3817C121.884 83.2244 123.506 80.4386 123.5 78.1598C123.5 77.0382 123.099 76.2508 122.459 75.8809Z" fill="#CFD2FA"/>
</g>
<mask id="mask1_2101_493" style="mask-type:luminance" maskUnits="userSpaceOnUse" x="112" y="81" width="8" height="4">
<path d="M112.337 81.7689L117.293 84.6383C117.952 85.0201 118.867 84.9604 119.885 84.3758L114.929 81.5064C113.912 82.091 112.996 82.1507 112.337 81.7689Z" fill="white"/>
</mask>
<g mask="url(#mask1_2101_493)">
<path d="M119.885 84.3758L114.929 81.5064C113.912 82.091 112.996 82.1507 112.337 81.7689L117.293 84.6383C117.952 85.0201 118.867 84.9604 119.885 84.3758Z" fill="#CFD2FA"/>
</g>
<path d="M112.948 88.9394L107.992 86.07L106.502 88.6471L111.458 91.5165L112.948 88.9394Z" fill="#CFD2FA"/>
<path d="M125.266 67.1594L120.316 64.29L118.7 67.0998L123.656 69.9692L125.266 67.1594Z" fill="#DCDDF8"/>
<path d="M128.492 68.8834L123.542 66.014L120.316 64.29L125.266 67.1594L128.492 68.8834Z" fill="#DCDDF8"/>
<mask id="mask2_2101_493" style="mask-type:luminance" maskUnits="userSpaceOnUse" x="107" y="84" width="6" height="5">
<path d="M112.188 87.4599L107.232 84.5905C107.418 85.1632 107.675 85.6584 107.992 86.0759L112.948 88.9454C112.631 88.5278 112.379 88.0326 112.188 87.4599Z" fill="white"/>
</mask>
<g mask="url(#mask2_2101_493)">
<path d="M112.188 87.4599L107.232 84.5905C107.418 85.1632 107.675 85.6584 107.992 86.0759L112.948 88.9454C112.631 88.5278 112.379 88.0326 112.188 87.4599Z" fill="#B5B8FD"/>
</g>
<mask id="mask3_2101_493" style="mask-type:luminance" maskUnits="userSpaceOnUse" x="117" y="67" width="7" height="4">
<path d="M123.656 69.9692L118.7 67.0998C118.209 67.0878 117.688 67.1475 117.15 67.2787L122.105 70.1481C122.644 70.0169 123.165 69.9572 123.656 69.9692Z" fill="white"/>
</mask>
<g mask="url(#mask3_2101_493)">
<path d="M123.656 69.9692L118.7 67.0998C118.209 67.0878 117.688 67.1475 117.15 67.2787L122.105 70.1481C122.644 70.0169 123.165 69.9572 123.656 69.9692Z" fill="#CFD2FA"/>
</g>
<mask id="mask4_2101_493" style="mask-type:luminance" maskUnits="userSpaceOnUse" x="107" y="77" width="6" height="6">
<path d="M112.762 80.021L107.807 77.1516C107.513 77.939 107.286 78.7324 107.124 79.5199L112.08 82.3893C112.242 81.6018 112.469 80.8084 112.762 80.021Z" fill="white"/>
</mask>
<g mask="url(#mask4_2101_493)">
<path d="M112.762 80.021L107.807 77.1516C107.513 77.939 107.286 78.7324 107.124 79.5199L112.08 82.3893C112.242 81.6018 112.469 80.8084 112.762 80.021Z" fill="#B5B8FD"/>
</g>
<mask id="mask5_2101_493" style="mask-type:luminance" maskUnits="userSpaceOnUse" x="110" y="69" width="8" height="6">
<path d="M117.599 72.761L112.643 69.8916C112.05 70.4345 111.488 71.031 110.961 71.6753L115.917 74.5447C116.443 73.9004 117.006 73.3039 117.599 72.761Z" fill="white"/>
</mask>
<g mask="url(#mask5_2101_493)">
<path d="M117.599 72.761L112.643 69.8916C112.05 70.4345 111.488 71.031 110.961 71.6753L115.917 74.5447C116.443 73.9004 117.006 73.3039 117.599 72.761Z" fill="#CFD2FA"/>
</g>
<path d="M109.991 83.6062L105.041 80.7368L105.065 85.8552L110.021 88.7246L109.991 83.6062Z" fill="#B5B8FD"/>
<path d="M112.08 82.3893L107.124 79.5199L105.041 80.7369L109.991 83.6062L112.08 82.3893Z" fill="#CFD2FA"/>
<path d="M122.099 67.6307L117.144 64.7613L112.637 67.3742L117.593 70.2436L122.099 67.6307Z" fill="#E7E8FC"/>
<path d="M117.593 70.2436L112.637 67.3742L112.643 69.8916L117.599 72.761L117.593 70.2436Z" fill="#B5B8FD"/>
<path d="M115.917 74.5447L110.961 71.6753L109.453 70.8341L114.402 73.7035L115.917 74.5447Z" fill="#DCDDF8"/>
<path d="M109.991 83.6063L112.08 82.3893C112.242 81.6019 112.469 80.8084 112.762 80.021L111.23 79.1739L114.402 73.7036L115.911 74.5387C116.437 73.8945 117 73.2979 117.593 72.755V70.2376L122.093 67.6247V70.1481C122.644 70.0169 123.159 69.9572 123.65 69.9692L125.26 67.1594L128.486 68.8834L126.882 71.6813C127.157 72.075 127.39 72.5403 127.558 73.0593L129.94 71.6574L129.994 76.7579L127.66 78.1299C127.516 78.8398 127.313 79.5557 127.061 80.2596L128.773 81.1843L125.619 86.6606L123.985 85.7717C123.494 86.3862 122.973 86.9648 122.423 87.4838L122.447 90.1385L117.94 92.7752L117.922 90.2816C117.335 90.4546 116.773 90.5382 116.246 90.5382L114.672 93.2644L111.464 91.5105L112.954 88.9334C112.637 88.5159 112.385 88.0207 112.194 87.448L110.027 88.7127L109.997 83.6003L109.991 83.6063ZM119.885 84.3758C121.884 83.2185 123.506 80.4326 123.5 78.1538C123.494 75.8869 121.872 74.9802 119.861 76.1315C117.862 77.2888 116.24 80.0747 116.246 82.3535C116.252 84.6204 117.874 85.5271 119.879 84.3698L119.885 84.3758Z" fill="#F2F2FC"/>
<path d="M114.402 73.7035L109.453 70.8341L106.274 76.3045L111.23 79.1739L114.402 73.7035Z" fill="#DCDDF8"/>
<path d="M82.4171 39.5511L77.4613 36.6818L73.3494 34.3612L78.3052 37.2306L82.4171 39.5511Z" fill="#B5B8FD"/>
<path d="M54.5617 63.1506L49.6059 60.2812L49.6598 66.4376L54.6156 69.307L54.5617 63.1506Z" fill="#B5B8FD"/>
<path d="M85.4038 14.7825L80.448 11.9131L74.4507 15.4029L79.4065 18.2723L85.4038 14.7825Z" fill="#DCDDF8"/>
<mask id="mask6_2101_493" style="mask-type:luminance" maskUnits="userSpaceOnUse" x="48" y="44" width="12" height="6">
<path d="M48.2951 45.5226L53.2509 48.392C54.9448 49.3763 57.285 49.2391 59.8587 47.7597L54.9029 44.8903C52.3292 46.3697 49.989 46.5069 48.2951 45.5226Z" fill="white"/>
</mask>
<g mask="url(#mask6_2101_493)">
<path d="M59.8587 47.7536L54.9029 44.8842C52.3292 46.3636 49.989 46.5008 48.2951 45.5165L53.2509 48.3859C54.9448 49.3702 57.285 49.233 59.8587 47.7536Z" fill="#CFD2FA"/>
</g>
<mask id="mask7_2101_493" style="mask-type:luminance" maskUnits="userSpaceOnUse" x="54" y="22" width="16" height="26">
<path d="M66.3527 25.6933L61.3969 22.8239C63.0787 23.7963 64.1261 25.8723 64.1441 28.8193C64.174 34.737 60.0442 41.9314 54.9028 44.8903L59.8586 47.7597C64.994 44.8067 69.1298 37.6064 69.0999 31.6887C69.0819 28.7417 68.0345 26.6657 66.3527 25.6933Z" fill="white"/>
</mask>
<g mask="url(#mask7_2101_493)">
<path d="M66.3527 25.6933L61.3969 22.8239C63.0787 23.7963 64.1261 25.8723 64.1441 28.8193C64.174 34.737 60.0442 41.9314 54.9028 44.8903L59.8586 47.7597C64.994 44.8067 69.1298 37.6064 69.0999 31.6887C69.0819 28.7417 68.0345 26.6657 66.3527 25.6933Z" fill="#CFD2FA"/>
</g>
<path d="M41.8131 59.0702L36.8573 56.2008L33.0267 62.8702L37.9825 65.7396L41.8131 59.0702Z" fill="#DCDDF8"/>
<path d="M73.3854 2.8694L68.4296 0L64.1381 7.52247L69.0939 10.3978L73.3854 2.8694Z" fill="#DCDDF8"/>
<path d="M81.663 7.49265L76.7072 4.62325L68.4296 0L73.3854 2.8694L81.663 7.49265Z" fill="#B5B8FD"/>
<mask id="mask8_2101_493" style="mask-type:luminance" maskUnits="userSpaceOnUse" x="35" y="52" width="7" height="8">
<path d="M39.9696 55.133L35.0138 52.2636C35.4627 53.7609 36.0852 55.0734 36.8573 56.2008L41.8131 59.0702C41.041 57.9427 40.4245 56.6303 39.9696 55.133Z" fill="white"/>
</mask>
<g mask="url(#mask8_2101_493)">
<path d="M39.9696 55.133L35.0138 52.2636C35.4627 53.7609 36.0852 55.0734 36.8573 56.2008L41.8131 59.0702C41.041 57.9427 40.4245 56.6303 39.9696 55.133Z" fill="#CFD2FA"/>
</g>
<mask id="mask9_2101_493" style="mask-type:luminance" maskUnits="userSpaceOnUse" x="60" y="7" width="10" height="4">
<path d="M69.0939 10.3978L64.1381 7.52845C62.8633 7.51055 61.5166 7.68355 60.104 8.05341L65.0599 10.9228C66.4724 10.5529 67.8191 10.38 69.0939 10.3978Z" fill="white"/>
</mask>
<g mask="url(#mask9_2101_493)">
<path d="M69.0939 10.3978L64.1381 7.52845C62.8633 7.51055 61.5166 7.68355 60.104 8.05341L65.0599 10.9228C66.4724 10.5529 67.8191 10.38 69.0939 10.3978Z" fill="#CFD2FA"/>
</g>
<mask id="mask10_2101_493" style="mask-type:luminance" maskUnits="userSpaceOnUse" x="34" y="33" width="8" height="9">
<path d="M41.4899 36.3L36.5341 33.4306C35.8697 35.262 35.331 37.1053 34.936 38.9427L39.8918 41.8121C40.2868 39.9807 40.8255 38.1314 41.4899 36.3Z" fill="white"/>
</mask>
<g mask="url(#mask10_2101_493)">
<path d="M41.4899 36.3L36.5341 33.4306C35.8697 35.262 35.331 37.1053 34.936 38.9427L39.8918 41.8121C40.2868 39.9807 40.8255 38.1314 41.4899 36.3Z" fill="#CFD2FA"/>
</g>
<mask id="mask11_2101_493" style="mask-type:luminance" maskUnits="userSpaceOnUse" x="44" y="14" width="10" height="9">
<path d="M53.5023 17.8368L48.5465 14.9674C47.146 16.2798 45.8172 17.7175 44.5663 19.2566L49.5221 22.126C50.773 20.5809 52.1077 19.1492 53.5023 17.8368Z" fill="white"/>
</mask>
<g mask="url(#mask11_2101_493)">
<path d="M53.5023 17.8368L48.5465 14.9674C47.146 16.2798 45.8172 17.7175 44.5663 19.2566L49.5221 22.126C50.773 20.5809 52.1077 19.1492 53.5023 17.8368Z" fill="#CFD2FA"/>
</g>
<path d="M34.2058 45.0871L29.256 42.2177L29.3278 55.5327L34.2836 58.4021L34.2058 45.0871Z" fill="#B5B8FD"/>
<path d="M39.8918 41.8121L34.942 38.9427L29.256 42.2177L34.2058 45.0871L39.8918 41.8121Z" fill="#DCDDF8"/>
<path d="M64.9701 4.06248L60.0202 1.19308L48.4567 7.95198L53.4125 10.8214L64.9701 4.06248Z" fill="#DCDDF8"/>
<path d="M53.4125 10.8214L48.4567 7.952L48.5465 14.9674L53.5023 17.8368L53.4125 10.8214Z" fill="#B5B8FD"/>
<path d="M49.5161 22.126L44.5663 19.2566L40.3227 16.9181L45.2785 19.7875L49.5161 22.126Z" fill="#B5B8FD"/>
<path d="M34.2058 45.0871L39.8918 41.818C40.2868 39.9866 40.8255 38.1373 41.4899 36.3059L37.2343 33.9555L45.2785 19.7875L49.5221 22.126C50.773 20.5809 52.1077 19.1492 53.5023 17.8368L53.4125 10.8214L64.9701 4.0625L65.0598 10.9228C66.4724 10.5529 67.8191 10.3799 69.0939 10.3978L73.3854 2.87537L81.663 7.49862L77.5571 14.699C78.3052 15.725 78.9277 16.9181 79.4065 18.2842L85.4038 14.7944L85.5414 28.0736L79.8913 31.3605C79.5202 33.3113 78.9876 35.2858 78.3052 37.2425L82.4171 39.5571L74.331 53.6953L70.4466 51.506C69.0999 53.2061 67.6515 54.7989 66.1252 56.2247L66.1791 62.6197L54.6215 69.307L54.5677 63.1506C52.9995 63.5682 51.5092 63.7352 50.1087 63.6696L46.2242 70.4345L37.9825 65.7396L41.8131 59.0702C41.041 57.9427 40.4245 56.6303 39.9696 55.133L34.2836 58.4081L34.2058 45.0871ZM59.8587 47.7597C64.994 44.8067 69.1298 37.6064 69.0999 31.6887C69.064 25.7709 64.8743 23.3728 59.7389 26.3257C54.6036 29.2786 50.4678 36.473 50.5037 42.3907C50.5396 48.3085 54.7293 50.7126 59.8646 47.7597H59.8587Z" fill="#F2F2FC"/>
<path d="M45.2785 19.7875L40.3227 16.9181L32.2785 31.0802L37.2343 33.9496L45.2785 19.7875Z" fill="#DCDDF8"/>
<path d="M29.9742 77.5692L25.0184 74.6998L22.738 73.4649L27.6938 76.3343L29.9742 77.5692Z" fill="#DCDDF8"/>
<path d="M15.5078 89.6791L10.558 86.8097L10.582 90.1385L15.5378 93.0079L15.5078 89.6791Z" fill="#B5B8FD"/>
<path d="M31.5304 64.8746L26.5746 62.0052L23.4024 63.8665L28.3582 66.7359L31.5304 64.8746Z" fill="#E7E8FC"/>
<mask id="mask12_2101_493" style="mask-type:luminance" maskUnits="userSpaceOnUse" x="13" y="67" width="10" height="15">
<path d="M21.5529 70.4822L16.5971 67.6128C17.453 68.1079 17.9797 69.1579 17.9857 70.6492C17.9917 73.6797 15.843 77.3902 13.1736 78.9293L18.1294 81.7987C20.7928 80.2596 22.9475 76.5491 22.9415 73.5186C22.9415 72.0273 22.4088 70.9773 21.5529 70.4822Z" fill="white"/>
</mask>
<g mask="url(#mask12_2101_493)">
<path d="M21.5529 70.4822L16.5971 67.6128C17.453 68.1079 17.9797 69.1579 17.9857 70.6492C17.9917 73.6797 15.843 77.3902 13.1736 78.9293L18.1294 81.7987C20.7928 80.2596 22.9475 76.5491 22.9415 73.5186C22.9415 72.0273 22.4088 70.9773 21.5529 70.4822Z" fill="#CFD2FA"/>
</g>
<mask id="mask13_2101_493" style="mask-type:luminance" maskUnits="userSpaceOnUse" x="9" y="78" width="10" height="5">
<path d="M9.72008 79.2813L14.6759 82.1507C15.5557 82.6578 16.7767 82.5862 18.1354 81.8047L13.1796 78.9353C11.8209 79.7168 10.5999 79.7884 9.72008 79.2813Z" fill="white"/>
</mask>
<g mask="url(#mask13_2101_493)">
<path d="M18.1293 81.8047L13.1735 78.9353C11.8148 79.7168 10.5938 79.7884 9.714 79.2813L14.6698 82.1507C15.5496 82.6578 16.7706 82.5862 18.1293 81.8047Z" fill="#CFD2FA"/>
</g>
<path d="M8.88812 87.8835L3.93232 85.0141L1.95119 88.4443L6.907 91.3137L8.88812 87.8835Z" fill="#CFD2FA"/>
<path d="M25.2937 58.8734L20.3379 56.004L18.1952 59.7503L23.145 62.6197L25.2937 58.8734Z" fill="#DCDDF8"/>
<path d="M29.5912 61.1701L24.6354 58.3007L20.3379 56.004L25.2937 58.8734L29.5912 61.1701Z" fill="#DCDDF8"/>
<mask id="mask14_2101_493" style="mask-type:luminance" maskUnits="userSpaceOnUse" x="2" y="83" width="7" height="5">
<path d="M7.87661 85.9089L2.92081 83.0396C3.17219 83.7972 3.51335 84.4593 3.93232 85.0141L8.88812 87.8835C8.46915 87.3287 8.12799 86.6666 7.87661 85.9089Z" fill="white"/>
</mask>
<g mask="url(#mask14_2101_493)">
<path d="M7.87661 85.9089L2.92081 83.0396C3.17219 83.7972 3.51335 84.4593 3.93232 85.0141L8.88812 87.8835C8.46915 87.3287 8.12799 86.6666 7.87661 85.9089Z" fill="#B5B8FD"/>
</g>
<mask id="mask15_2101_493" style="mask-type:luminance" maskUnits="userSpaceOnUse" x="16" y="59" width="8" height="4">
<path d="M23.145 62.6197L18.1892 59.7503C17.5368 59.7264 16.8425 59.81 16.1243 59.9889L21.0801 62.8583C21.7983 62.6794 22.4926 62.5958 23.145 62.6197Z" fill="white"/>
</mask>
<g mask="url(#mask15_2101_493)">
<path d="M23.145 62.6197L18.1892 59.7503C17.5368 59.7264 16.8425 59.81 16.1243 59.9889L21.0801 62.8583C21.7983 62.6794 22.4926 62.5958 23.145 62.6197Z" fill="#CFD2FA"/>
</g>
<mask id="mask16_2101_493" style="mask-type:luminance" maskUnits="userSpaceOnUse" x="2" y="73" width="7" height="7">
<path d="M8.64272 76.0003L3.68692 73.1309C3.29788 74.1808 2.98664 75.2367 2.77716 76.2866L7.73296 79.156C7.94843 78.112 8.25368 77.0502 8.64272 76.0003Z" fill="white"/>
</mask>
<g mask="url(#mask16_2101_493)">
<path d="M8.64272 76.0003L3.68692 73.1309C3.29788 74.1808 2.98664 75.2367 2.77716 76.2866L7.73296 79.156C7.94843 78.112 8.25368 77.0502 8.64272 76.0003Z" fill="#B5B8FD"/>
</g>
<mask id="mask17_2101_493" style="mask-type:luminance" maskUnits="userSpaceOnUse" x="7" y="63" width="9" height="6">
<path d="M15.0769 66.3302L10.1211 63.4608C9.33103 64.1826 8.58288 64.9761 7.8826 65.8351L12.8384 68.7045C13.5447 67.8454 14.2928 67.052 15.0769 66.3302Z" fill="white"/>
</mask>
<g mask="url(#mask17_2101_493)">
<path d="M15.0769 66.3302L10.1211 63.4608C9.33103 64.1826 8.58288 64.9761 7.8826 65.8351L12.8384 68.7045C13.5447 67.8454 14.2928 67.052 15.0769 66.3302Z" fill="#CFD2FA"/>
</g>
<path d="M4.9558 80.7786L0 77.9092L0.0359116 84.7158L4.99171 87.5853L4.9558 80.7786Z" fill="#B5B8FD"/>
<path d="M7.73296 79.156L2.77716 76.2866L0 77.9092L4.9558 80.7786L7.73296 79.156Z" fill="#CFD2FA"/>
<path d="M21.0741 59.4997L16.1183 56.6303L10.1151 60.1082L15.0709 62.9776L21.0741 59.4997Z" fill="#DCDDF8"/>
<path d="M15.0709 62.9776L10.1151 60.1082L10.1271 63.4608L15.0769 66.3302L15.0709 62.9776Z" fill="#B5B8FD"/>
<path d="M12.8384 68.7045L7.88259 65.8351L5.87154 64.7195L10.8273 67.5889L12.8384 68.7045Z" fill="#DCDDF8"/>
<path d="M4.9558 80.7786L7.73296 79.162C7.94843 78.118 8.25368 77.0561 8.64272 76.0062L6.60175 74.8787L10.8273 67.5949L12.8384 68.7104C13.5447 67.8514 14.2928 67.058 15.0769 66.3362L15.0649 62.9836L21.0681 59.5057L21.0801 62.8643C21.7983 62.6853 22.4926 62.6018 23.145 62.6256L25.2937 58.8853L29.5912 61.182L27.4484 64.9104C27.8195 65.4354 28.1248 66.0498 28.3522 66.7418L31.5244 64.8746L31.5902 71.6693L28.4839 73.4948C28.2864 74.4433 28.017 75.3918 27.6878 76.3343L29.9682 77.5692L25.7666 84.865L23.5879 83.6838C22.9355 84.5011 22.2413 85.2706 21.5051 85.9626L21.529 89.4942L15.5318 93.0079L15.5078 89.6791C14.7297 89.9058 13.9756 90.0191 13.2753 90.0191L11.1745 93.6462L6.90101 91.3077L8.88213 87.8775C8.46317 87.3227 8.122 86.6606 7.87062 85.903L4.98573 87.5852L4.94981 80.7726L4.9558 80.7786ZM18.1294 81.8047C20.7928 80.2656 22.9475 76.555 22.9415 73.5246C22.9355 70.5001 20.7749 69.2951 18.0994 70.8341C15.436 72.3732 13.2753 76.0897 13.2873 79.1202C13.2933 82.1447 15.454 83.3497 18.1294 81.8106V81.8047Z" fill="#F2F2FC"/>
<path d="M10.8274 67.5889L5.87155 64.7195L1.64595 72.0034L6.60175 74.8728L10.8274 67.5889Z" fill="#DCDDF8"/>
<path d="M127.007 140.529C127.007 139.02 125.852 137.51 123.536 136.353L73.4991 111.411C68.8725 109.109 61.3729 109.109 56.7523 111.411L6.71547 136.353C4.40516 137.504 3.24402 139.02 3.24402 140.529V144.955C3.24402 146.465 4.39918 147.98 6.71547 149.131L56.7523 174.073C61.3789 176.375 68.8785 176.375 73.4991 174.073L123.536 149.131C125.846 147.98 127.007 146.465 127.007 144.955V140.529Z" fill="url(#paint0_linear_2101_493)"/>
<path d="M123.542 144.699L73.5051 169.64C68.8785 171.943 61.3789 171.943 56.7583 169.64L6.71547 144.699C2.08886 142.396 2.08886 138.656 6.71547 136.353L56.7523 111.411C61.3789 109.109 68.8785 109.109 73.4991 111.411L123.536 136.353C128.163 138.656 128.163 142.396 123.536 144.699H123.542Z" fill="url(#paint1_linear_2101_493)"/>
<path d="M123.542 135.84L73.5051 160.782C68.8785 163.084 61.3789 163.084 56.7583 160.782L6.71547 135.84C4.40516 134.689 3.24402 133.179 3.24402 131.664V136.091C3.24402 137.6 4.39918 139.115 6.71547 140.266L56.7523 165.208C61.3789 167.511 68.8785 167.511 73.4991 165.208L123.536 140.266C125.846 139.115 127.007 137.6 127.007 136.091V131.664C127.007 133.173 125.852 134.689 123.536 135.84H123.542Z" fill="url(#paint2_linear_2101_493)"/>
<path opacity="0.5" d="M123.542 135.84L73.5052 160.782C68.8786 163.084 61.3791 163.084 56.7584 160.782L6.71563 135.84C2.08901 133.537 2.08901 129.797 6.71563 127.494L56.7525 102.553C61.3791 100.25 68.8786 100.25 73.4992 102.553L123.536 127.494C128.163 129.797 128.163 133.537 123.536 135.84H123.542Z" fill="url(#paint3_linear_2101_493)"/>
<path d="M41.5078 110.779L10.8034 125.311C10.6837 126.862 10.8154 128.395 11.4618 129.535C12.8264 131.927 13.4848 132.941 13.4848 132.941L34.924 142.849L56.9438 120.586L59.4696 125.15V123.098L44.3329 114.388C42.3877 113.267 41.2983 113.595 41.5078 110.779Z" fill="url(#paint4_linear_2101_493)"/>
<path d="M100.564 98.0487C101.815 97.1479 101.869 97.9354 102.049 97.8638C104.042 97.0465 108.848 94.0995 109.722 92.1846C110.919 89.5598 110.799 87.2154 110.404 84.6979C109.225 81.5303 107.172 79.2097 104.976 78.4521C105.616 76.215 106.64 70.9177 100.517 68.2392C101.714 64.815 99.3195 58.1158 94.3937 56.8928C94.0166 52.538 91.4788 50.116 86.9959 50.0683C85.1344 47.2466 82.1418 46.501 79.221 48.1832C78.012 46.847 74.6004 44.8545 71.087 45.457C66.4544 43.8165 62.6478 44.7173 58.913 47.539C54.9029 50.5694 55.7408 55.4671 56.1418 60.144C56.6027 65.507 58.5359 70.6552 61.3071 75.2009C67.1966 84.853 76.6473 91.3137 86.1699 96.7542C89.9885 98.9376 93.4779 101.395 97.3863 103.346C97.7095 101.348 98.9305 99.2179 100.558 98.0427L100.564 98.0487Z" fill="#5CA2F5"/>
<path d="M109.327 100.471C112.164 99.3551 112.343 94.7677 111.302 92.7394C111.661 89.7805 111.26 87.0126 110.398 84.692C110.793 87.2154 110.907 89.5598 109.716 92.1787C108.842 94.0936 104.036 97.0405 102.043 97.8578C101.863 97.9294 101.809 97.136 100.558 98.0427C98.9365 99.2179 97.7095 101.348 97.3863 103.346C98.302 103.805 99.2357 104.241 100.211 104.635C103.743 106.048 108.579 104.635 109.321 100.465L109.327 100.471Z" fill="#1F93FB"/>
<path d="M60.2776 49.2988C60.2776 49.2988 63.6593 46.1848 66.9692 46.0058C70.279 45.8269 70.8416 46.0953 70.7878 47.6523C70.7339 49.2093 71.919 49.8357 72.3978 48.6784C72.8766 47.5211 72.6193 46.0058 74.5764 46.5427C76.5336 47.0796 79.4844 48.3264 79.0355 49.3047C78.5866 50.2831 77.4853 49.5076 76.2822 50.128C75.1929 50.6887 74.0737 51.9057 76.5336 54.1666C77.4972 55.0495 79.8255 55.5625 80.7772 56.171C82.2555 57.1255 83.273 58.0024 84.6796 58.5512C86.9899 59.452 88.4623 59.2731 88.1271 58.2947C87.7919 57.3164 86.0681 56.3559 85.5893 55.3239C85.1105 54.2859 86.1998 52.8482 86.8103 52.2755C87.768 51.3807 88.4682 50.814 89.9167 51.8818C91.3651 52.9496 93.2684 54.8765 92.7058 56.2664C91.7242 58.6944 93.4659 58.4081 95.0281 58.7123C96.9972 59.0941 97.907 59.7205 98.3439 62.5242C98.7809 65.328 98.8168 67.6188 97.3923 68.4838C95.9678 69.3488 93.8669 67.583 93.3283 66.9447C92.7896 66.3064 93.5378 69.3189 92.9871 70.0408C92.4365 70.7626 91.808 72.3255 92.8854 72.0332C93.9567 71.7409 95.2017 71.3889 95.9199 72.0332C97.0391 73.0354 96.7219 74.5328 97.8831 75.362C99.0442 76.1912 100.654 75.362 100.654 72.9877C100.654 71.9676 99.924 70.3808 101.63 70.7089C103.336 71.031 105.053 73.459 104.64 74.8251C104.227 76.1971 103.24 76.9846 102.528 77.8794C101.815 78.7742 102.175 80.5997 102.977 81.2499C103.779 81.8942 104.317 83.4392 104.227 85.8731C104.138 88.3071 105.837 87.2571 106.191 86.1774C106.55 85.1036 106.681 83.2066 107.573 83.2125C108.465 83.2125 110.111 84 110.111 84C110.111 84 109.548 82.1984 108.052 80.6593C106.274 78.8339 104.97 78.458 104.97 78.458C104.97 78.458 105.981 75.2486 104.97 72.5164C103.958 69.7842 100.511 68.2451 100.511 68.2451C100.511 68.2451 102.294 65.5368 99.8163 61.0746C97.3444 56.6065 94.3877 56.9048 94.3877 56.9048C94.3877 56.9048 95.0221 53.4567 92.0714 51.0228C89.1206 48.5948 87.0437 49.8536 87.0437 49.8536C87.0437 49.8536 86.3554 48.3383 83.68 47.4972C80.9986 46.6501 79.221 48.1952 79.221 48.1952C79.221 48.1952 78.4549 46.7276 75.3725 45.6121C73.2238 44.8366 71.087 45.4689 71.087 45.4689C71.087 45.4689 66.0355 43.0768 60.6966 46.0595C57.0396 48.1057 56.3573 50.7722 56.3573 50.7722L60.2716 49.3107L60.2776 49.2988Z" fill="#1F93FB"/>
<path d="M40.2449 64.9999C40.4305 65.155 40.4424 65.5308 40.2449 65.6859C38.4972 67.0759 37.2044 68.8954 37.0129 71.1742C36.8992 72.5701 37.2284 73.6499 37.8089 74.6401C37.791 74.67 37.767 74.6938 37.7491 74.7237C37.3062 75.4872 37.3959 76.4298 37.6354 77.2471C37.8867 78.1061 38.4134 79.0427 39.1077 79.7943C39.012 80.0986 38.9282 80.4088 38.8923 80.7428C38.7307 82.2044 38.9761 83.6898 39.7302 84.9783C40.6878 86.6188 42.0525 87.4003 43.6206 87.8835C43.3094 89.0766 43.6146 90.5083 44.3568 91.3912C45.0032 92.1548 46.1763 92.7633 47.2477 92.7394C47.6607 93.5209 48.1874 94.2546 48.7799 94.9347C50.1446 96.4977 51.5691 97.2493 53.4724 97.4283C53.9692 98.6035 55.0585 99.6773 56.0101 100.125C57.2431 100.703 58.5898 100.697 59.7988 100.268C60.9181 102.141 62.7316 103.406 64.6888 104.378C67.3103 105.685 69.3274 105.732 71.6496 104.336C72.3439 105.064 73.4273 105.35 74.4029 105.428C75.9291 105.541 77.7307 105.183 79.0355 104.259C80.0889 105.619 82.058 106.317 83.8356 106.12C84.7274 106.019 85.5773 105.72 86.3435 105.261C86.7744 106.317 88.3605 107.23 89.3421 107.45C90.9581 107.82 92.8973 107.331 94.1602 106.192C95.3034 107.295 97.4461 107.247 98.8766 106.848C99.6547 106.633 100.451 106.293 101.205 105.863C101.384 104.897 101.402 103.901 101.193 103.006C103.455 101.348 104.287 97.8936 103.419 95.1554C102.941 93.6462 101.965 92.3397 100.726 91.3793C100.409 84.2983 96.8835 76.3582 89.8748 75.4693C89.4558 71.8006 88.564 67.8812 86.2597 65.3399C84.512 63.4131 80.2804 61.1104 77.4613 61.1283C77.0783 58.8614 75.2827 56.5588 71.925 55.5864C71.3264 52.5321 65.7242 48.5173 60.0741 50.9572C57.8895 49.8357 54.825 49.8357 53.1073 50.9691C51.0184 50.3606 48.2532 50.5992 46.8347 52.0131C44.8536 53.9876 43.9797 56.1531 43.5787 59.0702C42.0226 59.4759 40.4185 60.6869 39.4549 61.6414C39.2035 61.8919 38.9342 62.1961 38.6648 62.5242C38.8803 63.4191 39.401 64.2721 40.2629 64.9999H40.2449Z" fill="#1F93FB"/>
<path d="M36.5999 67.4935C33.0207 69.3547 31.279 74.2882 32.9968 78.4402C30.9079 82.0075 31.9793 86.5174 34.553 89.5837C33.4397 92.3576 35.4627 97.3507 37.779 97.9473C37.3301 101.151 41.2864 103.233 43.7523 102.928C44.279 105.315 47.0442 107.104 50.6234 106.955C53.0893 111.274 59.4217 110.451 61.1934 110.147C62.8513 112.056 65.7063 113.094 67.9448 113.529C74.4268 114.788 79.1671 110.35 79.1791 110.32C81.651 113.368 87.1455 113.505 88.8214 110.481C91.802 113.123 97.1409 112.044 99.6487 109.216C100.415 108.351 100.954 107.134 101.193 105.858C100.439 106.293 99.6427 106.627 98.8646 106.842C97.4282 107.242 95.2914 107.289 94.1483 106.186C92.8854 107.325 90.9461 107.814 89.3301 107.444C88.3485 107.218 86.7624 106.311 86.3315 105.255C85.5714 105.708 84.7155 106.013 83.8237 106.114C82.046 106.311 80.0829 105.613 79.0235 104.253C77.7187 105.183 75.9171 105.541 74.3909 105.422C73.4153 105.35 72.3379 105.058 71.6377 104.33C69.3094 105.726 67.2983 105.679 64.6768 104.372C62.7196 103.4 60.9121 102.129 59.7868 100.262C58.5778 100.691 57.2311 100.697 55.9982 100.119C55.0465 99.6713 53.9572 98.5916 53.4604 97.4223C51.5571 97.2434 50.1326 96.4917 48.768 94.9288C48.1754 94.2487 47.6487 93.5149 47.2357 92.7334C46.1644 92.7513 44.9913 92.1429 44.3448 91.3853C43.5967 90.5083 43.2914 89.0706 43.6087 87.8775C42.0465 87.4003 40.6819 86.6129 39.7182 84.9724C38.9701 83.6898 38.7247 82.2044 38.8803 80.7369C38.9162 80.4028 39 80.0926 39.0958 79.7884C38.4015 79.0367 37.8748 78.1001 37.6234 77.2411C37.384 76.4298 37.2942 75.4872 37.7371 74.7177C37.7551 74.6879 37.779 74.664 37.797 74.6342C37.2224 73.6439 36.8872 72.5642 37.0009 71.1682C37.1925 68.8894 38.4853 67.0699 40.233 65.68C40.4305 65.5249 40.4185 65.1491 40.233 64.994C39.3711 64.2662 38.8504 63.4131 38.6349 62.5183C37.5037 63.8903 36.3785 65.8232 36.5879 67.4875L36.5999 67.4935Z" fill="#1F93FB"/>
<path d="M36.5999 67.4935C33.0207 69.3547 31.279 74.2882 32.9968 78.4402C30.9079 82.0075 31.9793 86.5174 34.553 89.5837C33.4397 92.3576 35.4627 97.3507 37.779 97.9473C37.3301 101.151 41.2864 103.233 43.7523 102.928C44.279 105.315 47.0442 107.104 50.6234 106.955C53.0893 111.274 59.4217 110.451 61.1934 110.147C62.8513 112.056 65.7063 113.094 67.9448 113.529C74.4268 114.788 79.1671 110.35 79.1791 110.32C81.651 113.368 87.1455 113.505 88.8214 110.481C91.802 113.123 97.1409 112.044 99.6487 109.216C100.415 108.351 100.954 107.134 101.193 105.858C100.439 106.293 99.6427 106.627 98.8646 106.842C97.4282 107.242 95.2914 107.289 94.1483 106.186C92.8854 107.325 90.9461 107.814 89.3301 107.444C88.3485 107.218 86.7624 106.311 86.3315 105.255C85.5714 105.708 84.7155 106.013 83.8237 106.114C82.046 106.311 80.0829 105.613 79.0235 104.253C77.7187 105.183 75.9171 105.541 74.3909 105.422C73.4153 105.35 72.3379 105.058 71.6377 104.33C69.3094 105.726 67.2983 105.679 64.6768 104.372C62.7196 103.4 60.9121 102.129 59.7868 100.262C58.5778 100.691 57.2311 100.697 55.9982 100.119C55.0465 99.6713 53.9572 98.5916 53.4604 97.4223C51.5571 97.2434 50.1326 96.4917 48.768 94.9288C48.1754 94.2487 47.6487 93.5149 47.2357 92.7334C46.1644 92.7513 44.9913 92.1429 44.3448 91.3853C43.5967 90.5083 43.2914 89.0706 43.6087 87.8775C42.0465 87.4003 40.6819 86.6129 39.7182 84.9724C38.9701 83.6898 38.7247 82.2044 38.8803 80.7369C38.9162 80.4028 39 80.0926 39.0958 79.7884C38.4015 79.0367 37.8748 78.1001 37.6234 77.2411C37.384 76.4298 37.2942 75.4872 37.7371 74.7177C37.7551 74.6879 37.779 74.664 37.797 74.6342C37.2224 73.6439 36.8872 72.5642 37.0009 71.1682C37.1925 68.8894 38.4853 67.0699 40.233 65.68C40.4305 65.5249 40.4185 65.1491 40.233 64.994C39.3711 64.2662 38.8504 63.4131 38.6349 62.5183C37.5037 63.8903 36.3785 65.8232 36.5879 67.4875L36.5999 67.4935Z" fill="#447BE9"/>
<path d="M64.0663 58.6109C63.4259 58.414 62.8812 58.7004 62.4144 59.0881C62.1809 59.279 61.0617 61.1701 59.9604 61.5698C58.6855 62.0291 56.884 61.707 56.2136 62.1544C55.7827 62.4407 54.861 63.5145 54.5677 63.7531C53.3467 64.7613 52.7063 64.7673 51.2339 65.0297C50.6593 65.1311 50.0787 65.2326 49.5281 65.507C47.128 66.6941 45.6018 68.9312 46.332 69.993C47.6487 71.9139 48.8697 70.7148 49.3425 69.2056C50.1326 66.6941 51.8923 67.75 52.419 67.8216C54.0589 68.0542 55.1183 70.0407 58.0631 68.5255C60.3794 67.3324 59.0267 65.0655 61.0018 63.8008C62.552 62.8046 61.8817 61.9038 63.6593 60.7942C64.9461 59.9949 65.2693 58.9807 64.0663 58.6049V58.6109Z" fill="#5CA2F5"/>
<path d="M72.2302 62.5243C71.2546 61.528 64.9641 65.7337 64.2638 66.6404C63.6892 67.3861 63.4079 68.2452 63.372 69.128C63.0368 70.0288 61.8158 69.5993 60.7026 70.0467C59.9365 70.3569 58.111 71.5321 57.1892 73.28C56.6925 74.2166 56.6446 75.5111 59.1823 75.5946C60.0741 75.6245 62.3545 75.4693 61.9475 77.3425C61.9176 77.4916 59.9424 78.8935 59.8287 79.854C59.6192 81.6675 61.9296 84.6323 62.546 84.9008C64.1621 85.6107 65.2095 86.3743 66.5442 85.7598C70.3688 84 66.8016 81.3394 66.5442 78.8458C66.2928 76.4 67.843 74.664 67.2325 73.4709C66.1671 71.377 66.9632 70.0766 67.424 69.1579C67.9567 68.096 73.4093 63.7412 72.2242 62.5243H72.2302Z" fill="#5CA2F5"/>
<path d="M66.8315 81.8345C66.203 81.1306 65.4429 80.5161 64.7486 79.8719C64.0663 79.2395 62.8692 77.8138 61.8817 78.81C61.0797 79.6213 61.8039 81.2141 62.3425 81.9717C62.582 82.3058 64.2818 83.8389 64.9042 84.0477C65.7482 84.3281 67.1188 84.2982 67.3462 83.2066C67.4599 82.6697 67.1727 82.2103 66.8315 81.8226V81.8345Z" fill="#66C0FB"/>
<path d="M45.3204 74.0018C44.8416 72.8863 43.9857 72.588 43.1837 71.6634C42.2141 70.5478 42.1243 69.999 41.1607 70.5478C40.5861 70.8759 40.0833 71.3054 39.3771 73.5186C38.8504 75.1711 38.9342 76.2568 39.6823 78.47C40.2988 80.3014 41.2325 80.1821 42.0465 79.848C43.1179 79.4125 41.7532 78.47 43.4231 76.567C43.9797 75.9347 45.7155 74.9146 45.3204 74.0018Z" fill="#5CA2F5"/>
<path d="M66.1911 92.0057C65.6344 91.248 65.1197 90.4964 64.6469 89.6851C64.0424 88.6471 63.1146 87.3943 61.7201 87.6926C60.7445 87.9014 60.2297 88.5517 60.0622 89.3451C59.9604 89.8223 59.8527 91.4568 61.4208 93.5269C62.4383 94.8691 66.3227 96.5394 66.8435 93.843C66.9811 93.1331 66.6041 92.5485 66.1971 91.9997L66.1911 92.0057Z" fill="#5CA2F5"/>
<path d="M82.489 80.4147C81.5074 78.7862 80.3582 77.0621 78.4489 76.4358C77.9641 76.2807 76.2344 75.0756 74.5525 74.3657C72.3918 73.453 72.0327 73.8646 71.0152 75.4276C70.2611 76.5849 70.9793 77.5692 72.6851 78.1538C73.7804 78.5296 76.9885 77.8317 78.6345 78.6311C81.0645 79.8063 79.3168 82.6816 79.5263 83.8389C79.64 84.4593 80.035 84.9545 80.5258 85.3303C81.6031 86.1535 83.4287 86.4995 84.2845 85.1931C85.2901 83.66 83.2192 81.6436 82.483 80.4147H82.489Z" fill="#5CA2F5"/>
<path d="M93.0769 97.482C92.5023 97.8638 91.9217 98.2336 91.3531 98.6214C90.0843 99.4923 88.9052 101.079 90.4613 102.362C91.826 103.483 93.9807 102.976 95.1478 101.831C96.1473 100.852 96.4705 99.4744 96.0815 98.2396C95.9498 97.828 94.9323 96.2531 93.0769 97.482Z" fill="#5CA2F5"/>
<path d="M94.5852 79.7884C94.3458 79.0904 93.8969 78.6251 93.3343 78.3328C92.8734 78.1001 90.5212 76.7042 89.4319 77.3664C87.355 78.637 88.145 79.2873 88.4802 79.4424C89.0249 79.6929 90.2279 79.7943 90.6828 80.1821C91.6165 80.9755 91.82 82.0851 91.2454 83.0395C90.4194 84.4056 88.4144 87.4421 89.2463 89.1064C89.7371 90.0848 91.6404 90.8603 93.6874 89.1064C94.8306 88.1281 96.1294 87.9491 96.5902 89.0707C97.3983 91.0333 95.9618 91.5821 96.5902 93.0675C97.1349 94.3561 100.044 94.7319 99.8283 96.4499C99.4991 99.0628 100.445 100.912 102.001 99.5102C102.163 99.3611 103.09 96.8914 102.037 95.1912C101.564 94.4336 101.169 93.5925 100.576 93.0198C99.6487 92.125 99.6487 91.4151 99.6487 90.6336C99.6487 88.2713 99.6487 87.0305 98.7868 86.2907C97.9848 85.5987 96.4885 85.8254 95.3633 85.5987C93.6994 85.2587 93.7772 84.2684 94.1004 83.3736C94.2979 82.8188 94.5134 82.27 94.6271 81.6794C94.7468 81.053 94.8066 80.3968 94.5912 79.7764L94.5852 79.7884Z" fill="#5CA2F5"/>
<path d="M85.6073 67.2429C85.0147 67.0342 84.5658 67.2012 83.9972 67.41C83.1832 67.7023 81.3039 67.8514 80.9268 67.7202C80.4121 67.5412 78.796 66.7239 77.1262 66.9387C74.4388 67.2907 72.5055 69.2473 72.2482 70.2078C72.0387 70.9773 73.4572 71.4307 75.7256 70.0587C76.779 69.4263 78.6823 69.8021 79.7956 71.3711C80.436 72.2718 79.4484 72.7371 82.1837 74.324C83.8955 75.3202 85.2123 76.3045 86.2178 75.9764C88.0074 75.3858 87.1994 74.7058 86.3435 73.6797C84.9309 71.9974 86.7265 70.2853 86.8163 69.6172C86.948 68.6508 86.6008 67.5889 85.6073 67.237V67.2429Z" fill="#5CA2F5"/>
<path d="M68.6151 53.0689C68.3637 52.7468 66.8195 51.9355 66.3048 51.7386C65.2933 51.3509 64.0783 51.2614 63.2942 51.5299C62.7855 51.7029 62.4443 52.0906 62.57 52.6394C62.6598 53.0212 63.0249 53.3613 63.2583 53.6655C63.5755 54.0831 63.8927 54.6021 64.3117 54.9242C64.8623 55.3478 65.5566 55.3716 66.221 55.2702C66.9213 55.1628 67.9088 55.0435 68.4475 54.5305C68.8545 54.1368 68.9742 53.5343 68.6091 53.0689H68.6151Z" fill="#5CA2F5"/>
<path d="M83.8596 98.3887C82.5309 96.6945 84.081 95.5253 84.5599 94.2666C85.1644 92.6917 85.5474 90.6933 83.9254 89.0766C82.8421 87.9969 79.3407 88.5994 76.9586 91.5046C76.0548 92.6082 74.9236 94.0995 73.5829 93.4254C72.2422 92.7513 71.7574 90.9557 72.2242 89.6314C72.6911 88.3011 72.3739 86.8694 71.4461 86.7859C69.7822 86.6367 68.3697 87.973 68.4056 89.6314C68.4236 90.4308 70.7518 91.5105 70.698 92.6678C70.6381 93.8251 69.7463 95.4835 70.3688 97.2374C70.9972 98.9912 72.4217 99.5759 73.4991 98.3947C74.5704 97.2135 74.5704 94.9765 75.4623 94.1353C76.3541 93.2942 79.1312 92.3218 79.4484 93.6402C79.9033 95.5372 78.3053 99.1881 79.9153 100.626C80.8729 101.479 82.064 103 83.674 101.879C84.9728 100.972 85.0028 99.8443 83.8596 98.3947V98.3887Z" fill="#5CA2F5"/>
<path d="M63.3421 70.7029C61.3909 71.4665 61.349 70.4762 60.0083 71.6455C58.6676 72.8087 58.518 73.9541 60.7983 74.3299C62.3485 74.5864 62.546 76.3343 64.0304 76.561C64.8324 76.6863 65.8619 74.9503 65.6883 73.632C65.3771 71.2279 66.3168 68.8178 67.3702 67.5114C68.4236 66.2049 69.3812 64.6778 67.9567 64.8627C67.4001 64.9343 64.8444 67.1177 64.6289 67.8395C64.2937 68.961 64.1202 70.3987 63.3421 70.7029Z" fill="#66C0FB"/>
<path d="M58.518 62.8404C56.9857 63.0552 56.5668 63.3833 55.1183 64.4451C53.6699 65.507 52.1018 65.5309 51.4972 65.6084C50.8927 65.686 49.6358 65.7277 48.2173 66.9447C46.7988 68.1616 47.4153 68.5196 48.2173 68.5255C49.0193 68.5315 49.959 66.366 51.4972 66.6941C53.0414 67.0222 56.0042 68.0722 57.7159 67.5412C59.4277 67.0103 58.4402 65.1013 59.2721 64.1469C60.0981 63.1924 59.9185 62.6436 58.5239 62.8404H58.518Z" fill="#66C0FB"/>
<path d="M84.0391 68.4838C82.1837 68.9789 81.669 68.794 80.8011 68.4838C79.9332 68.1736 78.0539 67.0222 76.8927 67.5114C75.7316 68.0005 76.2583 68.7104 78.0479 69.0684C79.8375 69.4263 81.4834 71.2577 82.1837 72.3911C82.878 73.5246 85.8886 75.7259 85.5893 73.9541C85.2901 72.1883 84.3983 71.2577 85.1105 70.2078C85.8227 69.1579 85.3679 68.1318 84.0391 68.4838Z" fill="#66C0FB"/>
<path d="M81.3577 89.3928C79.8794 89.7507 78.7601 90.0967 78.6763 91.0512C78.5806 92.1369 80.3343 91.0512 80.9328 92.6678C81.1662 93.2942 80.4719 94.9467 80.3343 97.2374C80.1966 99.5281 81.9982 100.077 82.7044 99.7548C83.4107 99.4327 81.8186 97.8339 82.7044 95.6088C83.5902 93.3837 84.4042 91.6 83.7698 90.3413C83.1354 89.0826 82.5787 89.1005 81.3577 89.3988V89.3928Z" fill="#66C0FB"/>
<path d="M91.814 78.8458C91.012 78.9353 92.3347 80.5997 92.4305 81.8226C92.5262 83.0455 90.7905 85.8672 90.7187 87.2213C90.6469 88.5695 92.3467 88.7187 93.418 87.9789C94.4894 87.2392 95.5548 86.8515 96.5843 87.9789C97.6137 89.1064 98.6731 89.6672 98.9544 88.2832C99.2357 86.8992 97.6077 86.3563 96.5843 86.3086C95.5608 86.2609 93.7413 86.6009 93.2385 86.1774C92.1671 85.2766 93.5078 83.4273 93.7772 81.6376C94.0465 79.848 93.1487 78.7026 91.814 78.8518V78.8458Z" fill="#66C0FB"/>
<path d="M71.5299 93.6283C70.6022 94.4396 70.4346 95.567 71.6197 97.2314C72.8048 98.8958 73.5829 96.1696 73.6727 95.3046C73.7624 94.4396 72.2901 92.9661 71.5299 93.6283Z" fill="#66C0FB"/>
<path d="M62.1929 88.8798C60.9659 89.7805 60.4931 91.2182 62.1929 92.7096C63.8927 94.2069 65.3472 94.6066 65.3472 93.5328C65.3472 92.6977 63.0069 88.2832 62.1929 88.8798Z" fill="#66C0FB"/>
<path d="M73.6786 74.6342C72.2003 74.5149 71.6197 75.1651 71.2606 75.9764C70.9015 76.7877 72.8706 76.6923 74.1215 76.2985C75.3725 75.8988 75.6478 74.7952 73.6786 74.6342Z" fill="#66C0FB"/>
<path d="M81.3338 80.7428C80.1667 81.6734 80.3343 84.3758 80.9328 84.5667C81.9383 84.8888 83.1473 85.557 83.2311 84.1491C83.3149 82.7413 82.076 80.1522 81.3338 80.7428Z" fill="#66C0FB"/>
<path d="M54.7353 81.3334C53.622 81.3513 52.2873 81.4646 51.8743 80.7428C51.3775 79.8659 52.1496 78.9233 52.413 77.9569C52.6763 76.9905 52.5626 73.447 50.9825 72.6119C49.9231 72.0511 47.96 74.0257 47.4572 74.9802C46.8706 76.1076 46.1644 77.6348 48.5884 79.1381C49.3126 79.5855 50.9765 81.3036 48.2113 82.2103C46.9305 82.6279 44.3688 82.4489 43.0281 83.1051C41.6874 83.7613 43.3333 85.5808 44.5484 86.6427C45.5898 87.5494 47.3554 89.524 48.9535 86.4876C49.6777 85.1095 50.773 83.1827 51.8743 83.5645C53.5622 84.1491 51.994 89.3928 52.2933 91.3494C52.3591 91.7909 53.2629 92.3218 53.8375 91.5463C54.2505 90.9915 54.2984 89.345 54.6754 88.4621C54.8909 87.9551 56.0939 85.1632 56.2855 83.2125C56.3932 82.091 56.6446 81.3095 54.7353 81.3394V81.3334Z" fill="#5CA2F5"/>
<path d="M49.5221 73.9541C48.0557 74.4492 47.3674 76.919 48.7201 77.9569C49.8393 78.8219 50.8688 79.0427 51.1681 77.5692C51.4673 76.1017 51.3177 73.3456 49.5221 73.9541Z" fill="#66C0FB"/>
<path d="M47.0562 83.5645C45.5718 83.7375 44.3808 83.5764 44.0216 84.4951C43.7344 85.2229 44.9434 86.1058 45.6018 86.4995C46.1464 86.8216 46.9664 87.4063 47.9959 85.7598C49.0253 84.1193 49.2049 83.3139 47.0562 83.5645Z" fill="#66C0FB"/>
<path d="M53.9632 82.2103C52.7063 82.2163 52.832 82.7771 53.2509 83.7733C53.6699 84.7695 53.3108 85.6166 53.0714 87.6867C52.832 89.7567 53.8135 90.1743 54.047 88.4622C54.3522 86.2549 55.2201 84.7934 55.1124 83.5227C55.0046 82.2521 54.9567 82.2044 53.9572 82.2103H53.9632Z" fill="#66C0FB"/>
<path d="M41.3941 72.0094C40.8794 72.1645 40.1432 73.8945 40.0833 75.177C40.0235 76.4596 40.3647 78.8398 41.454 78.47C42.5433 78.1001 42.3458 76.3821 43.1478 75.4276C44.1952 74.1808 42.9563 73.972 42.5253 73.28C42.1423 72.6656 42.1183 71.7886 41.3941 72.0094Z" fill="#66C0FB"/>
<path d="M55.1243 54.5424C54.0949 53.576 53.61 53.0332 51.2818 52.7826C48.9595 52.538 47.4991 54.274 46.326 55.7176C45.1469 57.1672 45.1948 59.0941 43.9199 59.7921C42.645 60.49 42.0944 61.3133 41.5138 62.3692C40.9392 63.425 42.3218 64.123 43.5548 62.8404C44.7878 61.5578 44.9194 59.0106 46.3439 59.3327C47.7684 59.6549 48.3251 61.2894 50.4259 61.0687C52.5267 60.848 52.7661 59.7324 51.8145 58.3902C50.8628 57.0479 51.2339 55.6043 52.9517 56.2665C54.6694 56.9286 56.5129 55.8548 55.1183 54.5424H55.1243Z" fill="#5CA2F5"/>
<path d="M50.4319 53.9817C48.361 54.0891 47.8103 55.1867 46.8168 56.4574C46.32 57.0957 45.9728 58.3424 46.5774 58.5453C47.1819 58.7541 48.5944 59.7205 49.3306 58.1038C49.8393 56.9763 51.2878 55.4015 51.9402 55.0316C52.5926 54.6617 51.988 53.8982 50.4319 53.9817Z" fill="#66C0FB"/>
<path d="M57.7878 63.9798C57.0875 64.2363 56.2136 65.7098 57.0097 66.2527C57.1054 66.3183 57.273 66.3242 57.3688 66.2527C57.698 66.0081 57.6441 65.7277 57.7279 65.3578C57.8117 64.988 58.0272 64.6897 58.1409 64.3318C58.2067 64.1289 57.9853 63.8963 57.7818 63.9738L57.7878 63.9798Z" fill="#D0F3F8"/>
<path d="M55.2859 65.9425C55.1064 65.9425 54.9747 66.014 54.7951 65.9783C54.5856 65.9365 54.3941 65.8231 54.1786 65.7814C53.8734 65.7217 53.4963 65.7695 53.4245 66.1274C53.4125 66.199 53.4365 66.2706 53.5023 66.3123C53.6998 66.4316 53.9213 66.4973 54.1128 66.6285C54.3103 66.7597 54.4779 66.8671 54.7173 66.9148C55.1363 66.9983 55.6869 66.8134 55.651 66.3064C55.6391 66.1095 55.4894 65.9305 55.2799 65.9365L55.2859 65.9425Z" fill="#D0F3F8"/>
<path d="M61.7979 71.6693C60.9779 71.562 60.2597 72.7312 60.9959 73.28C61.1575 73.3993 61.4268 73.28 61.4687 73.0891C61.5226 72.8386 61.5585 72.6238 61.7201 72.415C61.8458 72.2599 61.9595 72.1645 62.0313 71.9676C62.0912 71.8065 61.9415 71.6872 61.8039 71.6693H61.7979Z" fill="#D0F3F8"/>
<path d="M66.7836 66.4436C65.8978 66.533 65.2873 67.8812 65.6584 68.6389C65.7362 68.794 65.9337 68.7522 66.0175 68.6389C66.2509 68.3287 66.3467 67.9827 66.5083 67.6367C66.6519 67.3205 66.9153 67.0461 66.9811 66.7001C67.0051 66.5808 66.9273 66.4257 66.7836 66.4436Z" fill="#D0F3F8"/>
<path d="M80.0051 69.1161C79.6699 68.5494 78.6704 68.1855 78.0359 68.2809C77.9641 68.2929 77.9222 68.4002 77.9641 68.4599C78.1616 68.7283 78.389 68.8834 78.6644 69.0624C78.9756 69.2593 79.2689 69.5396 79.64 69.5874C79.9033 69.6232 80.1547 69.3786 80.0051 69.1161Z" fill="#D0F3F8"/>
<path d="M84.4461 72.1227C84.3145 71.8602 84.2367 71.6037 84.1828 71.3174C84.1409 71.1205 84.099 70.4404 83.7219 70.5657C83.2611 70.7208 83.3329 71.377 83.4047 71.7588C83.5005 72.2659 83.692 72.8505 84.2127 73.0414C84.4162 73.1189 84.6377 72.9221 84.6377 72.7192C84.6377 72.4866 84.5479 72.3255 84.4461 72.1227Z" fill="#D0F3F8"/>
<path d="M82.3393 82.3118C82.2077 82.091 81.8964 81.751 81.6151 81.9717C81.3458 82.1865 81.6271 82.5981 81.6929 82.8188C81.7887 83.1231 81.7947 83.3736 81.9862 83.6421C82.1119 83.821 82.3812 83.8509 82.5009 83.6421C82.7583 83.2006 82.5907 82.7293 82.3393 82.3118Z" fill="#D0F3F8"/>
<path d="M49.3007 55.0077C48.5824 55.0077 47.5051 55.8846 47.7864 56.6781C47.8642 56.8988 48.1335 56.9883 48.3131 56.8153C48.5405 56.5945 48.5884 56.2724 48.7739 56.0219C48.9595 55.7653 49.2109 55.5685 49.4503 55.3537C49.582 55.2344 49.4742 55.0077 49.3066 55.0077H49.3007Z" fill="#D0F3F8"/>
<path d="M74.2113 75.4574C73.9121 75.1949 73.5649 75.2546 73.1819 75.2725C72.7988 75.2904 72.4157 75.3083 72.0626 75.4753C71.9429 75.5349 71.9429 75.7378 72.0626 75.7974C72.4157 75.9645 72.7928 75.9764 73.1819 76.0003C73.5589 76.0182 73.9121 76.0778 74.2113 75.8153C74.3071 75.7318 74.3071 75.5528 74.2113 75.4634V75.4574Z" fill="#D0F3F8"/>
<path d="M66.9033 82.5325C66.5262 82.449 66.1971 82.6637 65.814 82.6399C65.4549 82.61 65.1377 82.4549 64.7726 82.449C64.6648 82.449 64.5511 82.5504 64.5571 82.6637C64.6469 83.7614 66.8495 84.0597 67.1547 82.9799C67.2086 82.795 67.0889 82.5742 66.8973 82.5325H66.9033Z" fill="#D0F3F8"/>
<path d="M62.8932 79.4603C62.7076 79.3052 62.4144 79.4006 62.4084 79.6631C62.3904 80.1582 62.7076 80.9039 63.0548 81.2559C63.2583 81.4647 63.6832 81.3215 63.6593 81.0053C63.6234 80.5042 63.2882 79.7884 62.8992 79.4603H62.8932Z" fill="#D0F3F8"/>
<path d="M49.9949 76.7698C49.4982 76.6505 49.4742 76.0838 49.2348 75.7139C49.1211 75.5409 48.8817 75.5827 48.8158 75.7676C48.5465 76.5073 48.9655 77.4499 49.7675 77.611C50.3122 77.7243 50.5516 76.907 50.0009 76.7698H49.9949Z" fill="#D0F3F8"/>
<path d="M41.7472 73.5843C41.7832 73.4232 41.6395 73.2263 41.454 73.292C40.9991 73.459 40.7477 73.9422 40.634 74.3896C40.5382 74.7654 40.4664 75.5171 40.8794 75.7557C41.3103 76.0122 41.4061 75.4813 41.4001 75.183C41.4001 74.9146 41.3821 74.658 41.448 74.3956C41.5138 74.1092 41.6874 73.8646 41.7472 73.5783V73.5843Z" fill="#D0F3F8"/>
<path d="M46.3858 85.5331C46.2123 85.2647 45.9369 85.1573 45.7035 84.9604C45.494 84.7755 45.3384 84.513 45.081 84.3997C44.9613 84.346 44.8237 84.3877 44.7878 84.519C44.6022 85.1513 45.4402 86.1058 46.0746 86.0819C46.3379 86.07 46.5414 85.7777 46.3858 85.5391V85.5331Z" fill="#D0F3F8"/>
<path d="M63.8748 91.9758C63.6653 91.6179 63.3421 91.3375 63.1087 90.9975C62.8932 90.6813 62.8094 90.216 62.5161 89.9655C62.3964 89.8581 62.2169 89.87 62.1271 90.0132C61.8577 90.4546 62.145 91.0929 62.3904 91.4926C62.6717 91.952 63.0847 92.3397 63.6413 92.3875C63.8568 92.4054 63.9765 92.1429 63.8748 91.9758Z" fill="#D0F3F8"/>
<path d="M81.9802 90.1981C81.7887 90.2101 81.669 90.401 81.7647 90.574C81.9383 90.9021 82.2136 91.1347 82.3333 91.4986C82.4471 91.8327 82.453 92.2085 82.5428 92.5545C82.5907 92.7513 82.8421 92.7991 82.9797 92.6678C83.7698 91.952 83.0815 90.1385 81.9802 90.1981Z" fill="#D0F3F8"/>
<path d="M81.7947 97.2851C81.7767 96.8974 81.9084 96.4619 81.7887 96.092C81.7468 95.9548 81.5852 95.8773 81.4595 95.9548C80.7532 96.3903 80.6455 98.1799 81.4774 98.514C81.5792 98.5558 81.7109 98.4842 81.7647 98.3947C81.9802 98.0308 81.8186 97.6729 81.7947 97.2792V97.2851Z" fill="#D0F3F8"/>
<path d="M71.913 94.2188C71.7394 94.2069 71.5718 94.4157 71.6377 94.5768C71.7454 94.8452 71.9489 95.054 72.0746 95.3225C72.2003 95.5969 72.2362 95.8892 72.4457 96.1218C72.6013 96.2948 72.9006 96.2411 73.0083 96.0502C73.3973 95.3642 72.6552 94.2845 71.919 94.2188H71.913Z" fill="#D0F3F8"/>
<path d="M92.7118 79.7764C92.5861 79.7406 92.4724 79.8361 92.4664 79.9614C92.4484 80.2716 92.622 80.5639 92.6639 80.8741C92.6998 81.1843 92.646 81.5064 92.7537 81.8047C92.8255 82.0016 93.0769 82.103 93.2385 81.93C93.7472 81.3931 93.4659 79.9852 92.7118 79.7764Z" fill="#D0F3F8"/>
<path d="M92.7058 87.1676C92.6579 87.0961 92.5981 87.0364 92.5442 86.9708C92.4305 86.6785 92.1791 86.4399 92.2749 86.076C92.3287 85.8731 92.0833 85.6345 91.8858 85.7777C91.4669 86.0819 91.3472 86.5532 91.5686 87.0364C91.7781 87.4898 92.2449 87.6747 92.634 87.46C92.7298 87.4063 92.7836 87.2571 92.7118 87.1617L92.7058 87.1676Z" fill="#D0F3F8"/>
<path d="M65.4609 52.2278C65.2454 52.2338 65.1257 52.4545 65.2215 52.6454C65.3831 52.9735 65.6943 53.224 65.8978 53.5283C66.0953 53.8146 66.239 54.1845 66.616 54.262C66.7716 54.2978 66.9213 54.2382 67.0051 54.101C67.4959 53.3255 66.1851 52.198 65.4549 52.2278H65.4609Z" fill="#D0F3F8"/>
<path d="M86.9899 54.9123C87.2293 55.485 88.1271 56.4335 89.2463 57.722C89.8748 58.4439 91.1018 58.3305 91.4549 56.6661C91.808 55.0018 90.9401 53.2956 89.2463 53.1525C87.5465 53.0093 86.3375 53.3553 86.9899 54.9183V54.9123Z" fill="#66C0FB"/>
<path d="M75.1091 47.7C74.0198 47.7358 74.0976 47.7 73.128 49.5672C72.1584 51.4344 72.3439 51.8401 73.6786 51.0168C75.0134 50.1876 75.1091 49.2093 76.8927 49.0303C77.7666 48.9408 75.965 47.6702 75.1091 47.6941V47.7Z" fill="#66C0FB"/>
<path d="M89.2463 59.7921C88.145 59.7384 85.296 59.3983 83.9972 58.8018C82.6984 58.2052 81.0705 56.8749 80.053 57.5371C79.0355 58.1993 80.2445 58.76 81.3817 59.0165C82.5189 59.2731 85.9425 60.3588 86.8103 61.0269C88.1271 62.047 90.2758 62.0112 91.0778 62.0291C91.8798 62.047 93.3941 60.669 92.4724 59.7921C91.5507 58.9151 90.7726 59.8696 89.2523 59.7921H89.2463Z" fill="#66C0FB"/>
<path d="M96.3329 60.15C95.459 59.983 94.7049 63.1089 94.9563 64.9761C95.2076 66.8433 96.9075 67.3861 97.3983 64.9761C97.889 62.566 97.8053 60.4304 96.3329 60.15Z" fill="#66C0FB"/>
<path d="M94.4415 72.5105C93.2804 72.8266 92.634 73.5544 93.5916 74.6163C94.5493 75.6781 95.465 75.3083 95.7703 75.004C96.7339 74.0317 95.1957 72.3076 94.4415 72.5164V72.5105Z" fill="#66C0FB"/>
<path d="M74.2831 52.7826C73.547 51.6313 71.9429 53.582 73.1699 53.9817C74.3969 54.3814 77.204 57.03 77.3416 55.9801C77.4673 55.0077 75.1151 54.0712 74.2831 52.7826Z" fill="#66C0FB"/>
<path d="M102.528 72.0332C101.594 72.075 101.355 72.9758 101.63 74.2285C101.905 75.4813 103.042 75.0398 103.749 74.1629C104.449 73.286 103.042 72.0094 102.528 72.0332Z" fill="#66C0FB"/>
<path d="M108.429 84.698C107.537 84.7934 107.088 87.1796 105.927 88.2295C104.766 89.2794 106.107 91.1705 107.178 91.4688C108.25 91.773 109.141 90.0371 109.321 87.967C109.5 85.897 109.68 84.5607 108.429 84.698Z" fill="#66C0FB"/>
<path d="M94.2201 72.9877C94.1842 72.9996 94.1662 73.0354 94.1722 73.0652C94.2261 73.3039 94.3937 73.4769 94.5134 73.6857C94.657 73.9422 94.681 74.0436 94.9263 74.2047C94.9922 74.2464 95.082 74.2166 95.1239 74.151C95.4291 73.6499 94.8126 72.7968 94.2261 72.9817L94.2201 72.9877Z" fill="#D0F3F8"/>
<path d="M91.7781 60.0963C91.7482 60.0187 91.6584 59.9591 91.5746 60.0128C91.3531 60.1559 91.1915 60.3647 90.9581 60.5079C90.7127 60.657 90.4793 60.7227 90.3057 60.9613C90.1621 61.1581 90.3596 61.4147 90.5691 61.4206C91.1077 61.4445 92.0175 60.6928 91.7781 60.0963Z" fill="#D0F3F8"/>
<path d="M96.6561 60.9136C96.6381 60.8539 96.5903 60.8241 96.5244 60.8122C95.884 60.7406 95.4949 61.9098 95.5787 62.4049C95.6266 62.6555 95.9558 62.6436 96.0755 62.4706C96.267 62.1962 96.3389 61.8561 96.4825 61.5519C96.5902 61.3252 96.7279 61.1582 96.6501 60.9076L96.6561 60.9136Z" fill="#D0F3F8"/>
<path d="M102.581 73.3098C102.581 73.107 102.623 73.0056 102.54 72.8207C102.498 72.7371 102.396 72.7192 102.318 72.7312C101.75 72.8266 101.636 74.0615 102.258 74.1689C102.48 74.2047 102.587 74.0555 102.623 73.8527C102.659 73.6678 102.581 73.4948 102.581 73.3098Z" fill="#D0F3F8"/>
<path d="M108.866 85.8373C108.746 85.6226 108.405 85.6703 108.339 85.903C108.267 86.1655 108.256 86.4339 108.184 86.6964C108.112 86.9589 108.01 87.1617 108.016 87.4361C108.022 87.6747 108.285 87.8418 108.501 87.7105C109.087 87.3585 109.183 86.3981 108.866 85.8314V85.8373Z" fill="#D0F3F8"/>
<path d="M88.2169 54.8765C88.1331 54.6021 88.2049 54.3694 88.2767 54.1069C88.3545 53.7967 87.9954 53.6237 87.768 53.8146C87.2772 54.2322 87.1994 55.7296 88.0972 55.6759C88.1929 55.6759 88.3066 55.6043 88.3246 55.5029C88.3605 55.2583 88.2827 55.1151 88.2109 54.8825L88.2169 54.8765Z" fill="#D0F3F8"/>
<path d="M74.8458 48.2488C74.2951 48.1534 73.523 48.5948 73.5589 49.2093C73.5709 49.4061 73.8043 49.597 73.9959 49.4598C74.1814 49.3286 74.2652 49.1675 74.4088 49.0005C74.5585 48.8275 74.756 48.7022 74.9236 48.5531C75.0193 48.4696 74.9774 48.2727 74.8458 48.2488Z" fill="#D0F3F8"/>
<path d="M71.9728 106.854C70.6322 106.717 68.1722 107.295 65.8619 106.854C63.5516 106.412 63.4678 108.93 65.8619 110.469C68.256 112.014 72.4217 111.083 73.553 109.711C74.6842 108.333 74.8518 107.152 71.9669 106.854H71.9728Z" fill="#1F93FB"/>
<path d="M80.4719 106.854C79.0953 107.498 80.3881 108.596 82.1837 109.711C83.9793 110.827 86.9001 110.32 86.8103 108.972C86.7205 107.623 85.2063 107.755 83.9972 107.57C82.7882 107.385 81.6091 106.323 80.4719 106.854Z" fill="#1F93FB"/>
<path d="M54.5437 106.394C53.9692 107.218 55.6091 108.226 57.6022 108.518C59.6013 108.81 59.2661 107.695 59.0327 106.806C58.6975 105.523 55.4655 105.07 54.5437 106.394Z" fill="#1F93FB"/>
<path d="M36.9949 92.131C36.0732 93.336 37.0488 94.7856 38.1202 95.0898C39.1915 95.3941 41.2026 94.4754 40.0774 93.6283C38.9521 92.7812 37.8269 91.0452 36.989 92.131H36.9949Z" fill="#1F93FB"/>
<path d="M48.3071 64.3437L47.6727 63.5861C49.3665 62.1723 51.7007 61.4027 53.9572 60.663C54.8909 60.3588 55.8545 60.0366 56.7343 59.6847C57.9793 59.1836 58.7095 58.5811 58.889 57.901C59.0866 57.1613 58.7215 56.2187 57.7638 55.0077C55.8844 52.6215 52.0299 50.8558 51.988 50.8379L52.395 49.9371C52.5626 50.0146 56.5129 51.8162 58.5419 54.3933C59.6971 55.8668 60.128 57.0957 59.8407 58.1515C59.5714 59.1657 58.6736 59.9651 57.0994 60.5974C56.1897 60.9613 55.2141 61.2834 54.2624 61.5936C52.0958 62.3095 49.8513 63.0432 48.3011 64.3377L48.3071 64.3437Z" fill="white"/>
<path d="M53.5322 96.5394C51.6529 96.5394 49.6598 95.8534 48.1694 94.5052C47.4692 93.8728 46.8108 93.2584 46.1943 92.6738C43.5368 90.1802 41.6215 88.3727 39.8798 88.7127C36.151 89.4345 34.7684 90.0251 34.7564 90.0311L34.134 90.2995L34.0622 89.6314C34.0502 89.4942 33.721 86.2191 34.8223 83.5943C35.9236 80.9874 36.971 80.0389 37.0129 79.9971L37.6713 80.7368L37.3421 80.367L37.6713 80.7309C37.6713 80.7309 36.7316 81.6018 35.732 83.9761C35.0018 85.7121 34.9659 87.8417 35.0018 88.8857C35.756 88.6351 37.2224 88.2176 39.6823 87.7403C41.9088 87.3048 43.9857 89.2556 46.8587 91.952C47.4751 92.5306 48.1275 93.1391 48.8218 93.7714C51.2159 95.9309 55.2141 96.1576 57.0576 94.2367L57.7698 94.9228C56.7284 96.0085 55.1662 96.5394 53.5203 96.5394H53.5322Z" fill="white"/>
<path d="M39.7841 88.7246C39.5147 88.7246 39.2993 88.5158 39.2873 88.2474C39.2873 88.0505 39.1975 83.4452 43.5847 79.4125C45.7693 77.4022 45.9848 75.1174 46.0746 74.145C46.2003 72.767 45.1229 71.7171 44.2551 70.8759C44.0995 70.7268 43.9498 70.5836 43.8241 70.4464C43.4471 70.0586 43.0939 69.7484 42.7468 69.4561C41.7053 68.5553 40.8016 67.7798 40.0893 65.3936C39.2215 62.4706 40.2868 60.3707 40.3347 60.2812C40.4604 60.0426 40.7537 59.9472 40.9991 60.0724C41.2385 60.1977 41.3343 60.496 41.2146 60.7346C41.2026 60.7525 40.2868 62.5899 41.041 65.1133C41.6694 67.2191 42.3936 67.8455 43.3932 68.7104C43.7403 69.0087 44.1294 69.3428 44.5364 69.7663C44.6621 69.8916 44.7997 70.0288 44.9494 70.172C45.913 71.1086 47.2357 72.3912 47.0681 74.2285C46.9724 75.2307 46.733 77.8734 44.261 80.1403C40.203 83.8747 40.2809 88.1818 40.2809 88.2235C40.2868 88.498 40.0714 88.7246 39.802 88.7306H39.7841V88.7246Z" fill="white"/>
<path d="M46.5414 73.9481C46.4098 73.9481 46.2841 73.9004 46.1883 73.799C45.9968 73.6021 46.0028 73.2919 46.2003 73.101C47.6966 71.6514 49.971 70.0467 54.2804 70.518C57.0396 70.8162 58.901 68.961 60.541 67.3205L60.6188 67.2429C62.2707 65.5964 65.4669 62.0768 65.5028 62.041C65.6883 61.8382 65.9995 61.8203 66.203 62.0052C66.4065 62.1902 66.4245 62.5004 66.239 62.7032C66.209 62.739 62.9949 66.2765 61.325 67.9409L61.2472 68.0184C59.5355 69.7246 57.3987 71.8423 54.1786 71.4963C50.2942 71.0668 48.3191 72.4269 46.8946 73.8049C46.7988 73.9004 46.6731 73.9422 46.5474 73.9422L46.5414 73.9481Z" fill="white"/>
<path d="M61.9475 57.5789C61.7261 57.5789 61.5226 57.4238 61.4687 57.1971C60.5051 53.1644 57.279 51.846 57.2491 51.8341C56.9977 51.7327 56.872 51.4463 56.9738 51.1958C57.0755 50.9393 57.3628 50.82 57.6142 50.9214C57.7638 50.981 61.349 52.4485 62.4323 56.9763C62.4982 57.2388 62.3306 57.5073 62.0672 57.5729C62.0313 57.5848 61.9894 57.5848 61.9535 57.5848L61.9475 57.5789Z" fill="white"/>
<path d="M58.518 84.865H58.512C58.2366 84.865 58.0212 84.6383 58.0272 84.3639C58.0272 84.346 58.0451 82.8069 57.4765 80.88C57.1533 79.7824 56.5608 79.1262 55.8066 78.3029C55.2859 77.7302 54.6934 77.08 54.1248 76.1852C52.7063 73.9481 53.0594 71.0608 53.0773 70.9356C53.1133 70.6671 53.3646 70.4702 53.634 70.512C53.9033 70.5478 54.0948 70.7924 54.0649 71.0668C54.0649 71.0907 53.7417 73.7274 54.9687 75.6602C55.4894 76.4835 56.0281 77.0681 56.5428 77.6408C57.3149 78.4879 58.0451 79.2872 58.4282 80.6056C59.0387 82.6876 59.0207 84.3161 59.0207 84.3818C59.0207 84.6502 58.7933 84.865 58.5239 84.865H58.518Z" fill="white"/>
<path d="M37.5935 71.4545L36.6059 71.3651C36.6239 71.1682 37.0907 66.5271 40.5681 65.3041L40.8973 66.2348C38.0124 67.2489 37.5995 71.4128 37.5935 71.4545Z" fill="white"/>
<path d="M54.43 94.362C54.43 94.362 54.4001 94.362 54.3881 94.362C54.2684 94.3501 51.4673 94.0995 49.3246 92.3278C47.2776 90.6336 45.0691 88.8439 45.0691 88.8439C44.8596 88.6709 44.8237 88.3607 44.9973 88.1519C45.1708 87.9431 45.4821 87.9073 45.6915 88.0803C45.6915 88.0803 47.9061 89.876 49.9531 91.5702C51.8504 93.1391 54.442 93.3777 54.4659 93.3777C54.7353 93.4016 54.9388 93.6402 54.9148 93.9086C54.8909 94.1651 54.6754 94.362 54.424 94.362H54.43Z" fill="white"/>
<path d="M75.1091 63.9679C74.9296 63.9679 74.762 63.8545 74.7021 63.6756C74.1455 62.053 72.727 61.0806 70.7159 60.9315C69.0461 60.8121 67.7473 60.0903 67.3403 59.0523C67.053 58.3305 67.2385 57.561 67.861 56.8809C69.3094 55.306 71.4402 54.5901 71.5479 54.5544C71.6197 54.6975 71.7993 55.1151 71.8651 55.3597C71.8412 55.3657 69.7942 56.0577 68.5014 57.4655C68.1004 57.901 67.9807 58.3245 68.1483 58.7362C68.4296 59.4401 69.489 59.977 70.7878 60.0724C74.0019 60.3051 75.1391 62.2558 75.5281 63.3952C75.6059 63.6219 75.4862 63.8665 75.2588 63.944C75.2109 63.9619 75.163 63.9679 75.1211 63.9679H75.1091Z" fill="white"/>
<path d="M52.1975 109.007C52.1377 109.007 52.0778 108.995 52.018 108.971C51.7666 108.87 51.6409 108.584 51.7367 108.333C52.6285 106.066 52.3053 105.816 47.7325 103.268C47.2357 102.994 46.6971 102.69 46.1045 102.356C42.8904 100.536 42.6929 96.8735 42.6869 96.7184C42.675 96.444 42.8844 96.2173 43.1598 96.2054C43.4471 96.1875 43.6625 96.4022 43.6745 96.6766C43.6745 96.7065 43.86 99.9576 46.5953 101.503C47.1819 101.837 47.7205 102.135 48.2173 102.409C52.6883 104.903 53.8854 105.571 52.6584 108.697C52.5806 108.894 52.395 109.013 52.1975 109.013V109.007Z" fill="white"/>
<path d="M54.43 104.378C54.2924 104.378 54.1547 104.318 54.0589 104.211C53.3886 103.453 51.8983 102.38 50.0668 101.342C47.9899 100.16 46.0806 98.1859 45.9968 98.1024C45.8053 97.9055 45.8172 97.5953 46.0147 97.4044C46.2122 97.2135 46.5235 97.2254 46.715 97.4163C46.733 97.4342 48.6064 99.373 50.5576 100.483C52.5088 101.586 54.0529 102.708 54.8011 103.561C54.9807 103.764 54.9627 104.08 54.7592 104.259C54.6634 104.342 54.5497 104.384 54.43 104.384V104.378Z" fill="white"/>
<path d="M61.1994 110.636C61.1994 110.636 61.1575 110.636 61.1395 110.636C60.8702 110.6 60.6786 110.355 60.7086 110.087C60.7086 110.063 61.0078 107.45 59.6073 105.464C57.9613 103.131 58.919 99.0091 58.9609 98.8361C59.0267 98.5736 59.2841 98.4066 59.5594 98.4722C59.8228 98.5379 59.9903 98.8003 59.9245 99.0688C59.9125 99.1046 59.0267 102.928 60.4153 104.903C62.0433 107.212 61.7081 110.099 61.6902 110.218C61.6602 110.469 61.4448 110.648 61.1994 110.648V110.636Z" fill="white"/>
<path d="M85.7689 77.8376C84.1469 77.8376 82.3633 76.6505 80.3283 75.2963C79.8255 74.9623 79.3048 74.6163 78.7661 74.2703C76.0548 72.5463 70.4107 72.4031 70.3568 72.4031C70.1174 72.4031 69.9259 72.2003 69.9319 71.9616C69.9319 71.723 70.1174 71.55 70.3748 71.5381C70.6142 71.5381 76.3122 71.6932 79.233 73.5425C79.7717 73.8885 80.2984 74.2345 80.8071 74.5745C82.9079 75.9704 84.7215 77.1814 86.14 76.9428C87.2832 76.7519 88.8094 75.6662 89.797 74.8788C90.0543 75.0875 90.1621 75.2486 90.3716 75.529C89.3182 76.3701 87.6303 77.5692 86.2896 77.7959C86.116 77.8257 85.9425 77.8376 85.7689 77.8376Z" fill="white"/>
<path d="M86.9779 86.4757C86.9779 86.4757 86.954 86.4757 86.942 86.4757C86.6667 86.4578 86.4632 86.2191 86.4811 85.9507C86.4811 85.9328 86.6188 83.9344 86.4692 81.6198C86.3435 79.6869 85.4636 77.6288 85.4577 77.605C85.3499 77.3544 85.4636 77.0621 85.715 76.9547C85.9664 76.8474 86.2597 76.9607 86.3674 77.2113C86.4033 77.3007 87.3191 79.4483 87.4567 81.5482C87.6124 83.9344 87.4747 85.9328 87.4687 86.0163C87.4508 86.2788 87.2353 86.4757 86.9779 86.4757Z" fill="white"/>
<path d="M77.4673 87.3585C77.3057 87.3585 77.1441 87.275 77.0484 87.1259C77.0364 87.102 75.5939 84.8411 73.5649 83.2125C71.4402 81.5124 68.663 79.2216 68.663 79.2216L69.2914 78.464C69.2914 78.464 72.0626 80.7488 74.1814 82.4489C76.3421 84.1789 77.8205 86.5055 77.8863 86.6069C78.0299 86.8395 77.9641 87.1438 77.7307 87.2869C77.6469 87.3406 77.5571 87.3645 77.4673 87.3645V87.3585Z" fill="white"/>
<path d="M39.4309 78.8935C39.9337 79.7943 39.407 81.0351 38.2578 81.6734C37.1087 82.3117 35.768 82.097 35.2712 81.1962C34.7684 80.2954 35.2951 79.0546 36.4443 78.4163C37.5935 77.778 38.9342 77.9927 39.4309 78.8935Z" fill="white"/>
<path d="M38.4913 79.4125C38.7666 79.9076 38.4793 80.5877 37.8448 80.9337C37.2164 81.2797 36.4802 81.1664 36.2049 80.6712C35.9296 80.1761 36.2169 79.496 36.8513 79.15C37.4797 78.804 38.2159 78.9174 38.4913 79.4125Z" fill="#1F93FB"/>
<path d="M38.4913 79.4125C38.7666 79.9076 38.4793 80.5877 37.8448 80.9337C37.2164 81.2797 36.4802 81.1664 36.2049 80.6712C35.9296 80.1761 36.2169 79.496 36.8513 79.15C37.4797 78.804 38.2159 78.9174 38.4913 79.4125Z" fill="#447BE9"/>
<path d="M43.4171 93.2107C44.4466 93.3121 45.1708 94.4515 45.0451 95.758C44.9135 97.0644 43.9797 98.0368 42.9503 97.9354C41.9208 97.8339 41.1966 96.6945 41.3223 95.3881C41.454 94.0817 42.3877 93.1093 43.4171 93.2107Z" fill="white"/>
<path d="M43.3094 94.2785C43.872 94.3322 44.273 94.9586 44.2012 95.6744C44.1294 96.3903 43.6146 96.9212 43.052 96.8675C42.4894 96.8139 42.0884 96.1875 42.1602 95.4716C42.232 94.7558 42.7468 94.2248 43.3094 94.2785Z" fill="#1F93FB"/>
<path d="M43.3094 94.2785C43.872 94.3322 44.273 94.9586 44.2012 95.6744C44.1294 96.3903 43.6146 96.9212 43.052 96.8675C42.4894 96.8139 42.0884 96.1875 42.1602 95.4716C42.232 94.7558 42.7468 94.2248 43.3094 94.2785Z" fill="#447BE9"/>
<path d="M59.0507 91.9341C59.9724 92.3994 60.2776 93.6402 59.733 94.714C59.1883 95.7818 58.0032 96.271 57.0815 95.8057C56.1598 95.3404 55.8545 94.0995 56.3992 93.0257C56.9438 91.9579 58.1289 91.4688 59.0507 91.9341Z" fill="white"/>
<path d="M58.6077 92.811C59.1105 93.0675 59.2781 93.7476 58.9788 94.3322C58.6796 94.9168 58.0332 95.1852 57.5244 94.9287C57.0217 94.6722 56.8541 93.9921 57.1533 93.4075C57.4526 92.8229 58.105 92.5545 58.6077 92.811Z" fill="#1F93FB"/>
<path d="M67.7712 61.7189C68.2739 62.6197 67.7472 63.8605 66.5981 64.4988C65.4489 65.1371 64.1082 64.9224 63.6114 64.0216C63.1087 63.1208 63.6354 61.88 64.7845 61.2417C65.9337 60.6033 67.2744 60.8181 67.7712 61.7189Z" fill="white"/>
<path d="M66.8315 62.2439C67.1068 62.739 66.8195 63.4191 66.1851 63.7651C65.5566 64.1111 64.8204 63.9977 64.5451 63.5026C64.2698 63.0074 64.5571 62.3274 65.1915 61.9814C65.82 61.6354 66.5562 61.7487 66.8315 62.2439Z" fill="#1F93FB"/>
<path d="M77.3835 62.9538C77.9162 63.9142 77.5272 65.1491 76.5157 65.7098C75.4982 66.2706 74.2413 65.9484 73.7086 64.988C73.1759 64.0276 73.5649 62.7927 74.5764 62.2319C75.5939 61.6712 76.8508 61.9933 77.3835 62.9538Z" fill="white"/>
<path d="M76.5516 63.4131C76.8448 63.9381 76.6294 64.6181 76.0727 64.9224C75.5161 65.2326 74.8278 65.0536 74.5345 64.5287C74.2412 64.0037 74.4567 63.3236 75.0133 63.0194C75.57 62.7092 76.2583 62.8882 76.5516 63.4131Z" fill="#1F93FB"/>
<path d="M58.4222 82.6398C59.4517 82.5981 60.3315 83.6241 60.3854 84.9366C60.4392 86.243 59.6432 87.3406 58.6137 87.3824C57.5843 87.4242 56.7044 86.3981 56.6506 85.0857C56.5967 83.7793 57.3927 82.6816 58.4222 82.6398Z" fill="white"/>
<path d="M58.4641 83.7136C59.0267 83.6898 59.5115 84.2565 59.5414 84.9723C59.5714 85.6882 59.1344 86.2907 58.5718 86.3146C58.0092 86.3384 57.5244 85.7717 57.4945 85.0559C57.4646 84.34 57.9015 83.7375 58.4641 83.7136Z" fill="#1F93FB"/>
<path d="M48.7081 64.636C48.7081 65.6621 47.6427 66.4972 46.326 66.4972C45.0092 66.4972 43.9438 65.6621 43.9438 64.636C43.9438 63.6099 45.0092 62.7748 46.326 62.7748C47.6427 62.7748 48.7081 63.6099 48.7081 64.636Z" fill="white"/>
<path d="M47.6308 64.636C47.6308 65.2027 47.0442 65.6561 46.326 65.6561C45.6077 65.6561 45.0212 65.1968 45.0212 64.636C45.0212 64.0752 45.6077 63.6159 46.326 63.6159C47.0442 63.6159 47.6308 64.0752 47.6308 64.636Z" fill="#1F93FB"/>
<path d="M71.9728 71.8065C71.9728 72.8326 71.0331 73.6677 69.872 73.6677C68.7109 73.6677 67.7712 72.8326 67.7712 71.8065C67.7712 70.7805 68.7109 69.9453 69.872 69.9453C71.0331 69.9453 71.9728 70.7805 71.9728 71.8065Z" fill="white"/>
<path d="M71.0212 71.8065C71.0212 72.3732 70.5064 72.8266 69.872 72.8266C69.2376 72.8266 68.7228 72.3673 68.7228 71.8065C68.7228 71.2457 69.2376 70.7864 69.872 70.7864C70.5064 70.7864 71.0212 71.2457 71.0212 71.8065Z" fill="#1F93FB"/>
<path d="M69.7523 76.9011C70.7099 77.2828 71.1409 78.464 70.7099 79.5378C70.279 80.6116 69.1538 81.1783 68.1961 80.7965C67.2385 80.4147 66.8076 79.2336 67.2385 78.1598C67.6694 77.086 68.7947 76.5193 69.7523 76.9011Z" fill="white"/>
<path d="M69.4052 77.778C69.9319 77.9868 70.1653 78.631 69.9319 79.2216C69.6984 79.8122 69.082 80.1164 68.5553 79.9076C68.0285 79.6989 67.7951 79.0546 68.0286 78.464C68.262 77.8734 68.8785 77.5692 69.4052 77.778Z" fill="#1F93FB"/>
<path d="M87.6004 85.8672C88.4802 86.41 88.6957 87.6449 88.0852 88.6292C87.4747 89.6135 86.2657 89.9714 85.3918 89.4345C84.512 88.8917 84.2965 87.6568 84.907 86.6725C85.5175 85.6882 86.7265 85.3303 87.6004 85.8672Z" fill="white"/>
<path d="M87.1036 86.6725C87.5824 86.9708 87.7021 87.6449 87.3669 88.1877C87.0318 88.7246 86.3734 88.9215 85.8886 88.6292C85.4098 88.3309 85.2901 87.6568 85.6252 87.1139C85.9604 86.577 86.6188 86.3802 87.1036 86.6725Z" fill="#1F93FB"/>
<path d="M99.8043 100.089C100.684 100.632 100.9 101.867 100.289 102.851C99.6786 103.835 98.4696 104.193 97.5958 103.656C96.7159 103.113 96.5005 101.879 97.111 100.894C97.7215 99.9099 98.9305 99.552 99.8043 100.089Z" fill="white"/>
<path d="M99.3076 100.894C99.7864 101.192 99.9061 101.867 99.5709 102.409C99.2357 102.946 98.5773 103.143 98.0925 102.851C97.6137 102.553 97.494 101.879 97.8292 101.336C98.1644 100.799 98.8227 100.602 99.3076 100.894Z" fill="#1F93FB"/>
<path d="M95.5488 92.4352C96.4286 92.978 96.6441 94.2129 96.0336 95.1972C95.4231 96.1815 94.2201 96.5394 93.3402 96.0025C92.4604 95.4597 92.2449 94.2248 92.8554 93.2405C93.4659 92.2562 94.675 91.8983 95.5488 92.4352Z" fill="white"/>
<path d="M95.052 93.2405C95.5309 93.5388 95.6506 94.2129 95.3154 94.7557C94.9802 95.2926 94.3218 95.4895 93.837 95.1972C93.3582 94.8989 93.2385 94.2248 93.5737 93.6819C93.9089 93.1451 94.5672 92.9482 95.052 93.2405Z" fill="#1F93FB"/>
<path d="M79.0534 85.5689C79.9333 86.1118 80.1487 87.3466 79.5382 88.3309C78.9277 89.3152 77.7187 89.6732 76.8449 89.1363C75.965 88.5934 75.7496 87.3585 76.36 86.3742C76.9705 85.3899 78.1796 85.032 79.0534 85.5689Z" fill="white"/>
<path d="M78.5566 86.3742C79.0355 86.6725 79.1552 87.3466 78.82 87.8895C78.4848 88.4264 77.8264 88.6232 77.3416 88.3309C76.8628 88.0326 76.7431 87.3585 77.0783 86.8157C77.4134 86.2788 78.0718 86.0819 78.5566 86.3742Z" fill="#1F93FB"/>
<path d="M89.1566 92.4352C90.0364 92.978 90.2519 94.2129 89.6414 95.1972C89.0309 96.1815 87.8218 96.5394 86.948 96.0025C86.0682 95.4597 85.8527 94.2248 86.4632 93.2405C87.0737 92.2562 88.2827 91.8983 89.1566 92.4352Z" fill="white"/>
<path d="M88.6598 93.2405C89.1386 93.5388 89.2583 94.2129 88.9231 94.7557C88.588 95.2926 87.9296 95.4895 87.4448 95.1972C86.96 94.9049 86.8462 94.2248 87.1814 93.6819C87.5166 93.1451 88.175 92.9482 88.6598 93.2405Z" fill="#1F93FB"/>
<path d="M36.3904 70.691C37.4199 70.6671 38.2818 71.7111 38.3117 73.0175C38.3416 74.3299 37.5276 75.4097 36.4982 75.4335C35.4687 75.4574 34.6068 74.4134 34.5769 73.107C34.547 71.7946 35.361 70.7148 36.3904 70.691Z" fill="white"/>
<path d="M36.4144 71.7588C36.977 71.7469 37.4498 72.3196 37.4678 73.0354C37.4857 73.7513 37.0368 74.3478 36.4742 74.3598C35.9116 74.3717 35.4388 73.799 35.4208 73.0832C35.4029 72.3673 35.8518 71.7708 36.4144 71.7588Z" fill="#1F93FB"/>
<path d="M36.4144 71.7588C36.977 71.7469 37.4498 72.3196 37.4678 73.0354C37.4857 73.7513 37.0368 74.3478 36.4742 74.3598C35.9116 74.3717 35.4388 73.799 35.4208 73.0832C35.4029 72.3673 35.8518 71.7708 36.4144 71.7588Z" fill="#447BE9"/>
<path d="M59.709 97.6788C60.7325 97.8041 61.4448 98.8719 61.2951 100.065C61.1455 101.252 60.1938 102.117 59.1704 101.986C58.1469 101.861 57.4346 100.793 57.5843 99.5997C57.7339 98.4126 58.6856 97.5476 59.709 97.6788Z" fill="white"/>
<path d="M59.5893 98.6572C60.1519 98.7287 60.541 99.3134 60.4572 99.9636C60.3734 100.614 59.8527 101.085 59.2901 101.019C58.7274 100.948 58.3384 100.363 58.4222 99.713C58.506 99.0628 59.0267 98.5915 59.5893 98.6572Z" fill="#1F93FB"/>
<path d="M65.0838 95.9727C66.1073 96.098 66.8195 97.1658 66.6699 98.3589C66.5203 99.546 65.5686 100.411 64.5451 100.28C63.5216 100.155 62.8094 99.0867 62.959 97.8936C63.1087 96.7065 64.0603 95.8415 65.0838 95.9727Z" fill="white"/>
<path d="M64.9641 96.9451C65.5267 97.0167 65.9158 97.6013 65.832 98.2515C65.7482 98.9017 65.2275 99.373 64.6648 99.3074C64.1022 99.2358 63.7132 98.6512 63.797 98.001C63.8808 97.3507 64.4015 96.8794 64.9641 96.9451Z" fill="#1F93FB"/>
<path d="M79.1851 110.809C78.9158 110.809 78.6943 110.594 78.6883 110.326C78.6883 110.302 78.6344 108.071 77.5092 105.816C76.4498 103.692 74.9415 103.125 70.6441 102.415C68.2081 102.01 65.6404 99.6773 65.5327 99.5818C65.3292 99.3969 65.3172 99.0867 65.5028 98.8839C65.6883 98.681 65.9995 98.6691 66.203 98.854C66.227 98.8779 68.663 101.085 70.8117 101.443C75.0792 102.153 77.0843 102.738 78.401 105.38C79.628 107.844 79.6819 110.212 79.6819 110.314C79.6819 110.588 79.4664 110.809 79.1971 110.815H79.1911L79.1851 110.809Z" fill="white"/>
<path d="M80.5438 105.983C80.3043 105.983 80.0949 105.81 80.053 105.565C80.053 105.547 79.7597 103.734 78.7661 102.195C77.7786 100.662 76.36 99.6534 75.2348 98.9435C75.0014 98.8003 74.9356 98.4961 75.0792 98.2634C75.2228 98.0308 75.5281 97.9652 75.7615 98.1083C76.9765 98.8719 78.5088 99.9636 79.5981 101.658C80.7054 103.376 81.0166 105.327 81.0286 105.41C81.0705 105.679 80.8849 105.929 80.6156 105.971C80.5916 105.971 80.5617 105.977 80.5378 105.977L80.5438 105.983Z" fill="white"/>
<path d="M88.8274 110.97C88.5939 110.97 88.3844 110.803 88.3425 110.564C88.3366 110.528 87.6842 106.991 87.6363 102.988C87.5884 98.9853 87.5585 95.919 87.5585 95.919C87.5585 95.6446 87.7739 95.4239 88.0493 95.4239C88.3306 95.4358 88.546 95.6386 88.546 95.9131C88.546 95.9131 88.576 98.9733 88.6239 102.976C88.6717 106.884 89.3062 110.35 89.3181 110.379C89.366 110.648 89.1925 110.904 88.9231 110.958C88.8932 110.958 88.8633 110.964 88.8333 110.964L88.8274 110.97Z" fill="white"/>
<path d="M88.3665 106.77C88.0912 106.77 87.8338 106.549 87.8338 106.281C87.8338 106.007 88.0193 105.786 88.2887 105.786H88.3605C89.2942 105.786 91.4848 105.774 93.3103 105.034C95.0341 104.336 97.4102 102.803 97.4342 102.791C97.6616 102.642 97.9728 102.708 98.1165 102.934C98.2661 103.161 98.2003 103.465 97.9728 103.614C97.8711 103.68 95.4949 105.213 93.6814 105.947C91.6763 106.758 89.3541 106.764 88.3605 106.77H88.3665Z" fill="white"/>
<path d="M86.1998 107.009C85.9844 107.009 85.7809 106.866 85.721 106.645C85.6971 106.561 85.1704 104.569 85.1464 102.511C85.1165 100.011 85.0866 98.5378 85.0866 98.5378C85.0866 98.2634 85.296 98.0427 85.5714 98.0367C85.8706 98.0427 86.0681 98.2455 86.0741 98.5199C86.0741 98.5199 86.1041 99.9994 86.134 102.505C86.1579 104.438 86.6727 106.376 86.6786 106.394C86.7505 106.657 86.5949 106.931 86.3315 106.997C86.2896 107.009 86.2477 107.015 86.2058 107.015L86.1998 107.009Z" fill="white"/>
<path d="M88.0732 98.6154C87.8817 98.6154 87.6961 98.5021 87.6183 98.3112C87.5106 98.0606 87.6303 97.7683 87.8817 97.6669C87.9176 97.655 91.2155 96.265 92.8135 94.9168C93.023 94.7379 93.3343 94.7677 93.5138 94.9765C93.6934 95.1853 93.6634 95.4955 93.454 95.6744C91.7422 97.1241 88.4084 98.5259 88.2647 98.5856C88.2049 98.6095 88.139 98.6214 88.0732 98.6214V98.6154Z" fill="white"/>
<path d="M67.9747 48.1892C67.7832 48.1892 67.5976 48.0758 67.5198 47.8849C66.6519 45.797 66.221 44.7411 66.221 44.7411C66.1192 44.4906 66.239 44.1983 66.4963 44.0969C66.7477 43.9954 67.041 44.1147 67.1427 44.3713C67.1427 44.3713 67.5677 45.4272 68.4355 47.5091C68.5433 47.7597 68.4176 48.052 68.1662 48.1534C68.1064 48.1772 68.0405 48.1892 67.9747 48.1892Z" fill="white"/>
<path d="M70.0755 47.3242C70.0755 48.3502 69.1358 49.1854 67.9747 49.1854C66.8135 49.1854 65.8739 48.3502 65.8739 47.3242C65.8739 46.2981 66.8135 45.463 67.9747 45.463C69.1358 45.463 70.0755 46.2981 70.0755 47.3242Z" fill="white"/>
<path d="M69.1239 47.3242C69.1239 47.8909 68.6091 48.3443 67.9747 48.3443C67.3402 48.3443 66.8255 47.8849 66.8255 47.3242C66.8255 46.7634 67.3402 46.3041 67.9747 46.3041C68.6091 46.3041 69.1239 46.7634 69.1239 47.3242Z" fill="#1F93FB"/>
<path d="M80.053 52.7528C78.5207 52.7528 76.785 52.2338 76.5217 52.1562C76.2583 52.0787 76.1147 51.7983 76.1925 51.5418C76.2703 51.2793 76.5456 51.1361 76.8089 51.2137C77.6888 51.4821 80.1966 52.0787 81.2081 51.5716C82.1119 51.1242 83.291 48.8513 83.8237 47.521C83.9254 47.2705 84.2127 47.1452 84.4701 47.2466C84.7215 47.348 84.8472 47.6344 84.7454 47.8909C84.5898 48.2787 83.1892 51.6909 81.657 52.4545C81.2201 52.6692 80.6515 52.7528 80.053 52.7528Z" fill="white"/>
<path d="M84.8352 56.9883C84.7095 56.9883 84.5778 56.9405 84.4821 56.8391C84.4222 56.7795 83.0755 55.3895 83.267 53.6774C83.4406 52.1085 84.5539 49.8595 84.6018 49.7641C84.7215 49.5195 85.0207 49.4181 85.2661 49.5433C85.5115 49.6626 85.6133 49.9609 85.4876 50.2055C85.4756 50.2294 84.4043 52.3948 84.2546 53.7908C84.117 55.0435 85.1823 56.1471 85.1943 56.1531C85.3858 56.35 85.3799 56.6602 85.1883 56.8511C85.0926 56.9465 84.9669 56.9942 84.8412 56.9942L84.8352 56.9883Z" fill="white"/>
<path d="M78.5087 50.5575C79.0414 51.5179 78.6524 52.7528 77.6409 53.3135C76.6234 53.8743 75.3665 53.5521 74.8338 52.5917C74.3011 51.6312 74.6902 50.3964 75.7017 49.8356C76.7192 49.2749 77.9761 49.597 78.5087 50.5575Z" fill="white"/>
<path d="M77.6768 51.0168C77.9701 51.5418 77.7546 52.2218 77.198 52.5261C76.6413 52.8363 75.953 52.6573 75.6598 52.1324C75.3665 51.6074 75.582 50.9273 76.1386 50.6231C76.6952 50.3129 77.3835 50.4919 77.6768 51.0168Z" fill="#1F93FB"/>
<path d="M97.2666 70.6731C95.884 70.6731 94.4176 69.7783 93.448 68.2332C92.3706 66.5151 90.8863 64.2363 90.8863 64.2363L91.7182 63.6994C91.7182 63.6994 93.2146 65.9902 94.2919 67.7082C95.1598 69.0922 96.7578 70.1481 98.1404 69.4979C100.122 68.5673 100.798 67.6903 100.804 67.6784C100.965 67.4637 101.277 67.4159 101.498 67.577C101.72 67.7381 101.767 68.0423 101.606 68.263C101.576 68.3048 100.81 69.3368 98.5654 70.3927C98.1584 70.5836 97.7215 70.6791 97.2786 70.6791L97.2666 70.6731Z" fill="white"/>
<path d="M93.1367 63.3713C93.6694 64.3318 93.2804 65.5666 92.2689 66.1274C91.2514 66.6881 89.9945 66.366 89.4618 65.4056C88.9291 64.4451 89.3181 63.2103 90.3296 62.6495C91.3471 62.0888 92.6041 62.4109 93.1367 63.3713Z" fill="white"/>
<path d="M92.3048 63.8307C92.5981 64.3557 92.3826 65.0357 91.826 65.34C91.2693 65.6502 90.581 65.4712 90.2878 64.9462C89.9945 64.4213 90.2099 63.7412 90.7666 63.437C91.3232 63.1268 92.0115 63.3057 92.3048 63.8307Z" fill="#1F93FB"/>
<path d="M100.792 77.9092C100.792 77.9092 99.2657 75.8153 98.2362 74.4791C96.68 72.4508 96.8895 70.2316 96.9015 70.1362C96.9314 69.8677 97.1768 69.6649 97.4461 69.6947C97.7155 69.7246 97.919 69.9632 97.8891 70.2376C97.8891 70.2555 97.7155 72.1704 99.0263 73.8765C100.062 75.2247 101.594 77.3306 101.594 77.3306L100.792 77.9092Z" fill="white"/>
<path d="M104.168 86.4756C104.12 86.4756 104.066 86.4697 104.018 86.4518C103.755 86.3683 103.611 86.0938 103.695 85.8314C103.701 85.8135 104.329 83.827 104.575 82.5981C104.976 80.6295 104.982 78.47 104.982 78.4461C104.982 78.1717 105.203 77.951 105.478 77.951C105.754 77.951 105.975 78.1717 105.975 78.4461C105.975 78.5356 105.975 80.7249 105.55 82.789C105.293 84.0656 104.67 86.0402 104.64 86.1237C104.575 86.3325 104.377 86.4697 104.168 86.4697V86.4756Z" fill="white"/>
<path d="M109.776 101.318C109.53 101.318 109.315 101.133 109.285 100.882C109.285 100.858 108.998 98.4961 108.405 96.3604C108.022 95.0003 106.867 93.8251 106.861 93.8132C106.669 93.6223 106.669 93.3061 106.861 93.1152C107.052 92.9243 107.37 92.9243 107.561 93.1152C107.615 93.1689 108.908 94.4873 109.357 96.092C109.973 98.3052 110.255 100.668 110.267 100.763C110.297 101.031 110.105 101.276 109.83 101.312C109.812 101.312 109.788 101.312 109.77 101.312L109.776 101.318Z" fill="white"/>
<path d="M102.629 76.0599C103.509 76.6028 103.725 77.8376 103.114 78.8219C102.504 79.8062 101.295 80.1642 100.421 79.6273C99.541 79.0844 99.3255 77.8496 99.936 76.8652C100.547 75.8809 101.75 75.523 102.629 76.0599Z" fill="white"/>
<path d="M102.127 76.8652C102.605 77.1635 102.725 77.8376 102.39 78.3805C102.055 78.9174 101.396 79.1142 100.912 78.8219C100.433 78.5236 100.313 77.8495 100.648 77.3067C100.983 76.7698 101.642 76.5729 102.127 76.8652Z" fill="#1F93FB"/>
<path d="M105.275 83.9164C106.155 84.4593 106.37 85.6942 105.76 86.6785C105.149 87.6628 103.94 88.0207 103.066 87.4838C102.186 86.9409 101.971 85.7061 102.581 84.7218C103.192 83.7375 104.401 83.3795 105.275 83.9164Z" fill="white"/>
<path d="M104.772 84.7218C105.251 85.02 105.371 85.6941 105.035 86.237C104.7 86.7739 104.042 86.9708 103.557 86.6784C103.078 86.3802 102.959 85.7061 103.294 85.1632C103.629 84.6263 104.287 84.4295 104.772 84.7218Z" fill="#1F93FB"/>
<path d="M107.184 92.0176C108.208 91.9042 109.147 92.7454 109.273 93.8967C109.399 95.0481 108.669 96.0681 107.645 96.1815C106.622 96.2948 105.688 95.4537 105.556 94.3024C105.43 93.151 106.161 92.1309 107.184 92.0176Z" fill="white"/>
<path d="M107.292 92.9601C107.855 92.9005 108.363 93.3598 108.435 93.9922C108.507 94.6245 108.106 95.1853 107.543 95.2449C106.981 95.3046 106.472 94.8452 106.4 94.2129C106.328 93.5805 106.729 93.0198 107.292 92.9601Z" fill="#1F93FB"/>
<path d="M69.9797 114.108C69.866 114.108 69.7463 114.108 69.6326 114.108C64.8983 113.971 61.8757 111.316 61.1216 110.57C60.3614 110.88 57.8955 111.62 54.1128 110.153C52.0419 109.347 50.8389 107.856 50.4558 107.325C49.8513 107.373 48.1275 107.409 46.2721 106.418C44.4705 105.458 43.7523 103.96 43.5129 103.316C42.7408 103.394 40.7178 103.4 38.9162 101.586C37.7072 100.363 37.4797 98.7168 37.4379 98.1501C36.9052 97.8101 35.2891 96.6527 34.535 94.6603C33.6851 92.4053 34.0322 90.3174 34.1699 89.6851C33.6791 89.1183 31.9913 86.9767 31.7578 84.2445C31.4466 80.6414 32.3204 78.8756 32.6257 78.3805C32.4701 77.6527 31.8716 74.5089 32.7035 71.8781C33.9185 68.0125 36.7376 66.7895 36.8573 66.7359C37.0368 66.6583 37.2403 66.7478 37.3181 66.9208C37.396 67.0997 37.3122 67.3026 37.1326 67.3801C37.1087 67.392 34.4931 68.5374 33.3798 72.0809C32.512 74.831 33.3439 78.3268 33.3499 78.3626L33.3918 78.5296L33.2901 78.6609C33.2901 78.6609 32.1289 80.2417 32.4701 84.1789C32.7155 87.0662 34.8043 89.3212 34.8283 89.345L34.9659 89.4882L34.9121 89.6791C34.9121 89.6791 34.2956 91.9877 35.2113 94.4097C36.0134 96.5275 37.9466 97.6311 37.9705 97.6371L38.1501 97.7385V97.9413C38.1501 97.9413 38.186 99.8324 39.4309 101.091C41.3762 103.054 43.6027 102.6 43.6925 102.582L44.0276 102.511L44.1114 102.839C44.1114 102.839 44.6142 104.724 46.6193 105.798C48.6722 106.895 50.5695 106.609 50.5875 106.603L50.8209 106.567L50.9466 106.764C50.9466 106.764 52.1197 108.614 54.3821 109.49C58.5658 111.113 61.0198 109.842 61.0437 109.831L61.2891 109.699L61.4747 109.902C61.5046 109.938 64.593 113.249 69.6685 113.392C69.7763 113.392 69.884 113.392 69.9857 113.392C74.9356 113.392 78.9337 110.075 78.9756 110.039L79.2928 109.771L79.5083 110.123C79.5562 110.206 80.7532 112.115 84.0391 112.294C86.8881 112.443 88.546 110.278 88.564 110.254L88.7555 109.998L89.0309 110.159C89.0608 110.177 92.1193 111.954 94.3996 111.531C101.432 110.188 101.301 103.054 101.295 102.982V102.827L101.402 102.72C101.426 102.696 103.665 100.5 103.605 97.2135C103.545 93.9385 100.552 91.6656 100.523 91.6417L100.349 91.5105L100.385 91.2957C100.391 91.248 101.181 86.6307 97.4222 80.534C95.2196 76.9607 89.7611 75.2188 89.7072 75.2009L89.4558 75.1233V74.8608C89.4618 74.8071 89.5635 69.4919 85.5175 65.0715C82.2914 61.5459 77.5092 61.4683 77.4613 61.4624H77.2159L77.1321 61.2297C77.1262 61.2118 76.4379 59.3208 75.2767 57.8175C74.1515 56.3619 71.7993 55.6937 71.7753 55.6878L71.6197 55.646L71.5479 55.5028C71.5299 55.473 70.0635 52.4664 66.5502 51.0287C64.8324 50.3248 62.6897 50.4083 60.1819 51.2793L60.0023 51.3449L59.8527 51.2316C58.105 49.8953 55.5732 50.3188 55.5493 50.3188C55.3577 50.3487 55.1782 50.2234 55.1423 50.0325C55.1064 49.8416 55.238 49.6567 55.4296 49.6268C55.5433 49.6089 58.1469 49.1675 60.128 50.5575C62.7256 49.6805 64.9761 49.6209 66.8195 50.3785C70.1892 51.7625 71.7693 54.4112 72.1165 55.0614C72.6911 55.2404 74.7261 55.9622 75.8333 57.3939C76.8389 58.6884 77.4853 60.2096 77.7067 60.7763C78.7721 60.836 82.9917 61.2774 86.0322 64.6062C89.797 68.7224 90.1381 73.453 90.1621 74.6222C91.2933 75.0159 95.9259 76.7817 98.0207 80.1761C101.522 85.8433 101.235 90.216 101.109 91.2182C101.785 91.7789 104.245 94.022 104.305 97.2075C104.365 100.423 102.474 102.618 101.995 103.125C101.971 104.229 101.54 110.892 94.5253 112.229C92.3766 112.64 89.7611 111.37 88.9291 110.922C88.3725 111.549 86.6487 113.135 83.9972 113.004C81.1243 112.843 79.6639 111.459 79.1372 110.815C78.0958 111.608 74.4687 114.102 69.9977 114.102L69.9797 114.108Z" fill="#3763D5"/>
<path d="M74.2832 87.1378C74.1515 87.1378 74.0138 87.0841 73.9181 86.9768C72.4696 85.3959 70.0815 83.4512 70.0576 83.4333C69.8481 83.2603 69.8122 82.9501 69.9857 82.7413C70.1593 82.5325 70.4705 82.4967 70.68 82.6697C70.7818 82.7532 73.146 84.6741 74.6423 86.3146C74.8278 86.5174 74.8099 86.8276 74.6123 87.0125C74.5166 87.0961 74.3969 87.1438 74.2772 87.1438L74.2832 87.1378Z" fill="white"/>
<path d="M73.8702 130.525L55.7348 121.487C53.7477 120.497 50.5336 120.497 48.5465 121.487L30.4111 130.525C29.4176 131.02 28.9208 131.67 28.9208 132.314V139.7C28.9208 140.35 29.4176 140.994 30.4111 141.489L48.5465 150.527C50.5336 151.517 53.7477 151.517 55.7348 150.527L73.8702 141.489C74.8637 140.994 75.3605 140.344 75.3605 139.7V132.314C75.3605 131.664 74.8637 131.02 73.8702 130.525Z" fill="url(#paint5_linear_2101_493)"/>
<path d="M73.8702 134.11L55.7348 143.148C53.7477 144.138 50.5336 144.138 48.5465 143.148L30.4111 134.11C28.424 133.12 28.424 131.515 30.4111 130.525L48.5465 121.487C50.5336 120.497 53.7477 120.497 55.7348 121.487L73.8702 130.525C75.8573 131.515 75.8573 133.12 73.8702 134.11Z" fill="url(#paint6_linear_2101_493)"/>
<path d="M73.8702 118.982L55.7348 109.944C53.7477 108.954 50.5336 108.954 48.5465 109.944L30.4111 118.982C29.4176 119.477 28.9208 120.127 28.9208 120.771V128.156C28.9208 128.807 29.4176 129.451 30.4111 129.946L48.5465 138.984C50.5336 139.974 53.7477 139.974 55.7348 138.984L73.8702 129.946C74.8637 129.451 75.3605 128.801 75.3605 128.156V120.771C75.3605 120.121 74.8637 119.477 73.8702 118.982Z" fill="url(#paint7_linear_2101_493)"/>
<path d="M73.8702 122.561L55.7348 131.599C53.7477 132.589 50.5336 132.589 48.5465 131.599L30.4111 122.561C28.424 121.571 28.424 119.966 30.4111 118.976L48.5465 109.938C50.5336 108.948 53.7477 108.948 55.7348 109.938L73.8702 118.976C75.8573 119.966 75.8573 121.571 73.8702 122.561Z" fill="url(#paint8_linear_2101_493)"/>
<path d="M73.8702 107.432L55.7348 98.3947C53.7477 97.4044 50.5336 97.4044 48.5465 98.3947L30.4111 107.432C29.4176 107.928 28.9208 108.578 28.9208 109.222V116.607C28.9208 117.258 29.4176 117.902 30.4111 118.397L48.5465 127.435C50.5336 128.425 53.7477 128.425 55.7348 127.435L73.8702 118.397C74.8637 117.902 75.3605 117.252 75.3605 116.607V109.222C75.3605 108.572 74.8637 107.928 73.8702 107.432Z" fill="url(#paint9_linear_2101_493)"/>
<path d="M73.8702 111.018L55.7348 120.055C53.7477 121.046 50.5336 121.046 48.5465 120.055L30.4111 111.018C28.424 110.027 28.424 108.423 30.4111 107.432L48.5465 98.3947C50.5336 97.4044 53.7477 97.4044 55.7348 98.3947L73.8702 107.432C75.8573 108.423 75.8573 110.027 73.8702 111.018Z" fill="url(#paint10_linear_2101_493)"/>
<path d="M63.1506 110.135L53.9572 114.716C52.9517 115.217 51.3177 115.217 50.3122 114.716L41.1188 110.135C40.1133 109.634 40.1133 108.822 41.1188 108.321L50.3122 103.74C51.3177 103.239 52.9517 103.239 53.9572 103.74L63.1506 108.321C64.1561 108.822 64.1561 109.634 63.1506 110.135Z" fill="url(#paint11_linear_2101_493)"/>
<path d="M40.7776 109.92C40.8734 109.842 40.9931 109.771 41.1248 109.705L50.3181 105.124C51.3237 104.623 52.9576 104.623 53.9632 105.124L63.1565 109.705C63.2882 109.771 63.4019 109.842 63.5037 109.92C64.1441 109.425 64.0304 108.751 63.1565 108.321L53.9632 103.74C52.9576 103.239 51.3237 103.239 50.3181 103.74L41.1248 108.321C40.2509 108.757 40.1372 109.425 40.7776 109.92Z" fill="url(#paint12_linear_2101_493)"/>
<path d="M56.9139 122.436C56.447 122.668 56.07 123.235 56.07 123.694C56.07 124.154 56.447 124.345 56.9139 124.112C57.3807 123.879 57.7578 123.313 57.7578 122.853C57.7578 122.394 57.3807 122.203 56.9139 122.436ZM59.7389 121.028C59.2721 121.26 58.895 121.827 58.895 122.286C58.895 122.746 59.2721 122.937 59.7389 122.704C60.2058 122.471 60.5829 121.905 60.5829 121.445C60.5829 120.986 60.2058 120.795 59.7389 121.028ZM62.564 119.62C62.0971 119.853 61.7201 120.419 61.7201 120.879C61.7201 121.338 62.0971 121.529 62.564 121.296C63.0308 121.064 63.4079 120.497 63.4079 120.037C63.4079 119.578 63.0308 119.387 62.564 119.62ZM65.389 118.212C64.9222 118.445 64.5451 119.011 64.5451 119.471C64.5451 119.93 64.9222 120.121 65.389 119.888C65.8559 119.656 66.233 119.089 66.233 118.63C66.233 118.17 65.8559 117.979 65.389 118.212Z" fill="url(#paint13_linear_2101_493)"/>
<path d="M56.9139 133.931C56.447 134.164 56.07 134.73 56.07 135.19C56.07 135.649 56.447 135.84 56.9139 135.607C57.3807 135.375 57.7578 134.808 57.7578 134.349C57.7578 133.889 57.3807 133.698 56.9139 133.931ZM59.7389 132.523C59.2721 132.756 58.895 133.323 58.895 133.782C58.895 134.241 59.2721 134.432 59.7389 134.2C60.2058 133.967 60.5829 133.4 60.5829 132.941C60.5829 132.481 60.2058 132.291 59.7389 132.523ZM62.564 131.115C62.0971 131.348 61.7201 131.915 61.7201 132.374C61.7201 132.833 62.0971 133.024 62.564 132.792C63.0308 132.559 63.4079 131.992 63.4079 131.533C63.4079 131.074 63.0308 130.883 62.564 131.115ZM65.389 129.707C64.9222 129.94 64.5451 130.507 64.5451 130.966C64.5451 131.426 64.9222 131.616 65.389 131.384C65.8559 131.151 66.233 130.584 66.233 130.125C66.233 129.666 65.8559 129.475 65.389 129.707Z" fill="url(#paint14_linear_2101_493)"/>
<path d="M56.9139 145.433C56.447 145.665 56.07 146.232 56.07 146.691C56.07 147.151 56.447 147.341 56.9139 147.109C57.3807 146.876 57.7578 146.309 57.7578 145.85C57.7578 145.391 57.3807 145.2 56.9139 145.433ZM59.7389 144.025C59.2721 144.257 58.895 144.824 58.895 145.283C58.895 145.743 59.2721 145.934 59.7389 145.701C60.2058 145.468 60.5829 144.902 60.5829 144.442C60.5829 143.983 60.2058 143.792 59.7389 144.025ZM62.564 142.617C62.0971 142.849 61.7201 143.416 61.7201 143.876C61.7201 144.335 62.0971 144.526 62.564 144.293C63.0308 144.06 63.4079 143.494 63.4079 143.034C63.4079 142.575 63.0308 142.384 62.564 142.617ZM65.389 141.209C64.9222 141.442 64.5451 142.008 64.5451 142.468C64.5451 142.927 64.9222 143.118 65.389 142.885C65.8559 142.653 66.233 142.086 66.233 141.627C66.233 141.167 65.8559 140.976 65.389 141.209Z" fill="url(#paint15_linear_2101_493)"/>
<defs>
<linearGradient id="paint0_linear_2101_493" x1="3.87846" y1="142.742" x2="126.379" y2="142.742" gradientUnits="userSpaceOnUse">
<stop stop-color="#D3D7F2"/>
<stop offset="0.45" stop-color="#BBC9F8"/>
<stop offset="0.55" stop-color="#D3D7F2"/>
<stop offset="1" stop-color="#F2F3FF"/>
</linearGradient>
<linearGradient id="paint1_linear_2101_493" x1="3.24402" y1="140.529" x2="127.007" y2="140.529" gradientUnits="userSpaceOnUse">
<stop stop-color="#E8EAFB"/>
<stop offset="1" stop-color="white"/>
</linearGradient>
<linearGradient id="paint2_linear_2101_493" x1="77.599" y1="158.085" x2="61.1059" y2="126.376" gradientUnits="userSpaceOnUse">
<stop stop-color="#20ABFF"/>
<stop offset="0.57" stop-color="#0095FF"/>
<stop offset="0.6" stop-color="#3DC0FF"/>
<stop offset="0.9" stop-color="#33BBFF"/>
<stop offset="1" stop-color="#30DCF2"/>
</linearGradient>
<linearGradient id="paint3_linear_2101_493" x1="3.24417" y1="131.67" x2="125.703" y2="131.67" gradientUnits="userSpaceOnUse">
<stop stop-color="#1487FB"/>
<stop offset="1" stop-color="#22D2FD"/>
</linearGradient>
<linearGradient id="paint4_linear_2101_493" x1="10.7615" y1="126.814" x2="59.4696" y2="126.814" gradientUnits="userSpaceOnUse">
<stop stop-color="#20ABFF"/>
<stop offset="0.57" stop-color="#0095FF"/>
<stop offset="0.6" stop-color="#3DC0FF"/>
<stop offset="0.9" stop-color="#33BBFF"/>
<stop offset="1" stop-color="#30DCF2"/>
</linearGradient>
<linearGradient id="paint5_linear_2101_493" x1="29.1542" y1="136.013" x2="75.1211" y2="136.013" gradientUnits="userSpaceOnUse">
<stop stop-color="#D3D7F2"/>
<stop offset="0.45" stop-color="#BBC9F8"/>
<stop offset="0.55" stop-color="#D3D7F2"/>
<stop offset="1" stop-color="#F2F3FF"/>
</linearGradient>
<linearGradient id="paint6_linear_2101_493" x1="-144.304" y1="228.669" x2="-118.964" y2="215.954" gradientUnits="userSpaceOnUse">
<stop stop-color="#E8EAFB"/>
<stop offset="1" stop-color="white"/>
</linearGradient>
<linearGradient id="paint7_linear_2101_493" x1="29.1542" y1="124.464" x2="75.1211" y2="124.464" gradientUnits="userSpaceOnUse">
<stop stop-color="#D3D7F2"/>
<stop offset="0.45" stop-color="#BBC9F8"/>
<stop offset="0.55" stop-color="#D3D7F2"/>
<stop offset="1" stop-color="#F2F3FF"/>
</linearGradient>
<linearGradient id="paint8_linear_2101_493" x1="-137.307" y1="213.695" x2="-111.974" y2="200.983" gradientUnits="userSpaceOnUse">
<stop stop-color="#E8EAFB"/>
<stop offset="1" stop-color="white"/>
</linearGradient>
<linearGradient id="paint9_linear_2101_493" x1="29.1542" y1="112.921" x2="75.1211" y2="112.921" gradientUnits="userSpaceOnUse">
<stop stop-color="#D3D7F2"/>
<stop offset="0.45" stop-color="#BBC9F8"/>
<stop offset="0.55" stop-color="#D3D7F2"/>
<stop offset="1" stop-color="#F2F3FF"/>
</linearGradient>
<linearGradient id="paint10_linear_2101_493" x1="-130.318" y1="198.719" x2="-104.985" y2="186.007" gradientUnits="userSpaceOnUse">
<stop stop-color="#E8EAFB"/>
<stop offset="1" stop-color="white"/>
</linearGradient>
<linearGradient id="paint11_linear_2101_493" x1="40.3646" y1="109.228" x2="63.9107" y2="109.228" gradientUnits="userSpaceOnUse">
<stop stop-color="#20ABFF"/>
<stop offset="0.18" stop-color="#0095FF"/>
<stop offset="0.6" stop-color="#3DC0FF"/>
<stop offset="0.9" stop-color="#33BBFF"/>
<stop offset="1" stop-color="#30DCF2"/>
</linearGradient>
<linearGradient id="paint12_linear_2101_493" x1="40.4903" y1="106.639" x2="63.785" y2="106.639" gradientUnits="userSpaceOnUse">
<stop stop-color="#F2F3FF"/>
<stop offset="0.45" stop-color="#D3D7F2"/>
<stop offset="0.55" stop-color="#BBC9F8"/>
<stop offset="1" stop-color="#D3D7F2"/>
</linearGradient>
<linearGradient id="paint13_linear_2101_493" x1="56.07" y1="121.165" x2="66.227" y2="121.165" gradientUnits="userSpaceOnUse">
<stop stop-color="#20ABFF"/>
<stop offset="0.18" stop-color="#0095FF"/>
<stop offset="0.6" stop-color="#3DC0FF"/>
<stop offset="0.9" stop-color="#33BBFF"/>
<stop offset="1" stop-color="#30DCF2"/>
</linearGradient>
<linearGradient id="paint14_linear_2101_493" x1="56.07" y1="132.66" x2="66.227" y2="132.66" gradientUnits="userSpaceOnUse">
<stop stop-color="#20ABFF"/>
<stop offset="0.18" stop-color="#0095FF"/>
<stop offset="0.6" stop-color="#3DC0FF"/>
<stop offset="0.9" stop-color="#33BBFF"/>
<stop offset="1" stop-color="#30DCF2"/>
</linearGradient>
<linearGradient id="paint15_linear_2101_493" x1="56.07" y1="144.156" x2="66.227" y2="144.156" gradientUnits="userSpaceOnUse">
<stop stop-color="#20ABFF"/>
<stop offset="0.18" stop-color="#0095FF"/>
<stop offset="0.6" stop-color="#3DC0FF"/>
<stop offset="0.9" stop-color="#33BBFF"/>
<stop offset="1" stop-color="#30DCF2"/>
</linearGradient>
</defs>
</svg>
