<svg width="60" height="63" viewBox="0 0 60 63" fill="none" xmlns="http://www.w3.org/2000/svg">
<path d="M30.5879 59.8C22.6504 59.8 16.2129 46.925 16.2129 31.05C16.2129 15.175 22.6504 2.30002 30.5879 2.30002V59.8Z" stroke="white" stroke-width="3" stroke-linecap="round" stroke-linejoin="round"/>
<path d="M30.5879 2.30002C14.7129 2.30002 1.83789 15.175 1.83789 31.05H30.5879V2.30002Z" stroke="white" stroke-width="3" stroke-linecap="round" stroke-linejoin="round"/>
<path d="M1.83789 31.05C1.83789 46.925 14.7129 59.8 30.5879 59.8V31.05H1.83789Z" stroke="white" stroke-width="3" stroke-linecap="round" stroke-linejoin="round"/>
<path d="M9.16272 11.8875C14.4252 14.825 22.0752 16.675 30.5877 16.675V2.30002C22.0752 2.30002 14.4252 6.00002 9.16272 11.8875Z" stroke="white" stroke-width="3" stroke-linecap="round" stroke-linejoin="round"/>
<path d="M9.1626 50.2125C14.4251 56.0875 22.0751 59.8 30.5876 59.8V45.425C22.0751 45.425 14.4251 47.275 9.1626 50.2125Z" stroke="white" stroke-width="3" stroke-linecap="round" stroke-linejoin="round"/>
<path d="M47.375 61.9123C49.1009 61.9123 50.5 60.5132 50.5 58.7873C50.5 57.0614 49.1009 55.6623 47.375 55.6623C45.6491 55.6623 44.25 57.0614 44.25 58.7873C44.25 60.5132 45.6491 61.9123 47.375 61.9123Z" stroke="white" stroke-width="2" stroke-linecap="round" stroke-linejoin="round"/>
<path d="M45.1749 56.5749L42.2249 53.6249H30.6499V53.6499H42.2124L45.1624 56.5999C45.1624 56.5999 45.1624 56.5999 45.1749 56.5874V56.5749Z" stroke="white" stroke-width="2" stroke-linecap="round" stroke-linejoin="round"/>
<path d="M39.6382 11.5999C41.3641 11.5999 42.7632 10.2008 42.7632 8.47491C42.7632 6.74902 41.3641 5.34991 39.6382 5.34991C37.9123 5.34991 36.5132 6.74902 36.5132 8.47491C36.5132 10.2008 37.9123 11.5999 39.6382 11.5999Z" stroke="white" stroke-width="2" stroke-linecap="round" stroke-linejoin="round"/>
<path d="M36.5129 8.46237H30.5879V8.48737H36.5129V8.47487V8.46237Z" stroke="white" stroke-width="2" stroke-linecap="round" stroke-linejoin="round"/>
<path d="M55.038 12.8874C56.7639 12.8874 58.163 11.4883 58.163 9.76242C58.163 8.03653 56.7639 6.63742 55.038 6.63742C53.3121 6.63742 51.913 8.03653 51.913 9.76242C51.913 11.4883 53.3121 12.8874 55.038 12.8874Z" stroke="white" stroke-width="2" stroke-linecap="round" stroke-linejoin="round"/>
<path d="M52.8254 11.9625L47.3004 17.4875H30.5879V17.5125H47.3004L52.8379 11.975C52.8379 11.975 52.8379 11.975 52.8254 11.9625Z" stroke="white" stroke-width="2" stroke-linecap="round" stroke-linejoin="round"/>
<path d="M52.5371 43.8499C54.263 43.8499 55.6621 42.4508 55.6621 40.7249C55.6621 38.9991 54.263 37.5999 52.5371 37.5999C50.8112 37.5999 49.4121 38.9991 49.4121 40.7249C49.4121 42.4508 50.8112 43.8499 52.5371 43.8499Z" stroke="white" stroke-width="2" stroke-linecap="round" stroke-linejoin="round"/>
<path d="M50.3374 38.5124L47.3874 35.5624H30.6499V35.5874H47.3749L50.3249 38.5374C50.3249 38.5374 50.3249 38.5374 50.3374 38.5249V38.5124Z" stroke="white" stroke-width="2" stroke-linecap="round" stroke-linejoin="round"/>
<path d="M48.6748 29.6623C50.4007 29.6623 51.7998 28.2632 51.7998 26.5373C51.7998 24.8114 50.4007 23.4123 48.6748 23.4123C46.9489 23.4123 45.5498 24.8114 45.5498 26.5373C45.5498 28.2632 46.9489 29.6623 48.6748 29.6623Z" stroke="white" stroke-width="2" stroke-linecap="round" stroke-linejoin="round"/>
<path d="M45.5499 26.5248H30.6499V26.5498H45.5499V26.5373V26.5248Z" stroke="white" stroke-width="2" stroke-linecap="round" stroke-linejoin="round"/>
<path d="M42.2124 47.7249C43.9383 47.7249 45.3374 46.3258 45.3374 44.5999C45.3374 42.874 43.9383 41.4749 42.2124 41.4749C40.4865 41.4749 39.0874 42.874 39.0874 44.5999C39.0874 46.3258 40.4865 47.7249 42.2124 47.7249Z" stroke="white" stroke-width="2" stroke-linecap="round" stroke-linejoin="round"/>
<path d="M39.0999 44.5874H30.6499V44.6124H39.0999L39.0874 44.5999L39.0999 44.5874Z" stroke="white" stroke-width="2" stroke-linecap="round" stroke-linejoin="round"/>
</svg>
